%TF.GenerationSoftware,KiCad,Pcbnew,10.0.4-10.0.4~ubuntu25.10.1*%
%TF.CreationDate,Date%
%TF.ProjectId,CanSat_Devboard,43616e53-6174-45f4-9465-76626f617264,+ (Unreleased)*%
%TF.SameCoordinates,Original*%
%TF.FileFunction,Soldermask,Top*%
%TF.FilePolarity,Negative*%
%FSLAX46Y46*%
G04 Gerber Fmt 4.6, Leading zero omitted, Abs format (unit mm)*
G04 Created by KiCad*
%MOMM*%
%LPD*%
G01*
G04 APERTURE LIST*
G04 Aperture macros list*
%AMRoundRect*
0 Rectangle with rounded corners*
0 $1 Rounding radius*
0 $2 $3 $4 $5 $6 $7 $8 $9 X,Y pos of 4 corners*
0 Add a 4 corners polygon primitive as box body*
4,1,4,$2,$3,$4,$5,$6,$7,$8,$9,$2,$3,0*
0 Add four circle primitives for the rounded corners*
1,1,$1+$1,$2,$3*
1,1,$1+$1,$4,$5*
1,1,$1+$1,$6,$7*
1,1,$1+$1,$8,$9*
0 Add four rect primitives between the rounded corners*
20,1,$1+$1,$2,$3,$4,$5,0*
20,1,$1+$1,$4,$5,$6,$7,0*
20,1,$1+$1,$6,$7,$8,$9,0*
20,1,$1+$1,$8,$9,$2,$3,0*%
G04 Aperture macros list end*
%ADD10C,1.100000*%
%ADD11RoundRect,0.102000X0.550000X0.950000X-0.550000X0.950000X-0.550000X-0.950000X0.550000X-0.950000X0*%
%ADD12RoundRect,0.300000X1.450000X-0.312500X1.450000X0.312500X-1.450000X0.312500X-1.450000X-0.312500X0*%
%ADD13RoundRect,0.300000X-1.450000X0.312500X-1.450000X-0.312500X1.450000X-0.312500X1.450000X0.312500X0*%
%ADD14RoundRect,0.275000X-0.225000X-0.250000X0.225000X-0.250000X0.225000X0.250000X-0.225000X0.250000X0*%
%ADD15RoundRect,0.250000X-0.275000X0.200000X-0.275000X-0.200000X0.275000X-0.200000X0.275000X0.200000X0*%
%ADD16RoundRect,0.212500X-0.617500X-0.162500X0.617500X-0.162500X0.617500X0.162500X-0.617500X0.162500X0*%
%ADD17RoundRect,0.050000X-0.850000X-0.850000X0.850000X-0.850000X0.850000X0.850000X-0.850000X0.850000X0*%
%ADD18C,1.800000*%
%ADD19C,0.001000*%
%ADD20RoundRect,0.200000X0.150000X0.425000X-0.150000X0.425000X-0.150000X-0.425000X0.150000X-0.425000X0*%
%ADD21RoundRect,0.125000X0.075000X0.500000X-0.075000X0.500000X-0.075000X-0.500000X0.075000X-0.500000X0*%
%ADD22O,1.100000X2.200000*%
%ADD23O,1.100000X1.900000*%
%ADD24RoundRect,0.300000X0.375000X1.075000X-0.375000X1.075000X-0.375000X-1.075000X0.375000X-1.075000X0*%
%ADD25RoundRect,0.050000X-0.300000X-1.100000X0.300000X-1.100000X0.300000X1.100000X-0.300000X1.100000X0*%
%ADD26RoundRect,0.102000X-1.000000X-0.500000X1.000000X-0.500000X1.000000X0.500000X-1.000000X0.500000X0*%
%ADD27RoundRect,0.102000X-0.500000X-1.000000X0.500000X-1.000000X0.500000X1.000000X-0.500000X1.000000X0*%
%ADD28RoundRect,0.102000X-0.450000X-0.450000X0.450000X-0.450000X0.450000X0.450000X-0.450000X0.450000X0*%
%ADD29RoundRect,0.275000X0.250000X-0.225000X0.250000X0.225000X-0.250000X0.225000X-0.250000X-0.225000X0*%
%ADD30RoundRect,0.275000X-0.250000X0.225000X-0.250000X-0.225000X0.250000X-0.225000X0.250000X0.225000X0*%
%ADD31RoundRect,0.102000X-0.750000X0.400000X-0.750000X-0.400000X0.750000X-0.400000X0.750000X0.400000X0*%
%ADD32RoundRect,0.102000X-0.950000X0.700000X-0.950000X-0.700000X0.950000X-0.700000X0.950000X0.700000X0*%
%ADD33RoundRect,0.102000X-0.700000X0.900000X-0.700000X-0.900000X0.700000X-0.900000X0.700000X0.900000X0*%
%ADD34RoundRect,0.268750X-0.256250X0.218750X-0.256250X-0.218750X0.256250X-0.218750X0.256250X0.218750X0*%
%ADD35RoundRect,0.250000X-0.200000X-0.275000X0.200000X-0.275000X0.200000X0.275000X-0.200000X0.275000X0*%
%ADD36RoundRect,0.050000X-0.381000X0.127000X-0.381000X-0.127000X0.381000X-0.127000X0.381000X0.127000X0*%
%ADD37RoundRect,0.050000X0.127000X0.381000X-0.127000X0.381000X-0.127000X-0.381000X0.127000X-0.381000X0*%
%ADD38RoundRect,0.050000X1.803400X1.803400X-1.803400X1.803400X-1.803400X-1.803400X1.803400X-1.803400X0*%
%ADD39RoundRect,0.300000X-0.600000X-0.725000X0.600000X-0.725000X0.600000X0.725000X-0.600000X0.725000X0*%
%ADD40O,1.800000X2.050000*%
%ADD41RoundRect,0.050000X-0.450000X-0.500000X0.450000X-0.500000X0.450000X0.500000X-0.450000X0.500000X0*%
%ADD42RoundRect,0.250000X0.200000X0.275000X-0.200000X0.275000X-0.200000X-0.275000X0.200000X-0.275000X0*%
%ADD43RoundRect,0.050000X0.500000X-0.450000X0.500000X0.450000X-0.500000X0.450000X-0.500000X-0.450000X0*%
%ADD44RoundRect,0.250000X0.275000X-0.200000X0.275000X0.200000X-0.275000X0.200000X-0.275000X-0.200000X0*%
%ADD45RoundRect,0.050000X-0.500000X0.450000X-0.500000X-0.450000X0.500000X-0.450000X0.500000X0.450000X0*%
%ADD46RoundRect,0.050000X0.850000X0.850000X-0.850000X0.850000X-0.850000X-0.850000X0.850000X-0.850000X0*%
G04 APERTURE END LIST*
D10*
%TO.C,TP10*%
X143827200Y-116118199D03*
%TD*%
D11*
%TO.C,Y1*%
X142715000Y-95349000D03*
X140215000Y-95349000D03*
%TD*%
D12*
%TO.C,L4*%
X145198800Y-112058099D03*
X145198800Y-107783099D03*
%TD*%
D13*
%TO.C,L5*%
X149161200Y-107783099D03*
X149161200Y-112058099D03*
%TD*%
D14*
%TO.C,C12*%
X132345800Y-109971399D03*
X133895800Y-109971399D03*
%TD*%
D15*
%TO.C,R14*%
X138290000Y-117007199D03*
X138290000Y-118657199D03*
%TD*%
D16*
%TO.C,U3*%
X161627000Y-87746200D03*
X161627000Y-88696200D03*
X161627000Y-89646200D03*
X164327000Y-89646200D03*
X164327000Y-88696200D03*
X164327000Y-87746200D03*
%TD*%
D17*
%TO.C,J8*%
X118782800Y-79855000D03*
D18*
X121322800Y-79855000D03*
X118782800Y-82395000D03*
X121322800Y-82395000D03*
X118782800Y-84935000D03*
X121322800Y-84935000D03*
X118782800Y-87475000D03*
X121322800Y-87475000D03*
X118782800Y-90015000D03*
X121322800Y-90015000D03*
X118782800Y-92555000D03*
X121322800Y-92555000D03*
X118782800Y-95095000D03*
X121322800Y-95095000D03*
%TD*%
D15*
%TO.C,R15*%
X139894800Y-117007099D03*
X139894800Y-118657099D03*
%TD*%
D19*
%TO.C,J4*%
X165614800Y-84136400D03*
X159834800Y-84136400D03*
D20*
X165924800Y-85211400D03*
X165124800Y-85211400D03*
D21*
X163974800Y-85211400D03*
X162974800Y-85211400D03*
X162474800Y-85211400D03*
X161474800Y-85211400D03*
D20*
X160324800Y-85211400D03*
X159524800Y-85211400D03*
X159524800Y-85211400D03*
X160324800Y-85211400D03*
D21*
X160974800Y-85211400D03*
X161974800Y-85211400D03*
X163474800Y-85211400D03*
X164474800Y-85211400D03*
D20*
X165124800Y-85211400D03*
X165924800Y-85211400D03*
D22*
X167044800Y-84636400D03*
D23*
X167044800Y-80456400D03*
D22*
X158404800Y-84636400D03*
D23*
X158404800Y-80456400D03*
%TD*%
D24*
%TO.C,L1*%
X151250000Y-95704600D03*
X148450000Y-95704600D03*
%TD*%
D10*
%TO.C,TP8*%
X147230800Y-118158200D03*
%TD*%
D25*
%TO.C,IC1*%
X125869400Y-91197000D03*
X127139400Y-91197000D03*
X128409400Y-91197000D03*
X129679400Y-91197000D03*
X130949400Y-91197000D03*
X132219400Y-91197000D03*
X133489400Y-91197000D03*
X134759400Y-91197000D03*
X130949400Y-80197000D03*
X129679400Y-80197000D03*
X128409400Y-80197000D03*
X127139400Y-80197000D03*
%TD*%
D26*
%TO.C,U1*%
X138775000Y-78787400D03*
X138775000Y-80057400D03*
X138775000Y-81327400D03*
X138775000Y-82597400D03*
X138775000Y-83867400D03*
X138775000Y-85137400D03*
X138775000Y-86407400D03*
X138775000Y-87677400D03*
X138775000Y-88947400D03*
X138775000Y-90217400D03*
D27*
X140835000Y-92817400D03*
D28*
X141465000Y-90717400D03*
D27*
X142105000Y-92817400D03*
D28*
X142735000Y-90717400D03*
D27*
X143375000Y-92817400D03*
D28*
X144005000Y-90717400D03*
D27*
X144645000Y-92817400D03*
D28*
X145275000Y-90717400D03*
D27*
X145915000Y-92817400D03*
D28*
X146545000Y-90717400D03*
D27*
X147185000Y-92817400D03*
D28*
X147815000Y-90717400D03*
D27*
X148455000Y-92817400D03*
D28*
X149085000Y-90717400D03*
D27*
X149725000Y-92817400D03*
D26*
X151775000Y-90217400D03*
X151775000Y-88947400D03*
D28*
X149675000Y-88312400D03*
D26*
X151775000Y-87677400D03*
D28*
X149675000Y-87042400D03*
D26*
X151775000Y-86407400D03*
D28*
X149675000Y-85772400D03*
D26*
X151775000Y-85137400D03*
D28*
X149675000Y-84502400D03*
D26*
X151775000Y-83867400D03*
D28*
X149675000Y-83232400D03*
D26*
X151775000Y-82597400D03*
D28*
X149675000Y-81962400D03*
D26*
X151775000Y-81327400D03*
D28*
X149675000Y-80692400D03*
D26*
X151775000Y-80057400D03*
D28*
X149675000Y-79422400D03*
D26*
X151775000Y-78787400D03*
%TD*%
D29*
%TO.C,C1*%
X140220400Y-98918000D03*
X140220400Y-97368000D03*
%TD*%
D30*
%TO.C,C17*%
X133870400Y-106897399D03*
X133870400Y-108447399D03*
%TD*%
D10*
%TO.C,TP7*%
X151955200Y-104747000D03*
%TD*%
D31*
%TO.C,J5*%
X163461400Y-103279600D03*
X163861400Y-102179600D03*
X163461400Y-101079600D03*
X163261400Y-99979600D03*
X163461400Y-98879600D03*
X163261400Y-97779600D03*
X163461400Y-96679600D03*
X163461400Y-95579600D03*
D32*
X159611400Y-107939600D03*
X160611400Y-94789600D03*
D33*
X173761400Y-102039600D03*
X173761400Y-96389600D03*
%TD*%
D34*
%TO.C,D5*%
X138294600Y-114009899D03*
X138294600Y-115584899D03*
%TD*%
D35*
%TO.C,R12*%
X139751000Y-102935599D03*
X141401000Y-102935599D03*
%TD*%
D10*
%TO.C,TP9*%
X130314400Y-95399800D03*
%TD*%
D14*
%TO.C,C14*%
X145211200Y-113806799D03*
X146761200Y-113806799D03*
%TD*%
D36*
%TO.C,U4*%
X141973000Y-110445998D03*
X141973000Y-109945999D03*
X141973000Y-109446000D03*
X141973000Y-108945999D03*
X141973000Y-108445999D03*
X141973000Y-107945998D03*
X141973000Y-107445999D03*
X141973000Y-106946000D03*
D37*
X141297299Y-106270299D03*
X140797300Y-106270299D03*
X140297301Y-106270299D03*
X139797300Y-106270299D03*
X139297300Y-106270299D03*
X138797299Y-106270299D03*
X138297300Y-106270299D03*
X137797301Y-106270299D03*
D36*
X137121600Y-106946000D03*
X137121600Y-107445999D03*
X137121600Y-107945998D03*
X137121600Y-108445999D03*
X137121600Y-108945999D03*
X137121600Y-109446000D03*
X137121600Y-109945999D03*
X137121600Y-110445998D03*
D37*
X137797301Y-111121699D03*
X138297300Y-111121699D03*
X138797299Y-111121699D03*
X139297300Y-111121699D03*
X139797300Y-111121699D03*
X140297301Y-111121699D03*
X140797300Y-111121699D03*
X141297299Y-111121699D03*
D38*
X139547300Y-108695999D03*
%TD*%
D39*
%TO.C,J3*%
X126493600Y-115423400D03*
D40*
X128993600Y-115423400D03*
X131493600Y-115423400D03*
%TD*%
D14*
%TO.C,C15*%
X139801000Y-104561199D03*
X141351000Y-104561199D03*
%TD*%
D15*
%TO.C,R13*%
X136694400Y-117021999D03*
X136694400Y-118671999D03*
%TD*%
D29*
%TO.C,C2*%
X142735000Y-98930400D03*
X142735000Y-97380400D03*
%TD*%
D34*
%TO.C,FB1*%
X168949800Y-84012400D03*
X168949800Y-85587400D03*
%TD*%
D41*
%TO.C,SW4*%
X118561600Y-116723200D03*
X122661600Y-116723200D03*
X118561600Y-118323200D03*
X122661600Y-118323200D03*
%TD*%
D42*
%TO.C,R11*%
X141401000Y-101386199D03*
X139751000Y-101386199D03*
%TD*%
D30*
%TO.C,C19*%
X130822400Y-106897399D03*
X130822400Y-108447399D03*
%TD*%
D43*
%TO.C,SW5*%
X178295000Y-82242600D03*
X178295000Y-78142600D03*
X179895000Y-82242600D03*
X179895000Y-78142600D03*
%TD*%
D17*
%TO.C,J1*%
X118808200Y-98651000D03*
D18*
X118808200Y-101191000D03*
X118808200Y-103731000D03*
X118808200Y-106271000D03*
%TD*%
D17*
%TO.C,J7*%
X122618200Y-98676400D03*
D18*
X122618200Y-101216400D03*
%TD*%
D30*
%TO.C,C13*%
X135369000Y-103887799D03*
X135369000Y-105437799D03*
%TD*%
D44*
%TO.C,R17*%
X135851600Y-101716399D03*
X135851600Y-100066399D03*
%TD*%
D14*
%TO.C,C11*%
X132346400Y-111647799D03*
X133896400Y-111647799D03*
%TD*%
D30*
%TO.C,C18*%
X132346400Y-106910399D03*
X132346400Y-108460399D03*
%TD*%
D44*
%TO.C,R16*%
X137380200Y-101729599D03*
X137380200Y-100079599D03*
%TD*%
D34*
%TO.C,D6*%
X139894800Y-114009799D03*
X139894800Y-115584799D03*
%TD*%
%TO.C,D4*%
X136700600Y-114009699D03*
X136700600Y-115584699D03*
%TD*%
D45*
%TO.C,SW3*%
X119620800Y-108902000D03*
X119620800Y-113002000D03*
X118020800Y-108902000D03*
X118020800Y-113002000D03*
%TD*%
D29*
%TO.C,C16*%
X151955200Y-113616599D03*
X151955200Y-112066599D03*
%TD*%
D46*
%TO.C,J6*%
X175424800Y-84223800D03*
D18*
X172884800Y-84223800D03*
X175424800Y-81683800D03*
X172884800Y-81683800D03*
X175424800Y-79143800D03*
X172884800Y-79143800D03*
%TD*%
M02*
