%TF.GenerationSoftware,KiCad,Pcbnew,10.0.4-10.0.4~ubuntu25.10.1*%
%TF.CreationDate,Date%
%TF.ProjectId,CanSat_Devboard,43616e53-6174-45f4-9465-76626f617264,+ (Unreleased)*%
%TF.SameCoordinates,Original*%
%TF.FileFunction,Legend,Bot*%
%TF.FilePolarity,Positive*%
%FSLAX46Y46*%
G04 Gerber Fmt 4.6, Leading zero omitted, Abs format (unit mm)*
G04 Created by KiCad*
%MOMM*%
%LPD*%
G01*
G04 APERTURE LIST*
G04 Aperture macros list*
%AMRoundRect*
0 Rectangle with rounded corners*
0 $1 Rounding radius*
0 $2 $3 $4 $5 $6 $7 $8 $9 X,Y pos of 4 corners*
0 Add a 4 corners polygon primitive as box body*
4,1,4,$2,$3,$4,$5,$6,$7,$8,$9,$2,$3,0*
0 Add four circle primitives for the rounded corners*
1,1,$1+$1,$2,$3*
1,1,$1+$1,$4,$5*
1,1,$1+$1,$6,$7*
1,1,$1+$1,$8,$9*
0 Add four rect primitives between the rounded corners*
20,1,$1+$1,$2,$3,$4,$5,0*
20,1,$1+$1,$4,$5,$6,$7,0*
20,1,$1+$1,$6,$7,$8,$9,0*
20,1,$1+$1,$8,$9,$2,$3,0*%
G04 Aperture macros list end*
%ADD10C,0.150000*%
%ADD11C,0.120000*%
%ADD12RoundRect,0.050000X-0.850000X-0.850000X0.850000X-0.850000X0.850000X0.850000X-0.850000X0.850000X0*%
%ADD13C,1.800000*%
%ADD14C,0.001000*%
%ADD15O,1.100000X2.200000*%
%ADD16O,1.100000X1.900000*%
%ADD17RoundRect,0.300000X-0.600000X-0.725000X0.600000X-0.725000X0.600000X0.725000X-0.600000X0.725000X0*%
%ADD18O,1.800000X2.050000*%
%ADD19RoundRect,0.050000X0.850000X0.850000X-0.850000X0.850000X-0.850000X-0.850000X0.850000X-0.850000X0*%
%ADD20RoundRect,0.275000X0.225000X0.250000X-0.225000X0.250000X-0.225000X-0.250000X0.225000X-0.250000X0*%
%ADD21RoundRect,0.250000X0.200000X0.275000X-0.200000X0.275000X-0.200000X-0.275000X0.200000X-0.275000X0*%
G04 APERTURE END LIST*
D10*
X174733866Y-105114980D02*
X174781485Y-105162600D01*
X174781485Y-105162600D02*
X174924342Y-105210219D01*
X174924342Y-105210219D02*
X175019580Y-105210219D01*
X175019580Y-105210219D02*
X175162437Y-105162600D01*
X175162437Y-105162600D02*
X175257675Y-105067361D01*
X175257675Y-105067361D02*
X175305294Y-104972123D01*
X175305294Y-104972123D02*
X175352913Y-104781647D01*
X175352913Y-104781647D02*
X175352913Y-104638790D01*
X175352913Y-104638790D02*
X175305294Y-104448314D01*
X175305294Y-104448314D02*
X175257675Y-104353076D01*
X175257675Y-104353076D02*
X175162437Y-104257838D01*
X175162437Y-104257838D02*
X175019580Y-104210219D01*
X175019580Y-104210219D02*
X174924342Y-104210219D01*
X174924342Y-104210219D02*
X174781485Y-104257838D01*
X174781485Y-104257838D02*
X174733866Y-104305457D01*
X174400532Y-104210219D02*
X173781485Y-104210219D01*
X173781485Y-104210219D02*
X174114818Y-104591171D01*
X174114818Y-104591171D02*
X173971961Y-104591171D01*
X173971961Y-104591171D02*
X173876723Y-104638790D01*
X173876723Y-104638790D02*
X173829104Y-104686409D01*
X173829104Y-104686409D02*
X173781485Y-104781647D01*
X173781485Y-104781647D02*
X173781485Y-105019742D01*
X173781485Y-105019742D02*
X173829104Y-105114980D01*
X173829104Y-105114980D02*
X173876723Y-105162600D01*
X173876723Y-105162600D02*
X173971961Y-105210219D01*
X173971961Y-105210219D02*
X174257675Y-105210219D01*
X174257675Y-105210219D02*
X174352913Y-105162600D01*
X174352913Y-105162600D02*
X174400532Y-105114980D01*
X174657666Y-100689019D02*
X174990999Y-100212828D01*
X175229094Y-100689019D02*
X175229094Y-99689019D01*
X175229094Y-99689019D02*
X174848142Y-99689019D01*
X174848142Y-99689019D02*
X174752904Y-99736638D01*
X174752904Y-99736638D02*
X174705285Y-99784257D01*
X174705285Y-99784257D02*
X174657666Y-99879495D01*
X174657666Y-99879495D02*
X174657666Y-100022352D01*
X174657666Y-100022352D02*
X174705285Y-100117590D01*
X174705285Y-100117590D02*
X174752904Y-100165209D01*
X174752904Y-100165209D02*
X174848142Y-100212828D01*
X174848142Y-100212828D02*
X175229094Y-100212828D01*
X174324332Y-99689019D02*
X173705285Y-99689019D01*
X173705285Y-99689019D02*
X174038618Y-100069971D01*
X174038618Y-100069971D02*
X173895761Y-100069971D01*
X173895761Y-100069971D02*
X173800523Y-100117590D01*
X173800523Y-100117590D02*
X173752904Y-100165209D01*
X173752904Y-100165209D02*
X173705285Y-100260447D01*
X173705285Y-100260447D02*
X173705285Y-100498542D01*
X173705285Y-100498542D02*
X173752904Y-100593780D01*
X173752904Y-100593780D02*
X173800523Y-100641400D01*
X173800523Y-100641400D02*
X173895761Y-100689019D01*
X173895761Y-100689019D02*
X174181475Y-100689019D01*
X174181475Y-100689019D02*
X174276713Y-100641400D01*
X174276713Y-100641400D02*
X174324332Y-100593780D01*
X174656666Y-102263819D02*
X174989999Y-101787628D01*
X175228094Y-102263819D02*
X175228094Y-101263819D01*
X175228094Y-101263819D02*
X174847142Y-101263819D01*
X174847142Y-101263819D02*
X174751904Y-101311438D01*
X174751904Y-101311438D02*
X174704285Y-101359057D01*
X174704285Y-101359057D02*
X174656666Y-101454295D01*
X174656666Y-101454295D02*
X174656666Y-101597152D01*
X174656666Y-101597152D02*
X174704285Y-101692390D01*
X174704285Y-101692390D02*
X174751904Y-101740009D01*
X174751904Y-101740009D02*
X174847142Y-101787628D01*
X174847142Y-101787628D02*
X175228094Y-101787628D01*
X174275713Y-101359057D02*
X174228094Y-101311438D01*
X174228094Y-101311438D02*
X174132856Y-101263819D01*
X174132856Y-101263819D02*
X173894761Y-101263819D01*
X173894761Y-101263819D02*
X173799523Y-101311438D01*
X173799523Y-101311438D02*
X173751904Y-101359057D01*
X173751904Y-101359057D02*
X173704285Y-101454295D01*
X173704285Y-101454295D02*
X173704285Y-101549533D01*
X173704285Y-101549533D02*
X173751904Y-101692390D01*
X173751904Y-101692390D02*
X174323332Y-102263819D01*
X174323332Y-102263819D02*
X173704285Y-102263819D01*
X174620066Y-106708819D02*
X174953399Y-106232628D01*
X175191494Y-106708819D02*
X175191494Y-105708819D01*
X175191494Y-105708819D02*
X174810542Y-105708819D01*
X174810542Y-105708819D02*
X174715304Y-105756438D01*
X174715304Y-105756438D02*
X174667685Y-105804057D01*
X174667685Y-105804057D02*
X174620066Y-105899295D01*
X174620066Y-105899295D02*
X174620066Y-106042152D01*
X174620066Y-106042152D02*
X174667685Y-106137390D01*
X174667685Y-106137390D02*
X174715304Y-106185009D01*
X174715304Y-106185009D02*
X174810542Y-106232628D01*
X174810542Y-106232628D02*
X175191494Y-106232628D01*
X173667685Y-106708819D02*
X174239113Y-106708819D01*
X173953399Y-106708819D02*
X173953399Y-105708819D01*
X173953399Y-105708819D02*
X174048637Y-105851676D01*
X174048637Y-105851676D02*
X174143875Y-105946914D01*
X174143875Y-105946914D02*
X174239113Y-105994533D01*
X174683066Y-103616380D02*
X174730685Y-103664000D01*
X174730685Y-103664000D02*
X174873542Y-103711619D01*
X174873542Y-103711619D02*
X174968780Y-103711619D01*
X174968780Y-103711619D02*
X175111637Y-103664000D01*
X175111637Y-103664000D02*
X175206875Y-103568761D01*
X175206875Y-103568761D02*
X175254494Y-103473523D01*
X175254494Y-103473523D02*
X175302113Y-103283047D01*
X175302113Y-103283047D02*
X175302113Y-103140190D01*
X175302113Y-103140190D02*
X175254494Y-102949714D01*
X175254494Y-102949714D02*
X175206875Y-102854476D01*
X175206875Y-102854476D02*
X175111637Y-102759238D01*
X175111637Y-102759238D02*
X174968780Y-102711619D01*
X174968780Y-102711619D02*
X174873542Y-102711619D01*
X174873542Y-102711619D02*
X174730685Y-102759238D01*
X174730685Y-102759238D02*
X174683066Y-102806857D01*
X173825923Y-103044952D02*
X173825923Y-103711619D01*
X174064018Y-102664000D02*
X174302113Y-103378285D01*
X174302113Y-103378285D02*
X173683066Y-103378285D01*
%TO.C,C3*%
D11*
X177019180Y-104308400D02*
X176738020Y-104308400D01*
X177019180Y-105328400D02*
X176738020Y-105328400D01*
%TO.C,R3*%
X177115858Y-99723900D02*
X176641342Y-99723900D01*
X177115858Y-100768900D02*
X176641342Y-100768900D01*
%TO.C,R2*%
X177102658Y-101247900D02*
X176628142Y-101247900D01*
X177102658Y-102292900D02*
X176628142Y-102292900D01*
%TO.C,R1*%
X177115858Y-105819900D02*
X176641342Y-105819900D01*
X177115858Y-106864900D02*
X176641342Y-106864900D01*
%TO.C,C4*%
X177019180Y-102784400D02*
X176738020Y-102784400D01*
X177019180Y-103804400D02*
X176738020Y-103804400D01*
%TD*%
%LPC*%
D12*
%TO.C,J8*%
X116471400Y-82928400D03*
D13*
X119011400Y-82928400D03*
X116471400Y-85468400D03*
X119011400Y-85468400D03*
X116471400Y-88008400D03*
X119011400Y-88008400D03*
X116471400Y-90548400D03*
X119011400Y-90548400D03*
X116471400Y-93088400D03*
X119011400Y-93088400D03*
X116471400Y-95628400D03*
X119011400Y-95628400D03*
X116471400Y-98168400D03*
X119011400Y-98168400D03*
%TD*%
D14*
%TO.C,J4*%
X163303400Y-87209800D03*
X157523400Y-87209800D03*
D15*
X164733400Y-87709800D03*
D16*
X164733400Y-83529800D03*
D15*
X156093400Y-87709800D03*
D16*
X156093400Y-83529800D03*
%TD*%
D17*
%TO.C,J3*%
X124182200Y-118496800D03*
D18*
X126682200Y-118496800D03*
X129182200Y-118496800D03*
%TD*%
D12*
%TO.C,J1*%
X116496800Y-101724400D03*
D13*
X116496800Y-104264400D03*
X116496800Y-106804400D03*
X116496800Y-109344400D03*
%TD*%
D12*
%TO.C,J7*%
X120306800Y-101749800D03*
D13*
X120306800Y-104289800D03*
%TD*%
D19*
%TO.C,J6*%
X173113400Y-87297200D03*
D13*
X170573400Y-87297200D03*
X173113400Y-84757200D03*
X170573400Y-84757200D03*
X173113400Y-82217200D03*
X170573400Y-82217200D03*
%TD*%
D20*
%TO.C,C3*%
X177653600Y-104818400D03*
X176103600Y-104818400D03*
%TD*%
D21*
%TO.C,R3*%
X177703600Y-100246400D03*
X176053600Y-100246400D03*
%TD*%
%TO.C,R2*%
X177690400Y-101770400D03*
X176040400Y-101770400D03*
%TD*%
%TO.C,R1*%
X177703600Y-106342400D03*
X176053600Y-106342400D03*
%TD*%
D20*
%TO.C,C4*%
X177653600Y-103294400D03*
X176103600Y-103294400D03*
%TD*%
%LPD*%
M02*
