%TF.GenerationSoftware,KiCad,Pcbnew,10.0.4-10.0.4~ubuntu25.10.1*%
%TF.CreationDate,Date%
%TF.ProjectId,CanSat_Devboard,43616e53-6174-45f4-9465-76626f617264,+ (Unreleased)*%
%TF.SameCoordinates,Original*%
%TF.FileFunction,Copper,L4,Bot*%
%TF.FilePolarity,Positive*%
%FSLAX46Y46*%
G04 Gerber Fmt 4.6, Leading zero omitted, Abs format (unit mm)*
G04 Created by KiCad*
%MOMM*%
%LPD*%
G01*
G04 APERTURE LIST*
G04 Aperture macros list*
%AMRoundRect*
0 Rectangle with rounded corners*
0 $1 Rounding radius*
0 $2 $3 $4 $5 $6 $7 $8 $9 X,Y pos of 4 corners*
0 Add a 4 corners polygon primitive as box body*
4,1,4,$2,$3,$4,$5,$6,$7,$8,$9,$2,$3,0*
0 Add four circle primitives for the rounded corners*
1,1,$1+$1,$2,$3*
1,1,$1+$1,$4,$5*
1,1,$1+$1,$6,$7*
1,1,$1+$1,$8,$9*
0 Add four rect primitives between the rounded corners*
20,1,$1+$1,$2,$3,$4,$5,0*
20,1,$1+$1,$4,$5,$6,$7,0*
20,1,$1+$1,$6,$7,$8,$9,0*
20,1,$1+$1,$8,$9,$2,$3,0*%
G04 Aperture macros list end*
%TA.AperFunction,ComponentPad*%
%ADD10R,1.700000X1.700000*%
%TD*%
%TA.AperFunction,ComponentPad*%
%ADD11C,1.700000*%
%TD*%
%TA.AperFunction,ComponentPad*%
%ADD12O,1.000000X2.100000*%
%TD*%
%TA.AperFunction,ComponentPad*%
%ADD13O,1.000000X1.800000*%
%TD*%
%TA.AperFunction,ComponentPad*%
%ADD14RoundRect,0.250000X-0.600000X-0.725000X0.600000X-0.725000X0.600000X0.725000X-0.600000X0.725000X0*%
%TD*%
%TA.AperFunction,ComponentPad*%
%ADD15O,1.700000X1.950000*%
%TD*%
%TA.AperFunction,SMDPad,CuDef*%
%ADD16RoundRect,0.225000X0.225000X0.250000X-0.225000X0.250000X-0.225000X-0.250000X0.225000X-0.250000X0*%
%TD*%
%TA.AperFunction,SMDPad,CuDef*%
%ADD17RoundRect,0.200000X0.200000X0.275000X-0.200000X0.275000X-0.200000X-0.275000X0.200000X-0.275000X0*%
%TD*%
%TA.AperFunction,ViaPad*%
%ADD18C,0.550000*%
%TD*%
%TA.AperFunction,ViaPad*%
%ADD19C,0.700000*%
%TD*%
%TA.AperFunction,Conductor*%
%ADD20C,0.254000*%
%TD*%
%TA.AperFunction,Conductor*%
%ADD21C,0.200000*%
%TD*%
%TA.AperFunction,Conductor*%
%ADD22C,0.300000*%
%TD*%
G04 APERTURE END LIST*
D10*
%TO.P,J8,1,Pin_1_1*%
%TO.N,+3.3V*%
X118782800Y-79855000D03*
D11*
%TO.P,J8,2,Pin_2_2*%
%TO.N,GND*%
X121322800Y-79855000D03*
%TO.P,J8,3,Pin_3_3*%
%TO.N,1.06*%
X118782800Y-82395000D03*
%TO.P,J8,4,Pin_4_4*%
%TO.N,1.04*%
X121322800Y-82395000D03*
%TO.P,J8,5,Pin_5_5*%
%TO.N,1.02*%
X118782800Y-84935000D03*
%TO.P,J8,6,Pin_6_6*%
%TO.N,1.00*%
X121322800Y-84935000D03*
%TO.P,J8,7,Pin_7_7*%
%TO.N,0.22*%
X118782800Y-87475000D03*
%TO.P,J8,8,Pin_8_8*%
%TO.N,0.20*%
X121322800Y-87475000D03*
%TO.P,J8,9,Pin_9_9*%
%TO.N,0.17*%
X118782800Y-90015000D03*
%TO.P,J8,10,Pin_10_10*%
%TO.N,0.15*%
X121322800Y-90015000D03*
%TO.P,J8,11,Pin_11_11*%
%TO.N,0.07*%
X118782800Y-92555000D03*
%TO.P,J8,12,Pin_12_12*%
%TO.N,0.12*%
X121322800Y-92555000D03*
%TO.P,J8,13,Pin_13_13*%
%TO.N,0.04*%
X118782800Y-95095000D03*
%TO.P,J8,14,Pin_14_14*%
%TO.N,0.08*%
X121322800Y-95095000D03*
%TD*%
D12*
%TO.P,J4,SH*%
%TO.N,GND*%
X167044800Y-84636400D03*
D13*
X167044800Y-80456400D03*
D12*
X158404800Y-84636400D03*
D13*
X158404800Y-80456400D03*
%TD*%
D14*
%TO.P,J3,1,Pin_1_1*%
%TO.N,NTC*%
X126493600Y-115423400D03*
D15*
%TO.P,J3,2,Pin_2_2*%
%TO.N,GND*%
X128993600Y-115423400D03*
%TO.P,J3,3,Pin_3_3*%
%TO.N,VBAT*%
X131493600Y-115423400D03*
%TD*%
D10*
%TO.P,J1,1,Pin_1_1*%
%TO.N,+3.3V*%
X118808200Y-98651000D03*
D11*
%TO.P,J1,2,Pin_2_2*%
%TO.N,GND*%
X118808200Y-101191000D03*
%TO.P,J1,3,Pin_3_3*%
%TO.N,SDA*%
X118808200Y-103731000D03*
%TO.P,J1,4,Pin_4_4*%
%TO.N,SCL*%
X118808200Y-106271000D03*
%TD*%
D10*
%TO.P,J7,1,Pin_1_1*%
%TO.N,RMF*%
X122618200Y-98676400D03*
D11*
%TO.P,J7,2,Pin_2_2*%
%TO.N,GND*%
X122618200Y-101216400D03*
%TD*%
D10*
%TO.P,J6,1,Pin_1_1*%
%TO.N,+3V3*%
X175424800Y-84223800D03*
D11*
%TO.P,J6,2,Pin_2_2*%
%TO.N,SWDIO*%
X172884800Y-84223800D03*
%TO.P,J6,3,Pin_3_3*%
%TO.N,RST*%
X175424800Y-81683800D03*
%TO.P,J6,4,Pin_4_4*%
%TO.N,SWDCLK*%
X172884800Y-81683800D03*
%TO.P,J6,5,Pin_5_5*%
%TO.N,GND*%
X175424800Y-79143800D03*
%TO.P,J6,6,Pin_6_6*%
%TO.N,unconnected-(J6-Pin_6-Pad6)*%
X172884800Y-79143800D03*
%TD*%
D16*
%TO.P,C3,1*%
%TO.N,GND*%
X179965000Y-101745000D03*
%TO.P,C3,2*%
%TO.N,+3.3V*%
X178415000Y-101745000D03*
%TD*%
D17*
%TO.P,R3,1*%
%TO.N,+3.3V*%
X180015000Y-97173000D03*
%TO.P,R3,2*%
%TO.N,CS*%
X178365000Y-97173000D03*
%TD*%
%TO.P,R2,1*%
%TO.N,+3.3V*%
X180001800Y-98697000D03*
%TO.P,R2,2*%
%TO.N,MOSI*%
X178351800Y-98697000D03*
%TD*%
%TO.P,R1,1*%
%TO.N,+3.3V*%
X180015000Y-103269000D03*
%TO.P,R1,2*%
%TO.N,MISO*%
X178365000Y-103269000D03*
%TD*%
D16*
%TO.P,C4,1*%
%TO.N,GND*%
X179965000Y-100221000D03*
%TO.P,C4,2*%
%TO.N,+3.3V*%
X178415000Y-100221000D03*
%TD*%
D18*
%TO.N,VMCU*%
X148450000Y-97889000D03*
X148450000Y-100937000D03*
%TO.N,GND*%
X166509400Y-89075200D03*
X144106600Y-99286000D03*
X154469800Y-78381800D03*
X149161200Y-100606800D03*
X145656000Y-95171200D03*
X124955000Y-115491200D03*
X117766800Y-78102400D03*
X151142400Y-111097000D03*
X140347400Y-120063200D03*
X148119800Y-109852400D03*
X120637000Y-118310600D03*
X146011600Y-103604000D03*
X139001200Y-117751800D03*
X127672800Y-114119600D03*
X143725600Y-105864600D03*
X150558200Y-91285000D03*
X161988200Y-100759200D03*
X120103600Y-95882400D03*
X120586200Y-113967200D03*
X154190400Y-92936000D03*
X150532800Y-113256000D03*
X174154800Y-82090200D03*
X179189000Y-100945400D03*
X125209000Y-96542800D03*
X134073600Y-94714000D03*
X140423600Y-78356400D03*
X179895200Y-80185200D03*
X120052800Y-85468400D03*
X140753800Y-116278600D03*
X152666400Y-96974600D03*
X123735800Y-96822200D03*
X154317400Y-83334800D03*
X159778400Y-88694200D03*
X127876000Y-109217400D03*
X136994600Y-92402600D03*
X155943000Y-95247400D03*
X135572200Y-113637000D03*
X137274000Y-90370600D03*
X165899800Y-86916200D03*
X156070000Y-103273800D03*
X157492400Y-100657600D03*
X144970200Y-85697000D03*
X135800800Y-117828000D03*
X180250800Y-120164800D03*
X135800800Y-116304000D03*
X165549200Y-104933200D03*
X125767800Y-110766800D03*
X126174200Y-104416800D03*
X137477200Y-114805400D03*
X120052800Y-90548400D03*
X162140600Y-93723400D03*
X147434000Y-106753600D03*
X153377600Y-80998000D03*
X176644000Y-82750600D03*
X120383000Y-110970000D03*
X142658800Y-116202400D03*
X120052800Y-93088400D03*
X170370200Y-83588800D03*
X147154600Y-94663200D03*
X142658800Y-113154400D03*
X133057600Y-114373600D03*
X149847000Y-94434600D03*
X126910800Y-94764800D03*
X119570200Y-104924800D03*
X174197400Y-96424200D03*
X120027400Y-88059200D03*
X172173600Y-80413800D03*
X156476400Y-80998000D03*
X157568600Y-95704600D03*
X143243000Y-114551400D03*
X129069800Y-105483600D03*
X120078200Y-82928400D03*
X179163600Y-97948200D03*
X121221200Y-98905000D03*
X150101000Y-78356400D03*
X156044600Y-99336800D03*
X118300200Y-110843000D03*
X179895200Y-83817400D03*
X128866600Y-92910600D03*
X133997400Y-112671800D03*
X140931600Y-114780000D03*
X130187400Y-110741400D03*
X150380400Y-106601200D03*
X122313400Y-106855200D03*
%TO.N,VBUS*%
X131203400Y-110817600D03*
X156730400Y-96034800D03*
%TO.N,VSYS*%
X139509200Y-112663799D03*
X140804600Y-118666200D03*
X134988000Y-108445999D03*
X145376600Y-108844000D03*
X129755600Y-108447399D03*
%TO.N,+3.3V*%
X141846000Y-112485999D03*
X155206400Y-99971800D03*
X177030000Y-100234200D03*
%TO.N,1.06*%
X148577000Y-79423200D03*
%TO.N,1.04*%
X148577000Y-80693200D03*
%TO.N,1.02*%
X148577000Y-81963200D03*
%TO.N,1.00*%
X148577000Y-83233200D03*
%TO.N,0.22*%
X148577000Y-84503200D03*
%TO.N,0.20*%
X148577000Y-85773200D03*
%TO.N,0.17*%
X148577000Y-87043200D03*
%TO.N,0.15*%
X148577000Y-88313200D03*
%TO.N,0.07*%
X147815000Y-89583200D03*
%TO.N,0.12*%
X146545000Y-89583200D03*
%TO.N,0.04*%
X145275000Y-89583200D03*
%TO.N,0.08*%
X144005000Y-89583200D03*
%TO.N,CC1*%
X165493400Y-91183400D03*
X137121600Y-111088999D03*
X164784800Y-86766800D03*
X155104800Y-94841000D03*
%TO.N,CC2*%
X160159400Y-86763800D03*
X164604400Y-91183400D03*
X136029400Y-110428599D03*
X154215800Y-94790200D03*
%TO.N,SDA*%
X125437600Y-103731000D03*
D19*
X136359600Y-91691400D03*
D18*
X138747200Y-103951599D03*
D19*
%TO.N,SCL*%
X138645600Y-91691400D03*
D18*
X138785300Y-102414899D03*
X125488801Y-106219799D03*
%TO.N,SW0*%
X121170400Y-108912600D03*
X141465000Y-89583200D03*
%TO.N,RMF*%
X142735000Y-89583200D03*
%TO.N,BM_INT*%
X144005000Y-94612400D03*
X141973000Y-106364599D03*
%TO.N,BM_RST*%
X145046400Y-94612400D03*
X142811200Y-106321800D03*
%TO.N,RST*%
X157390800Y-90091200D03*
%TO.N,VBUSOUT*%
X153428400Y-91691400D03*
X135013400Y-112773400D03*
%TO.N,MISO*%
X177030000Y-103282200D03*
D19*
X153581600Y-85137400D03*
D18*
%TO.N,SCK*%
X176990400Y-101112000D03*
D19*
X153581600Y-83867400D03*
%TO.N,MOSI*%
X153581600Y-80057400D03*
D18*
X177004600Y-98710200D03*
D19*
%TO.N,CS*%
X153581600Y-78787400D03*
D18*
X177004600Y-97186200D03*
%TO.N,Net-(U4A-SHPHLD)*%
X123964400Y-116685000D03*
X138662300Y-100174299D03*
%TO.N,NTC*%
X136029400Y-106821799D03*
%TD*%
%TO.N,VMCU*%
D20*
X148450000Y-100937000D02*
X148450000Y-97889000D01*
%TO.N,GND*%
D21*
X179900200Y-100945400D02*
X179925600Y-100970800D01*
X179189000Y-100945400D02*
X179900200Y-100945400D01*
%TO.N,VBUS*%
D20*
X139654000Y-119268200D02*
X141053957Y-119268200D01*
X131203400Y-110817600D02*
X139654000Y-119268200D01*
X156730400Y-103591757D02*
X156730400Y-96034800D01*
X141053957Y-119268200D02*
X156730400Y-103591757D01*
%TO.N,VSYS*%
X136148399Y-112663799D02*
X131931999Y-108447399D01*
X142529601Y-111690999D02*
X145376600Y-108844000D01*
X131931999Y-108447399D02*
X129755600Y-108447399D01*
X139509200Y-117370800D02*
X139509200Y-112663799D01*
X134988000Y-108445999D02*
X134988000Y-110238556D01*
X134988000Y-110238556D02*
X136440443Y-111690999D01*
X140804600Y-118666200D02*
X139509200Y-117370800D01*
X139509200Y-112663799D02*
X136148399Y-112663799D01*
X136440443Y-111690999D02*
X142529601Y-111690999D01*
%TO.N,+3.3V*%
D22*
X179939000Y-103269000D02*
X178415000Y-101745000D01*
X178415000Y-100221000D02*
X177043200Y-100221000D01*
X178415000Y-101745000D02*
X178415000Y-100221000D01*
D20*
X142692201Y-112485999D02*
X155206400Y-99971800D01*
D22*
X177043200Y-100221000D02*
X177030000Y-100234200D01*
X180001800Y-98697000D02*
X180001800Y-97186200D01*
D20*
X141846000Y-112485999D02*
X142692201Y-112485999D01*
D22*
X178477800Y-100221000D02*
X180001800Y-98697000D01*
%TO.N,1.06*%
D20*
X120145800Y-81032000D02*
X118782800Y-82395000D01*
X123685000Y-79423200D02*
X122076200Y-81032000D01*
X148577000Y-79423200D02*
X123685000Y-79423200D01*
X122076200Y-81032000D02*
X120145800Y-81032000D01*
%TO.N,1.04*%
X124167600Y-80261400D02*
X122034000Y-82395000D01*
X126326600Y-80261400D02*
X124167600Y-80261400D01*
X148145200Y-80261400D02*
X126326600Y-80261400D01*
X122034000Y-82395000D02*
X121322800Y-82395000D01*
X148577000Y-80693200D02*
X148145200Y-80261400D01*
%TO.N,1.02*%
X120145800Y-83572000D02*
X118782800Y-84935000D01*
X148577000Y-81963200D02*
X147637200Y-81023400D01*
X124624800Y-81023400D02*
X122076200Y-83572000D01*
X122076200Y-83572000D02*
X120145800Y-83572000D01*
X147637200Y-81023400D02*
X124624800Y-81023400D01*
%TO.N,1.00*%
X147129200Y-81785400D02*
X125285200Y-81785400D01*
X148577000Y-83233200D02*
X147129200Y-81785400D01*
X125285200Y-81785400D02*
X122135600Y-84935000D01*
X122135600Y-84935000D02*
X121322800Y-84935000D01*
%TO.N,0.22*%
X125996400Y-82547400D02*
X122431800Y-86112000D01*
X146621200Y-82547400D02*
X125996400Y-82547400D01*
X120145800Y-86112000D02*
X118782800Y-87475000D01*
X122431800Y-86112000D02*
X120145800Y-86112000D01*
X148577000Y-84503200D02*
X146621200Y-82547400D01*
%TO.N,0.20*%
X146113200Y-83309400D02*
X126631400Y-83309400D01*
X148577000Y-85773200D02*
X146113200Y-83309400D01*
X122465800Y-87475000D02*
X121322800Y-87475000D01*
X126631400Y-83309400D02*
X122465800Y-87475000D01*
%TO.N,0.17*%
X122669000Y-88668800D02*
X120129000Y-88668800D01*
X127266400Y-84071400D02*
X122669000Y-88668800D01*
X120129000Y-88668800D02*
X118782800Y-90015000D01*
X145605200Y-84071400D02*
X127266400Y-84071400D01*
X148577000Y-87043200D02*
X145605200Y-84071400D01*
%TO.N,0.15*%
X148577000Y-88313200D02*
X145097200Y-84833400D01*
X145097200Y-84833400D02*
X127926800Y-84833400D01*
X122745200Y-90015000D02*
X121322800Y-90015000D01*
X127926800Y-84833400D02*
X122745200Y-90015000D01*
%TO.N,0.07*%
X143827200Y-85595400D02*
X128561800Y-85595400D01*
X128561800Y-85595400D02*
X122965200Y-91192000D01*
X120145800Y-91192000D02*
X118782800Y-92555000D01*
X147815000Y-89583200D02*
X143827200Y-85595400D01*
X122965200Y-91192000D02*
X120145800Y-91192000D01*
%TO.N,0.12*%
X123075400Y-92555000D02*
X121322800Y-92555000D01*
X146545000Y-89583200D02*
X143319200Y-86357400D01*
X129273000Y-86357400D02*
X123075400Y-92555000D01*
X143319200Y-86357400D02*
X129273000Y-86357400D01*
%TO.N,0.04*%
X129908000Y-87119400D02*
X123295400Y-93732000D01*
X120145800Y-93732000D02*
X118782800Y-95095000D01*
X142811200Y-87119400D02*
X129908000Y-87119400D01*
X123295400Y-93732000D02*
X120145800Y-93732000D01*
X145275000Y-89583200D02*
X142811200Y-87119400D01*
%TO.N,0.08*%
X144005000Y-89583200D02*
X142303200Y-87881400D01*
X130365200Y-87881400D02*
X123151600Y-95095000D01*
X142303200Y-87881400D02*
X130365200Y-87881400D01*
X123151600Y-95095000D02*
X121322800Y-95095000D01*
%TO.N,CC1*%
X142209601Y-111088999D02*
X137121600Y-111088999D01*
X155104800Y-98193800D02*
X142209601Y-111088999D01*
X165493400Y-87475400D02*
X165493400Y-91183400D01*
X164784800Y-86766800D02*
X165493400Y-87475400D01*
X155104800Y-94841000D02*
X155104800Y-98193800D01*
%TO.N,CC2*%
X142057201Y-110428599D02*
X136029400Y-110428599D01*
X164579000Y-91183400D02*
X164604400Y-91183400D01*
X160159400Y-86763800D02*
X164579000Y-91183400D01*
X154215800Y-94790200D02*
X154215800Y-98270000D01*
X154215800Y-98270000D02*
X142057201Y-110428599D01*
%TO.N,SDA*%
X136359600Y-91691400D02*
X136317600Y-91733400D01*
X136317600Y-101521999D02*
X138747200Y-103951599D01*
X136317600Y-91733400D02*
X136317600Y-101521999D01*
X138526601Y-103731000D02*
X125437600Y-103731000D01*
X138747200Y-103951599D02*
X138526601Y-103731000D01*
%TO.N,SCL*%
X125488801Y-106219799D02*
X125463000Y-106245600D01*
X138785300Y-102414899D02*
X139349200Y-102978799D01*
X139349200Y-102978799D02*
X139349200Y-104200956D01*
X126961600Y-104747000D02*
X125488801Y-106219799D01*
X138803156Y-104747000D02*
X126961600Y-104747000D01*
X139349200Y-104200956D02*
X138803156Y-104747000D01*
X136994600Y-93342400D02*
X136994600Y-100624199D01*
X138645600Y-91691400D02*
X136994600Y-93342400D01*
X136994600Y-100624199D02*
X138785300Y-102414899D01*
%TO.N,SW0*%
X141465000Y-89583200D02*
X131076400Y-89583200D01*
X124472400Y-105610600D02*
X121170400Y-108912600D01*
X131076400Y-89583200D02*
X124472400Y-96187200D01*
X124472400Y-96187200D02*
X124472400Y-105610600D01*
%TO.N,RMF*%
X122618200Y-96796800D02*
X122618200Y-98676400D01*
X141795200Y-88643400D02*
X130771600Y-88643400D01*
X130771600Y-88643400D02*
X122618200Y-96796800D01*
X142735000Y-89583200D02*
X141795200Y-88643400D01*
%TO.N,BM_INT*%
X141973000Y-106364599D02*
X141973000Y-96644400D01*
X141973000Y-96644400D02*
X144005000Y-94612400D01*
%TO.N,BM_RST*%
X143014400Y-96644400D02*
X145046400Y-94612400D01*
X143014400Y-106118600D02*
X143014400Y-96644400D01*
X142811200Y-106321800D02*
X143014400Y-106118600D01*
%TO.N,RST*%
X174129400Y-82979200D02*
X175424800Y-81683800D01*
X157390800Y-88681043D02*
X163092643Y-82979200D01*
X157390800Y-90091200D02*
X157390800Y-88681043D01*
X163092643Y-82979200D02*
X174129400Y-82979200D01*
%TO.N,VBUSOUT*%
X153428400Y-97309956D02*
X153428400Y-91691400D01*
X128968200Y-108023600D02*
X129517201Y-107474599D01*
X128968200Y-108785600D02*
X128968200Y-108023600D01*
X135013400Y-112773400D02*
X131889200Y-109649200D01*
X143263757Y-107474599D02*
X153428400Y-97309956D01*
X129831800Y-109649200D02*
X128968200Y-108785600D01*
X129517201Y-107474599D02*
X143263757Y-107474599D01*
X131889200Y-109649200D02*
X129831800Y-109649200D01*
%TO.N,MISO*%
D22*
X166213000Y-103282200D02*
X153581600Y-90650800D01*
X177030000Y-103282200D02*
X166213000Y-103282200D01*
X153581600Y-90650800D02*
X153581600Y-85137400D01*
X178365000Y-103269000D02*
X177043200Y-103269000D01*
X177043200Y-103269000D02*
X177030000Y-103282200D01*
%TO.N,SCK*%
X154281600Y-84567400D02*
X153581600Y-83867400D01*
X154281600Y-90258600D02*
X154281600Y-84567400D01*
X176990400Y-101112000D02*
X165135000Y-101112000D01*
X165135000Y-101112000D02*
X154281600Y-90258600D01*
%TO.N,MOSI*%
X177017800Y-98697000D02*
X177004600Y-98710200D01*
X155028600Y-81504400D02*
X155028600Y-89913400D01*
X155028600Y-89913400D02*
X163969400Y-98854200D01*
X178351800Y-98697000D02*
X177017800Y-98697000D01*
X176860600Y-98854200D02*
X163969400Y-98854200D01*
X177004600Y-98710200D02*
X176860600Y-98854200D01*
X153581600Y-80057400D02*
X155028600Y-81504400D01*
%TO.N,CS*%
X178365000Y-97173000D02*
X177017800Y-97173000D01*
X177017800Y-97173000D02*
X177004600Y-97186200D01*
X163419000Y-97186200D02*
X155765200Y-89532400D01*
X155765200Y-89532400D02*
X155765200Y-80971000D01*
X155765200Y-80971000D02*
X153581600Y-78787400D01*
X177004600Y-97186200D02*
X163419000Y-97186200D01*
%TO.N,Net-(U4A-SHPHLD)*%
D20*
X129317149Y-106219799D02*
X123964400Y-111572548D01*
X139803200Y-101315199D02*
X139803200Y-104389008D01*
X138662300Y-100174299D02*
X139803200Y-101315199D01*
X139803200Y-104389008D02*
X137972409Y-106219799D01*
X123964400Y-111572548D02*
X123964400Y-116685000D01*
X137972409Y-106219799D02*
X129317149Y-106219799D01*
X123964400Y-116685000D02*
X123964400Y-116735800D01*
%TO.N,NTC*%
X126493600Y-115423400D02*
X126493600Y-109685400D01*
X126493600Y-109685400D02*
X129357201Y-106821799D01*
X129357201Y-106821799D02*
X136029400Y-106821799D01*
%TD*%
%TA.AperFunction,Conductor*%
%TO.N,GND*%
G36*
X174963229Y-77661385D02*
G01*
X175008984Y-77714189D01*
X175018928Y-77783347D01*
X174989903Y-77846903D01*
X174934508Y-77883631D01*
X174906582Y-77892704D01*
X174717239Y-77989180D01*
X174663082Y-78028527D01*
X174663082Y-78028528D01*
X175295391Y-78660837D01*
X175231807Y-78677875D01*
X175117793Y-78743701D01*
X175024701Y-78836793D01*
X174958875Y-78950807D01*
X174941837Y-79014391D01*
X174309528Y-78382082D01*
X174309527Y-78382082D01*
X174270180Y-78436239D01*
X174173705Y-78625581D01*
X174116456Y-78801774D01*
X174077018Y-78859449D01*
X174012659Y-78886647D01*
X173943813Y-78874732D01*
X173892337Y-78827488D01*
X173883964Y-78810907D01*
X173881310Y-78804500D01*
X173844207Y-78714925D01*
X173815743Y-78646205D01*
X173700775Y-78474142D01*
X173554457Y-78327824D01*
X173418378Y-78236900D01*
X173382398Y-78212859D01*
X173191220Y-78133670D01*
X173191212Y-78133668D01*
X172988269Y-78093300D01*
X172988265Y-78093300D01*
X172781335Y-78093300D01*
X172781330Y-78093300D01*
X172578387Y-78133668D01*
X172578379Y-78133670D01*
X172387203Y-78212858D01*
X172215142Y-78327824D01*
X172068824Y-78474142D01*
X171953858Y-78646203D01*
X171874670Y-78837379D01*
X171874668Y-78837387D01*
X171834300Y-79040330D01*
X171834300Y-79247269D01*
X171874668Y-79450212D01*
X171874670Y-79450220D01*
X171943708Y-79616893D01*
X171953859Y-79641398D01*
X171967636Y-79662017D01*
X172068824Y-79813457D01*
X172215142Y-79959775D01*
X172215145Y-79959777D01*
X172387202Y-80074741D01*
X172578380Y-80153930D01*
X172781330Y-80194299D01*
X172781334Y-80194300D01*
X172781335Y-80194300D01*
X172988266Y-80194300D01*
X172988267Y-80194299D01*
X173191220Y-80153930D01*
X173382398Y-80074741D01*
X173554455Y-79959777D01*
X173700777Y-79813455D01*
X173815741Y-79641398D01*
X173883965Y-79476689D01*
X173927804Y-79422288D01*
X173994098Y-79400223D01*
X174061798Y-79417502D01*
X174109409Y-79468639D01*
X174116456Y-79485826D01*
X174173704Y-79662016D01*
X174270175Y-79851350D01*
X174309528Y-79905516D01*
X174941836Y-79273207D01*
X174958875Y-79336793D01*
X175024701Y-79450807D01*
X175117793Y-79543899D01*
X175231807Y-79609725D01*
X175295390Y-79626762D01*
X174663082Y-80259069D01*
X174663082Y-80259070D01*
X174717249Y-80298424D01*
X174906582Y-80394895D01*
X175082773Y-80452143D01*
X175140448Y-80491580D01*
X175167647Y-80555939D01*
X175155732Y-80624785D01*
X175108488Y-80676261D01*
X175091908Y-80684635D01*
X174927203Y-80752857D01*
X174755142Y-80867824D01*
X174608824Y-81014142D01*
X174493858Y-81186203D01*
X174414670Y-81377379D01*
X174414668Y-81377387D01*
X174374300Y-81580330D01*
X174374300Y-81787269D01*
X174414668Y-81990212D01*
X174414670Y-81990220D01*
X174453420Y-82083770D01*
X174460889Y-82153239D01*
X174429614Y-82215719D01*
X174426540Y-82218904D01*
X174030064Y-82615381D01*
X174003136Y-82630084D01*
X173977318Y-82646677D01*
X173971117Y-82647568D01*
X173968741Y-82648866D01*
X173942383Y-82651700D01*
X173701895Y-82651700D01*
X173634856Y-82632015D01*
X173589101Y-82579211D01*
X173579157Y-82510053D01*
X173608182Y-82446497D01*
X173614214Y-82440019D01*
X173700774Y-82353458D01*
X173700775Y-82353457D01*
X173700777Y-82353455D01*
X173815741Y-82181398D01*
X173894930Y-81990220D01*
X173935300Y-81787265D01*
X173935300Y-81580335D01*
X173894930Y-81377380D01*
X173815741Y-81186202D01*
X173700777Y-81014145D01*
X173700775Y-81014142D01*
X173554457Y-80867824D01*
X173427853Y-80783231D01*
X173382398Y-80752859D01*
X173382393Y-80752857D01*
X173191220Y-80673670D01*
X173191212Y-80673668D01*
X172988269Y-80633300D01*
X172988265Y-80633300D01*
X172781335Y-80633300D01*
X172781330Y-80633300D01*
X172578387Y-80673668D01*
X172578379Y-80673670D01*
X172387203Y-80752858D01*
X172215142Y-80867824D01*
X172068824Y-81014142D01*
X171953858Y-81186203D01*
X171874670Y-81377379D01*
X171874668Y-81377387D01*
X171834300Y-81580330D01*
X171834300Y-81787269D01*
X171874668Y-81990212D01*
X171874670Y-81990220D01*
X171953859Y-82181398D01*
X171978920Y-82218904D01*
X172068824Y-82353457D01*
X172155386Y-82440019D01*
X172188871Y-82501342D01*
X172183887Y-82571034D01*
X172142015Y-82626967D01*
X172076551Y-82651384D01*
X172067705Y-82651700D01*
X163135759Y-82651700D01*
X163049527Y-82651700D01*
X162993997Y-82666579D01*
X162966232Y-82674019D01*
X162891554Y-82717134D01*
X162891551Y-82717136D01*
X157128736Y-88479951D01*
X157128734Y-88479954D01*
X157085619Y-88554632D01*
X157063300Y-88637928D01*
X157063300Y-89694879D01*
X157043615Y-89761918D01*
X157026981Y-89782560D01*
X157010306Y-89799234D01*
X157010304Y-89799237D01*
X156947705Y-89907663D01*
X156947704Y-89907666D01*
X156937451Y-89945929D01*
X156901085Y-90005589D01*
X156838237Y-90036117D01*
X156768862Y-90027820D01*
X156729996Y-90001514D01*
X156152019Y-89423537D01*
X156118534Y-89362214D01*
X156115700Y-89335856D01*
X156115700Y-83987904D01*
X157404800Y-83987904D01*
X157404800Y-84386400D01*
X158104800Y-84386400D01*
X158104800Y-84886400D01*
X157404800Y-84886400D01*
X157404800Y-85284895D01*
X157443227Y-85478081D01*
X157443230Y-85478093D01*
X157518607Y-85660071D01*
X157518614Y-85660084D01*
X157628048Y-85823862D01*
X157628051Y-85823866D01*
X157767333Y-85963148D01*
X157767337Y-85963151D01*
X157931115Y-86072585D01*
X157931128Y-86072592D01*
X158113108Y-86147969D01*
X158154800Y-86156262D01*
X158154800Y-85353388D01*
X158164740Y-85370605D01*
X158220595Y-85426460D01*
X158289004Y-85465956D01*
X158365304Y-85486400D01*
X158444296Y-85486400D01*
X158520596Y-85465956D01*
X158589005Y-85426460D01*
X158644860Y-85370605D01*
X158654800Y-85353388D01*
X158654800Y-86156262D01*
X158696490Y-86147969D01*
X158696492Y-86147969D01*
X158878471Y-86072592D01*
X158878484Y-86072585D01*
X159042262Y-85963151D01*
X159042266Y-85963148D01*
X159181548Y-85823866D01*
X159181551Y-85823862D01*
X159290985Y-85660084D01*
X159290992Y-85660071D01*
X159366369Y-85478093D01*
X159366372Y-85478081D01*
X159404799Y-85284895D01*
X159404800Y-85284892D01*
X159404800Y-84886400D01*
X158704800Y-84886400D01*
X158704800Y-84386400D01*
X159300750Y-84386400D01*
X159367789Y-84406085D01*
X159408137Y-84448399D01*
X159414292Y-84459061D01*
X159414295Y-84459065D01*
X159512135Y-84556905D01*
X159512136Y-84556906D01*
X159512138Y-84556907D01*
X159564088Y-84586900D01*
X159631964Y-84626088D01*
X159765617Y-84661900D01*
X159765619Y-84661900D01*
X159903981Y-84661900D01*
X159903983Y-84661900D01*
X160037636Y-84626088D01*
X160157465Y-84556905D01*
X160255305Y-84459065D01*
X160324488Y-84339236D01*
X160360300Y-84205583D01*
X160360300Y-84067217D01*
X160324488Y-83933564D01*
X160275423Y-83848581D01*
X160255307Y-83813738D01*
X160255303Y-83813733D01*
X160157466Y-83715896D01*
X160157461Y-83715892D01*
X160037638Y-83646713D01*
X160037637Y-83646712D01*
X160037636Y-83646712D01*
X159903983Y-83610900D01*
X159765617Y-83610900D01*
X159631964Y-83646712D01*
X159631961Y-83646713D01*
X159512138Y-83715892D01*
X159505690Y-83720841D01*
X159503683Y-83718225D01*
X159455791Y-83744331D01*
X159386103Y-83739295D01*
X159330200Y-83697382D01*
X159314960Y-83670596D01*
X159290989Y-83612722D01*
X159290985Y-83612715D01*
X159181551Y-83448937D01*
X159181548Y-83448933D01*
X159042266Y-83309651D01*
X159042262Y-83309648D01*
X158878484Y-83200214D01*
X158878471Y-83200207D01*
X158696491Y-83124829D01*
X158696483Y-83124827D01*
X158654800Y-83116535D01*
X158654800Y-83919411D01*
X158644860Y-83902195D01*
X158589005Y-83846340D01*
X158520596Y-83806844D01*
X158444296Y-83786400D01*
X158365304Y-83786400D01*
X158289004Y-83806844D01*
X158220595Y-83846340D01*
X158164740Y-83902195D01*
X158154800Y-83919411D01*
X158154800Y-83116536D01*
X158154799Y-83116535D01*
X158113116Y-83124827D01*
X158113108Y-83124829D01*
X157931128Y-83200207D01*
X157931115Y-83200214D01*
X157767337Y-83309648D01*
X157767333Y-83309651D01*
X157628051Y-83448933D01*
X157628048Y-83448937D01*
X157518614Y-83612715D01*
X157518607Y-83612728D01*
X157443230Y-83794706D01*
X157443227Y-83794718D01*
X157404800Y-83987904D01*
X156115700Y-83987904D01*
X156115700Y-80924858D01*
X156115700Y-80924856D01*
X156091814Y-80835712D01*
X156084076Y-80822310D01*
X156045670Y-80755788D01*
X155247786Y-79957904D01*
X157404800Y-79957904D01*
X157404800Y-80206400D01*
X158104800Y-80206400D01*
X158104800Y-80706400D01*
X157404800Y-80706400D01*
X157404800Y-80954895D01*
X157443227Y-81148081D01*
X157443230Y-81148093D01*
X157518607Y-81330071D01*
X157518614Y-81330084D01*
X157628048Y-81493862D01*
X157628051Y-81493866D01*
X157767333Y-81633148D01*
X157767337Y-81633151D01*
X157931115Y-81742585D01*
X157931128Y-81742592D01*
X158113108Y-81817969D01*
X158154800Y-81826262D01*
X158154800Y-81023388D01*
X158164740Y-81040605D01*
X158220595Y-81096460D01*
X158289004Y-81135956D01*
X158365304Y-81156400D01*
X158444296Y-81156400D01*
X158520596Y-81135956D01*
X158589005Y-81096460D01*
X158644860Y-81040605D01*
X158654800Y-81023388D01*
X158654800Y-81826262D01*
X158696490Y-81817969D01*
X158696492Y-81817969D01*
X158878471Y-81742592D01*
X158878484Y-81742585D01*
X159042262Y-81633151D01*
X159042266Y-81633148D01*
X159181548Y-81493866D01*
X159181551Y-81493862D01*
X159290985Y-81330084D01*
X159290992Y-81330071D01*
X159366369Y-81148093D01*
X159366372Y-81148081D01*
X159404799Y-80954895D01*
X159404800Y-80954892D01*
X159404800Y-80706400D01*
X158704800Y-80706400D01*
X158704800Y-80206400D01*
X159404800Y-80206400D01*
X159404800Y-79957908D01*
X159404799Y-79957904D01*
X166044800Y-79957904D01*
X166044800Y-80206400D01*
X166744800Y-80206400D01*
X166744800Y-80706400D01*
X166044800Y-80706400D01*
X166044800Y-80954895D01*
X166083227Y-81148081D01*
X166083230Y-81148093D01*
X166158607Y-81330071D01*
X166158614Y-81330084D01*
X166268048Y-81493862D01*
X166268051Y-81493866D01*
X166407333Y-81633148D01*
X166407337Y-81633151D01*
X166571115Y-81742585D01*
X166571128Y-81742592D01*
X166753108Y-81817969D01*
X166794800Y-81826262D01*
X166794800Y-81023388D01*
X166804740Y-81040605D01*
X166860595Y-81096460D01*
X166929004Y-81135956D01*
X167005304Y-81156400D01*
X167084296Y-81156400D01*
X167160596Y-81135956D01*
X167229005Y-81096460D01*
X167284860Y-81040605D01*
X167294800Y-81023388D01*
X167294800Y-81826262D01*
X167336490Y-81817969D01*
X167336492Y-81817969D01*
X167518471Y-81742592D01*
X167518484Y-81742585D01*
X167682262Y-81633151D01*
X167682266Y-81633148D01*
X167821548Y-81493866D01*
X167821551Y-81493862D01*
X167930985Y-81330084D01*
X167930992Y-81330071D01*
X168006369Y-81148093D01*
X168006372Y-81148081D01*
X168044799Y-80954895D01*
X168044800Y-80954892D01*
X168044800Y-80706400D01*
X167344800Y-80706400D01*
X167344800Y-80206400D01*
X168044800Y-80206400D01*
X168044800Y-79957908D01*
X168044799Y-79957904D01*
X168006372Y-79764718D01*
X168006369Y-79764706D01*
X167930992Y-79582728D01*
X167930985Y-79582715D01*
X167821551Y-79418937D01*
X167821548Y-79418933D01*
X167682266Y-79279651D01*
X167682262Y-79279648D01*
X167518484Y-79170214D01*
X167518471Y-79170207D01*
X167466798Y-79148804D01*
X167336491Y-79094829D01*
X167336483Y-79094827D01*
X167294800Y-79086535D01*
X167294800Y-79889411D01*
X167284860Y-79872195D01*
X167229005Y-79816340D01*
X167160596Y-79776844D01*
X167084296Y-79756400D01*
X167005304Y-79756400D01*
X166929004Y-79776844D01*
X166860595Y-79816340D01*
X166804740Y-79872195D01*
X166794800Y-79889411D01*
X166794800Y-79086536D01*
X166794799Y-79086535D01*
X166753116Y-79094827D01*
X166753108Y-79094829D01*
X166571128Y-79170207D01*
X166571115Y-79170214D01*
X166407337Y-79279648D01*
X166407333Y-79279651D01*
X166268051Y-79418933D01*
X166268048Y-79418937D01*
X166158614Y-79582715D01*
X166158607Y-79582728D01*
X166083230Y-79764706D01*
X166083227Y-79764718D01*
X166044800Y-79957904D01*
X159404799Y-79957904D01*
X159366372Y-79764718D01*
X159366369Y-79764706D01*
X159290992Y-79582728D01*
X159290985Y-79582715D01*
X159181551Y-79418937D01*
X159181548Y-79418933D01*
X159042266Y-79279651D01*
X159042262Y-79279648D01*
X158878484Y-79170214D01*
X158878471Y-79170207D01*
X158696491Y-79094829D01*
X158696483Y-79094827D01*
X158654800Y-79086535D01*
X158654800Y-79889411D01*
X158644860Y-79872195D01*
X158589005Y-79816340D01*
X158520596Y-79776844D01*
X158444296Y-79756400D01*
X158365304Y-79756400D01*
X158289004Y-79776844D01*
X158220595Y-79816340D01*
X158164740Y-79872195D01*
X158154800Y-79889411D01*
X158154800Y-79086536D01*
X158154799Y-79086535D01*
X158113116Y-79094827D01*
X158113108Y-79094829D01*
X157931128Y-79170207D01*
X157931115Y-79170214D01*
X157767337Y-79279648D01*
X157767333Y-79279651D01*
X157628051Y-79418933D01*
X157628048Y-79418937D01*
X157518614Y-79582715D01*
X157518607Y-79582728D01*
X157443230Y-79764706D01*
X157443227Y-79764718D01*
X157404800Y-79957904D01*
X155247786Y-79957904D01*
X154168419Y-78878537D01*
X154134934Y-78817214D01*
X154132100Y-78790856D01*
X154132100Y-78714927D01*
X154132100Y-78714925D01*
X154094584Y-78574915D01*
X154054218Y-78505000D01*
X154022111Y-78449388D01*
X154022106Y-78449382D01*
X153919617Y-78346893D01*
X153919611Y-78346888D01*
X153794088Y-78274417D01*
X153794089Y-78274417D01*
X153782606Y-78271340D01*
X153654075Y-78236900D01*
X153509125Y-78236900D01*
X153380593Y-78271340D01*
X153369111Y-78274417D01*
X153243588Y-78346888D01*
X153243582Y-78346893D01*
X153141093Y-78449382D01*
X153141088Y-78449388D01*
X153068617Y-78574911D01*
X153068616Y-78574915D01*
X153031100Y-78714925D01*
X153031100Y-78859875D01*
X153064695Y-78985252D01*
X153068617Y-78999888D01*
X153141088Y-79125411D01*
X153141090Y-79125413D01*
X153141091Y-79125415D01*
X153243585Y-79227909D01*
X153243586Y-79227910D01*
X153243588Y-79227911D01*
X153369111Y-79300382D01*
X153369112Y-79300382D01*
X153369115Y-79300384D01*
X153372986Y-79301421D01*
X153377481Y-79302626D01*
X153437141Y-79338991D01*
X153467669Y-79401839D01*
X153459374Y-79471214D01*
X153414888Y-79525091D01*
X153377481Y-79542174D01*
X153369116Y-79544415D01*
X153369111Y-79544417D01*
X153243588Y-79616888D01*
X153243582Y-79616893D01*
X153141093Y-79719382D01*
X153141088Y-79719388D01*
X153068617Y-79844911D01*
X153068616Y-79844915D01*
X153031100Y-79984925D01*
X153031100Y-80129875D01*
X153054633Y-80217700D01*
X153068617Y-80269888D01*
X153141088Y-80395411D01*
X153141090Y-80395413D01*
X153141091Y-80395415D01*
X153243585Y-80497909D01*
X153243586Y-80497910D01*
X153243588Y-80497911D01*
X153369111Y-80570382D01*
X153369112Y-80570382D01*
X153369115Y-80570384D01*
X153509125Y-80607900D01*
X153585056Y-80607900D01*
X153652095Y-80627585D01*
X153672737Y-80644219D01*
X154641781Y-81613263D01*
X154675266Y-81674586D01*
X154678100Y-81700944D01*
X154678100Y-84168856D01*
X154658415Y-84235895D01*
X154605611Y-84281650D01*
X154536453Y-84291594D01*
X154472897Y-84262569D01*
X154466419Y-84256537D01*
X154168419Y-83958537D01*
X154134934Y-83897214D01*
X154132100Y-83870856D01*
X154132100Y-83794927D01*
X154132100Y-83794925D01*
X154094584Y-83654915D01*
X154085819Y-83639734D01*
X154022111Y-83529388D01*
X154022106Y-83529382D01*
X153919617Y-83426893D01*
X153919611Y-83426888D01*
X153794088Y-83354417D01*
X153794089Y-83354417D01*
X153751551Y-83343019D01*
X153654075Y-83316900D01*
X153509125Y-83316900D01*
X153411649Y-83343019D01*
X153369111Y-83354417D01*
X153243588Y-83426888D01*
X153243582Y-83426893D01*
X153141093Y-83529382D01*
X153141088Y-83529388D01*
X153068617Y-83654911D01*
X153067651Y-83658515D01*
X153031100Y-83794925D01*
X153031100Y-83939875D01*
X153054633Y-84027700D01*
X153068617Y-84079888D01*
X153141088Y-84205411D01*
X153141090Y-84205413D01*
X153141091Y-84205415D01*
X153243585Y-84307909D01*
X153243586Y-84307910D01*
X153243588Y-84307911D01*
X153369111Y-84380382D01*
X153369112Y-84380382D01*
X153369115Y-84380384D01*
X153372986Y-84381421D01*
X153377481Y-84382626D01*
X153437141Y-84418991D01*
X153467669Y-84481839D01*
X153459374Y-84551214D01*
X153414888Y-84605091D01*
X153377481Y-84622174D01*
X153369116Y-84624415D01*
X153369111Y-84624417D01*
X153243588Y-84696888D01*
X153243582Y-84696893D01*
X153141093Y-84799382D01*
X153141088Y-84799388D01*
X153068617Y-84924911D01*
X153068616Y-84924915D01*
X153031100Y-85064925D01*
X153031100Y-85209875D01*
X153068616Y-85349885D01*
X153068617Y-85349888D01*
X153141088Y-85475411D01*
X153141093Y-85475417D01*
X153194781Y-85529105D01*
X153228266Y-85590428D01*
X153231100Y-85616786D01*
X153231100Y-90696944D01*
X153251501Y-90773079D01*
X153254986Y-90786087D01*
X153254987Y-90786090D01*
X153301127Y-90866008D01*
X153301131Y-90866013D01*
X153440036Y-91004918D01*
X153473521Y-91066241D01*
X153468537Y-91135933D01*
X153426665Y-91191866D01*
X153373567Y-91213493D01*
X153373649Y-91213797D01*
X153371233Y-91214444D01*
X153368553Y-91215536D01*
X153365810Y-91215897D01*
X153244863Y-91248305D01*
X153136437Y-91310904D01*
X153136434Y-91310906D01*
X153047906Y-91399434D01*
X153047904Y-91399437D01*
X152985305Y-91507863D01*
X152981428Y-91522334D01*
X152952900Y-91628799D01*
X152952900Y-91754001D01*
X152985305Y-91874936D01*
X153002018Y-91903885D01*
X153047904Y-91983362D01*
X153047906Y-91983365D01*
X153064581Y-92000040D01*
X153098066Y-92061363D01*
X153100900Y-92087721D01*
X153100900Y-97122939D01*
X153081215Y-97189978D01*
X153064581Y-97210620D01*
X149124584Y-101150616D01*
X149063261Y-101184101D01*
X148993569Y-101179117D01*
X148937636Y-101137245D01*
X148913219Y-101071781D01*
X148917128Y-101030842D01*
X148925500Y-100999601D01*
X148925500Y-100874399D01*
X148893095Y-100753464D01*
X148830495Y-100645036D01*
X148813819Y-100628360D01*
X148780334Y-100567037D01*
X148777500Y-100540679D01*
X148777500Y-98285321D01*
X148797185Y-98218282D01*
X148813819Y-98197640D01*
X148830495Y-98180964D01*
X148893095Y-98072536D01*
X148925500Y-97951601D01*
X148925500Y-97826399D01*
X148893095Y-97705464D01*
X148830495Y-97597036D01*
X148741964Y-97508505D01*
X148633536Y-97445905D01*
X148633537Y-97445905D01*
X148593224Y-97435103D01*
X148512601Y-97413500D01*
X148387399Y-97413500D01*
X148306775Y-97435103D01*
X148266463Y-97445905D01*
X148158037Y-97508504D01*
X148158034Y-97508506D01*
X148069506Y-97597034D01*
X148069504Y-97597037D01*
X148006905Y-97705463D01*
X148006905Y-97705464D01*
X147974500Y-97826399D01*
X147974500Y-97951601D01*
X148006905Y-98072536D01*
X148063558Y-98170664D01*
X148069504Y-98180962D01*
X148069506Y-98180965D01*
X148086181Y-98197640D01*
X148119666Y-98258963D01*
X148122500Y-98285321D01*
X148122500Y-100540679D01*
X148102815Y-100607718D01*
X148086181Y-100628360D01*
X148069506Y-100645034D01*
X148069504Y-100645037D01*
X148006905Y-100753463D01*
X147998942Y-100783181D01*
X147974500Y-100874399D01*
X147974500Y-100999601D01*
X148006905Y-101120536D01*
X148069505Y-101228964D01*
X148158036Y-101317495D01*
X148266464Y-101380095D01*
X148387399Y-101412500D01*
X148387401Y-101412500D01*
X148512600Y-101412500D01*
X148512601Y-101412500D01*
X148543841Y-101404129D01*
X148613689Y-101405790D01*
X148671552Y-101444951D01*
X148699058Y-101509179D01*
X148687473Y-101578082D01*
X148663616Y-101611584D01*
X143164421Y-107110780D01*
X143103098Y-107144265D01*
X143076740Y-107147099D01*
X136596109Y-107147099D01*
X136529070Y-107127414D01*
X136483315Y-107074610D01*
X136473371Y-107005452D01*
X136476331Y-106991017D01*
X136504900Y-106884400D01*
X136504900Y-106759198D01*
X136489947Y-106703393D01*
X136491609Y-106633544D01*
X136530770Y-106575681D01*
X136594999Y-106548176D01*
X136609721Y-106547299D01*
X138015523Y-106547299D01*
X138015525Y-106547299D01*
X138098819Y-106524980D01*
X138173499Y-106481864D01*
X138353365Y-106301998D01*
X141497500Y-106301998D01*
X141497500Y-106427200D01*
X141529905Y-106548135D01*
X141592505Y-106656563D01*
X141681036Y-106745094D01*
X141789464Y-106807694D01*
X141910399Y-106840099D01*
X141910401Y-106840099D01*
X142035599Y-106840099D01*
X142035601Y-106840099D01*
X142156536Y-106807694D01*
X142264964Y-106745094D01*
X142325821Y-106684236D01*
X142387140Y-106650754D01*
X142456832Y-106655738D01*
X142501180Y-106684239D01*
X142519236Y-106702295D01*
X142627664Y-106764895D01*
X142748599Y-106797300D01*
X142748601Y-106797300D01*
X142873799Y-106797300D01*
X142873801Y-106797300D01*
X142994736Y-106764895D01*
X143103164Y-106702295D01*
X143191695Y-106613764D01*
X143254295Y-106505336D01*
X143286700Y-106384401D01*
X143286700Y-106335187D01*
X143303313Y-106273187D01*
X143311610Y-106258816D01*
X143319581Y-106245010D01*
X143341900Y-106161716D01*
X143341900Y-106075484D01*
X143341900Y-96831417D01*
X143361585Y-96764378D01*
X143378219Y-96743736D01*
X144997736Y-95124219D01*
X145059059Y-95090734D01*
X145085417Y-95087900D01*
X145108999Y-95087900D01*
X145109001Y-95087900D01*
X145229936Y-95055495D01*
X145338364Y-94992895D01*
X145426895Y-94904364D01*
X145489495Y-94795936D01*
X145521900Y-94675001D01*
X145521900Y-94549799D01*
X145489495Y-94428864D01*
X145426895Y-94320436D01*
X145338364Y-94231905D01*
X145229936Y-94169305D01*
X145229937Y-94169305D01*
X145164458Y-94151760D01*
X145109001Y-94136900D01*
X144983799Y-94136900D01*
X144928342Y-94151760D01*
X144862863Y-94169305D01*
X144754437Y-94231904D01*
X144754434Y-94231906D01*
X144665906Y-94320434D01*
X144665902Y-94320439D01*
X144633087Y-94377278D01*
X144582520Y-94425494D01*
X144513913Y-94438717D01*
X144449048Y-94412749D01*
X144418313Y-94377278D01*
X144385497Y-94320439D01*
X144385496Y-94320437D01*
X144385495Y-94320436D01*
X144296964Y-94231905D01*
X144188536Y-94169305D01*
X144188537Y-94169305D01*
X144123058Y-94151760D01*
X144067601Y-94136900D01*
X143942399Y-94136900D01*
X143886942Y-94151760D01*
X143821463Y-94169305D01*
X143713037Y-94231904D01*
X143713034Y-94231906D01*
X143624506Y-94320434D01*
X143624504Y-94320437D01*
X143561905Y-94428863D01*
X143561905Y-94428864D01*
X143529705Y-94549036D01*
X143529500Y-94549800D01*
X143529500Y-94573383D01*
X143509815Y-94640422D01*
X143493181Y-94661064D01*
X141710936Y-96443308D01*
X141710934Y-96443311D01*
X141667819Y-96517989D01*
X141667819Y-96517990D01*
X141646994Y-96595711D01*
X141645500Y-96601285D01*
X141645500Y-105968278D01*
X141625815Y-106035317D01*
X141609181Y-106055959D01*
X141592506Y-106072633D01*
X141592504Y-106072636D01*
X141529905Y-106181062D01*
X141529905Y-106181063D01*
X141497500Y-106301998D01*
X138353365Y-106301998D01*
X140065265Y-104590098D01*
X140108381Y-104515419D01*
X140130700Y-104432124D01*
X140130700Y-104345892D01*
X140130700Y-101272083D01*
X140108381Y-101188789D01*
X140065265Y-101114109D01*
X140004290Y-101053134D01*
X139174119Y-100222963D01*
X139140634Y-100161640D01*
X139137800Y-100135282D01*
X139137800Y-100111699D01*
X139137800Y-100111698D01*
X139105395Y-99990763D01*
X139042795Y-99882335D01*
X138954264Y-99793804D01*
X138845836Y-99731204D01*
X138845837Y-99731204D01*
X138786359Y-99715267D01*
X138724901Y-99698799D01*
X138599699Y-99698799D01*
X138538241Y-99715267D01*
X138478763Y-99731204D01*
X138370337Y-99793803D01*
X138370334Y-99793805D01*
X138281806Y-99882333D01*
X138281804Y-99882336D01*
X138219205Y-99990762D01*
X138207512Y-100034401D01*
X138186800Y-100111698D01*
X138186800Y-100236900D01*
X138219205Y-100357835D01*
X138281805Y-100466263D01*
X138370336Y-100554794D01*
X138478764Y-100617394D01*
X138599699Y-100649799D01*
X138623283Y-100649799D01*
X138690322Y-100669484D01*
X138710964Y-100686118D01*
X139439381Y-101414535D01*
X139472866Y-101475858D01*
X139475700Y-101502216D01*
X139475700Y-102212444D01*
X139456015Y-102279483D01*
X139403211Y-102325238D01*
X139334053Y-102335182D01*
X139270497Y-102306157D01*
X139232723Y-102247379D01*
X139231926Y-102244540D01*
X139231068Y-102241338D01*
X139228395Y-102231363D01*
X139165795Y-102122935D01*
X139077264Y-102034404D01*
X138968836Y-101971804D01*
X138968837Y-101971804D01*
X138928524Y-101961002D01*
X138847901Y-101939399D01*
X138847899Y-101939399D01*
X138824317Y-101939399D01*
X138757278Y-101919714D01*
X138736636Y-101903080D01*
X137358419Y-100524863D01*
X137324934Y-100463540D01*
X137322100Y-100437182D01*
X137322100Y-93529416D01*
X137341785Y-93462377D01*
X137358414Y-93441739D01*
X138521935Y-92278218D01*
X138583258Y-92244734D01*
X138609616Y-92241900D01*
X138718072Y-92241900D01*
X138718075Y-92241900D01*
X138858085Y-92204384D01*
X138983615Y-92131909D01*
X139086109Y-92029415D01*
X139158584Y-91903885D01*
X139196100Y-91763875D01*
X139196100Y-91618925D01*
X139158584Y-91478915D01*
X139156534Y-91475365D01*
X139086111Y-91353388D01*
X139086106Y-91353382D01*
X138983617Y-91250893D01*
X138983611Y-91250888D01*
X138858088Y-91178417D01*
X138858089Y-91178417D01*
X138846606Y-91175340D01*
X138718075Y-91140900D01*
X138573125Y-91140900D01*
X138444593Y-91175340D01*
X138433111Y-91178417D01*
X138307588Y-91250888D01*
X138307582Y-91250893D01*
X138205093Y-91353382D01*
X138205088Y-91353388D01*
X138132617Y-91478911D01*
X138132616Y-91478915D01*
X138095100Y-91618925D01*
X138095100Y-91618927D01*
X138095100Y-91727382D01*
X138075415Y-91794421D01*
X138058781Y-91815063D01*
X136856781Y-93017063D01*
X136795458Y-93050548D01*
X136725766Y-93045564D01*
X136669833Y-93003692D01*
X136645416Y-92938228D01*
X136645100Y-92929382D01*
X136645100Y-92233355D01*
X136664785Y-92166316D01*
X136693612Y-92134980D01*
X136697607Y-92131913D01*
X136697615Y-92131909D01*
X136800109Y-92029415D01*
X136872584Y-91903885D01*
X136910100Y-91763875D01*
X136910100Y-91618925D01*
X136872584Y-91478915D01*
X136870534Y-91475365D01*
X136800111Y-91353388D01*
X136800106Y-91353382D01*
X136697617Y-91250893D01*
X136697611Y-91250888D01*
X136572088Y-91178417D01*
X136572089Y-91178417D01*
X136560606Y-91175340D01*
X136432075Y-91140900D01*
X136287125Y-91140900D01*
X136158593Y-91175340D01*
X136147111Y-91178417D01*
X136021588Y-91250888D01*
X136021582Y-91250893D01*
X135919093Y-91353382D01*
X135919088Y-91353388D01*
X135846617Y-91478911D01*
X135846616Y-91478915D01*
X135809100Y-91618925D01*
X135809100Y-91763875D01*
X135841648Y-91885345D01*
X135846617Y-91903888D01*
X135919088Y-92029411D01*
X135919093Y-92029417D01*
X135953781Y-92064105D01*
X135987266Y-92125428D01*
X135990100Y-92151786D01*
X135990100Y-101478883D01*
X135990100Y-101565115D01*
X135997063Y-101591099D01*
X136012419Y-101648409D01*
X136055534Y-101723087D01*
X136055536Y-101723090D01*
X137524265Y-103191819D01*
X137557750Y-103253142D01*
X137552766Y-103322834D01*
X137510894Y-103378767D01*
X137445430Y-103403184D01*
X137436584Y-103403500D01*
X125833921Y-103403500D01*
X125766882Y-103383815D01*
X125746240Y-103367181D01*
X125729565Y-103350506D01*
X125729564Y-103350505D01*
X125621136Y-103287905D01*
X125621137Y-103287905D01*
X125580824Y-103277103D01*
X125500201Y-103255500D01*
X125374999Y-103255500D01*
X125294375Y-103277103D01*
X125254063Y-103287905D01*
X125145637Y-103350504D01*
X125145634Y-103350506D01*
X125057106Y-103439034D01*
X125057100Y-103439042D01*
X125031287Y-103483753D01*
X124980721Y-103531969D01*
X124912114Y-103545193D01*
X124847249Y-103519225D01*
X124806720Y-103462311D01*
X124799900Y-103421754D01*
X124799900Y-96374217D01*
X124819585Y-96307178D01*
X124836219Y-96286536D01*
X131175736Y-89947019D01*
X131237059Y-89913534D01*
X131263417Y-89910700D01*
X141068679Y-89910700D01*
X141135718Y-89930385D01*
X141156360Y-89947019D01*
X141173036Y-89963695D01*
X141281464Y-90026295D01*
X141402399Y-90058700D01*
X141402401Y-90058700D01*
X141527599Y-90058700D01*
X141527601Y-90058700D01*
X141648536Y-90026295D01*
X141756964Y-89963695D01*
X141845495Y-89875164D01*
X141908095Y-89766736D01*
X141940500Y-89645801D01*
X141940500Y-89551217D01*
X141946738Y-89529971D01*
X141948318Y-89507883D01*
X141956390Y-89497099D01*
X141960185Y-89484178D01*
X141976918Y-89469678D01*
X141990190Y-89451950D01*
X142002810Y-89447242D01*
X142012989Y-89438423D01*
X142034906Y-89435271D01*
X142055654Y-89427533D01*
X142068814Y-89430395D01*
X142082147Y-89428479D01*
X142102290Y-89437678D01*
X142123927Y-89442385D01*
X142141652Y-89455653D01*
X142145703Y-89457504D01*
X142152181Y-89463536D01*
X142223181Y-89534536D01*
X142256666Y-89595859D01*
X142259500Y-89622217D01*
X142259500Y-89645801D01*
X142291905Y-89766736D01*
X142354505Y-89875164D01*
X142443036Y-89963695D01*
X142551464Y-90026295D01*
X142672399Y-90058700D01*
X142672401Y-90058700D01*
X142797599Y-90058700D01*
X142797601Y-90058700D01*
X142918536Y-90026295D01*
X143026964Y-89963695D01*
X143115495Y-89875164D01*
X143178095Y-89766736D01*
X143210500Y-89645801D01*
X143210500Y-89551217D01*
X143216738Y-89529971D01*
X143218318Y-89507883D01*
X143226390Y-89497099D01*
X143230185Y-89484178D01*
X143246918Y-89469678D01*
X143260190Y-89451950D01*
X143272810Y-89447242D01*
X143282989Y-89438423D01*
X143304906Y-89435271D01*
X143325654Y-89427533D01*
X143338814Y-89430395D01*
X143352147Y-89428479D01*
X143372290Y-89437678D01*
X143393927Y-89442385D01*
X143411652Y-89455653D01*
X143415703Y-89457504D01*
X143422181Y-89463536D01*
X143493181Y-89534536D01*
X143526666Y-89595859D01*
X143529500Y-89622217D01*
X143529500Y-89645801D01*
X143561905Y-89766736D01*
X143624505Y-89875164D01*
X143713036Y-89963695D01*
X143821464Y-90026295D01*
X143942399Y-90058700D01*
X143942401Y-90058700D01*
X144067599Y-90058700D01*
X144067601Y-90058700D01*
X144188536Y-90026295D01*
X144296964Y-89963695D01*
X144385495Y-89875164D01*
X144448095Y-89766736D01*
X144480500Y-89645801D01*
X144480500Y-89551217D01*
X144486738Y-89529971D01*
X144488318Y-89507883D01*
X144496390Y-89497099D01*
X144500185Y-89484178D01*
X144516918Y-89469678D01*
X144530190Y-89451950D01*
X144542810Y-89447242D01*
X144552989Y-89438423D01*
X144574906Y-89435271D01*
X144595654Y-89427533D01*
X144608814Y-89430395D01*
X144622147Y-89428479D01*
X144642290Y-89437678D01*
X144663927Y-89442385D01*
X144681652Y-89455653D01*
X144685703Y-89457504D01*
X144692181Y-89463536D01*
X144763181Y-89534536D01*
X144796666Y-89595859D01*
X144799500Y-89622217D01*
X144799500Y-89645801D01*
X144831905Y-89766736D01*
X144894505Y-89875164D01*
X144983036Y-89963695D01*
X145091464Y-90026295D01*
X145212399Y-90058700D01*
X145212401Y-90058700D01*
X145337599Y-90058700D01*
X145337601Y-90058700D01*
X145458536Y-90026295D01*
X145566964Y-89963695D01*
X145655495Y-89875164D01*
X145718095Y-89766736D01*
X145750500Y-89645801D01*
X145750500Y-89551217D01*
X145756738Y-89529971D01*
X145758318Y-89507883D01*
X145766390Y-89497099D01*
X145770185Y-89484178D01*
X145786918Y-89469678D01*
X145800190Y-89451950D01*
X145812810Y-89447242D01*
X145822989Y-89438423D01*
X145844906Y-89435271D01*
X145865654Y-89427533D01*
X145878814Y-89430395D01*
X145892147Y-89428479D01*
X145912290Y-89437678D01*
X145933927Y-89442385D01*
X145951652Y-89455653D01*
X145955703Y-89457504D01*
X145962181Y-89463536D01*
X146033181Y-89534536D01*
X146066666Y-89595859D01*
X146069500Y-89622217D01*
X146069500Y-89645801D01*
X146101905Y-89766736D01*
X146164505Y-89875164D01*
X146253036Y-89963695D01*
X146361464Y-90026295D01*
X146482399Y-90058700D01*
X146482401Y-90058700D01*
X146607599Y-90058700D01*
X146607601Y-90058700D01*
X146728536Y-90026295D01*
X146836964Y-89963695D01*
X146925495Y-89875164D01*
X146988095Y-89766736D01*
X147020500Y-89645801D01*
X147020500Y-89551217D01*
X147026738Y-89529971D01*
X147028318Y-89507883D01*
X147036390Y-89497099D01*
X147040185Y-89484178D01*
X147056918Y-89469678D01*
X147070190Y-89451950D01*
X147082810Y-89447242D01*
X147092989Y-89438423D01*
X147114906Y-89435271D01*
X147135654Y-89427533D01*
X147148814Y-89430395D01*
X147162147Y-89428479D01*
X147182290Y-89437678D01*
X147203927Y-89442385D01*
X147221652Y-89455653D01*
X147225703Y-89457504D01*
X147232181Y-89463536D01*
X147303181Y-89534536D01*
X147336666Y-89595859D01*
X147339500Y-89622217D01*
X147339500Y-89645801D01*
X147371905Y-89766736D01*
X147434505Y-89875164D01*
X147523036Y-89963695D01*
X147631464Y-90026295D01*
X147752399Y-90058700D01*
X147752401Y-90058700D01*
X147877599Y-90058700D01*
X147877601Y-90058700D01*
X147998536Y-90026295D01*
X148106964Y-89963695D01*
X148195495Y-89875164D01*
X148258095Y-89766736D01*
X148290500Y-89645801D01*
X148290500Y-89520599D01*
X148258095Y-89399664D01*
X148195495Y-89291236D01*
X148106964Y-89202705D01*
X147998536Y-89140105D01*
X147998537Y-89140105D01*
X147958224Y-89129303D01*
X147877601Y-89107700D01*
X147877599Y-89107700D01*
X147854017Y-89107700D01*
X147786978Y-89088015D01*
X147766336Y-89071381D01*
X144067536Y-85372581D01*
X144034051Y-85311258D01*
X144039035Y-85241566D01*
X144080907Y-85185633D01*
X144146371Y-85161216D01*
X144155217Y-85160900D01*
X144910183Y-85160900D01*
X144977222Y-85180585D01*
X144997864Y-85197219D01*
X148065181Y-88264536D01*
X148098666Y-88325859D01*
X148101500Y-88352217D01*
X148101500Y-88375801D01*
X148133905Y-88496736D01*
X148196505Y-88605164D01*
X148285036Y-88693695D01*
X148393464Y-88756295D01*
X148514399Y-88788700D01*
X148514401Y-88788700D01*
X148639599Y-88788700D01*
X148639601Y-88788700D01*
X148760536Y-88756295D01*
X148868964Y-88693695D01*
X148957495Y-88605164D01*
X149020095Y-88496736D01*
X149052500Y-88375801D01*
X149052500Y-88250599D01*
X149020095Y-88129664D01*
X148957495Y-88021236D01*
X148868964Y-87932705D01*
X148760536Y-87870105D01*
X148760537Y-87870105D01*
X148720224Y-87859303D01*
X148639601Y-87837700D01*
X148639599Y-87837700D01*
X148616017Y-87837700D01*
X148586576Y-87829055D01*
X148556590Y-87822532D01*
X148551574Y-87818777D01*
X148548978Y-87818015D01*
X148528336Y-87801381D01*
X148457336Y-87730381D01*
X148423851Y-87669058D01*
X148428835Y-87599366D01*
X148470707Y-87543433D01*
X148536171Y-87519016D01*
X148545017Y-87518700D01*
X148639599Y-87518700D01*
X148639601Y-87518700D01*
X148760536Y-87486295D01*
X148868964Y-87423695D01*
X148957495Y-87335164D01*
X149020095Y-87226736D01*
X149052500Y-87105801D01*
X149052500Y-86980599D01*
X149020095Y-86859664D01*
X148957495Y-86751236D01*
X148868964Y-86662705D01*
X148760536Y-86600105D01*
X148760537Y-86600105D01*
X148720224Y-86589303D01*
X148639601Y-86567700D01*
X148639599Y-86567700D01*
X148616017Y-86567700D01*
X148586576Y-86559055D01*
X148556590Y-86552532D01*
X148551574Y-86548777D01*
X148548978Y-86548015D01*
X148528336Y-86531381D01*
X148457336Y-86460381D01*
X148423851Y-86399058D01*
X148428835Y-86329366D01*
X148470707Y-86273433D01*
X148536171Y-86249016D01*
X148545017Y-86248700D01*
X148639599Y-86248700D01*
X148639601Y-86248700D01*
X148760536Y-86216295D01*
X148868964Y-86153695D01*
X148957495Y-86065164D01*
X149020095Y-85956736D01*
X149052500Y-85835801D01*
X149052500Y-85710599D01*
X149020095Y-85589664D01*
X148957495Y-85481236D01*
X148868964Y-85392705D01*
X148760536Y-85330105D01*
X148760537Y-85330105D01*
X148690199Y-85311258D01*
X148639601Y-85297700D01*
X148639599Y-85297700D01*
X148616017Y-85297700D01*
X148586576Y-85289055D01*
X148556590Y-85282532D01*
X148551574Y-85278777D01*
X148548978Y-85278015D01*
X148528336Y-85261381D01*
X148457336Y-85190381D01*
X148423851Y-85129058D01*
X148428835Y-85059366D01*
X148470707Y-85003433D01*
X148536171Y-84979016D01*
X148545017Y-84978700D01*
X148639599Y-84978700D01*
X148639601Y-84978700D01*
X148760536Y-84946295D01*
X148868964Y-84883695D01*
X148957495Y-84795164D01*
X149020095Y-84686736D01*
X149052500Y-84565801D01*
X149052500Y-84440599D01*
X149020095Y-84319664D01*
X148957495Y-84211236D01*
X148868964Y-84122705D01*
X148760536Y-84060105D01*
X148760537Y-84060105D01*
X148711270Y-84046904D01*
X148639601Y-84027700D01*
X148639599Y-84027700D01*
X148616017Y-84027700D01*
X148586576Y-84019055D01*
X148556590Y-84012532D01*
X148551574Y-84008777D01*
X148548978Y-84008015D01*
X148528336Y-83991381D01*
X148457336Y-83920381D01*
X148423851Y-83859058D01*
X148428835Y-83789366D01*
X148470707Y-83733433D01*
X148536171Y-83709016D01*
X148545017Y-83708700D01*
X148639599Y-83708700D01*
X148639601Y-83708700D01*
X148760536Y-83676295D01*
X148868964Y-83613695D01*
X148957495Y-83525164D01*
X149020095Y-83416736D01*
X149052500Y-83295801D01*
X149052500Y-83170599D01*
X149020095Y-83049664D01*
X148957495Y-82941236D01*
X148868964Y-82852705D01*
X148760536Y-82790105D01*
X148760537Y-82790105D01*
X148720224Y-82779303D01*
X148639601Y-82757700D01*
X148639599Y-82757700D01*
X148616017Y-82757700D01*
X148586576Y-82749055D01*
X148556590Y-82742532D01*
X148551574Y-82738777D01*
X148548978Y-82738015D01*
X148528336Y-82721381D01*
X148457336Y-82650381D01*
X148423851Y-82589058D01*
X148428835Y-82519366D01*
X148470707Y-82463433D01*
X148536171Y-82439016D01*
X148545017Y-82438700D01*
X148639599Y-82438700D01*
X148639601Y-82438700D01*
X148760536Y-82406295D01*
X148868964Y-82343695D01*
X148957495Y-82255164D01*
X149020095Y-82146736D01*
X149052500Y-82025801D01*
X149052500Y-81900599D01*
X149020095Y-81779664D01*
X148957495Y-81671236D01*
X148868964Y-81582705D01*
X148760536Y-81520105D01*
X148760537Y-81520105D01*
X148720224Y-81509303D01*
X148639601Y-81487700D01*
X148639599Y-81487700D01*
X148616017Y-81487700D01*
X148586576Y-81479055D01*
X148556590Y-81472532D01*
X148551574Y-81468777D01*
X148548978Y-81468015D01*
X148528336Y-81451381D01*
X148457336Y-81380381D01*
X148423851Y-81319058D01*
X148428835Y-81249366D01*
X148470707Y-81193433D01*
X148536171Y-81169016D01*
X148545017Y-81168700D01*
X148639599Y-81168700D01*
X148639601Y-81168700D01*
X148760536Y-81136295D01*
X148868964Y-81073695D01*
X148957495Y-80985164D01*
X149020095Y-80876736D01*
X149052500Y-80755801D01*
X149052500Y-80630599D01*
X149020095Y-80509664D01*
X148957495Y-80401236D01*
X148868964Y-80312705D01*
X148760536Y-80250105D01*
X148760537Y-80250105D01*
X148720224Y-80239303D01*
X148639601Y-80217700D01*
X148639599Y-80217700D01*
X148616017Y-80217700D01*
X148586576Y-80209055D01*
X148556590Y-80202532D01*
X148551574Y-80198777D01*
X148548978Y-80198015D01*
X148528336Y-80181381D01*
X148457336Y-80110381D01*
X148423851Y-80049058D01*
X148428835Y-79979366D01*
X148470707Y-79923433D01*
X148536171Y-79899016D01*
X148545017Y-79898700D01*
X148639599Y-79898700D01*
X148639601Y-79898700D01*
X148760536Y-79866295D01*
X148868964Y-79803695D01*
X148957495Y-79715164D01*
X149020095Y-79606736D01*
X149052500Y-79485801D01*
X149052500Y-79360599D01*
X149020095Y-79239664D01*
X148957495Y-79131236D01*
X148868964Y-79042705D01*
X148760536Y-78980105D01*
X148760537Y-78980105D01*
X148720224Y-78969303D01*
X148639601Y-78947700D01*
X148514399Y-78947700D01*
X148433775Y-78969303D01*
X148393463Y-78980105D01*
X148285037Y-79042704D01*
X148285034Y-79042706D01*
X148268360Y-79059381D01*
X148207037Y-79092866D01*
X148180679Y-79095700D01*
X123728116Y-79095700D01*
X123641884Y-79095700D01*
X123586354Y-79110579D01*
X123558589Y-79118019D01*
X123483911Y-79161134D01*
X123483908Y-79161136D01*
X122875441Y-79769603D01*
X122814118Y-79803088D01*
X122744426Y-79798104D01*
X122688493Y-79756232D01*
X122665287Y-79701320D01*
X122639557Y-79538872D01*
X122639557Y-79538869D01*
X122573895Y-79336782D01*
X122477424Y-79147449D01*
X122438070Y-79093282D01*
X122438069Y-79093282D01*
X121805762Y-79725589D01*
X121788725Y-79662007D01*
X121722899Y-79547993D01*
X121629807Y-79454901D01*
X121515793Y-79389075D01*
X121452209Y-79372037D01*
X122084516Y-78739728D01*
X122030350Y-78700375D01*
X121841017Y-78603904D01*
X121638929Y-78538242D01*
X121429046Y-78505000D01*
X121216554Y-78505000D01*
X121006672Y-78538242D01*
X121006669Y-78538242D01*
X120804582Y-78603904D01*
X120615239Y-78700380D01*
X120561082Y-78739727D01*
X120561082Y-78739728D01*
X121193391Y-79372037D01*
X121129807Y-79389075D01*
X121015793Y-79454901D01*
X120922701Y-79547993D01*
X120856875Y-79662007D01*
X120839837Y-79725591D01*
X120207528Y-79093282D01*
X120207527Y-79093282D01*
X120168180Y-79147439D01*
X120069494Y-79341121D01*
X120068478Y-79340603D01*
X120028012Y-79390813D01*
X119961716Y-79412872D01*
X119894018Y-79395588D01*
X119846412Y-79344447D01*
X119833300Y-79288951D01*
X119833300Y-78985249D01*
X119833299Y-78985247D01*
X119821668Y-78926770D01*
X119821667Y-78926769D01*
X119777352Y-78860447D01*
X119711030Y-78816132D01*
X119711029Y-78816131D01*
X119652552Y-78804500D01*
X119652548Y-78804500D01*
X117913052Y-78804500D01*
X117913047Y-78804500D01*
X117854570Y-78816131D01*
X117854569Y-78816132D01*
X117788247Y-78860447D01*
X117743932Y-78926769D01*
X117743931Y-78926770D01*
X117732300Y-78985247D01*
X117732300Y-80724752D01*
X117743931Y-80783229D01*
X117743932Y-80783230D01*
X117788247Y-80849552D01*
X117854569Y-80893867D01*
X117854570Y-80893868D01*
X117913047Y-80905499D01*
X117913050Y-80905500D01*
X119509782Y-80905500D01*
X119576821Y-80925185D01*
X119622576Y-80977989D01*
X119632520Y-81047147D01*
X119603495Y-81110703D01*
X119597463Y-81117181D01*
X119317904Y-81396740D01*
X119256581Y-81430225D01*
X119186889Y-81425241D01*
X119182770Y-81423620D01*
X119117876Y-81396740D01*
X119089220Y-81384870D01*
X119089212Y-81384868D01*
X118886269Y-81344500D01*
X118886265Y-81344500D01*
X118679335Y-81344500D01*
X118679330Y-81344500D01*
X118476387Y-81384868D01*
X118476379Y-81384870D01*
X118285203Y-81464058D01*
X118113142Y-81579024D01*
X117966824Y-81725342D01*
X117851858Y-81897403D01*
X117772670Y-82088579D01*
X117772668Y-82088587D01*
X117732300Y-82291530D01*
X117732300Y-82498469D01*
X117771180Y-82693929D01*
X117772670Y-82701420D01*
X117851859Y-82892598D01*
X117909341Y-82978626D01*
X117966824Y-83064657D01*
X118113142Y-83210975D01*
X118113145Y-83210977D01*
X118285202Y-83325941D01*
X118476380Y-83405130D01*
X118679330Y-83445499D01*
X118679334Y-83445500D01*
X118679335Y-83445500D01*
X118886266Y-83445500D01*
X118886267Y-83445499D01*
X119089220Y-83405130D01*
X119280398Y-83325941D01*
X119452455Y-83210977D01*
X119598777Y-83064655D01*
X119713741Y-82892598D01*
X119792930Y-82701420D01*
X119833300Y-82498465D01*
X119833300Y-82291535D01*
X119792930Y-82088580D01*
X119754179Y-81995028D01*
X119746710Y-81925559D01*
X119777985Y-81863079D01*
X119781028Y-81859925D01*
X120245136Y-81395819D01*
X120272063Y-81381115D01*
X120297882Y-81364523D01*
X120304082Y-81363631D01*
X120306459Y-81362334D01*
X120332817Y-81359500D01*
X120574077Y-81359500D01*
X120641116Y-81379185D01*
X120686871Y-81431989D01*
X120696815Y-81501147D01*
X120667790Y-81564703D01*
X120655434Y-81576732D01*
X120506824Y-81725342D01*
X120391858Y-81897403D01*
X120312670Y-82088579D01*
X120312668Y-82088587D01*
X120272300Y-82291530D01*
X120272300Y-82498469D01*
X120312668Y-82701412D01*
X120312670Y-82701420D01*
X120391859Y-82892599D01*
X120391859Y-82892600D01*
X120498106Y-83051610D01*
X120518984Y-83118287D01*
X120500499Y-83185667D01*
X120448520Y-83232357D01*
X120395004Y-83244500D01*
X120188916Y-83244500D01*
X120102684Y-83244500D01*
X120047154Y-83259379D01*
X120019389Y-83266819D01*
X119944711Y-83309934D01*
X119944708Y-83309936D01*
X119317904Y-83936740D01*
X119256581Y-83970225D01*
X119186889Y-83965241D01*
X119182770Y-83963620D01*
X119117876Y-83936740D01*
X119089220Y-83924870D01*
X119089212Y-83924868D01*
X118886269Y-83884500D01*
X118886265Y-83884500D01*
X118679335Y-83884500D01*
X118679330Y-83884500D01*
X118476387Y-83924868D01*
X118476379Y-83924870D01*
X118285203Y-84004058D01*
X118113142Y-84119024D01*
X117966824Y-84265342D01*
X117851858Y-84437403D01*
X117772670Y-84628579D01*
X117772668Y-84628587D01*
X117732300Y-84831530D01*
X117732300Y-85038469D01*
X117772668Y-85241412D01*
X117772670Y-85241420D01*
X117849316Y-85426460D01*
X117851859Y-85432598D01*
X117874148Y-85465956D01*
X117966824Y-85604657D01*
X118113142Y-85750975D01*
X118113145Y-85750977D01*
X118285202Y-85865941D01*
X118476380Y-85945130D01*
X118679330Y-85985499D01*
X118679334Y-85985500D01*
X118679335Y-85985500D01*
X118886266Y-85985500D01*
X118886267Y-85985499D01*
X119089220Y-85945130D01*
X119280398Y-85865941D01*
X119452455Y-85750977D01*
X119598777Y-85604655D01*
X119713741Y-85432598D01*
X119792930Y-85241420D01*
X119833300Y-85038465D01*
X119833300Y-84831535D01*
X119792930Y-84628580D01*
X119754179Y-84535028D01*
X119746710Y-84465559D01*
X119777985Y-84403079D01*
X119781028Y-84399925D01*
X120245136Y-83935819D01*
X120272063Y-83921115D01*
X120297882Y-83904523D01*
X120304082Y-83903631D01*
X120306459Y-83902334D01*
X120332817Y-83899500D01*
X120574077Y-83899500D01*
X120641116Y-83919185D01*
X120686871Y-83971989D01*
X120696815Y-84041147D01*
X120667790Y-84104703D01*
X120655434Y-84116732D01*
X120506824Y-84265342D01*
X120391858Y-84437403D01*
X120312670Y-84628579D01*
X120312668Y-84628587D01*
X120272300Y-84831530D01*
X120272300Y-85038469D01*
X120312668Y-85241412D01*
X120312670Y-85241420D01*
X120391859Y-85432599D01*
X120391859Y-85432600D01*
X120498106Y-85591610D01*
X120518984Y-85658287D01*
X120500499Y-85725667D01*
X120448520Y-85772357D01*
X120395004Y-85784500D01*
X120188916Y-85784500D01*
X120102684Y-85784500D01*
X120047154Y-85799379D01*
X120019389Y-85806819D01*
X119944711Y-85849934D01*
X119944708Y-85849936D01*
X119317904Y-86476740D01*
X119256581Y-86510225D01*
X119186889Y-86505241D01*
X119182770Y-86503620D01*
X119117876Y-86476740D01*
X119089220Y-86464870D01*
X119089212Y-86464868D01*
X118886269Y-86424500D01*
X118886265Y-86424500D01*
X118679335Y-86424500D01*
X118679330Y-86424500D01*
X118476387Y-86464868D01*
X118476379Y-86464870D01*
X118285203Y-86544058D01*
X118113142Y-86659024D01*
X117966824Y-86805342D01*
X117851858Y-86977403D01*
X117772670Y-87168579D01*
X117772668Y-87168587D01*
X117732300Y-87371530D01*
X117732300Y-87578469D01*
X117772668Y-87781412D01*
X117772670Y-87781420D01*
X117851858Y-87972596D01*
X117966824Y-88144657D01*
X118113142Y-88290975D01*
X118113145Y-88290977D01*
X118285202Y-88405941D01*
X118476380Y-88485130D01*
X118679330Y-88525499D01*
X118679334Y-88525500D01*
X118679335Y-88525500D01*
X118886266Y-88525500D01*
X118886267Y-88525499D01*
X119089220Y-88485130D01*
X119280398Y-88405941D01*
X119452455Y-88290977D01*
X119598777Y-88144655D01*
X119713741Y-87972598D01*
X119792930Y-87781420D01*
X119833300Y-87578465D01*
X119833300Y-87371535D01*
X119792930Y-87168580D01*
X119754179Y-87075028D01*
X119746710Y-87005559D01*
X119777985Y-86943079D01*
X119781028Y-86939925D01*
X120245136Y-86475819D01*
X120272063Y-86461115D01*
X120297882Y-86444523D01*
X120304082Y-86443631D01*
X120306459Y-86442334D01*
X120332817Y-86439500D01*
X120574077Y-86439500D01*
X120641116Y-86459185D01*
X120686871Y-86511989D01*
X120696815Y-86581147D01*
X120667790Y-86644703D01*
X120655434Y-86656732D01*
X120506824Y-86805342D01*
X120391858Y-86977403D01*
X120312670Y-87168579D01*
X120312668Y-87168587D01*
X120272300Y-87371530D01*
X120272300Y-87578469D01*
X120312668Y-87781412D01*
X120312670Y-87781420D01*
X120391859Y-87972598D01*
X120496806Y-88129663D01*
X120509332Y-88148410D01*
X120530209Y-88215087D01*
X120511724Y-88282467D01*
X120459745Y-88329157D01*
X120406229Y-88341300D01*
X120172116Y-88341300D01*
X120085884Y-88341300D01*
X120030354Y-88356179D01*
X120002589Y-88363619D01*
X119927911Y-88406734D01*
X119927908Y-88406736D01*
X119317904Y-89016740D01*
X119256581Y-89050225D01*
X119186889Y-89045241D01*
X119182770Y-89043620D01*
X119156211Y-89032619D01*
X119089220Y-89004870D01*
X119089212Y-89004868D01*
X118886269Y-88964500D01*
X118886265Y-88964500D01*
X118679335Y-88964500D01*
X118679330Y-88964500D01*
X118476387Y-89004868D01*
X118476379Y-89004870D01*
X118285203Y-89084058D01*
X118113142Y-89199024D01*
X117966824Y-89345342D01*
X117851858Y-89517403D01*
X117772670Y-89708579D01*
X117772668Y-89708587D01*
X117732300Y-89911530D01*
X117732300Y-90118469D01*
X117772668Y-90321412D01*
X117772670Y-90321420D01*
X117798244Y-90383162D01*
X117851859Y-90512598D01*
X117888009Y-90566700D01*
X117966824Y-90684657D01*
X118113142Y-90830975D01*
X118113145Y-90830977D01*
X118285202Y-90945941D01*
X118476380Y-91025130D01*
X118679330Y-91065499D01*
X118679334Y-91065500D01*
X118679335Y-91065500D01*
X118886266Y-91065500D01*
X118886267Y-91065499D01*
X119089220Y-91025130D01*
X119280398Y-90945941D01*
X119452455Y-90830977D01*
X119598777Y-90684655D01*
X119713741Y-90512598D01*
X119792930Y-90321420D01*
X119833300Y-90118465D01*
X119833300Y-89911535D01*
X119792930Y-89708580D01*
X119754179Y-89615028D01*
X119746710Y-89545559D01*
X119777985Y-89483079D01*
X119781028Y-89479925D01*
X120228336Y-89032619D01*
X120255263Y-89017915D01*
X120281082Y-89001323D01*
X120287282Y-89000431D01*
X120289659Y-88999134D01*
X120316017Y-88996300D01*
X120556505Y-88996300D01*
X120623544Y-89015985D01*
X120669299Y-89068789D01*
X120679243Y-89137947D01*
X120650218Y-89201503D01*
X120644186Y-89207981D01*
X120506825Y-89345341D01*
X120506824Y-89345342D01*
X120391858Y-89517403D01*
X120312670Y-89708579D01*
X120312668Y-89708587D01*
X120272300Y-89911530D01*
X120272300Y-90118469D01*
X120312668Y-90321412D01*
X120312670Y-90321420D01*
X120391859Y-90512599D01*
X120391859Y-90512600D01*
X120498106Y-90671610D01*
X120518984Y-90738287D01*
X120500499Y-90805667D01*
X120448520Y-90852357D01*
X120395004Y-90864500D01*
X120188916Y-90864500D01*
X120102684Y-90864500D01*
X120047154Y-90879379D01*
X120019389Y-90886819D01*
X119944711Y-90929934D01*
X119944708Y-90929936D01*
X119317904Y-91556740D01*
X119256581Y-91590225D01*
X119186889Y-91585241D01*
X119182770Y-91583620D01*
X119117876Y-91556740D01*
X119089220Y-91544870D01*
X119089212Y-91544868D01*
X118886269Y-91504500D01*
X118886265Y-91504500D01*
X118679335Y-91504500D01*
X118679330Y-91504500D01*
X118476387Y-91544868D01*
X118476379Y-91544870D01*
X118285203Y-91624058D01*
X118113142Y-91739024D01*
X117966824Y-91885342D01*
X117851858Y-92057403D01*
X117772670Y-92248579D01*
X117772668Y-92248587D01*
X117732300Y-92451530D01*
X117732300Y-92658469D01*
X117772668Y-92861412D01*
X117772670Y-92861420D01*
X117851859Y-93052598D01*
X117870392Y-93080335D01*
X117966824Y-93224657D01*
X118113142Y-93370975D01*
X118113145Y-93370977D01*
X118285202Y-93485941D01*
X118476380Y-93565130D01*
X118679330Y-93605499D01*
X118679334Y-93605500D01*
X118679335Y-93605500D01*
X118886266Y-93605500D01*
X118886267Y-93605499D01*
X119089220Y-93565130D01*
X119280398Y-93485941D01*
X119452455Y-93370977D01*
X119598777Y-93224655D01*
X119713741Y-93052598D01*
X119792930Y-92861420D01*
X119833300Y-92658465D01*
X119833300Y-92451535D01*
X119792930Y-92248580D01*
X119754179Y-92155028D01*
X119746710Y-92085559D01*
X119777985Y-92023079D01*
X119781028Y-92019925D01*
X120245136Y-91555819D01*
X120272063Y-91541115D01*
X120297882Y-91524523D01*
X120304082Y-91523631D01*
X120306459Y-91522334D01*
X120332817Y-91519500D01*
X120574077Y-91519500D01*
X120641116Y-91539185D01*
X120686871Y-91591989D01*
X120696815Y-91661147D01*
X120667790Y-91724703D01*
X120655434Y-91736732D01*
X120506824Y-91885342D01*
X120391858Y-92057403D01*
X120312670Y-92248579D01*
X120312668Y-92248587D01*
X120272300Y-92451530D01*
X120272300Y-92658469D01*
X120312668Y-92861412D01*
X120312670Y-92861420D01*
X120391859Y-93052599D01*
X120391859Y-93052600D01*
X120498106Y-93211610D01*
X120518984Y-93278287D01*
X120500499Y-93345667D01*
X120448520Y-93392357D01*
X120395004Y-93404500D01*
X120188916Y-93404500D01*
X120102684Y-93404500D01*
X120047154Y-93419379D01*
X120019389Y-93426819D01*
X119944711Y-93469934D01*
X119944708Y-93469936D01*
X119317904Y-94096740D01*
X119256581Y-94130225D01*
X119186889Y-94125241D01*
X119182770Y-94123620D01*
X119117876Y-94096740D01*
X119089220Y-94084870D01*
X119089212Y-94084868D01*
X118886269Y-94044500D01*
X118886265Y-94044500D01*
X118679335Y-94044500D01*
X118679330Y-94044500D01*
X118476387Y-94084868D01*
X118476379Y-94084870D01*
X118285203Y-94164058D01*
X118113142Y-94279024D01*
X117966824Y-94425342D01*
X117851858Y-94597403D01*
X117772670Y-94788579D01*
X117772668Y-94788587D01*
X117732300Y-94991530D01*
X117732300Y-95198469D01*
X117772668Y-95401412D01*
X117772670Y-95401420D01*
X117851858Y-95592596D01*
X117966824Y-95764657D01*
X118113142Y-95910975D01*
X118113145Y-95910977D01*
X118285202Y-96025941D01*
X118476380Y-96105130D01*
X118672216Y-96144084D01*
X118679330Y-96145499D01*
X118679334Y-96145500D01*
X118679335Y-96145500D01*
X118886266Y-96145500D01*
X118886267Y-96145499D01*
X119089220Y-96105130D01*
X119280398Y-96025941D01*
X119452455Y-95910977D01*
X119598777Y-95764655D01*
X119713741Y-95592598D01*
X119792930Y-95401420D01*
X119833300Y-95198465D01*
X119833300Y-94991535D01*
X119792930Y-94788580D01*
X119754179Y-94695028D01*
X119746710Y-94625559D01*
X119777985Y-94563079D01*
X119781028Y-94559925D01*
X120245136Y-94095819D01*
X120272063Y-94081115D01*
X120297882Y-94064523D01*
X120304082Y-94063631D01*
X120306459Y-94062334D01*
X120332817Y-94059500D01*
X120574077Y-94059500D01*
X120641116Y-94079185D01*
X120686871Y-94131989D01*
X120696815Y-94201147D01*
X120667790Y-94264703D01*
X120655434Y-94276732D01*
X120506824Y-94425342D01*
X120391858Y-94597403D01*
X120312670Y-94788579D01*
X120312668Y-94788587D01*
X120272300Y-94991530D01*
X120272300Y-95198469D01*
X120312668Y-95401412D01*
X120312670Y-95401420D01*
X120391858Y-95592596D01*
X120506824Y-95764657D01*
X120653142Y-95910975D01*
X120653145Y-95910977D01*
X120825202Y-96025941D01*
X121016380Y-96105130D01*
X121212216Y-96144084D01*
X121219330Y-96145499D01*
X121219334Y-96145500D01*
X121219335Y-96145500D01*
X121426266Y-96145500D01*
X121426267Y-96145499D01*
X121629220Y-96105130D01*
X121820398Y-96025941D01*
X121992455Y-95910977D01*
X122138777Y-95764655D01*
X122253741Y-95592598D01*
X122281808Y-95524840D01*
X122292491Y-95499048D01*
X122336332Y-95444644D01*
X122402626Y-95422579D01*
X122407052Y-95422500D01*
X123194713Y-95422500D01*
X123194716Y-95422500D01*
X123204821Y-95419792D01*
X123274668Y-95421453D01*
X123332532Y-95460613D01*
X123360039Y-95524840D01*
X123348455Y-95593743D01*
X123324597Y-95627247D01*
X122417110Y-96534735D01*
X122356136Y-96595708D01*
X122356134Y-96595711D01*
X122313019Y-96670389D01*
X122290700Y-96753685D01*
X122290700Y-97501900D01*
X122271015Y-97568939D01*
X122218211Y-97614694D01*
X122166700Y-97625900D01*
X121748447Y-97625900D01*
X121689970Y-97637531D01*
X121689969Y-97637532D01*
X121623647Y-97681847D01*
X121579332Y-97748169D01*
X121579331Y-97748170D01*
X121567700Y-97806647D01*
X121567700Y-99546152D01*
X121579331Y-99604629D01*
X121579332Y-99604630D01*
X121623647Y-99670952D01*
X121689969Y-99715267D01*
X121689970Y-99715268D01*
X121748447Y-99726899D01*
X121748450Y-99726900D01*
X122052152Y-99726900D01*
X122119191Y-99746585D01*
X122164946Y-99799389D01*
X122174890Y-99868547D01*
X122145865Y-99932103D01*
X122103935Y-99962338D01*
X122104321Y-99963094D01*
X121910639Y-100061780D01*
X121856482Y-100101127D01*
X121856482Y-100101128D01*
X122488791Y-100733437D01*
X122425207Y-100750475D01*
X122311193Y-100816301D01*
X122218101Y-100909393D01*
X122152275Y-101023407D01*
X122135237Y-101086991D01*
X121502928Y-100454682D01*
X121502927Y-100454682D01*
X121463580Y-100508839D01*
X121367104Y-100698182D01*
X121301442Y-100900269D01*
X121301442Y-100900272D01*
X121268200Y-101110153D01*
X121268200Y-101322646D01*
X121301442Y-101532527D01*
X121301442Y-101532530D01*
X121367104Y-101734617D01*
X121463575Y-101923950D01*
X121502928Y-101978116D01*
X122135237Y-101345808D01*
X122152275Y-101409393D01*
X122218101Y-101523407D01*
X122311193Y-101616499D01*
X122425207Y-101682325D01*
X122488790Y-101699362D01*
X121856482Y-102331669D01*
X121856482Y-102331670D01*
X121910649Y-102371024D01*
X122099982Y-102467495D01*
X122302070Y-102533157D01*
X122511954Y-102566400D01*
X122724446Y-102566400D01*
X122934327Y-102533157D01*
X122934330Y-102533157D01*
X123136417Y-102467495D01*
X123325754Y-102371022D01*
X123379916Y-102331670D01*
X123379917Y-102331670D01*
X122747608Y-101699362D01*
X122811193Y-101682325D01*
X122925207Y-101616499D01*
X123018299Y-101523407D01*
X123084125Y-101409393D01*
X123101162Y-101345809D01*
X123733470Y-101978117D01*
X123733470Y-101978116D01*
X123772822Y-101923954D01*
X123869295Y-101734617D01*
X123902969Y-101630980D01*
X123942406Y-101573305D01*
X124006765Y-101546106D01*
X124075611Y-101558020D01*
X124127087Y-101605264D01*
X124144900Y-101669298D01*
X124144900Y-105423583D01*
X124125215Y-105490622D01*
X124108581Y-105511264D01*
X121219064Y-108400781D01*
X121157741Y-108434266D01*
X121131383Y-108437100D01*
X121107799Y-108437100D01*
X121027175Y-108458703D01*
X120986863Y-108469505D01*
X120878437Y-108532104D01*
X120878434Y-108532106D01*
X120789906Y-108620634D01*
X120789904Y-108620637D01*
X120727305Y-108729063D01*
X120727305Y-108729064D01*
X120694900Y-108849999D01*
X120694900Y-108975201D01*
X120727305Y-109096136D01*
X120789905Y-109204564D01*
X120878436Y-109293095D01*
X120986864Y-109355695D01*
X121107799Y-109388100D01*
X121107801Y-109388100D01*
X121232999Y-109388100D01*
X121233001Y-109388100D01*
X121353936Y-109355695D01*
X121462364Y-109293095D01*
X121550895Y-109204564D01*
X121613495Y-109096136D01*
X121645900Y-108975201D01*
X121645900Y-108951617D01*
X121665585Y-108884578D01*
X121682219Y-108863936D01*
X122809493Y-107736662D01*
X124734465Y-105811690D01*
X124777581Y-105737010D01*
X124799900Y-105653716D01*
X124799900Y-105567484D01*
X124799900Y-104040245D01*
X124819585Y-103973206D01*
X124872389Y-103927451D01*
X124941547Y-103917507D01*
X125005103Y-103946532D01*
X125031286Y-103978243D01*
X125057105Y-104022964D01*
X125145636Y-104111495D01*
X125254064Y-104174095D01*
X125374999Y-104206500D01*
X125375001Y-104206500D01*
X125500199Y-104206500D01*
X125500201Y-104206500D01*
X125621136Y-104174095D01*
X125729564Y-104111495D01*
X125746240Y-104094819D01*
X125807563Y-104061334D01*
X125833921Y-104058500D01*
X126761400Y-104058500D01*
X126770085Y-104061050D01*
X126779047Y-104059762D01*
X126803087Y-104070740D01*
X126828439Y-104078185D01*
X126834366Y-104085025D01*
X126842603Y-104088787D01*
X126856892Y-104111021D01*
X126874194Y-104130989D01*
X126876481Y-104141503D01*
X126880377Y-104147565D01*
X126885400Y-104182500D01*
X126885400Y-104341238D01*
X126865715Y-104408277D01*
X126823400Y-104448625D01*
X126760513Y-104484932D01*
X126760508Y-104484936D01*
X125537465Y-105707980D01*
X125476142Y-105741465D01*
X125449784Y-105744299D01*
X125426200Y-105744299D01*
X125345576Y-105765902D01*
X125305264Y-105776704D01*
X125196838Y-105839303D01*
X125196835Y-105839305D01*
X125108307Y-105927833D01*
X125108305Y-105927836D01*
X125045706Y-106036262D01*
X125029503Y-106096730D01*
X125013301Y-106157198D01*
X125013301Y-106282400D01*
X125045706Y-106403335D01*
X125108306Y-106511763D01*
X125196837Y-106600294D01*
X125305265Y-106662894D01*
X125426200Y-106695299D01*
X125426202Y-106695299D01*
X125551400Y-106695299D01*
X125551402Y-106695299D01*
X125672337Y-106662894D01*
X125780765Y-106600294D01*
X125869296Y-106511763D01*
X125931896Y-106403335D01*
X125964301Y-106282400D01*
X125964301Y-106258816D01*
X125983986Y-106191777D01*
X126000620Y-106171135D01*
X127060936Y-105110819D01*
X127122259Y-105077334D01*
X127148617Y-105074500D01*
X138355191Y-105074500D01*
X138422230Y-105094185D01*
X138467985Y-105146989D01*
X138477929Y-105216147D01*
X138448904Y-105279703D01*
X138442872Y-105286181D01*
X137873073Y-105855980D01*
X137811750Y-105889465D01*
X137785392Y-105892299D01*
X129360265Y-105892299D01*
X129274033Y-105892299D01*
X129218503Y-105907178D01*
X129190738Y-105914618D01*
X129116060Y-105957733D01*
X129116057Y-105957735D01*
X123702336Y-111371456D01*
X123702334Y-111371459D01*
X123659219Y-111446137D01*
X123636900Y-111529433D01*
X123636900Y-116288679D01*
X123617215Y-116355718D01*
X123600581Y-116376360D01*
X123583906Y-116393034D01*
X123583904Y-116393037D01*
X123521305Y-116501463D01*
X123521305Y-116501464D01*
X123488900Y-116622399D01*
X123488900Y-116747601D01*
X123521305Y-116868536D01*
X123583905Y-116976964D01*
X123672436Y-117065495D01*
X123780864Y-117128095D01*
X123901799Y-117160500D01*
X123901801Y-117160500D01*
X124026999Y-117160500D01*
X124027001Y-117160500D01*
X124147936Y-117128095D01*
X124256364Y-117065495D01*
X124344895Y-116976964D01*
X124407495Y-116868536D01*
X124439900Y-116747601D01*
X124439900Y-116622399D01*
X124407495Y-116501464D01*
X124344895Y-116393036D01*
X124328219Y-116376360D01*
X124294734Y-116315037D01*
X124291900Y-116288679D01*
X124291900Y-111759565D01*
X124311585Y-111692526D01*
X124328219Y-111671884D01*
X125954419Y-110045684D01*
X126015742Y-110012199D01*
X126085434Y-110017183D01*
X126141367Y-110059055D01*
X126165784Y-110124519D01*
X126166100Y-110133365D01*
X126166100Y-114123900D01*
X126146415Y-114190939D01*
X126093611Y-114236694D01*
X126042100Y-114247900D01*
X125839330Y-114247900D01*
X125808900Y-114250753D01*
X125808898Y-114250753D01*
X125680719Y-114295606D01*
X125680717Y-114295607D01*
X125571450Y-114376250D01*
X125490807Y-114485517D01*
X125490806Y-114485519D01*
X125445953Y-114613698D01*
X125445953Y-114613700D01*
X125443100Y-114644130D01*
X125443100Y-116202669D01*
X125445953Y-116233099D01*
X125445953Y-116233101D01*
X125483374Y-116340041D01*
X125490807Y-116361282D01*
X125571450Y-116470550D01*
X125680718Y-116551193D01*
X125701689Y-116558531D01*
X125808899Y-116596046D01*
X125839330Y-116598900D01*
X125839334Y-116598900D01*
X127147870Y-116598900D01*
X127178299Y-116596046D01*
X127178301Y-116596046D01*
X127242390Y-116573619D01*
X127306482Y-116551193D01*
X127415750Y-116470550D01*
X127496393Y-116361282D01*
X127533248Y-116255957D01*
X127541246Y-116233101D01*
X127541246Y-116233099D01*
X127544100Y-116202669D01*
X127544100Y-116193723D01*
X127563785Y-116126684D01*
X127616589Y-116080929D01*
X127685747Y-116070985D01*
X127749303Y-116100010D01*
X127778585Y-116137428D01*
X127838979Y-116255957D01*
X127963872Y-116427859D01*
X127963876Y-116427864D01*
X128114135Y-116578123D01*
X128114140Y-116578127D01*
X128286042Y-116703020D01*
X128475382Y-116799495D01*
X128677471Y-116865157D01*
X128743600Y-116875631D01*
X128743600Y-115827545D01*
X128810257Y-115866030D01*
X128931065Y-115898400D01*
X129056135Y-115898400D01*
X129176943Y-115866030D01*
X129243600Y-115827545D01*
X129243600Y-116875630D01*
X129309726Y-116865157D01*
X129309729Y-116865157D01*
X129511817Y-116799495D01*
X129701157Y-116703020D01*
X129873059Y-116578127D01*
X129873064Y-116578123D01*
X130023323Y-116427864D01*
X130023327Y-116427859D01*
X130148220Y-116255957D01*
X130244695Y-116066617D01*
X130284359Y-115944544D01*
X130323796Y-115886869D01*
X130388155Y-115859670D01*
X130457001Y-115871584D01*
X130508477Y-115918828D01*
X130516851Y-115935409D01*
X130562657Y-116045996D01*
X130677624Y-116218057D01*
X130823942Y-116364375D01*
X130823945Y-116364377D01*
X130996002Y-116479341D01*
X131187180Y-116558530D01*
X131375787Y-116596046D01*
X131390130Y-116598899D01*
X131390134Y-116598900D01*
X131390135Y-116598900D01*
X131597066Y-116598900D01*
X131597067Y-116598899D01*
X131800020Y-116558530D01*
X131991198Y-116479341D01*
X132163255Y-116364377D01*
X132309577Y-116218055D01*
X132424541Y-116045998D01*
X132503730Y-115854820D01*
X132544100Y-115651865D01*
X132544100Y-115194935D01*
X132503730Y-114991980D01*
X132424541Y-114800802D01*
X132309577Y-114628745D01*
X132309575Y-114628742D01*
X132163257Y-114482424D01*
X132068238Y-114418935D01*
X131991198Y-114367459D01*
X131800020Y-114288270D01*
X131800012Y-114288268D01*
X131597069Y-114247900D01*
X131597065Y-114247900D01*
X131390135Y-114247900D01*
X131390130Y-114247900D01*
X131187187Y-114288268D01*
X131187179Y-114288270D01*
X130996003Y-114367458D01*
X130823942Y-114482424D01*
X130677624Y-114628742D01*
X130562657Y-114800804D01*
X130516851Y-114911390D01*
X130473009Y-114965794D01*
X130406715Y-114987858D01*
X130339016Y-114970578D01*
X130291406Y-114919441D01*
X130284359Y-114902255D01*
X130244695Y-114780182D01*
X130148220Y-114590842D01*
X130023327Y-114418940D01*
X130023323Y-114418935D01*
X129873064Y-114268676D01*
X129873059Y-114268672D01*
X129701157Y-114143779D01*
X129511815Y-114047303D01*
X129309724Y-113981641D01*
X129243600Y-113971168D01*
X129243600Y-115019254D01*
X129176943Y-114980770D01*
X129056135Y-114948400D01*
X128931065Y-114948400D01*
X128810257Y-114980770D01*
X128743600Y-115019254D01*
X128743600Y-113971168D01*
X128743599Y-113971168D01*
X128677475Y-113981641D01*
X128475384Y-114047303D01*
X128286042Y-114143779D01*
X128114140Y-114268672D01*
X128114135Y-114268676D01*
X127963876Y-114418935D01*
X127963872Y-114418940D01*
X127838979Y-114590842D01*
X127778585Y-114709371D01*
X127730610Y-114760167D01*
X127662789Y-114776962D01*
X127596654Y-114754424D01*
X127553203Y-114699709D01*
X127544100Y-114653076D01*
X127544100Y-114644130D01*
X127541246Y-114613700D01*
X127541246Y-114613698D01*
X127496393Y-114485519D01*
X127496392Y-114485517D01*
X127415750Y-114376250D01*
X127306482Y-114295607D01*
X127306480Y-114295606D01*
X127178300Y-114250753D01*
X127147870Y-114247900D01*
X127147866Y-114247900D01*
X126945100Y-114247900D01*
X126878061Y-114228215D01*
X126832306Y-114175411D01*
X126821100Y-114123900D01*
X126821100Y-109872417D01*
X126840785Y-109805378D01*
X126857419Y-109784736D01*
X128429019Y-108213136D01*
X128490342Y-108179651D01*
X128560034Y-108184635D01*
X128615967Y-108226507D01*
X128640384Y-108291971D01*
X128640700Y-108300817D01*
X128640700Y-108742484D01*
X128640700Y-108828716D01*
X128663019Y-108912010D01*
X128706135Y-108986690D01*
X129569735Y-109850290D01*
X129630710Y-109911265D01*
X129705390Y-109954381D01*
X129788684Y-109976700D01*
X131702183Y-109976700D01*
X131769222Y-109996385D01*
X131789864Y-110013019D01*
X134501581Y-112724736D01*
X134535066Y-112786059D01*
X134537900Y-112812417D01*
X134537900Y-112836001D01*
X134570305Y-112956936D01*
X134632905Y-113065364D01*
X134721436Y-113153895D01*
X134829864Y-113216495D01*
X134950799Y-113248900D01*
X134950801Y-113248900D01*
X135075999Y-113248900D01*
X135076001Y-113248900D01*
X135196936Y-113216495D01*
X135305364Y-113153895D01*
X135393895Y-113065364D01*
X135456495Y-112956936D01*
X135488900Y-112836001D01*
X135488900Y-112766817D01*
X135508585Y-112699778D01*
X135561389Y-112654023D01*
X135630547Y-112644079D01*
X135694103Y-112673104D01*
X135700581Y-112679136D01*
X135886334Y-112864889D01*
X135947309Y-112925864D01*
X136021989Y-112968980D01*
X136105283Y-112991299D01*
X139057700Y-112991299D01*
X139124739Y-113010984D01*
X139170494Y-113063788D01*
X139181700Y-113115299D01*
X139181700Y-117327684D01*
X139181700Y-117413916D01*
X139204019Y-117497210D01*
X139247134Y-117571888D01*
X139247136Y-117571891D01*
X140292781Y-118617536D01*
X140326266Y-118678859D01*
X140327305Y-118684193D01*
X140329100Y-118694626D01*
X140329100Y-118728801D01*
X140345523Y-118790094D01*
X140346484Y-118795676D01*
X140343092Y-118824976D01*
X140342391Y-118854455D01*
X140339120Y-118859286D01*
X140338450Y-118865083D01*
X140319760Y-118887892D01*
X140303230Y-118912318D01*
X140297865Y-118914615D01*
X140294168Y-118919128D01*
X140266111Y-118928213D01*
X140239001Y-118939823D01*
X140228289Y-118940461D01*
X140227697Y-118940653D01*
X140227212Y-118940525D01*
X140224279Y-118940700D01*
X139841017Y-118940700D01*
X139773978Y-118921015D01*
X139753336Y-118904381D01*
X131715219Y-110866264D01*
X131681734Y-110804941D01*
X131678900Y-110778583D01*
X131678900Y-110755000D01*
X131678900Y-110754999D01*
X131646495Y-110634064D01*
X131583895Y-110525636D01*
X131495364Y-110437105D01*
X131386936Y-110374505D01*
X131386937Y-110374505D01*
X131346624Y-110363703D01*
X131266001Y-110342100D01*
X131140799Y-110342100D01*
X131060175Y-110363703D01*
X131019863Y-110374505D01*
X130911437Y-110437104D01*
X130911434Y-110437106D01*
X130822906Y-110525634D01*
X130822904Y-110525637D01*
X130760305Y-110634063D01*
X130760305Y-110634064D01*
X130727900Y-110754999D01*
X130727900Y-110880201D01*
X130760305Y-111001136D01*
X130822905Y-111109564D01*
X130911436Y-111198095D01*
X131019864Y-111260695D01*
X131140799Y-111293100D01*
X131164383Y-111293100D01*
X131231422Y-111312785D01*
X131252064Y-111329419D01*
X139452910Y-119530265D01*
X139527590Y-119573381D01*
X139610884Y-119595700D01*
X139610886Y-119595700D01*
X141097071Y-119595700D01*
X141097073Y-119595700D01*
X141180367Y-119573381D01*
X141255047Y-119530265D01*
X156992465Y-103792847D01*
X157035581Y-103718167D01*
X157057900Y-103634873D01*
X157057900Y-103548641D01*
X157057900Y-96431121D01*
X157077585Y-96364082D01*
X157094219Y-96343440D01*
X157110895Y-96326764D01*
X157173495Y-96218336D01*
X157205900Y-96097401D01*
X157205900Y-95972199D01*
X157173495Y-95851264D01*
X157110895Y-95742836D01*
X157022364Y-95654305D01*
X156913936Y-95591705D01*
X156913937Y-95591705D01*
X156873624Y-95580903D01*
X156793001Y-95559300D01*
X156667799Y-95559300D01*
X156587175Y-95580903D01*
X156546863Y-95591705D01*
X156438437Y-95654304D01*
X156438434Y-95654306D01*
X156349906Y-95742834D01*
X156349904Y-95742837D01*
X156287305Y-95851263D01*
X156287305Y-95851264D01*
X156254900Y-95972199D01*
X156254900Y-96097401D01*
X156287305Y-96218336D01*
X156349904Y-96326762D01*
X156349906Y-96326765D01*
X156366581Y-96343440D01*
X156400066Y-96404763D01*
X156402900Y-96431121D01*
X156402900Y-103404739D01*
X156383215Y-103471778D01*
X156366581Y-103492420D01*
X141409049Y-118449951D01*
X141347726Y-118483436D01*
X141278034Y-118478452D01*
X141222101Y-118436580D01*
X141213984Y-118424274D01*
X141185095Y-118374236D01*
X141096564Y-118285705D01*
X140988136Y-118223105D01*
X140988137Y-118223105D01*
X140947824Y-118212303D01*
X140867201Y-118190700D01*
X140867199Y-118190700D01*
X140843617Y-118190700D01*
X140776578Y-118171015D01*
X140755936Y-118154381D01*
X139873019Y-117271464D01*
X139839534Y-117210141D01*
X139836700Y-117183783D01*
X139836700Y-113060120D01*
X139856385Y-112993081D01*
X139873019Y-112972439D01*
X139876479Y-112968979D01*
X139889695Y-112955763D01*
X139952295Y-112847335D01*
X139984700Y-112726400D01*
X139984700Y-112601198D01*
X139952295Y-112480263D01*
X139889695Y-112371835D01*
X139801164Y-112283304D01*
X139743282Y-112249886D01*
X139695067Y-112199320D01*
X139681843Y-112130713D01*
X139707811Y-112065848D01*
X139764725Y-112025319D01*
X139805282Y-112018499D01*
X141352076Y-112018499D01*
X141419115Y-112038184D01*
X141464870Y-112090988D01*
X141474814Y-112160146D01*
X141459464Y-112204498D01*
X141402905Y-112302462D01*
X141386702Y-112362930D01*
X141370500Y-112423398D01*
X141370500Y-112548600D01*
X141402905Y-112669535D01*
X141465505Y-112777963D01*
X141554036Y-112866494D01*
X141662464Y-112929094D01*
X141783399Y-112961499D01*
X141783401Y-112961499D01*
X141908599Y-112961499D01*
X141908601Y-112961499D01*
X142029536Y-112929094D01*
X142137964Y-112866494D01*
X142154640Y-112849818D01*
X142215963Y-112816333D01*
X142242321Y-112813499D01*
X142735315Y-112813499D01*
X142735317Y-112813499D01*
X142818611Y-112791180D01*
X142893291Y-112748064D01*
X155157736Y-100483619D01*
X155219059Y-100450134D01*
X155245417Y-100447300D01*
X155268999Y-100447300D01*
X155269001Y-100447300D01*
X155389936Y-100414895D01*
X155498364Y-100352295D01*
X155586895Y-100263764D01*
X155649495Y-100155336D01*
X155681900Y-100034401D01*
X155681900Y-99909199D01*
X155649495Y-99788264D01*
X155586895Y-99679836D01*
X155498364Y-99591305D01*
X155389936Y-99528705D01*
X155389937Y-99528705D01*
X155349624Y-99517903D01*
X155269001Y-99496300D01*
X155143799Y-99496300D01*
X155063175Y-99517903D01*
X155022863Y-99528705D01*
X154914437Y-99591304D01*
X154914434Y-99591306D01*
X154825906Y-99679834D01*
X154825904Y-99679837D01*
X154763305Y-99788263D01*
X154730900Y-99909200D01*
X154730900Y-99932783D01*
X154711215Y-99999822D01*
X154694581Y-100020464D01*
X146019715Y-108695329D01*
X145958392Y-108728814D01*
X145888700Y-108723830D01*
X145832767Y-108681958D01*
X145824344Y-108667163D01*
X145823758Y-108667502D01*
X145813622Y-108649945D01*
X145757095Y-108552036D01*
X145668564Y-108463505D01*
X145668563Y-108463504D01*
X145668560Y-108463502D01*
X145573743Y-108408760D01*
X145525528Y-108358193D01*
X145512304Y-108289586D01*
X145538272Y-108224722D01*
X145548054Y-108213700D01*
X155366865Y-98394890D01*
X155409981Y-98320210D01*
X155432300Y-98236916D01*
X155432300Y-98150684D01*
X155432300Y-95237321D01*
X155451985Y-95170282D01*
X155468619Y-95149640D01*
X155485295Y-95132964D01*
X155547895Y-95024536D01*
X155580300Y-94903601D01*
X155580300Y-94778399D01*
X155547895Y-94657464D01*
X155485295Y-94549036D01*
X155396764Y-94460505D01*
X155288336Y-94397905D01*
X155288337Y-94397905D01*
X155248024Y-94387103D01*
X155167401Y-94365500D01*
X155042199Y-94365500D01*
X154961575Y-94387103D01*
X154921263Y-94397905D01*
X154812837Y-94460504D01*
X154812834Y-94460506D01*
X154773381Y-94499960D01*
X154712058Y-94533445D01*
X154642366Y-94528461D01*
X154598019Y-94499960D01*
X154507765Y-94409706D01*
X154507764Y-94409705D01*
X154399336Y-94347105D01*
X154399337Y-94347105D01*
X154359024Y-94336303D01*
X154278401Y-94314700D01*
X154153199Y-94314700D01*
X154072575Y-94336303D01*
X154032263Y-94347105D01*
X153941899Y-94399276D01*
X153873998Y-94415747D01*
X153807972Y-94392895D01*
X153764782Y-94337973D01*
X153755900Y-94291888D01*
X153755900Y-92087721D01*
X153775585Y-92020682D01*
X153792219Y-92000040D01*
X153808895Y-91983364D01*
X153871495Y-91874936D01*
X153903900Y-91754001D01*
X153903900Y-91753997D01*
X153904261Y-91751259D01*
X153905207Y-91749118D01*
X153906003Y-91746151D01*
X153906465Y-91746275D01*
X153932528Y-91687362D01*
X153990852Y-91648891D01*
X154060717Y-91648060D01*
X154114881Y-91679763D01*
X165997788Y-103562670D01*
X166054849Y-103595614D01*
X166054851Y-103595615D01*
X166077709Y-103608813D01*
X166077711Y-103608813D01*
X166077712Y-103608814D01*
X166166856Y-103632700D01*
X176656854Y-103632700D01*
X176723893Y-103652385D01*
X176732343Y-103658326D01*
X176738032Y-103662691D01*
X176738036Y-103662695D01*
X176846464Y-103725295D01*
X176967399Y-103757700D01*
X176967401Y-103757700D01*
X177092599Y-103757700D01*
X177092601Y-103757700D01*
X177213536Y-103725295D01*
X177321964Y-103662695D01*
X177328840Y-103655819D01*
X177390163Y-103622334D01*
X177416521Y-103619500D01*
X177677990Y-103619500D01*
X177745029Y-103639185D01*
X177788474Y-103687204D01*
X177836949Y-103782340D01*
X177836954Y-103782347D01*
X177926652Y-103872045D01*
X177926654Y-103872046D01*
X177926658Y-103872050D01*
X178035388Y-103927451D01*
X178039698Y-103929647D01*
X178133475Y-103944499D01*
X178133481Y-103944500D01*
X178596518Y-103944499D01*
X178690304Y-103929646D01*
X178803342Y-103872050D01*
X178893050Y-103782342D01*
X178950646Y-103669304D01*
X178950646Y-103669302D01*
X178950647Y-103669301D01*
X178965499Y-103575524D01*
X178965500Y-103575519D01*
X178965499Y-103090542D01*
X178985183Y-103023504D01*
X179037987Y-102977749D01*
X179107146Y-102967805D01*
X179170702Y-102996830D01*
X179177180Y-103002862D01*
X179378181Y-103203863D01*
X179411666Y-103265186D01*
X179414500Y-103291544D01*
X179414500Y-103575517D01*
X179419774Y-103608813D01*
X179429354Y-103669304D01*
X179486950Y-103782342D01*
X179486952Y-103782344D01*
X179486954Y-103782347D01*
X179576652Y-103872045D01*
X179576654Y-103872046D01*
X179576658Y-103872050D01*
X179685388Y-103927451D01*
X179689698Y-103929647D01*
X179783475Y-103944499D01*
X179783481Y-103944500D01*
X180246518Y-103944499D01*
X180340304Y-103929646D01*
X180453342Y-103872050D01*
X180543050Y-103782342D01*
X180553216Y-103762389D01*
X180601190Y-103711595D01*
X180669011Y-103694800D01*
X180735146Y-103717338D01*
X180778597Y-103772053D01*
X180787700Y-103818686D01*
X180787700Y-120577700D01*
X180768015Y-120644739D01*
X180715211Y-120690494D01*
X180663700Y-120701700D01*
X117353900Y-120701700D01*
X117286861Y-120682015D01*
X117241106Y-120629211D01*
X117229900Y-120577700D01*
X117229900Y-106167530D01*
X117757700Y-106167530D01*
X117757700Y-106374469D01*
X117798068Y-106577412D01*
X117798070Y-106577420D01*
X117877258Y-106768596D01*
X117992224Y-106940657D01*
X118138542Y-107086975D01*
X118138545Y-107086977D01*
X118310602Y-107201941D01*
X118501780Y-107281130D01*
X118704730Y-107321499D01*
X118704734Y-107321500D01*
X118704735Y-107321500D01*
X118911666Y-107321500D01*
X118911667Y-107321499D01*
X119114620Y-107281130D01*
X119305798Y-107201941D01*
X119477855Y-107086977D01*
X119624177Y-106940655D01*
X119739141Y-106768598D01*
X119818330Y-106577420D01*
X119858700Y-106374465D01*
X119858700Y-106167535D01*
X119818330Y-105964580D01*
X119739141Y-105773402D01*
X119624177Y-105601345D01*
X119624175Y-105601342D01*
X119477857Y-105455024D01*
X119391826Y-105397541D01*
X119305798Y-105340059D01*
X119114620Y-105260870D01*
X119114612Y-105260868D01*
X118911669Y-105220500D01*
X118911665Y-105220500D01*
X118704735Y-105220500D01*
X118704730Y-105220500D01*
X118501787Y-105260868D01*
X118501779Y-105260870D01*
X118310603Y-105340058D01*
X118138542Y-105455024D01*
X117992224Y-105601342D01*
X117877258Y-105773403D01*
X117798070Y-105964579D01*
X117798068Y-105964587D01*
X117757700Y-106167530D01*
X117229900Y-106167530D01*
X117229900Y-101431383D01*
X117249585Y-101364344D01*
X117302389Y-101318589D01*
X117371547Y-101308645D01*
X117435103Y-101337670D01*
X117472877Y-101396448D01*
X117476373Y-101411985D01*
X117491442Y-101507127D01*
X117491442Y-101507130D01*
X117557104Y-101709217D01*
X117653575Y-101898550D01*
X117692928Y-101952716D01*
X118325237Y-101320408D01*
X118342275Y-101383993D01*
X118408101Y-101498007D01*
X118501193Y-101591099D01*
X118615207Y-101656925D01*
X118678790Y-101673962D01*
X118046482Y-102306269D01*
X118046482Y-102306270D01*
X118100649Y-102345624D01*
X118289982Y-102442095D01*
X118466173Y-102499343D01*
X118523848Y-102538780D01*
X118551047Y-102603139D01*
X118539132Y-102671985D01*
X118491888Y-102723461D01*
X118475308Y-102731835D01*
X118310603Y-102800057D01*
X118138542Y-102915024D01*
X117992224Y-103061342D01*
X117877258Y-103233403D01*
X117798070Y-103424579D01*
X117798068Y-103424587D01*
X117757700Y-103627530D01*
X117757700Y-103834469D01*
X117798068Y-104037412D01*
X117798070Y-104037420D01*
X117854682Y-104174094D01*
X117877259Y-104228598D01*
X117921961Y-104295500D01*
X117992224Y-104400657D01*
X118138542Y-104546975D01*
X118138545Y-104546977D01*
X118310602Y-104661941D01*
X118501780Y-104741130D01*
X118704730Y-104781499D01*
X118704734Y-104781500D01*
X118704735Y-104781500D01*
X118911666Y-104781500D01*
X118911667Y-104781499D01*
X119114620Y-104741130D01*
X119305798Y-104661941D01*
X119477855Y-104546977D01*
X119624177Y-104400655D01*
X119739141Y-104228598D01*
X119818330Y-104037420D01*
X119858700Y-103834465D01*
X119858700Y-103627535D01*
X119818330Y-103424580D01*
X119739141Y-103233402D01*
X119624177Y-103061345D01*
X119624175Y-103061342D01*
X119477857Y-102915024D01*
X119315737Y-102806700D01*
X119305798Y-102800059D01*
X119305793Y-102800057D01*
X119244091Y-102774499D01*
X119141090Y-102731834D01*
X119086688Y-102687994D01*
X119064623Y-102621700D01*
X119081902Y-102554001D01*
X119133039Y-102506390D01*
X119150226Y-102499343D01*
X119326417Y-102442095D01*
X119515754Y-102345622D01*
X119569916Y-102306270D01*
X119569917Y-102306270D01*
X118937608Y-101673962D01*
X119001193Y-101656925D01*
X119115207Y-101591099D01*
X119208299Y-101498007D01*
X119274125Y-101383993D01*
X119291162Y-101320409D01*
X119923470Y-101952717D01*
X119923470Y-101952716D01*
X119962822Y-101898554D01*
X120059295Y-101709217D01*
X120124957Y-101507130D01*
X120124957Y-101507127D01*
X120158200Y-101297246D01*
X120158200Y-101084753D01*
X120124957Y-100874872D01*
X120124957Y-100874869D01*
X120059295Y-100672782D01*
X119962824Y-100483449D01*
X119923470Y-100429282D01*
X119923469Y-100429282D01*
X119291162Y-101061590D01*
X119274125Y-100998007D01*
X119208299Y-100883993D01*
X119115207Y-100790901D01*
X119001193Y-100725075D01*
X118937609Y-100708037D01*
X119569916Y-100075728D01*
X119515750Y-100036375D01*
X119322079Y-99937694D01*
X119322596Y-99936678D01*
X119272392Y-99896221D01*
X119250327Y-99829927D01*
X119267606Y-99762228D01*
X119318742Y-99714617D01*
X119374248Y-99701500D01*
X119677950Y-99701500D01*
X119677951Y-99701499D01*
X119692768Y-99698552D01*
X119736429Y-99689868D01*
X119736429Y-99689867D01*
X119736431Y-99689867D01*
X119802752Y-99645552D01*
X119847067Y-99579231D01*
X119847067Y-99579229D01*
X119847068Y-99579229D01*
X119858699Y-99520752D01*
X119858700Y-99520750D01*
X119858700Y-97781249D01*
X119858699Y-97781247D01*
X119847068Y-97722770D01*
X119847067Y-97722769D01*
X119802752Y-97656447D01*
X119736430Y-97612132D01*
X119736429Y-97612131D01*
X119677952Y-97600500D01*
X119677948Y-97600500D01*
X117938452Y-97600500D01*
X117938447Y-97600500D01*
X117879970Y-97612131D01*
X117879969Y-97612132D01*
X117813647Y-97656447D01*
X117769332Y-97722769D01*
X117769331Y-97722770D01*
X117757700Y-97781247D01*
X117757700Y-99520752D01*
X117769331Y-99579229D01*
X117769332Y-99579230D01*
X117813647Y-99645552D01*
X117879969Y-99689867D01*
X117879970Y-99689868D01*
X117938447Y-99701499D01*
X117938450Y-99701500D01*
X118242152Y-99701500D01*
X118309191Y-99721185D01*
X118354946Y-99773989D01*
X118364890Y-99843147D01*
X118335865Y-99906703D01*
X118293935Y-99936938D01*
X118294321Y-99937694D01*
X118100639Y-100036380D01*
X118046482Y-100075727D01*
X118046482Y-100075728D01*
X118678791Y-100708037D01*
X118615207Y-100725075D01*
X118501193Y-100790901D01*
X118408101Y-100883993D01*
X118342275Y-100998007D01*
X118325237Y-101061591D01*
X117692928Y-100429282D01*
X117692927Y-100429282D01*
X117653580Y-100483439D01*
X117557104Y-100672782D01*
X117491442Y-100874869D01*
X117491442Y-100874872D01*
X117476373Y-100970014D01*
X117446444Y-101033149D01*
X117387132Y-101070080D01*
X117317270Y-101069082D01*
X117259037Y-101030472D01*
X117230923Y-100966508D01*
X117229900Y-100950616D01*
X117229900Y-77765700D01*
X117249585Y-77698661D01*
X117302389Y-77652906D01*
X117353900Y-77641700D01*
X174896190Y-77641700D01*
X174963229Y-77661385D01*
G37*
%TD.AperFunction*%
%TA.AperFunction,Conductor*%
G36*
X180158039Y-100240685D02*
G01*
X180203794Y-100293489D01*
X180215000Y-100345000D01*
X180215000Y-101621000D01*
X180195315Y-101688039D01*
X180142511Y-101733794D01*
X180091000Y-101745000D01*
X179839000Y-101745000D01*
X179771961Y-101725315D01*
X179726206Y-101672511D01*
X179715000Y-101621000D01*
X179715000Y-100345000D01*
X179734685Y-100277961D01*
X179787489Y-100232206D01*
X179839000Y-100221000D01*
X180091000Y-100221000D01*
X180158039Y-100240685D01*
G37*
%TD.AperFunction*%
%TA.AperFunction,Conductor*%
G36*
X124110139Y-95870529D02*
G01*
X124166072Y-95912401D01*
X124190489Y-95977865D01*
X124175637Y-96046138D01*
X124174194Y-96048708D01*
X124167220Y-96060787D01*
X124167219Y-96060788D01*
X124144900Y-96144085D01*
X124144900Y-100763501D01*
X124125215Y-100830540D01*
X124072411Y-100876295D01*
X124003253Y-100886239D01*
X123939697Y-100857214D01*
X123902969Y-100801819D01*
X123869295Y-100698182D01*
X123772824Y-100508849D01*
X123733470Y-100454682D01*
X123733469Y-100454682D01*
X123101162Y-101086990D01*
X123084125Y-101023407D01*
X123018299Y-100909393D01*
X122925207Y-100816301D01*
X122811193Y-100750475D01*
X122747609Y-100733437D01*
X123379916Y-100101128D01*
X123325750Y-100061775D01*
X123132079Y-99963094D01*
X123132596Y-99962078D01*
X123082392Y-99921621D01*
X123060327Y-99855327D01*
X123077606Y-99787628D01*
X123128742Y-99740017D01*
X123184248Y-99726900D01*
X123487950Y-99726900D01*
X123487951Y-99726899D01*
X123502768Y-99723952D01*
X123546429Y-99715268D01*
X123546429Y-99715267D01*
X123546431Y-99715267D01*
X123612752Y-99670952D01*
X123657067Y-99604631D01*
X123657067Y-99604629D01*
X123657068Y-99604629D01*
X123668699Y-99546152D01*
X123668700Y-99546150D01*
X123668700Y-97806649D01*
X123668699Y-97806647D01*
X123657068Y-97748170D01*
X123657067Y-97748169D01*
X123612752Y-97681847D01*
X123546430Y-97637532D01*
X123546429Y-97637531D01*
X123487952Y-97625900D01*
X123487948Y-97625900D01*
X123069700Y-97625900D01*
X123002661Y-97606215D01*
X122956906Y-97553411D01*
X122945700Y-97501900D01*
X122945700Y-96983817D01*
X122965385Y-96916778D01*
X122982019Y-96896136D01*
X123473392Y-96404763D01*
X123979126Y-95899028D01*
X124040447Y-95865545D01*
X124110139Y-95870529D01*
G37*
%TD.AperFunction*%
%TA.AperFunction,Conductor*%
G36*
X180730739Y-77661385D02*
G01*
X180776494Y-77714189D01*
X180787700Y-77765700D01*
X180787700Y-96623314D01*
X180768015Y-96690353D01*
X180715211Y-96736108D01*
X180646053Y-96746052D01*
X180582497Y-96717027D01*
X180553216Y-96679611D01*
X180543050Y-96659658D01*
X180543046Y-96659654D01*
X180543045Y-96659652D01*
X180453347Y-96569954D01*
X180453344Y-96569952D01*
X180453342Y-96569950D01*
X180376517Y-96530805D01*
X180340301Y-96512352D01*
X180246524Y-96497500D01*
X179783482Y-96497500D01*
X179702519Y-96510323D01*
X179689696Y-96512354D01*
X179576658Y-96569950D01*
X179576657Y-96569951D01*
X179576652Y-96569954D01*
X179486954Y-96659652D01*
X179486951Y-96659657D01*
X179486950Y-96659658D01*
X179474460Y-96684171D01*
X179429352Y-96772698D01*
X179414500Y-96866475D01*
X179414500Y-97479517D01*
X179424584Y-97543185D01*
X179429354Y-97573304D01*
X179486950Y-97686342D01*
X179486952Y-97686344D01*
X179486954Y-97686347D01*
X179576652Y-97776045D01*
X179576654Y-97776046D01*
X179576658Y-97776050D01*
X179583596Y-97779585D01*
X179594659Y-97790033D01*
X179608503Y-97796356D01*
X179619544Y-97813536D01*
X179634391Y-97827559D01*
X179638632Y-97843238D01*
X179646277Y-97855134D01*
X179651300Y-97890069D01*
X179651300Y-97973205D01*
X179631615Y-98040244D01*
X179583596Y-98083689D01*
X179563459Y-98093949D01*
X179563452Y-98093954D01*
X179473754Y-98183652D01*
X179473751Y-98183657D01*
X179473750Y-98183658D01*
X179466626Y-98197640D01*
X179416152Y-98296698D01*
X179401300Y-98390475D01*
X179401300Y-98750455D01*
X179381615Y-98817494D01*
X179364981Y-98838136D01*
X179163980Y-99039136D01*
X179102657Y-99072621D01*
X179032965Y-99067637D01*
X178977032Y-99025765D01*
X178952615Y-98960301D01*
X178952299Y-98951480D01*
X178952299Y-98390482D01*
X178937446Y-98296696D01*
X178879850Y-98183658D01*
X178879846Y-98183654D01*
X178879845Y-98183652D01*
X178790147Y-98093954D01*
X178790143Y-98093951D01*
X178790142Y-98093950D01*
X178748115Y-98072536D01*
X178701622Y-98048846D01*
X178650827Y-98000872D01*
X178634032Y-97933050D01*
X178656570Y-97866916D01*
X178701620Y-97827879D01*
X178803342Y-97776050D01*
X178893050Y-97686342D01*
X178950646Y-97573304D01*
X178950646Y-97573302D01*
X178950647Y-97573301D01*
X178965499Y-97479524D01*
X178965500Y-97479519D01*
X178965499Y-96866482D01*
X178950646Y-96772696D01*
X178893050Y-96659658D01*
X178893046Y-96659654D01*
X178893045Y-96659652D01*
X178803347Y-96569954D01*
X178803344Y-96569952D01*
X178803342Y-96569950D01*
X178726517Y-96530805D01*
X178690301Y-96512352D01*
X178596524Y-96497500D01*
X178133482Y-96497500D01*
X178052519Y-96510323D01*
X178039696Y-96512354D01*
X177926658Y-96569950D01*
X177926657Y-96569951D01*
X177926652Y-96569954D01*
X177836954Y-96659652D01*
X177836949Y-96659659D01*
X177788474Y-96754796D01*
X177740500Y-96805591D01*
X177677990Y-96822500D01*
X177358880Y-96822500D01*
X177296881Y-96805888D01*
X177188136Y-96743105D01*
X177188137Y-96743105D01*
X177147824Y-96732303D01*
X177067201Y-96710700D01*
X176941999Y-96710700D01*
X176861375Y-96732303D01*
X176821063Y-96743105D01*
X176712637Y-96805704D01*
X176706943Y-96810074D01*
X176641775Y-96835270D01*
X176631454Y-96835700D01*
X163615544Y-96835700D01*
X163548505Y-96816015D01*
X163527863Y-96799381D01*
X157480485Y-90752003D01*
X157447000Y-90690680D01*
X157451984Y-90620988D01*
X157493856Y-90565055D01*
X157536069Y-90544548D01*
X157574336Y-90534295D01*
X157682764Y-90471695D01*
X157771295Y-90383164D01*
X157833895Y-90274736D01*
X157866300Y-90153801D01*
X157866300Y-90028599D01*
X157833895Y-89907664D01*
X157771295Y-89799236D01*
X157754619Y-89782560D01*
X157721134Y-89721237D01*
X157718300Y-89694879D01*
X157718300Y-88868059D01*
X157737985Y-88801020D01*
X157754614Y-88780383D01*
X159554951Y-86980045D01*
X159616272Y-86946562D01*
X159685964Y-86951546D01*
X159741897Y-86993418D01*
X159750015Y-87005725D01*
X159778905Y-87055764D01*
X159867436Y-87144295D01*
X159975864Y-87206895D01*
X160096799Y-87239300D01*
X160120383Y-87239300D01*
X160187422Y-87258985D01*
X160208064Y-87275619D01*
X164092581Y-91160136D01*
X164126066Y-91221459D01*
X164127838Y-91237942D01*
X164127839Y-91237942D01*
X164128899Y-91245998D01*
X164157673Y-91353382D01*
X164161305Y-91366936D01*
X164223905Y-91475364D01*
X164312436Y-91563895D01*
X164420864Y-91626495D01*
X164541799Y-91658900D01*
X164541801Y-91658900D01*
X164666999Y-91658900D01*
X164667001Y-91658900D01*
X164787936Y-91626495D01*
X164896364Y-91563895D01*
X164961219Y-91499040D01*
X165022542Y-91465555D01*
X165092234Y-91470539D01*
X165136581Y-91499040D01*
X165201436Y-91563895D01*
X165309864Y-91626495D01*
X165430799Y-91658900D01*
X165430801Y-91658900D01*
X165555999Y-91658900D01*
X165556001Y-91658900D01*
X165676936Y-91626495D01*
X165785364Y-91563895D01*
X165873895Y-91475364D01*
X165936495Y-91366936D01*
X165968900Y-91246001D01*
X165968900Y-91120799D01*
X165936495Y-90999864D01*
X165873895Y-90891436D01*
X165857219Y-90874760D01*
X165823734Y-90813437D01*
X165820900Y-90787079D01*
X165820900Y-87432285D01*
X165820900Y-87432284D01*
X165798581Y-87348990D01*
X165755465Y-87274310D01*
X165694490Y-87213335D01*
X165296619Y-86815464D01*
X165263134Y-86754141D01*
X165260300Y-86727783D01*
X165260300Y-86704200D01*
X165259496Y-86701199D01*
X165227895Y-86583264D01*
X165165295Y-86474836D01*
X165076764Y-86386305D01*
X164968336Y-86323705D01*
X164968337Y-86323705D01*
X164928024Y-86312903D01*
X164847401Y-86291300D01*
X164722199Y-86291300D01*
X164641575Y-86312903D01*
X164601263Y-86323705D01*
X164492837Y-86386304D01*
X164492834Y-86386306D01*
X164404306Y-86474834D01*
X164404304Y-86474837D01*
X164341705Y-86583263D01*
X164341705Y-86583264D01*
X164309300Y-86704199D01*
X164309300Y-86829401D01*
X164341705Y-86950336D01*
X164404305Y-87058764D01*
X164492836Y-87147295D01*
X164601264Y-87209895D01*
X164722199Y-87242300D01*
X164745783Y-87242300D01*
X164812822Y-87261985D01*
X164833464Y-87278619D01*
X165129581Y-87574736D01*
X165163066Y-87636059D01*
X165165900Y-87662417D01*
X165165900Y-90773079D01*
X165146215Y-90840118D01*
X165093411Y-90885873D01*
X165024253Y-90895817D01*
X164960697Y-90866792D01*
X164954219Y-90860760D01*
X164896365Y-90802906D01*
X164896364Y-90802905D01*
X164787936Y-90740305D01*
X164787937Y-90740305D01*
X164722805Y-90722853D01*
X164667001Y-90707900D01*
X164666999Y-90707900D01*
X164618017Y-90707900D01*
X164550978Y-90688215D01*
X164530336Y-90671581D01*
X160671219Y-86812464D01*
X160637734Y-86751141D01*
X160634900Y-86724783D01*
X160634900Y-86701200D01*
X160634900Y-86701199D01*
X160602495Y-86580264D01*
X160539895Y-86471836D01*
X160451364Y-86383305D01*
X160451363Y-86383304D01*
X160421658Y-86366154D01*
X160401328Y-86354417D01*
X160353113Y-86303851D01*
X160339889Y-86235244D01*
X160365857Y-86170379D01*
X160375638Y-86159358D01*
X163191979Y-83343019D01*
X163253302Y-83309534D01*
X163279660Y-83306700D01*
X166131101Y-83306700D01*
X166198140Y-83326385D01*
X166243895Y-83379189D01*
X166253839Y-83448347D01*
X166234203Y-83499591D01*
X166158614Y-83612716D01*
X166158607Y-83612728D01*
X166134638Y-83670597D01*
X166090797Y-83725001D01*
X166024503Y-83747066D01*
X165956804Y-83729787D01*
X165944424Y-83720170D01*
X165943910Y-83720841D01*
X165937461Y-83715892D01*
X165817638Y-83646713D01*
X165817637Y-83646712D01*
X165817636Y-83646712D01*
X165683983Y-83610900D01*
X165545617Y-83610900D01*
X165411964Y-83646712D01*
X165411961Y-83646713D01*
X165292138Y-83715892D01*
X165292133Y-83715896D01*
X165194296Y-83813733D01*
X165194292Y-83813738D01*
X165125113Y-83933561D01*
X165125112Y-83933564D01*
X165089300Y-84067217D01*
X165089300Y-84205583D01*
X165121906Y-84327269D01*
X165125112Y-84339235D01*
X165125113Y-84339238D01*
X165194292Y-84459061D01*
X165194294Y-84459064D01*
X165194295Y-84459065D01*
X165292135Y-84556905D01*
X165292136Y-84556906D01*
X165292138Y-84556907D01*
X165344088Y-84586900D01*
X165411964Y-84626088D01*
X165545617Y-84661900D01*
X165545619Y-84661900D01*
X165683981Y-84661900D01*
X165683983Y-84661900D01*
X165817636Y-84626088D01*
X165937465Y-84556905D01*
X166035305Y-84459065D01*
X166041463Y-84448399D01*
X166092031Y-84400184D01*
X166148850Y-84386400D01*
X166744800Y-84386400D01*
X166744800Y-84886400D01*
X166044800Y-84886400D01*
X166044800Y-85284895D01*
X166083227Y-85478081D01*
X166083230Y-85478093D01*
X166158607Y-85660071D01*
X166158614Y-85660084D01*
X166268048Y-85823862D01*
X166268051Y-85823866D01*
X166407333Y-85963148D01*
X166407337Y-85963151D01*
X166571115Y-86072585D01*
X166571128Y-86072592D01*
X166753108Y-86147969D01*
X166794800Y-86156262D01*
X166794800Y-85353388D01*
X166804740Y-85370605D01*
X166860595Y-85426460D01*
X166929004Y-85465956D01*
X167005304Y-85486400D01*
X167084296Y-85486400D01*
X167160596Y-85465956D01*
X167229005Y-85426460D01*
X167284860Y-85370605D01*
X167294800Y-85353388D01*
X167294800Y-86156262D01*
X167336490Y-86147969D01*
X167336492Y-86147969D01*
X167518471Y-86072592D01*
X167518484Y-86072585D01*
X167682262Y-85963151D01*
X167682266Y-85963148D01*
X167821548Y-85823866D01*
X167821551Y-85823862D01*
X167930985Y-85660084D01*
X167930992Y-85660071D01*
X168006369Y-85478093D01*
X168006372Y-85478081D01*
X168044799Y-85284895D01*
X168044800Y-85284892D01*
X168044800Y-84886400D01*
X167344800Y-84886400D01*
X167344800Y-84386400D01*
X168044800Y-84386400D01*
X168044800Y-83987908D01*
X168044799Y-83987904D01*
X168006372Y-83794718D01*
X168006369Y-83794706D01*
X167930992Y-83612728D01*
X167930985Y-83612716D01*
X167855397Y-83499591D01*
X167834519Y-83432914D01*
X167853003Y-83365534D01*
X167904982Y-83318843D01*
X167958499Y-83306700D01*
X172016905Y-83306700D01*
X172083944Y-83326385D01*
X172129699Y-83379189D01*
X172139643Y-83448347D01*
X172110618Y-83511903D01*
X172104586Y-83518381D01*
X172068825Y-83554141D01*
X172068824Y-83554142D01*
X171953858Y-83726203D01*
X171874670Y-83917379D01*
X171874668Y-83917387D01*
X171834300Y-84120330D01*
X171834300Y-84327269D01*
X171874668Y-84530212D01*
X171874670Y-84530220D01*
X171953858Y-84721396D01*
X172068824Y-84893457D01*
X172215142Y-85039775D01*
X172215145Y-85039777D01*
X172387202Y-85154741D01*
X172578380Y-85233930D01*
X172722852Y-85262667D01*
X172781330Y-85274299D01*
X172781334Y-85274300D01*
X172781335Y-85274300D01*
X172988266Y-85274300D01*
X172988267Y-85274299D01*
X173191220Y-85233930D01*
X173382398Y-85154741D01*
X173554455Y-85039777D01*
X173700777Y-84893455D01*
X173815741Y-84721398D01*
X173894930Y-84530220D01*
X173935300Y-84327265D01*
X173935300Y-84120335D01*
X173894930Y-83917380D01*
X173815741Y-83726202D01*
X173700777Y-83554145D01*
X173700775Y-83554142D01*
X173665014Y-83518381D01*
X173631529Y-83457058D01*
X173636513Y-83387366D01*
X173678385Y-83331433D01*
X173743849Y-83307016D01*
X173752695Y-83306700D01*
X174172515Y-83306700D01*
X174172516Y-83306700D01*
X174218206Y-83294457D01*
X174288054Y-83296118D01*
X174345917Y-83335280D01*
X174373423Y-83399508D01*
X174374300Y-83414231D01*
X174374300Y-85093552D01*
X174385931Y-85152029D01*
X174385932Y-85152030D01*
X174430247Y-85218352D01*
X174496569Y-85262667D01*
X174496570Y-85262668D01*
X174555047Y-85274299D01*
X174555050Y-85274300D01*
X174555052Y-85274300D01*
X176294550Y-85274300D01*
X176294551Y-85274299D01*
X176309368Y-85271352D01*
X176353029Y-85262668D01*
X176353029Y-85262667D01*
X176353031Y-85262667D01*
X176419352Y-85218352D01*
X176463667Y-85152031D01*
X176463667Y-85152029D01*
X176463668Y-85152029D01*
X176475299Y-85093552D01*
X176475300Y-85093550D01*
X176475300Y-83354049D01*
X176475299Y-83354047D01*
X176463668Y-83295570D01*
X176463667Y-83295569D01*
X176419352Y-83229247D01*
X176353030Y-83184932D01*
X176353029Y-83184931D01*
X176294552Y-83173300D01*
X176294548Y-83173300D01*
X174697817Y-83173300D01*
X174630778Y-83153615D01*
X174585023Y-83100811D01*
X174575079Y-83031653D01*
X174604104Y-82968097D01*
X174610127Y-82961626D01*
X174889697Y-82682056D01*
X174951016Y-82648574D01*
X175020708Y-82653558D01*
X175024828Y-82655179D01*
X175118380Y-82693930D01*
X175321330Y-82734299D01*
X175321334Y-82734300D01*
X175321335Y-82734300D01*
X175528266Y-82734300D01*
X175528267Y-82734299D01*
X175731220Y-82693930D01*
X175922398Y-82614741D01*
X176094455Y-82499777D01*
X176240777Y-82353455D01*
X176355741Y-82181398D01*
X176434930Y-81990220D01*
X176475300Y-81787265D01*
X176475300Y-81580335D01*
X176434930Y-81377380D01*
X176355741Y-81186202D01*
X176240777Y-81014145D01*
X176240775Y-81014142D01*
X176094457Y-80867824D01*
X175967853Y-80783231D01*
X175922398Y-80752859D01*
X175922393Y-80752857D01*
X175838770Y-80718219D01*
X175757690Y-80684634D01*
X175703288Y-80640794D01*
X175681223Y-80574500D01*
X175698502Y-80506801D01*
X175749639Y-80459190D01*
X175766826Y-80452143D01*
X175943017Y-80394895D01*
X176132354Y-80298422D01*
X176186516Y-80259070D01*
X176186517Y-80259070D01*
X175554208Y-79626762D01*
X175617793Y-79609725D01*
X175731807Y-79543899D01*
X175824899Y-79450807D01*
X175890725Y-79336793D01*
X175907762Y-79273208D01*
X176540070Y-79905517D01*
X176540070Y-79905516D01*
X176579422Y-79851354D01*
X176675895Y-79662017D01*
X176741557Y-79459930D01*
X176741557Y-79459927D01*
X176774800Y-79250046D01*
X176774800Y-79037553D01*
X176741557Y-78827672D01*
X176741557Y-78827669D01*
X176675895Y-78625582D01*
X176579424Y-78436249D01*
X176540070Y-78382082D01*
X176540069Y-78382082D01*
X175907762Y-79014390D01*
X175890725Y-78950807D01*
X175824899Y-78836793D01*
X175731807Y-78743701D01*
X175617793Y-78677875D01*
X175554209Y-78660837D01*
X176186516Y-78028528D01*
X176132350Y-77989175D01*
X175943017Y-77892704D01*
X175915092Y-77883631D01*
X175857417Y-77844194D01*
X175830218Y-77779835D01*
X175842133Y-77710989D01*
X175889377Y-77659513D01*
X175953410Y-77641700D01*
X180663700Y-77641700D01*
X180730739Y-77661385D01*
G37*
%TD.AperFunction*%
%TD*%
M02*
