%TF.GenerationSoftware,KiCad,Pcbnew,10.0.4-10.0.4~ubuntu25.10.1*%
%TF.CreationDate,Date%
%TF.ProjectId,CanSat_Devboard,43616e53-6174-45f4-9465-76626f617264,+ (Unreleased)*%
%TF.SameCoordinates,Original*%
%TF.FileFunction,Soldermask,Bot*%
%TF.FilePolarity,Negative*%
%FSLAX46Y46*%
G04 Gerber Fmt 4.6, Leading zero omitted, Abs format (unit mm)*
G04 Created by KiCad*
%MOMM*%
%LPD*%
G01*
G04 APERTURE LIST*
G04 Aperture macros list*
%AMRoundRect*
0 Rectangle with rounded corners*
0 $1 Rounding radius*
0 $2 $3 $4 $5 $6 $7 $8 $9 X,Y pos of 4 corners*
0 Add a 4 corners polygon primitive as box body*
4,1,4,$2,$3,$4,$5,$6,$7,$8,$9,$2,$3,0*
0 Add four circle primitives for the rounded corners*
1,1,$1+$1,$2,$3*
1,1,$1+$1,$4,$5*
1,1,$1+$1,$6,$7*
1,1,$1+$1,$8,$9*
0 Add four rect primitives between the rounded corners*
20,1,$1+$1,$2,$3,$4,$5,0*
20,1,$1+$1,$4,$5,$6,$7,0*
20,1,$1+$1,$6,$7,$8,$9,0*
20,1,$1+$1,$8,$9,$2,$3,0*%
G04 Aperture macros list end*
%ADD10RoundRect,0.050000X-0.850000X-0.850000X0.850000X-0.850000X0.850000X0.850000X-0.850000X0.850000X0*%
%ADD11C,1.800000*%
%ADD12C,0.001000*%
%ADD13O,1.100000X2.200000*%
%ADD14O,1.100000X1.900000*%
%ADD15RoundRect,0.300000X-0.600000X-0.725000X0.600000X-0.725000X0.600000X0.725000X-0.600000X0.725000X0*%
%ADD16O,1.800000X2.050000*%
%ADD17RoundRect,0.050000X0.850000X0.850000X-0.850000X0.850000X-0.850000X-0.850000X0.850000X-0.850000X0*%
%ADD18RoundRect,0.275000X0.225000X0.250000X-0.225000X0.250000X-0.225000X-0.250000X0.225000X-0.250000X0*%
%ADD19RoundRect,0.250000X0.200000X0.275000X-0.200000X0.275000X-0.200000X-0.275000X0.200000X-0.275000X0*%
G04 APERTURE END LIST*
D10*
%TO.C,J8*%
X118782800Y-79855000D03*
D11*
X121322800Y-79855000D03*
X118782800Y-82395000D03*
X121322800Y-82395000D03*
X118782800Y-84935000D03*
X121322800Y-84935000D03*
X118782800Y-87475000D03*
X121322800Y-87475000D03*
X118782800Y-90015000D03*
X121322800Y-90015000D03*
X118782800Y-92555000D03*
X121322800Y-92555000D03*
X118782800Y-95095000D03*
X121322800Y-95095000D03*
%TD*%
D12*
%TO.C,J4*%
X165614800Y-84136400D03*
X159834800Y-84136400D03*
D13*
X167044800Y-84636400D03*
D14*
X167044800Y-80456400D03*
D13*
X158404800Y-84636400D03*
D14*
X158404800Y-80456400D03*
%TD*%
D15*
%TO.C,J3*%
X126493600Y-115423400D03*
D16*
X128993600Y-115423400D03*
X131493600Y-115423400D03*
%TD*%
D10*
%TO.C,J1*%
X118808200Y-98651000D03*
D11*
X118808200Y-101191000D03*
X118808200Y-103731000D03*
X118808200Y-106271000D03*
%TD*%
D10*
%TO.C,J7*%
X122618200Y-98676400D03*
D11*
X122618200Y-101216400D03*
%TD*%
D17*
%TO.C,J6*%
X175424800Y-84223800D03*
D11*
X172884800Y-84223800D03*
X175424800Y-81683800D03*
X172884800Y-81683800D03*
X175424800Y-79143800D03*
X172884800Y-79143800D03*
%TD*%
D18*
%TO.C,C3*%
X179965000Y-101745000D03*
X178415000Y-101745000D03*
%TD*%
D19*
%TO.C,R3*%
X180015000Y-97173000D03*
X178365000Y-97173000D03*
%TD*%
%TO.C,R2*%
X180001800Y-98697000D03*
X178351800Y-98697000D03*
%TD*%
%TO.C,R1*%
X180015000Y-103269000D03*
X178365000Y-103269000D03*
%TD*%
D18*
%TO.C,C4*%
X179965000Y-100221000D03*
X178415000Y-100221000D03*
%TD*%
M02*
