%TF.GenerationSoftware,KiCad,Pcbnew,10.0.4-10.0.4~ubuntu25.10.1*%
%TF.CreationDate,Date%
%TF.ProjectId,CanSat_Devboard,43616e53-6174-45f4-9465-76626f617264,+ (Unreleased)*%
%TF.SameCoordinates,Original*%
%TF.FileFunction,Copper,L2,Inr*%
%TF.FilePolarity,Positive*%
%FSLAX46Y46*%
G04 Gerber Fmt 4.6, Leading zero omitted, Abs format (unit mm)*
G04 Created by KiCad*
%MOMM*%
%LPD*%
G01*
G04 APERTURE LIST*
G04 Aperture macros list*
%AMRoundRect*
0 Rectangle with rounded corners*
0 $1 Rounding radius*
0 $2 $3 $4 $5 $6 $7 $8 $9 X,Y pos of 4 corners*
0 Add a 4 corners polygon primitive as box body*
4,1,4,$2,$3,$4,$5,$6,$7,$8,$9,$2,$3,0*
0 Add four circle primitives for the rounded corners*
1,1,$1+$1,$2,$3*
1,1,$1+$1,$4,$5*
1,1,$1+$1,$6,$7*
1,1,$1+$1,$8,$9*
0 Add four rect primitives between the rounded corners*
20,1,$1+$1,$2,$3,$4,$5,0*
20,1,$1+$1,$4,$5,$6,$7,0*
20,1,$1+$1,$6,$7,$8,$9,0*
20,1,$1+$1,$8,$9,$2,$3,0*%
G04 Aperture macros list end*
%TA.AperFunction,ComponentPad*%
%ADD10R,1.700000X1.700000*%
%TD*%
%TA.AperFunction,ComponentPad*%
%ADD11C,1.700000*%
%TD*%
%TA.AperFunction,ComponentPad*%
%ADD12O,1.000000X2.100000*%
%TD*%
%TA.AperFunction,ComponentPad*%
%ADD13O,1.000000X1.800000*%
%TD*%
%TA.AperFunction,ComponentPad*%
%ADD14RoundRect,0.250000X-0.600000X-0.725000X0.600000X-0.725000X0.600000X0.725000X-0.600000X0.725000X0*%
%TD*%
%TA.AperFunction,ComponentPad*%
%ADD15O,1.700000X1.950000*%
%TD*%
%TA.AperFunction,ViaPad*%
%ADD16C,0.550000*%
%TD*%
%TA.AperFunction,ViaPad*%
%ADD17C,0.700000*%
%TD*%
G04 APERTURE END LIST*
D10*
%TO.N,+3.3V*%
%TO.C,J8*%
X118782800Y-79855000D03*
D11*
%TO.N,GND*%
X121322800Y-79855000D03*
%TO.N,1.06*%
X118782800Y-82395000D03*
%TO.N,1.04*%
X121322800Y-82395000D03*
%TO.N,1.02*%
X118782800Y-84935000D03*
%TO.N,1.00*%
X121322800Y-84935000D03*
%TO.N,0.22*%
X118782800Y-87475000D03*
%TO.N,0.20*%
X121322800Y-87475000D03*
%TO.N,0.17*%
X118782800Y-90015000D03*
%TO.N,0.15*%
X121322800Y-90015000D03*
%TO.N,0.07*%
X118782800Y-92555000D03*
%TO.N,0.12*%
X121322800Y-92555000D03*
%TO.N,0.04*%
X118782800Y-95095000D03*
%TO.N,0.08*%
X121322800Y-95095000D03*
%TD*%
D12*
%TO.N,N/C*%
%TO.C,J4*%
X167044800Y-84636400D03*
D13*
X167044800Y-80456400D03*
D12*
X158404800Y-84636400D03*
D13*
X158404800Y-80456400D03*
%TD*%
D14*
%TO.N,NTC*%
%TO.C,J3*%
X126493600Y-115423400D03*
D15*
%TO.N,GND*%
X128993600Y-115423400D03*
%TO.N,VBAT*%
X131493600Y-115423400D03*
%TD*%
D10*
%TO.N,+3.3V*%
%TO.C,J1*%
X118808200Y-98651000D03*
D11*
%TO.N,GND*%
X118808200Y-101191000D03*
%TO.N,SDA*%
X118808200Y-103731000D03*
%TO.N,SCL*%
X118808200Y-106271000D03*
%TD*%
D10*
%TO.N,RMF*%
%TO.C,J7*%
X122618200Y-98676400D03*
D11*
%TO.N,GND*%
X122618200Y-101216400D03*
%TD*%
D10*
%TO.N,+3V3*%
%TO.C,J6*%
X175424800Y-84223800D03*
D11*
%TO.N,SWDIO*%
X172884800Y-84223800D03*
%TO.N,RST*%
X175424800Y-81683800D03*
%TO.N,SWDCLK*%
X172884800Y-81683800D03*
%TO.N,GND*%
X175424800Y-79143800D03*
%TO.N,unconnected-(J6-Pin_6-Pad6)*%
X172884800Y-79143800D03*
%TD*%
D16*
%TO.N,VMCU*%
X148450000Y-97889000D03*
X148450000Y-100937000D03*
%TO.N,GND*%
X166509400Y-89075200D03*
X144106600Y-99286000D03*
X154469800Y-78381800D03*
X149161200Y-100606800D03*
X145656000Y-95171200D03*
X140428600Y-78187000D03*
X124955000Y-115491200D03*
X117766800Y-78102400D03*
X151142400Y-111097000D03*
X140347400Y-120063200D03*
X148119800Y-109852400D03*
X120637000Y-118310600D03*
X146011600Y-103604000D03*
X139001200Y-117751800D03*
X127672800Y-114119600D03*
X143725600Y-105864600D03*
X150558200Y-91285000D03*
X161988200Y-100759200D03*
X120103600Y-95882400D03*
X120586200Y-113967200D03*
X154190400Y-92936000D03*
X150532800Y-113256000D03*
X174154800Y-82090200D03*
X179189000Y-100945400D03*
X125209000Y-96542800D03*
X134073600Y-94714000D03*
X179895200Y-80185200D03*
X120052800Y-85468400D03*
X140753800Y-116278600D03*
X152666400Y-96974600D03*
X134434200Y-96297200D03*
X123537600Y-97084600D03*
X154317400Y-83334800D03*
X159778400Y-88694200D03*
X127876000Y-109217400D03*
X136994600Y-92402600D03*
X124223400Y-106914400D03*
X155943000Y-95247400D03*
X135572200Y-113637000D03*
X137274000Y-90370600D03*
X165899800Y-86916200D03*
X156070000Y-103273800D03*
X157492400Y-100657600D03*
X144970200Y-85697000D03*
X135800800Y-117828000D03*
X142536800Y-78212400D03*
X180250800Y-120164800D03*
X135800800Y-116304000D03*
X165549200Y-104933200D03*
X125767800Y-110766800D03*
X126174200Y-104416800D03*
X140403200Y-90455200D03*
X137477200Y-114805400D03*
X120052800Y-90548400D03*
X162140600Y-93723400D03*
X147434000Y-106753600D03*
X153377600Y-80998000D03*
X176644000Y-82750600D03*
X120383000Y-110970000D03*
X142658800Y-116202400D03*
X120052800Y-93088400D03*
X170370200Y-83588800D03*
X147154600Y-94663200D03*
X142658800Y-113154400D03*
X133057600Y-114373600D03*
X149847000Y-94434600D03*
X126910800Y-94764800D03*
X119570200Y-104924800D03*
X174197400Y-96424200D03*
X120027400Y-88059200D03*
X172173600Y-80413800D03*
X156476400Y-80998000D03*
X157568600Y-95704600D03*
X150182200Y-89490000D03*
X135399400Y-102621800D03*
X143243000Y-114551400D03*
X129069800Y-105483600D03*
X120078200Y-82928400D03*
X179163600Y-97948200D03*
X121221200Y-98905000D03*
X150101000Y-78356400D03*
X156044600Y-99336800D03*
X118300200Y-110843000D03*
X179895200Y-83817400D03*
X128866600Y-92910600D03*
X133997400Y-112671800D03*
X128185800Y-78212400D03*
X140931600Y-114780000D03*
X130187400Y-110741400D03*
X150380400Y-106601200D03*
X122313400Y-106855200D03*
%TO.N,VBUS*%
X131203400Y-110817600D03*
X156730400Y-96034800D03*
%TO.N,VSYS*%
X139509200Y-112663799D03*
X140804600Y-118666200D03*
X134988000Y-108445999D03*
X145376600Y-108844000D03*
X129755600Y-108447399D03*
%TO.N,+3.3V*%
X141846000Y-112485999D03*
X155206400Y-99971800D03*
X177030000Y-100234200D03*
%TO.N,1.06*%
X148577000Y-79423200D03*
%TO.N,1.04*%
X148577000Y-80693200D03*
%TO.N,1.02*%
X148577000Y-81963200D03*
%TO.N,1.00*%
X148577000Y-83233200D03*
%TO.N,0.22*%
X148577000Y-84503200D03*
%TO.N,0.20*%
X148577000Y-85773200D03*
%TO.N,0.17*%
X148577000Y-87043200D03*
%TO.N,0.15*%
X148577000Y-88313200D03*
%TO.N,0.07*%
X147815000Y-89583200D03*
%TO.N,0.12*%
X146545000Y-89583200D03*
%TO.N,0.04*%
X145275000Y-89583200D03*
%TO.N,CC1*%
X165493400Y-91183400D03*
X137121600Y-111088999D03*
X164784800Y-86766800D03*
X155104800Y-94841000D03*
%TO.N,CC2*%
X160159400Y-86763800D03*
X164604400Y-91183400D03*
X136029400Y-110428599D03*
X154215800Y-94790200D03*
%TO.N,LoRa_DIO1*%
X141465000Y-78344400D03*
X127144400Y-78339400D03*
%TO.N,SDA*%
X125437600Y-103731000D03*
D17*
X136359600Y-91691400D03*
D16*
X138747200Y-103951599D03*
D17*
%TO.N,SCL*%
X138645600Y-91691400D03*
D16*
X138785300Y-102414899D03*
X125488801Y-106219799D03*
%TO.N,SW0*%
X121226200Y-108895600D03*
X142735000Y-89583200D03*
%TO.N,BM_INT*%
X144005000Y-94612400D03*
X141973000Y-106364599D03*
%TO.N,RMF*%
X144030400Y-89583200D03*
%TO.N,BM_RST*%
X145046400Y-94612400D03*
X142811200Y-106321800D03*
%TO.N,RST*%
X157390800Y-90091200D03*
%TO.N,VBUSOUT*%
X153428400Y-91691400D03*
X135013400Y-112773400D03*
%TO.N,MISO*%
X177030000Y-103282200D03*
D17*
X153581600Y-85137400D03*
D16*
%TO.N,SCK*%
X176990400Y-101112000D03*
D17*
X153581600Y-83867400D03*
%TO.N,MOSI*%
X153581600Y-80057400D03*
D16*
X177004600Y-98710200D03*
D17*
%TO.N,CS*%
X153581600Y-78787400D03*
D16*
X177004600Y-97186200D03*
%TO.N,Net-(U4A-SHPHLD)*%
X123964400Y-116685000D03*
X138662300Y-100174299D03*
%TO.N,NTC*%
X136029400Y-106821799D03*
%TD*%
%TA.AperFunction,Conductor*%
%TO.N,GND*%
G36*
X127036228Y-77661385D02*
G01*
X127081983Y-77714189D01*
X127091927Y-77783347D01*
X127062902Y-77846903D01*
X127004124Y-77884677D01*
X127001316Y-77885465D01*
X126976446Y-77892129D01*
X126960863Y-77896305D01*
X126852437Y-77958904D01*
X126852434Y-77958906D01*
X126763906Y-78047434D01*
X126763904Y-78047437D01*
X126701305Y-78155863D01*
X126701305Y-78155864D01*
X126668900Y-78276799D01*
X126668900Y-78402001D01*
X126701305Y-78522936D01*
X126763905Y-78631364D01*
X126852436Y-78719895D01*
X126960864Y-78782495D01*
X127081799Y-78814900D01*
X127081801Y-78814900D01*
X127206999Y-78814900D01*
X127207001Y-78814900D01*
X127327936Y-78782495D01*
X127436364Y-78719895D01*
X127524895Y-78631364D01*
X127587495Y-78522936D01*
X127619900Y-78402001D01*
X127619900Y-78276799D01*
X127587495Y-78155864D01*
X127524895Y-78047436D01*
X127436364Y-77958905D01*
X127327936Y-77896305D01*
X127327937Y-77896305D01*
X127312353Y-77892129D01*
X127287515Y-77885474D01*
X127227856Y-77849109D01*
X127197328Y-77786262D01*
X127205623Y-77716887D01*
X127250109Y-77663009D01*
X127316661Y-77641735D01*
X127319611Y-77641700D01*
X141308449Y-77641700D01*
X141375488Y-77661385D01*
X141421243Y-77714189D01*
X141431187Y-77783347D01*
X141402162Y-77846903D01*
X141343384Y-77884677D01*
X141340577Y-77885465D01*
X141313563Y-77892704D01*
X141281463Y-77901305D01*
X141173037Y-77963904D01*
X141173034Y-77963906D01*
X141084506Y-78052434D01*
X141084504Y-78052437D01*
X141021905Y-78160863D01*
X141021905Y-78160864D01*
X140989500Y-78281799D01*
X140989500Y-78407001D01*
X141021905Y-78527936D01*
X141084505Y-78636364D01*
X141173036Y-78724895D01*
X141281464Y-78787495D01*
X141402399Y-78819900D01*
X141402401Y-78819900D01*
X141527599Y-78819900D01*
X141527601Y-78819900D01*
X141648536Y-78787495D01*
X141756964Y-78724895D01*
X141766934Y-78714925D01*
X153031100Y-78714925D01*
X153031100Y-78859875D01*
X153064695Y-78985252D01*
X153068617Y-78999888D01*
X153141088Y-79125411D01*
X153141090Y-79125413D01*
X153141091Y-79125415D01*
X153243585Y-79227909D01*
X153243586Y-79227910D01*
X153243588Y-79227911D01*
X153369111Y-79300382D01*
X153369112Y-79300382D01*
X153369115Y-79300384D01*
X153372986Y-79301421D01*
X153377481Y-79302626D01*
X153437141Y-79338991D01*
X153467669Y-79401839D01*
X153459374Y-79471214D01*
X153414888Y-79525091D01*
X153377481Y-79542174D01*
X153369116Y-79544415D01*
X153369111Y-79544417D01*
X153243588Y-79616888D01*
X153243582Y-79616893D01*
X153141093Y-79719382D01*
X153141088Y-79719388D01*
X153068617Y-79844911D01*
X153068616Y-79844915D01*
X153031100Y-79984925D01*
X153031100Y-80129875D01*
X153054633Y-80217700D01*
X153068617Y-80269888D01*
X153141088Y-80395411D01*
X153141090Y-80395413D01*
X153141091Y-80395415D01*
X153243585Y-80497909D01*
X153243586Y-80497910D01*
X153243588Y-80497911D01*
X153369111Y-80570382D01*
X153369112Y-80570382D01*
X153369115Y-80570384D01*
X153509125Y-80607900D01*
X153509128Y-80607900D01*
X153654072Y-80607900D01*
X153654075Y-80607900D01*
X153794085Y-80570384D01*
X153919615Y-80497909D01*
X154022109Y-80395415D01*
X154094584Y-80269885D01*
X154132100Y-80129875D01*
X154132100Y-79984925D01*
X154094584Y-79844915D01*
X154070784Y-79803693D01*
X154022111Y-79719388D01*
X154022106Y-79719382D01*
X153919617Y-79616893D01*
X153919611Y-79616888D01*
X153794087Y-79544417D01*
X153794086Y-79544416D01*
X153794085Y-79544416D01*
X153785718Y-79542174D01*
X153726059Y-79505810D01*
X153695530Y-79442963D01*
X153703825Y-79373588D01*
X153748310Y-79319710D01*
X153785717Y-79302626D01*
X153794085Y-79300384D01*
X153919615Y-79227909D01*
X154022109Y-79125415D01*
X154094584Y-78999885D01*
X154132100Y-78859875D01*
X154132100Y-78714925D01*
X154094584Y-78574915D01*
X154054218Y-78505000D01*
X154022111Y-78449388D01*
X154022106Y-78449382D01*
X153919617Y-78346893D01*
X153919611Y-78346888D01*
X153794088Y-78274417D01*
X153794089Y-78274417D01*
X153782606Y-78271340D01*
X153654075Y-78236900D01*
X153509125Y-78236900D01*
X153380593Y-78271340D01*
X153369111Y-78274417D01*
X153243588Y-78346888D01*
X153243582Y-78346893D01*
X153141093Y-78449382D01*
X153141088Y-78449388D01*
X153068617Y-78574911D01*
X153068616Y-78574915D01*
X153031100Y-78714925D01*
X141766934Y-78714925D01*
X141845495Y-78636364D01*
X141908095Y-78527936D01*
X141940500Y-78407001D01*
X141940500Y-78281799D01*
X141908095Y-78160864D01*
X141845495Y-78052436D01*
X141756964Y-77963905D01*
X141648536Y-77901305D01*
X141648537Y-77901305D01*
X141616437Y-77892704D01*
X141589455Y-77885474D01*
X141529797Y-77849109D01*
X141499268Y-77786262D01*
X141507563Y-77716887D01*
X141552049Y-77663009D01*
X141618601Y-77641735D01*
X141621551Y-77641700D01*
X174896190Y-77641700D01*
X174963229Y-77661385D01*
X175008984Y-77714189D01*
X175018928Y-77783347D01*
X174989903Y-77846903D01*
X174934508Y-77883631D01*
X174906582Y-77892704D01*
X174717239Y-77989180D01*
X174663082Y-78028527D01*
X174663082Y-78028528D01*
X175295391Y-78660837D01*
X175231807Y-78677875D01*
X175117793Y-78743701D01*
X175024701Y-78836793D01*
X174958875Y-78950807D01*
X174941837Y-79014391D01*
X174309528Y-78382082D01*
X174309527Y-78382082D01*
X174270180Y-78436239D01*
X174173705Y-78625581D01*
X174116456Y-78801774D01*
X174077018Y-78859449D01*
X174012659Y-78886647D01*
X173943813Y-78874732D01*
X173892337Y-78827488D01*
X173883964Y-78810907D01*
X173881310Y-78804500D01*
X173844207Y-78714925D01*
X173815743Y-78646205D01*
X173700775Y-78474142D01*
X173554457Y-78327824D01*
X173418378Y-78236900D01*
X173382398Y-78212859D01*
X173191220Y-78133670D01*
X173191212Y-78133668D01*
X172988269Y-78093300D01*
X172988265Y-78093300D01*
X172781335Y-78093300D01*
X172781330Y-78093300D01*
X172578387Y-78133668D01*
X172578379Y-78133670D01*
X172387203Y-78212858D01*
X172215142Y-78327824D01*
X172068824Y-78474142D01*
X171953858Y-78646203D01*
X171874670Y-78837379D01*
X171874668Y-78837387D01*
X171834300Y-79040330D01*
X171834300Y-79247269D01*
X171874668Y-79450212D01*
X171874670Y-79450220D01*
X171943708Y-79616893D01*
X171953859Y-79641398D01*
X171967636Y-79662017D01*
X172068824Y-79813457D01*
X172215142Y-79959775D01*
X172215145Y-79959777D01*
X172387202Y-80074741D01*
X172578380Y-80153930D01*
X172781330Y-80194299D01*
X172781334Y-80194300D01*
X172781335Y-80194300D01*
X172988266Y-80194300D01*
X172988267Y-80194299D01*
X173191220Y-80153930D01*
X173382398Y-80074741D01*
X173554455Y-79959777D01*
X173700777Y-79813455D01*
X173815741Y-79641398D01*
X173883965Y-79476689D01*
X173927804Y-79422288D01*
X173994098Y-79400223D01*
X174061798Y-79417502D01*
X174109409Y-79468639D01*
X174116456Y-79485826D01*
X174173704Y-79662016D01*
X174270175Y-79851350D01*
X174309528Y-79905516D01*
X174941836Y-79273207D01*
X174958875Y-79336793D01*
X175024701Y-79450807D01*
X175117793Y-79543899D01*
X175231807Y-79609725D01*
X175295390Y-79626762D01*
X174663082Y-80259069D01*
X174663082Y-80259070D01*
X174717249Y-80298424D01*
X174906582Y-80394895D01*
X175082773Y-80452143D01*
X175140448Y-80491580D01*
X175167647Y-80555939D01*
X175155732Y-80624785D01*
X175108488Y-80676261D01*
X175091908Y-80684635D01*
X174927203Y-80752857D01*
X174755142Y-80867824D01*
X174608824Y-81014142D01*
X174493858Y-81186203D01*
X174414670Y-81377379D01*
X174414668Y-81377387D01*
X174374300Y-81580330D01*
X174374300Y-81787269D01*
X174414668Y-81990212D01*
X174414670Y-81990220D01*
X174493858Y-82181396D01*
X174608824Y-82353457D01*
X174755142Y-82499775D01*
X174755145Y-82499777D01*
X174927202Y-82614741D01*
X175118380Y-82693930D01*
X175321330Y-82734299D01*
X175321334Y-82734300D01*
X175321335Y-82734300D01*
X175528266Y-82734300D01*
X175528267Y-82734299D01*
X175731220Y-82693930D01*
X175922398Y-82614741D01*
X176094455Y-82499777D01*
X176240777Y-82353455D01*
X176355741Y-82181398D01*
X176434930Y-81990220D01*
X176475300Y-81787265D01*
X176475300Y-81580335D01*
X176434930Y-81377380D01*
X176355741Y-81186202D01*
X176240777Y-81014145D01*
X176240775Y-81014142D01*
X176094457Y-80867824D01*
X175967853Y-80783231D01*
X175922398Y-80752859D01*
X175922393Y-80752857D01*
X175854532Y-80724748D01*
X175757690Y-80684634D01*
X175703288Y-80640794D01*
X175681223Y-80574500D01*
X175698502Y-80506801D01*
X175749639Y-80459190D01*
X175766826Y-80452143D01*
X175943017Y-80394895D01*
X176132354Y-80298422D01*
X176186516Y-80259070D01*
X176186517Y-80259070D01*
X175554208Y-79626762D01*
X175617793Y-79609725D01*
X175731807Y-79543899D01*
X175824899Y-79450807D01*
X175890725Y-79336793D01*
X175907762Y-79273208D01*
X176540070Y-79905517D01*
X176540070Y-79905516D01*
X176579422Y-79851354D01*
X176675895Y-79662017D01*
X176741557Y-79459930D01*
X176741557Y-79459927D01*
X176774800Y-79250046D01*
X176774800Y-79037553D01*
X176741557Y-78827672D01*
X176741557Y-78827669D01*
X176675895Y-78625582D01*
X176579424Y-78436249D01*
X176540070Y-78382082D01*
X176540069Y-78382082D01*
X175907762Y-79014390D01*
X175890725Y-78950807D01*
X175824899Y-78836793D01*
X175731807Y-78743701D01*
X175617793Y-78677875D01*
X175554209Y-78660837D01*
X176186516Y-78028528D01*
X176132350Y-77989175D01*
X175943017Y-77892704D01*
X175915092Y-77883631D01*
X175857417Y-77844194D01*
X175830218Y-77779835D01*
X175842133Y-77710989D01*
X175889377Y-77659513D01*
X175953410Y-77641700D01*
X180663700Y-77641700D01*
X180730739Y-77661385D01*
X180776494Y-77714189D01*
X180787700Y-77765700D01*
X180787700Y-120577700D01*
X180768015Y-120644739D01*
X180715211Y-120690494D01*
X180663700Y-120701700D01*
X117353900Y-120701700D01*
X117286861Y-120682015D01*
X117241106Y-120629211D01*
X117229900Y-120577700D01*
X117229900Y-118603599D01*
X140329100Y-118603599D01*
X140329100Y-118728801D01*
X140361505Y-118849736D01*
X140424105Y-118958164D01*
X140512636Y-119046695D01*
X140621064Y-119109295D01*
X140741999Y-119141700D01*
X140742001Y-119141700D01*
X140867199Y-119141700D01*
X140867201Y-119141700D01*
X140988136Y-119109295D01*
X141096564Y-119046695D01*
X141185095Y-118958164D01*
X141247695Y-118849736D01*
X141280100Y-118728801D01*
X141280100Y-118603599D01*
X141247695Y-118482664D01*
X141185095Y-118374236D01*
X141096564Y-118285705D01*
X140988136Y-118223105D01*
X140988137Y-118223105D01*
X140947824Y-118212303D01*
X140867201Y-118190700D01*
X140741999Y-118190700D01*
X140661375Y-118212303D01*
X140621063Y-118223105D01*
X140512637Y-118285704D01*
X140512634Y-118285706D01*
X140424106Y-118374234D01*
X140424104Y-118374237D01*
X140361505Y-118482663D01*
X140361505Y-118482664D01*
X140329100Y-118603599D01*
X117229900Y-118603599D01*
X117229900Y-116622399D01*
X123488900Y-116622399D01*
X123488900Y-116747601D01*
X123521305Y-116868536D01*
X123583905Y-116976964D01*
X123672436Y-117065495D01*
X123780864Y-117128095D01*
X123901799Y-117160500D01*
X123901801Y-117160500D01*
X124026999Y-117160500D01*
X124027001Y-117160500D01*
X124147936Y-117128095D01*
X124256364Y-117065495D01*
X124344895Y-116976964D01*
X124407495Y-116868536D01*
X124439900Y-116747601D01*
X124439900Y-116622399D01*
X124407495Y-116501464D01*
X124344895Y-116393036D01*
X124256364Y-116304505D01*
X124147936Y-116241905D01*
X124147937Y-116241905D01*
X124107624Y-116231103D01*
X124027001Y-116209500D01*
X123901799Y-116209500D01*
X123821175Y-116231103D01*
X123780863Y-116241905D01*
X123672437Y-116304504D01*
X123672434Y-116304506D01*
X123583906Y-116393034D01*
X123583904Y-116393037D01*
X123521305Y-116501463D01*
X123521305Y-116501464D01*
X123488900Y-116622399D01*
X117229900Y-116622399D01*
X117229900Y-114644130D01*
X125443100Y-114644130D01*
X125443100Y-116202669D01*
X125445953Y-116233099D01*
X125445953Y-116233101D01*
X125490806Y-116361280D01*
X125490807Y-116361282D01*
X125571450Y-116470550D01*
X125680718Y-116551193D01*
X125701689Y-116558531D01*
X125808899Y-116596046D01*
X125839330Y-116598900D01*
X125839334Y-116598900D01*
X127147870Y-116598900D01*
X127178299Y-116596046D01*
X127178301Y-116596046D01*
X127242390Y-116573619D01*
X127306482Y-116551193D01*
X127415750Y-116470550D01*
X127496393Y-116361282D01*
X127538165Y-116241905D01*
X127541246Y-116233101D01*
X127541246Y-116233099D01*
X127544100Y-116202669D01*
X127544100Y-116193723D01*
X127563785Y-116126684D01*
X127616589Y-116080929D01*
X127685747Y-116070985D01*
X127749303Y-116100010D01*
X127778585Y-116137428D01*
X127838979Y-116255957D01*
X127963872Y-116427859D01*
X127963876Y-116427864D01*
X128114135Y-116578123D01*
X128114140Y-116578127D01*
X128286042Y-116703020D01*
X128475382Y-116799495D01*
X128677471Y-116865157D01*
X128743600Y-116875631D01*
X128743600Y-115827545D01*
X128810257Y-115866030D01*
X128931065Y-115898400D01*
X129056135Y-115898400D01*
X129176943Y-115866030D01*
X129243600Y-115827545D01*
X129243600Y-116875630D01*
X129309726Y-116865157D01*
X129309729Y-116865157D01*
X129511817Y-116799495D01*
X129701157Y-116703020D01*
X129873059Y-116578127D01*
X129873064Y-116578123D01*
X130023323Y-116427864D01*
X130023327Y-116427859D01*
X130148220Y-116255957D01*
X130244695Y-116066617D01*
X130284359Y-115944544D01*
X130323796Y-115886869D01*
X130388155Y-115859670D01*
X130457001Y-115871584D01*
X130508477Y-115918828D01*
X130516851Y-115935409D01*
X130562657Y-116045996D01*
X130677624Y-116218057D01*
X130823942Y-116364375D01*
X130823945Y-116364377D01*
X130996002Y-116479341D01*
X131187180Y-116558530D01*
X131375787Y-116596046D01*
X131390130Y-116598899D01*
X131390134Y-116598900D01*
X131390135Y-116598900D01*
X131597066Y-116598900D01*
X131597067Y-116598899D01*
X131800020Y-116558530D01*
X131991198Y-116479341D01*
X132163255Y-116364377D01*
X132309577Y-116218055D01*
X132424541Y-116045998D01*
X132503730Y-115854820D01*
X132544100Y-115651865D01*
X132544100Y-115194935D01*
X132503730Y-114991980D01*
X132424541Y-114800802D01*
X132309577Y-114628745D01*
X132309575Y-114628742D01*
X132163257Y-114482424D01*
X132068238Y-114418935D01*
X131991198Y-114367459D01*
X131800020Y-114288270D01*
X131800012Y-114288268D01*
X131597069Y-114247900D01*
X131597065Y-114247900D01*
X131390135Y-114247900D01*
X131390130Y-114247900D01*
X131187187Y-114288268D01*
X131187179Y-114288270D01*
X130996003Y-114367458D01*
X130823942Y-114482424D01*
X130677624Y-114628742D01*
X130562657Y-114800804D01*
X130516851Y-114911390D01*
X130473009Y-114965794D01*
X130406715Y-114987858D01*
X130339016Y-114970578D01*
X130291406Y-114919441D01*
X130284359Y-114902255D01*
X130244695Y-114780182D01*
X130148220Y-114590842D01*
X130023327Y-114418940D01*
X130023323Y-114418935D01*
X129873064Y-114268676D01*
X129873059Y-114268672D01*
X129701157Y-114143779D01*
X129511815Y-114047303D01*
X129309724Y-113981641D01*
X129243600Y-113971168D01*
X129243600Y-115019254D01*
X129176943Y-114980770D01*
X129056135Y-114948400D01*
X128931065Y-114948400D01*
X128810257Y-114980770D01*
X128743600Y-115019254D01*
X128743600Y-113971168D01*
X128743599Y-113971168D01*
X128677475Y-113981641D01*
X128475384Y-114047303D01*
X128286042Y-114143779D01*
X128114140Y-114268672D01*
X128114135Y-114268676D01*
X127963876Y-114418935D01*
X127963872Y-114418940D01*
X127838979Y-114590842D01*
X127778585Y-114709371D01*
X127730610Y-114760167D01*
X127662789Y-114776962D01*
X127596654Y-114754424D01*
X127553203Y-114699709D01*
X127544100Y-114653076D01*
X127544100Y-114644130D01*
X127541246Y-114613700D01*
X127541246Y-114613698D01*
X127496393Y-114485519D01*
X127496392Y-114485517D01*
X127415750Y-114376250D01*
X127306482Y-114295607D01*
X127306480Y-114295606D01*
X127178300Y-114250753D01*
X127147870Y-114247900D01*
X127147866Y-114247900D01*
X125839334Y-114247900D01*
X125839330Y-114247900D01*
X125808900Y-114250753D01*
X125808898Y-114250753D01*
X125680719Y-114295606D01*
X125680717Y-114295607D01*
X125571450Y-114376250D01*
X125490807Y-114485517D01*
X125490806Y-114485519D01*
X125445953Y-114613698D01*
X125445953Y-114613700D01*
X125443100Y-114644130D01*
X117229900Y-114644130D01*
X117229900Y-112710799D01*
X134537900Y-112710799D01*
X134537900Y-112836001D01*
X134570305Y-112956936D01*
X134632905Y-113065364D01*
X134721436Y-113153895D01*
X134829864Y-113216495D01*
X134950799Y-113248900D01*
X134950801Y-113248900D01*
X135075999Y-113248900D01*
X135076001Y-113248900D01*
X135196936Y-113216495D01*
X135305364Y-113153895D01*
X135393895Y-113065364D01*
X135456495Y-112956936D01*
X135488900Y-112836001D01*
X135488900Y-112710799D01*
X135459532Y-112601198D01*
X139033700Y-112601198D01*
X139033700Y-112726400D01*
X139066105Y-112847335D01*
X139128705Y-112955763D01*
X139217236Y-113044294D01*
X139325664Y-113106894D01*
X139446599Y-113139299D01*
X139446601Y-113139299D01*
X139571799Y-113139299D01*
X139571801Y-113139299D01*
X139692736Y-113106894D01*
X139801164Y-113044294D01*
X139889695Y-112955763D01*
X139952295Y-112847335D01*
X139984700Y-112726400D01*
X139984700Y-112601198D01*
X139952295Y-112480263D01*
X139919464Y-112423398D01*
X141370500Y-112423398D01*
X141370500Y-112548600D01*
X141402905Y-112669535D01*
X141465505Y-112777963D01*
X141554036Y-112866494D01*
X141662464Y-112929094D01*
X141783399Y-112961499D01*
X141783401Y-112961499D01*
X141908599Y-112961499D01*
X141908601Y-112961499D01*
X142029536Y-112929094D01*
X142137964Y-112866494D01*
X142226495Y-112777963D01*
X142289095Y-112669535D01*
X142321500Y-112548600D01*
X142321500Y-112423398D01*
X142289095Y-112302463D01*
X142226495Y-112194035D01*
X142137964Y-112105504D01*
X142029536Y-112042904D01*
X142029537Y-112042904D01*
X141989224Y-112032102D01*
X141908601Y-112010499D01*
X141783399Y-112010499D01*
X141702775Y-112032102D01*
X141662463Y-112042904D01*
X141554037Y-112105503D01*
X141554034Y-112105505D01*
X141465506Y-112194033D01*
X141465504Y-112194036D01*
X141402905Y-112302462D01*
X141386702Y-112362930D01*
X141370500Y-112423398D01*
X139919464Y-112423398D01*
X139889695Y-112371835D01*
X139801164Y-112283304D01*
X139692736Y-112220704D01*
X139692737Y-112220704D01*
X139652424Y-112209902D01*
X139571801Y-112188299D01*
X139446599Y-112188299D01*
X139365975Y-112209902D01*
X139325663Y-112220704D01*
X139217237Y-112283303D01*
X139217234Y-112283305D01*
X139128706Y-112371833D01*
X139128704Y-112371836D01*
X139066105Y-112480262D01*
X139065790Y-112481437D01*
X139033700Y-112601198D01*
X135459532Y-112601198D01*
X135456495Y-112589864D01*
X135393895Y-112481436D01*
X135305364Y-112392905D01*
X135196936Y-112330305D01*
X135196937Y-112330305D01*
X135156624Y-112319503D01*
X135076001Y-112297900D01*
X134950799Y-112297900D01*
X134870175Y-112319503D01*
X134829863Y-112330305D01*
X134721437Y-112392904D01*
X134721434Y-112392906D01*
X134632906Y-112481434D01*
X134632904Y-112481437D01*
X134570305Y-112589863D01*
X134570305Y-112589864D01*
X134537900Y-112710799D01*
X117229900Y-112710799D01*
X117229900Y-110754999D01*
X130727900Y-110754999D01*
X130727900Y-110880201D01*
X130760305Y-111001136D01*
X130822905Y-111109564D01*
X130911436Y-111198095D01*
X131019864Y-111260695D01*
X131140799Y-111293100D01*
X131140801Y-111293100D01*
X131265999Y-111293100D01*
X131266001Y-111293100D01*
X131386936Y-111260695D01*
X131495364Y-111198095D01*
X131583895Y-111109564D01*
X131631910Y-111026398D01*
X136646100Y-111026398D01*
X136646100Y-111151600D01*
X136678505Y-111272535D01*
X136741105Y-111380963D01*
X136829636Y-111469494D01*
X136938064Y-111532094D01*
X137058999Y-111564499D01*
X137059001Y-111564499D01*
X137184199Y-111564499D01*
X137184201Y-111564499D01*
X137305136Y-111532094D01*
X137413564Y-111469494D01*
X137502095Y-111380963D01*
X137564695Y-111272535D01*
X137597100Y-111151600D01*
X137597100Y-111026398D01*
X137564695Y-110905463D01*
X137502095Y-110797035D01*
X137413564Y-110708504D01*
X137305136Y-110645904D01*
X137305137Y-110645904D01*
X137260949Y-110634064D01*
X137184201Y-110613499D01*
X137058999Y-110613499D01*
X136982251Y-110634064D01*
X136938063Y-110645904D01*
X136829637Y-110708503D01*
X136829634Y-110708505D01*
X136741106Y-110797033D01*
X136741104Y-110797036D01*
X136678505Y-110905462D01*
X136678505Y-110905463D01*
X136646100Y-111026398D01*
X131631910Y-111026398D01*
X131646495Y-111001136D01*
X131678900Y-110880201D01*
X131678900Y-110754999D01*
X131646495Y-110634064D01*
X131583895Y-110525636D01*
X131495364Y-110437105D01*
X131386936Y-110374505D01*
X131386937Y-110374505D01*
X131355189Y-110365998D01*
X135553900Y-110365998D01*
X135553900Y-110491200D01*
X135586305Y-110612135D01*
X135648905Y-110720563D01*
X135737436Y-110809094D01*
X135845864Y-110871694D01*
X135966799Y-110904099D01*
X135966801Y-110904099D01*
X136091998Y-110904099D01*
X136092001Y-110904099D01*
X136212936Y-110871694D01*
X136321364Y-110809094D01*
X136409895Y-110720563D01*
X136472495Y-110612135D01*
X136504900Y-110491200D01*
X136504900Y-110365998D01*
X136472495Y-110245063D01*
X136409895Y-110136635D01*
X136321364Y-110048104D01*
X136212936Y-109985504D01*
X136212937Y-109985504D01*
X136172624Y-109974702D01*
X136092001Y-109953099D01*
X135966799Y-109953099D01*
X135886175Y-109974702D01*
X135845863Y-109985504D01*
X135737437Y-110048103D01*
X135737434Y-110048105D01*
X135648906Y-110136633D01*
X135648904Y-110136636D01*
X135586305Y-110245062D01*
X135586305Y-110245063D01*
X135553900Y-110365998D01*
X131355189Y-110365998D01*
X131346624Y-110363703D01*
X131266001Y-110342100D01*
X131140799Y-110342100D01*
X131060175Y-110363703D01*
X131019863Y-110374505D01*
X130911437Y-110437104D01*
X130911434Y-110437106D01*
X130822906Y-110525634D01*
X130822904Y-110525637D01*
X130760305Y-110634063D01*
X130760305Y-110634064D01*
X130727900Y-110754999D01*
X117229900Y-110754999D01*
X117229900Y-108832999D01*
X120750700Y-108832999D01*
X120750700Y-108958201D01*
X120783105Y-109079136D01*
X120845705Y-109187564D01*
X120934236Y-109276095D01*
X121042664Y-109338695D01*
X121163599Y-109371100D01*
X121163601Y-109371100D01*
X121288799Y-109371100D01*
X121288801Y-109371100D01*
X121409736Y-109338695D01*
X121518164Y-109276095D01*
X121606695Y-109187564D01*
X121669295Y-109079136D01*
X121701700Y-108958201D01*
X121701700Y-108832999D01*
X121669295Y-108712064D01*
X121606695Y-108603636D01*
X121518164Y-108515105D01*
X121409736Y-108452505D01*
X121409737Y-108452505D01*
X121369424Y-108441703D01*
X121288801Y-108420100D01*
X121163599Y-108420100D01*
X121082975Y-108441703D01*
X121042663Y-108452505D01*
X120934237Y-108515104D01*
X120934234Y-108515106D01*
X120845706Y-108603634D01*
X120845704Y-108603637D01*
X120783105Y-108712063D01*
X120783105Y-108712064D01*
X120750700Y-108832999D01*
X117229900Y-108832999D01*
X117229900Y-108384798D01*
X129280100Y-108384798D01*
X129280100Y-108510000D01*
X129312505Y-108630935D01*
X129375105Y-108739363D01*
X129463636Y-108827894D01*
X129572064Y-108890494D01*
X129692999Y-108922899D01*
X129693001Y-108922899D01*
X129818199Y-108922899D01*
X129818201Y-108922899D01*
X129939136Y-108890494D01*
X130047564Y-108827894D01*
X130136095Y-108739363D01*
X130198695Y-108630935D01*
X130231100Y-108510000D01*
X130231100Y-108384798D01*
X130230725Y-108383398D01*
X134512500Y-108383398D01*
X134512500Y-108508600D01*
X134544905Y-108629535D01*
X134607505Y-108737963D01*
X134696036Y-108826494D01*
X134804464Y-108889094D01*
X134925399Y-108921499D01*
X134925401Y-108921499D01*
X135050599Y-108921499D01*
X135050601Y-108921499D01*
X135171536Y-108889094D01*
X135279964Y-108826494D01*
X135325059Y-108781399D01*
X144901100Y-108781399D01*
X144901100Y-108906601D01*
X144933505Y-109027536D01*
X144996105Y-109135964D01*
X145084636Y-109224495D01*
X145193064Y-109287095D01*
X145313999Y-109319500D01*
X145314001Y-109319500D01*
X145439199Y-109319500D01*
X145439201Y-109319500D01*
X145560136Y-109287095D01*
X145668564Y-109224495D01*
X145757095Y-109135964D01*
X145819695Y-109027536D01*
X145852100Y-108906601D01*
X145852100Y-108781399D01*
X145819695Y-108660464D01*
X145757095Y-108552036D01*
X145668564Y-108463505D01*
X145560136Y-108400905D01*
X145560137Y-108400905D01*
X145500032Y-108384800D01*
X145439201Y-108368500D01*
X145313999Y-108368500D01*
X145253168Y-108384800D01*
X145193063Y-108400905D01*
X145084637Y-108463504D01*
X145084634Y-108463506D01*
X144996106Y-108552034D01*
X144996104Y-108552037D01*
X144933505Y-108660463D01*
X144933505Y-108660464D01*
X144901100Y-108781399D01*
X135325059Y-108781399D01*
X135368495Y-108737963D01*
X135383448Y-108712064D01*
X135383906Y-108711271D01*
X135413239Y-108660463D01*
X135431095Y-108629535D01*
X135463500Y-108508600D01*
X135463500Y-108383398D01*
X135431095Y-108262463D01*
X135368495Y-108154035D01*
X135279964Y-108065504D01*
X135171536Y-108002904D01*
X135171537Y-108002904D01*
X135131224Y-107992102D01*
X135050601Y-107970499D01*
X134925399Y-107970499D01*
X134844775Y-107992102D01*
X134804463Y-108002904D01*
X134696037Y-108065503D01*
X134696034Y-108065505D01*
X134607506Y-108154033D01*
X134607504Y-108154036D01*
X134544905Y-108262462D01*
X134544905Y-108262463D01*
X134512500Y-108383398D01*
X130230725Y-108383398D01*
X130198695Y-108263863D01*
X130136095Y-108155435D01*
X130047564Y-108066904D01*
X129939136Y-108004304D01*
X129939137Y-108004304D01*
X129898824Y-107993502D01*
X129818201Y-107971899D01*
X129692999Y-107971899D01*
X129612375Y-107993502D01*
X129572063Y-108004304D01*
X129463637Y-108066903D01*
X129463634Y-108066905D01*
X129375106Y-108155433D01*
X129375104Y-108155436D01*
X129312505Y-108263862D01*
X129312505Y-108263863D01*
X129280100Y-108384798D01*
X117229900Y-108384798D01*
X117229900Y-106167530D01*
X117757700Y-106167530D01*
X117757700Y-106374469D01*
X117798068Y-106577412D01*
X117798070Y-106577420D01*
X117877258Y-106768596D01*
X117992224Y-106940657D01*
X118138542Y-107086975D01*
X118138545Y-107086977D01*
X118310602Y-107201941D01*
X118501780Y-107281130D01*
X118704730Y-107321499D01*
X118704734Y-107321500D01*
X118704735Y-107321500D01*
X118911666Y-107321500D01*
X118911667Y-107321499D01*
X119114620Y-107281130D01*
X119305798Y-107201941D01*
X119477855Y-107086977D01*
X119624177Y-106940655D01*
X119739141Y-106768598D01*
X119743035Y-106759198D01*
X135553900Y-106759198D01*
X135553900Y-106884400D01*
X135586305Y-107005335D01*
X135648905Y-107113763D01*
X135737436Y-107202294D01*
X135845864Y-107264894D01*
X135966799Y-107297299D01*
X135966801Y-107297299D01*
X136091999Y-107297299D01*
X136092001Y-107297299D01*
X136212936Y-107264894D01*
X136321364Y-107202294D01*
X136409895Y-107113763D01*
X136472495Y-107005335D01*
X136504900Y-106884400D01*
X136504900Y-106759198D01*
X136472495Y-106638263D01*
X136409895Y-106529835D01*
X136321364Y-106441304D01*
X136212936Y-106378704D01*
X136212937Y-106378704D01*
X136172624Y-106367902D01*
X136092001Y-106346299D01*
X135966799Y-106346299D01*
X135886175Y-106367902D01*
X135845863Y-106378704D01*
X135737437Y-106441303D01*
X135737434Y-106441305D01*
X135648906Y-106529833D01*
X135648904Y-106529836D01*
X135586305Y-106638262D01*
X135571022Y-106695299D01*
X135553900Y-106759198D01*
X119743035Y-106759198D01*
X119818330Y-106577420D01*
X119858700Y-106374465D01*
X119858700Y-106167535D01*
X119856644Y-106157198D01*
X125013301Y-106157198D01*
X125013301Y-106282400D01*
X125045706Y-106403335D01*
X125108306Y-106511763D01*
X125196837Y-106600294D01*
X125305265Y-106662894D01*
X125426200Y-106695299D01*
X125426202Y-106695299D01*
X125551400Y-106695299D01*
X125551402Y-106695299D01*
X125672337Y-106662894D01*
X125780765Y-106600294D01*
X125869296Y-106511763D01*
X125931896Y-106403335D01*
X125959050Y-106301998D01*
X141497500Y-106301998D01*
X141497500Y-106427200D01*
X141529905Y-106548135D01*
X141592505Y-106656563D01*
X141681036Y-106745094D01*
X141789464Y-106807694D01*
X141910399Y-106840099D01*
X141910401Y-106840099D01*
X142035599Y-106840099D01*
X142035601Y-106840099D01*
X142156536Y-106807694D01*
X142264964Y-106745094D01*
X142325821Y-106684236D01*
X142387140Y-106650754D01*
X142456832Y-106655738D01*
X142501180Y-106684239D01*
X142519236Y-106702295D01*
X142627664Y-106764895D01*
X142748599Y-106797300D01*
X142748601Y-106797300D01*
X142873799Y-106797300D01*
X142873801Y-106797300D01*
X142994736Y-106764895D01*
X143103164Y-106702295D01*
X143191695Y-106613764D01*
X143254295Y-106505336D01*
X143286700Y-106384401D01*
X143286700Y-106259199D01*
X143254295Y-106138264D01*
X143191695Y-106029836D01*
X143103164Y-105941305D01*
X142994736Y-105878705D01*
X142994737Y-105878705D01*
X142954424Y-105867903D01*
X142873801Y-105846300D01*
X142748599Y-105846300D01*
X142667975Y-105867903D01*
X142627663Y-105878705D01*
X142519237Y-105941304D01*
X142458381Y-106002160D01*
X142397057Y-106035644D01*
X142327366Y-106030659D01*
X142283019Y-106002159D01*
X142264965Y-105984105D01*
X142264964Y-105984104D01*
X142156536Y-105921504D01*
X142156537Y-105921504D01*
X142116224Y-105910702D01*
X142035601Y-105889099D01*
X141910399Y-105889099D01*
X141829775Y-105910702D01*
X141789463Y-105921504D01*
X141681037Y-105984103D01*
X141681034Y-105984105D01*
X141592506Y-106072633D01*
X141592504Y-106072636D01*
X141529905Y-106181062D01*
X141529905Y-106181063D01*
X141497500Y-106301998D01*
X125959050Y-106301998D01*
X125964301Y-106282400D01*
X125964301Y-106157198D01*
X125931896Y-106036263D01*
X125869296Y-105927835D01*
X125780765Y-105839304D01*
X125672337Y-105776704D01*
X125672338Y-105776704D01*
X125632025Y-105765902D01*
X125551402Y-105744299D01*
X125426200Y-105744299D01*
X125345576Y-105765902D01*
X125305264Y-105776704D01*
X125196838Y-105839303D01*
X125196835Y-105839305D01*
X125108307Y-105927833D01*
X125108305Y-105927836D01*
X125045706Y-106036262D01*
X125035960Y-106072635D01*
X125013301Y-106157198D01*
X119856644Y-106157198D01*
X119852877Y-106138263D01*
X119845119Y-106099262D01*
X119818330Y-105964580D01*
X119739141Y-105773402D01*
X119624177Y-105601345D01*
X119624175Y-105601342D01*
X119477857Y-105455024D01*
X119391826Y-105397541D01*
X119305798Y-105340059D01*
X119114620Y-105260870D01*
X119114612Y-105260868D01*
X118911669Y-105220500D01*
X118911665Y-105220500D01*
X118704735Y-105220500D01*
X118704730Y-105220500D01*
X118501787Y-105260868D01*
X118501779Y-105260870D01*
X118310603Y-105340058D01*
X118138542Y-105455024D01*
X117992224Y-105601342D01*
X117877258Y-105773403D01*
X117798070Y-105964579D01*
X117798068Y-105964587D01*
X117757700Y-106167530D01*
X117229900Y-106167530D01*
X117229900Y-101431383D01*
X117249585Y-101364344D01*
X117302389Y-101318589D01*
X117371547Y-101308645D01*
X117435103Y-101337670D01*
X117472877Y-101396448D01*
X117476373Y-101411985D01*
X117491442Y-101507127D01*
X117491442Y-101507130D01*
X117557104Y-101709217D01*
X117653575Y-101898550D01*
X117692928Y-101952716D01*
X118325237Y-101320408D01*
X118342275Y-101383993D01*
X118408101Y-101498007D01*
X118501193Y-101591099D01*
X118615207Y-101656925D01*
X118678790Y-101673962D01*
X118046482Y-102306269D01*
X118046482Y-102306270D01*
X118100649Y-102345624D01*
X118289982Y-102442095D01*
X118466173Y-102499343D01*
X118523848Y-102538780D01*
X118551047Y-102603139D01*
X118539132Y-102671985D01*
X118491888Y-102723461D01*
X118475308Y-102731835D01*
X118310603Y-102800057D01*
X118138542Y-102915024D01*
X117992224Y-103061342D01*
X117877258Y-103233403D01*
X117798070Y-103424579D01*
X117798068Y-103424587D01*
X117757700Y-103627530D01*
X117757700Y-103834469D01*
X117798068Y-104037412D01*
X117798070Y-104037420D01*
X117854682Y-104174094D01*
X117877259Y-104228598D01*
X117887259Y-104243564D01*
X117992224Y-104400657D01*
X118138542Y-104546975D01*
X118138545Y-104546977D01*
X118310602Y-104661941D01*
X118501780Y-104741130D01*
X118704730Y-104781499D01*
X118704734Y-104781500D01*
X118704735Y-104781500D01*
X118911666Y-104781500D01*
X118911667Y-104781499D01*
X119114620Y-104741130D01*
X119305798Y-104661941D01*
X119477855Y-104546977D01*
X119624177Y-104400655D01*
X119739141Y-104228598D01*
X119818330Y-104037420D01*
X119858700Y-103834465D01*
X119858700Y-103668399D01*
X124962100Y-103668399D01*
X124962100Y-103793601D01*
X124994505Y-103914536D01*
X125057105Y-104022964D01*
X125145636Y-104111495D01*
X125254064Y-104174095D01*
X125374999Y-104206500D01*
X125375001Y-104206500D01*
X125500199Y-104206500D01*
X125500201Y-104206500D01*
X125621136Y-104174095D01*
X125729564Y-104111495D01*
X125818095Y-104022964D01*
X125880695Y-103914536D01*
X125887538Y-103888998D01*
X138271700Y-103888998D01*
X138271700Y-104014200D01*
X138304105Y-104135135D01*
X138366705Y-104243563D01*
X138455236Y-104332094D01*
X138563664Y-104394694D01*
X138684599Y-104427099D01*
X138684601Y-104427099D01*
X138809799Y-104427099D01*
X138809801Y-104427099D01*
X138930736Y-104394694D01*
X139039164Y-104332094D01*
X139127695Y-104243563D01*
X139190295Y-104135135D01*
X139222700Y-104014200D01*
X139222700Y-103888998D01*
X139190295Y-103768063D01*
X139127695Y-103659635D01*
X139039164Y-103571104D01*
X138930736Y-103508504D01*
X138930737Y-103508504D01*
X138890424Y-103497702D01*
X138809801Y-103476099D01*
X138684599Y-103476099D01*
X138603975Y-103497702D01*
X138563663Y-103508504D01*
X138455237Y-103571103D01*
X138455234Y-103571105D01*
X138366706Y-103659633D01*
X138366704Y-103659636D01*
X138304105Y-103768062D01*
X138297262Y-103793601D01*
X138271700Y-103888998D01*
X125887538Y-103888998D01*
X125913100Y-103793601D01*
X125913100Y-103668399D01*
X125880695Y-103547464D01*
X125818095Y-103439036D01*
X125729564Y-103350505D01*
X125729563Y-103350504D01*
X125701571Y-103334343D01*
X125674749Y-103318858D01*
X125674747Y-103318856D01*
X125621142Y-103287908D01*
X125621137Y-103287905D01*
X125580824Y-103277103D01*
X125500201Y-103255500D01*
X125374999Y-103255500D01*
X125294375Y-103277103D01*
X125254063Y-103287905D01*
X125145637Y-103350504D01*
X125145634Y-103350506D01*
X125057106Y-103439034D01*
X125057104Y-103439037D01*
X124994505Y-103547463D01*
X124987350Y-103574165D01*
X124962100Y-103668399D01*
X119858700Y-103668399D01*
X119858700Y-103627535D01*
X119818330Y-103424580D01*
X119739141Y-103233402D01*
X119729918Y-103219599D01*
X176554500Y-103219599D01*
X176554500Y-103344801D01*
X176586905Y-103465736D01*
X176649505Y-103574164D01*
X176738036Y-103662695D01*
X176846464Y-103725295D01*
X176967399Y-103757700D01*
X176967401Y-103757700D01*
X177092599Y-103757700D01*
X177092601Y-103757700D01*
X177213536Y-103725295D01*
X177321964Y-103662695D01*
X177410495Y-103574164D01*
X177473095Y-103465736D01*
X177505500Y-103344801D01*
X177505500Y-103219599D01*
X177473095Y-103098664D01*
X177410495Y-102990236D01*
X177321964Y-102901705D01*
X177213536Y-102839105D01*
X177213537Y-102839105D01*
X177173224Y-102828303D01*
X177092601Y-102806700D01*
X176967399Y-102806700D01*
X176886775Y-102828303D01*
X176846463Y-102839105D01*
X176738037Y-102901704D01*
X176738034Y-102901706D01*
X176649506Y-102990234D01*
X176649504Y-102990237D01*
X176586905Y-103098663D01*
X176586905Y-103098664D01*
X176554500Y-103219599D01*
X119729918Y-103219599D01*
X119624177Y-103061345D01*
X119624175Y-103061342D01*
X119477857Y-102915024D01*
X119315737Y-102806700D01*
X119305798Y-102800059D01*
X119305793Y-102800057D01*
X119244091Y-102774499D01*
X119141090Y-102731834D01*
X119086688Y-102687994D01*
X119064623Y-102621700D01*
X119081902Y-102554001D01*
X119133039Y-102506390D01*
X119150226Y-102499343D01*
X119326417Y-102442095D01*
X119515754Y-102345622D01*
X119569916Y-102306270D01*
X119569917Y-102306270D01*
X118937608Y-101673962D01*
X119001193Y-101656925D01*
X119115207Y-101591099D01*
X119208299Y-101498007D01*
X119274125Y-101383993D01*
X119291162Y-101320409D01*
X119923470Y-101952717D01*
X119923470Y-101952716D01*
X119962822Y-101898554D01*
X120059295Y-101709217D01*
X120124957Y-101507130D01*
X120124957Y-101507127D01*
X120158200Y-101297246D01*
X120158200Y-101110153D01*
X121268200Y-101110153D01*
X121268200Y-101322646D01*
X121301442Y-101532527D01*
X121301442Y-101532530D01*
X121367104Y-101734617D01*
X121463575Y-101923950D01*
X121502928Y-101978116D01*
X122135237Y-101345808D01*
X122152275Y-101409393D01*
X122218101Y-101523407D01*
X122311193Y-101616499D01*
X122425207Y-101682325D01*
X122488790Y-101699362D01*
X121856482Y-102331669D01*
X121856482Y-102331670D01*
X121910649Y-102371024D01*
X122099982Y-102467495D01*
X122302070Y-102533157D01*
X122511954Y-102566400D01*
X122724446Y-102566400D01*
X122934327Y-102533157D01*
X122934330Y-102533157D01*
X123136417Y-102467495D01*
X123325754Y-102371022D01*
X123351525Y-102352298D01*
X138309800Y-102352298D01*
X138309800Y-102477500D01*
X138342205Y-102598435D01*
X138404805Y-102706863D01*
X138493336Y-102795394D01*
X138601764Y-102857994D01*
X138722699Y-102890399D01*
X138722701Y-102890399D01*
X138847899Y-102890399D01*
X138847901Y-102890399D01*
X138968836Y-102857994D01*
X139077264Y-102795394D01*
X139165795Y-102706863D01*
X139228395Y-102598435D01*
X139260800Y-102477500D01*
X139260800Y-102352298D01*
X139228395Y-102231363D01*
X139165795Y-102122935D01*
X139077264Y-102034404D01*
X138968836Y-101971804D01*
X138968837Y-101971804D01*
X138928524Y-101961002D01*
X138847901Y-101939399D01*
X138722699Y-101939399D01*
X138642075Y-101961002D01*
X138601763Y-101971804D01*
X138493337Y-102034403D01*
X138493334Y-102034405D01*
X138404806Y-102122933D01*
X138404804Y-102122936D01*
X138342205Y-102231362D01*
X138342205Y-102231363D01*
X138309800Y-102352298D01*
X123351525Y-102352298D01*
X123379917Y-102331670D01*
X122747608Y-101699362D01*
X122811193Y-101682325D01*
X122925207Y-101616499D01*
X123018299Y-101523407D01*
X123084125Y-101409393D01*
X123101162Y-101345809D01*
X123733470Y-101978117D01*
X123733470Y-101978116D01*
X123772822Y-101923954D01*
X123869295Y-101734617D01*
X123934957Y-101532530D01*
X123934957Y-101532527D01*
X123968200Y-101322646D01*
X123968200Y-101110153D01*
X123934957Y-100900272D01*
X123934956Y-100900265D01*
X123926552Y-100874399D01*
X147974500Y-100874399D01*
X147974500Y-100999601D01*
X148006905Y-101120536D01*
X148069505Y-101228964D01*
X148158036Y-101317495D01*
X148266464Y-101380095D01*
X148387399Y-101412500D01*
X148387401Y-101412500D01*
X148512599Y-101412500D01*
X148512601Y-101412500D01*
X148633536Y-101380095D01*
X148741964Y-101317495D01*
X148830495Y-101228964D01*
X148893095Y-101120536D01*
X148912156Y-101049399D01*
X176514900Y-101049399D01*
X176514900Y-101174601D01*
X176547305Y-101295536D01*
X176609905Y-101403964D01*
X176698436Y-101492495D01*
X176806864Y-101555095D01*
X176927799Y-101587500D01*
X176927801Y-101587500D01*
X177052999Y-101587500D01*
X177053001Y-101587500D01*
X177173936Y-101555095D01*
X177282364Y-101492495D01*
X177370895Y-101403964D01*
X177433495Y-101295536D01*
X177465900Y-101174601D01*
X177465900Y-101049399D01*
X177433495Y-100928464D01*
X177370895Y-100820036D01*
X177331440Y-100780581D01*
X177297955Y-100719258D01*
X177302939Y-100649566D01*
X177331440Y-100605219D01*
X177410495Y-100526164D01*
X177473095Y-100417736D01*
X177505500Y-100296801D01*
X177505500Y-100171599D01*
X177473095Y-100050664D01*
X177410495Y-99942236D01*
X177321964Y-99853705D01*
X177213536Y-99791105D01*
X177213537Y-99791105D01*
X177149659Y-99773989D01*
X177092601Y-99758700D01*
X176967399Y-99758700D01*
X176910341Y-99773989D01*
X176846463Y-99791105D01*
X176738037Y-99853704D01*
X176738034Y-99853706D01*
X176649506Y-99942234D01*
X176649504Y-99942237D01*
X176586905Y-100050663D01*
X176586905Y-100050664D01*
X176554500Y-100171599D01*
X176554500Y-100296801D01*
X176586905Y-100417736D01*
X176608235Y-100454682D01*
X176649504Y-100526162D01*
X176649506Y-100526165D01*
X176688960Y-100565619D01*
X176722445Y-100626942D01*
X176717461Y-100696634D01*
X176688960Y-100740981D01*
X176609906Y-100820034D01*
X176609904Y-100820037D01*
X176547305Y-100928463D01*
X176531102Y-100988931D01*
X176514900Y-101049399D01*
X148912156Y-101049399D01*
X148925500Y-100999601D01*
X148925500Y-100874399D01*
X148893095Y-100753464D01*
X148830495Y-100645036D01*
X148741964Y-100556505D01*
X148633536Y-100493905D01*
X148633537Y-100493905D01*
X148593224Y-100483103D01*
X148512601Y-100461500D01*
X148387399Y-100461500D01*
X148306775Y-100483103D01*
X148266463Y-100493905D01*
X148158037Y-100556504D01*
X148158034Y-100556506D01*
X148069506Y-100645034D01*
X148069504Y-100645037D01*
X148006905Y-100753463D01*
X148006905Y-100753464D01*
X147974500Y-100874399D01*
X123926552Y-100874399D01*
X123869295Y-100698182D01*
X123772824Y-100508849D01*
X123733470Y-100454682D01*
X123733469Y-100454682D01*
X123101162Y-101086990D01*
X123084125Y-101023407D01*
X123018299Y-100909393D01*
X122925207Y-100816301D01*
X122811193Y-100750475D01*
X122747609Y-100733437D01*
X123369346Y-100111698D01*
X138186800Y-100111698D01*
X138186800Y-100236900D01*
X138219205Y-100357835D01*
X138281805Y-100466263D01*
X138370336Y-100554794D01*
X138478764Y-100617394D01*
X138599699Y-100649799D01*
X138599701Y-100649799D01*
X138724899Y-100649799D01*
X138724901Y-100649799D01*
X138845836Y-100617394D01*
X138954264Y-100554794D01*
X139042795Y-100466263D01*
X139105395Y-100357835D01*
X139137800Y-100236900D01*
X139137800Y-100111698D01*
X139105395Y-99990763D01*
X139058305Y-99909199D01*
X154730900Y-99909199D01*
X154730900Y-100034401D01*
X154763305Y-100155336D01*
X154825905Y-100263764D01*
X154914436Y-100352295D01*
X155022864Y-100414895D01*
X155143799Y-100447300D01*
X155143801Y-100447300D01*
X155268999Y-100447300D01*
X155269001Y-100447300D01*
X155389936Y-100414895D01*
X155498364Y-100352295D01*
X155586895Y-100263764D01*
X155649495Y-100155336D01*
X155681900Y-100034401D01*
X155681900Y-99909199D01*
X155649495Y-99788264D01*
X155586895Y-99679836D01*
X155498364Y-99591305D01*
X155389936Y-99528705D01*
X155389937Y-99528705D01*
X155349624Y-99517903D01*
X155269001Y-99496300D01*
X155143799Y-99496300D01*
X155063175Y-99517903D01*
X155022863Y-99528705D01*
X154914437Y-99591304D01*
X154914434Y-99591306D01*
X154825906Y-99679834D01*
X154825904Y-99679837D01*
X154763305Y-99788263D01*
X154761820Y-99793805D01*
X154730900Y-99909199D01*
X139058305Y-99909199D01*
X139042795Y-99882335D01*
X138954264Y-99793804D01*
X138845836Y-99731204D01*
X138845837Y-99731204D01*
X138786359Y-99715267D01*
X138724901Y-99698799D01*
X138599699Y-99698799D01*
X138538241Y-99715267D01*
X138478763Y-99731204D01*
X138370337Y-99793803D01*
X138370334Y-99793805D01*
X138281806Y-99882333D01*
X138281804Y-99882336D01*
X138219205Y-99990762D01*
X138207512Y-100034401D01*
X138186800Y-100111698D01*
X123369346Y-100111698D01*
X123379916Y-100101128D01*
X123325750Y-100061775D01*
X123132079Y-99963094D01*
X123132596Y-99962078D01*
X123082392Y-99921621D01*
X123060327Y-99855327D01*
X123077606Y-99787628D01*
X123128742Y-99740017D01*
X123184248Y-99726900D01*
X123487950Y-99726900D01*
X123487951Y-99726899D01*
X123502768Y-99723952D01*
X123546429Y-99715268D01*
X123546429Y-99715267D01*
X123546431Y-99715267D01*
X123612752Y-99670952D01*
X123657067Y-99604631D01*
X123657067Y-99604629D01*
X123657068Y-99604629D01*
X123668699Y-99546152D01*
X123668700Y-99546150D01*
X123668700Y-98647599D01*
X176529100Y-98647599D01*
X176529100Y-98772801D01*
X176561505Y-98893736D01*
X176624105Y-99002164D01*
X176712636Y-99090695D01*
X176821064Y-99153295D01*
X176941999Y-99185700D01*
X176942001Y-99185700D01*
X177067199Y-99185700D01*
X177067201Y-99185700D01*
X177188136Y-99153295D01*
X177296564Y-99090695D01*
X177385095Y-99002164D01*
X177447695Y-98893736D01*
X177480100Y-98772801D01*
X177480100Y-98647599D01*
X177447695Y-98526664D01*
X177385095Y-98418236D01*
X177296564Y-98329705D01*
X177188136Y-98267105D01*
X177188137Y-98267105D01*
X177147824Y-98256303D01*
X177067201Y-98234700D01*
X176941999Y-98234700D01*
X176861375Y-98256303D01*
X176821063Y-98267105D01*
X176712637Y-98329704D01*
X176712634Y-98329706D01*
X176624106Y-98418234D01*
X176624104Y-98418237D01*
X176561505Y-98526663D01*
X176561505Y-98526664D01*
X176529100Y-98647599D01*
X123668700Y-98647599D01*
X123668700Y-97826399D01*
X147974500Y-97826399D01*
X147974500Y-97951601D01*
X148006905Y-98072536D01*
X148069505Y-98180964D01*
X148158036Y-98269495D01*
X148266464Y-98332095D01*
X148387399Y-98364500D01*
X148387401Y-98364500D01*
X148512599Y-98364500D01*
X148512601Y-98364500D01*
X148633536Y-98332095D01*
X148741964Y-98269495D01*
X148830495Y-98180964D01*
X148893095Y-98072536D01*
X148925500Y-97951601D01*
X148925500Y-97826399D01*
X148893095Y-97705464D01*
X148830495Y-97597036D01*
X148741964Y-97508505D01*
X148633536Y-97445905D01*
X148633537Y-97445905D01*
X148593224Y-97435103D01*
X148512601Y-97413500D01*
X148387399Y-97413500D01*
X148306775Y-97435103D01*
X148266463Y-97445905D01*
X148158037Y-97508504D01*
X148158034Y-97508506D01*
X148069506Y-97597034D01*
X148069504Y-97597037D01*
X148006905Y-97705463D01*
X148006905Y-97705464D01*
X147974500Y-97826399D01*
X123668700Y-97826399D01*
X123668700Y-97806649D01*
X123668699Y-97806647D01*
X123657068Y-97748170D01*
X123657067Y-97748169D01*
X123612752Y-97681847D01*
X123546430Y-97637532D01*
X123546429Y-97637531D01*
X123487952Y-97625900D01*
X123487948Y-97625900D01*
X121748452Y-97625900D01*
X121748447Y-97625900D01*
X121689970Y-97637531D01*
X121689969Y-97637532D01*
X121623647Y-97681847D01*
X121579332Y-97748169D01*
X121579331Y-97748170D01*
X121567700Y-97806647D01*
X121567700Y-99546152D01*
X121579331Y-99604629D01*
X121579332Y-99604630D01*
X121623647Y-99670952D01*
X121689969Y-99715267D01*
X121689970Y-99715268D01*
X121748447Y-99726899D01*
X121748450Y-99726900D01*
X122052152Y-99726900D01*
X122119191Y-99746585D01*
X122164946Y-99799389D01*
X122174890Y-99868547D01*
X122145865Y-99932103D01*
X122103935Y-99962338D01*
X122104321Y-99963094D01*
X121910639Y-100061780D01*
X121856482Y-100101127D01*
X121856482Y-100101128D01*
X122488791Y-100733437D01*
X122425207Y-100750475D01*
X122311193Y-100816301D01*
X122218101Y-100909393D01*
X122152275Y-101023407D01*
X122135237Y-101086991D01*
X121502928Y-100454682D01*
X121502927Y-100454682D01*
X121463580Y-100508839D01*
X121367104Y-100698182D01*
X121301442Y-100900269D01*
X121301442Y-100900272D01*
X121268200Y-101110153D01*
X120158200Y-101110153D01*
X120158200Y-101084753D01*
X120124957Y-100874872D01*
X120124957Y-100874869D01*
X120059295Y-100672782D01*
X119962824Y-100483449D01*
X119923470Y-100429282D01*
X119923469Y-100429282D01*
X119291162Y-101061590D01*
X119274125Y-100998007D01*
X119208299Y-100883993D01*
X119115207Y-100790901D01*
X119001193Y-100725075D01*
X118937609Y-100708037D01*
X119569916Y-100075728D01*
X119515750Y-100036375D01*
X119322079Y-99937694D01*
X119322596Y-99936678D01*
X119272392Y-99896221D01*
X119250327Y-99829927D01*
X119267606Y-99762228D01*
X119318742Y-99714617D01*
X119374248Y-99701500D01*
X119677950Y-99701500D01*
X119677951Y-99701499D01*
X119692768Y-99698552D01*
X119736429Y-99689868D01*
X119736429Y-99689867D01*
X119736431Y-99689867D01*
X119802752Y-99645552D01*
X119847067Y-99579231D01*
X119847067Y-99579229D01*
X119847068Y-99579229D01*
X119858699Y-99520752D01*
X119858700Y-99520750D01*
X119858700Y-97781249D01*
X119858699Y-97781247D01*
X119847068Y-97722770D01*
X119847067Y-97722769D01*
X119802752Y-97656447D01*
X119736430Y-97612132D01*
X119736429Y-97612131D01*
X119677952Y-97600500D01*
X119677948Y-97600500D01*
X117938452Y-97600500D01*
X117938447Y-97600500D01*
X117879970Y-97612131D01*
X117879969Y-97612132D01*
X117813647Y-97656447D01*
X117769332Y-97722769D01*
X117769331Y-97722770D01*
X117757700Y-97781247D01*
X117757700Y-99520752D01*
X117769331Y-99579229D01*
X117769332Y-99579230D01*
X117813647Y-99645552D01*
X117879969Y-99689867D01*
X117879970Y-99689868D01*
X117938447Y-99701499D01*
X117938450Y-99701500D01*
X118242152Y-99701500D01*
X118309191Y-99721185D01*
X118354946Y-99773989D01*
X118364890Y-99843147D01*
X118335865Y-99906703D01*
X118293935Y-99936938D01*
X118294321Y-99937694D01*
X118100639Y-100036380D01*
X118046482Y-100075727D01*
X118046482Y-100075728D01*
X118678791Y-100708037D01*
X118615207Y-100725075D01*
X118501193Y-100790901D01*
X118408101Y-100883993D01*
X118342275Y-100998007D01*
X118325237Y-101061591D01*
X117692928Y-100429282D01*
X117692927Y-100429282D01*
X117653580Y-100483439D01*
X117557104Y-100672782D01*
X117491442Y-100874869D01*
X117491442Y-100874872D01*
X117476373Y-100970014D01*
X117446444Y-101033149D01*
X117387132Y-101070080D01*
X117317270Y-101069082D01*
X117259037Y-101030472D01*
X117230923Y-100966508D01*
X117229900Y-100950616D01*
X117229900Y-97123599D01*
X176529100Y-97123599D01*
X176529100Y-97248801D01*
X176561505Y-97369736D01*
X176624105Y-97478164D01*
X176712636Y-97566695D01*
X176821064Y-97629295D01*
X176941999Y-97661700D01*
X176942001Y-97661700D01*
X177067199Y-97661700D01*
X177067201Y-97661700D01*
X177188136Y-97629295D01*
X177296564Y-97566695D01*
X177385095Y-97478164D01*
X177447695Y-97369736D01*
X177480100Y-97248801D01*
X177480100Y-97123599D01*
X177447695Y-97002664D01*
X177385095Y-96894236D01*
X177296564Y-96805705D01*
X177188136Y-96743105D01*
X177188137Y-96743105D01*
X177147824Y-96732303D01*
X177067201Y-96710700D01*
X176941999Y-96710700D01*
X176861375Y-96732303D01*
X176821063Y-96743105D01*
X176712637Y-96805704D01*
X176712634Y-96805706D01*
X176624106Y-96894234D01*
X176624104Y-96894237D01*
X176561505Y-97002663D01*
X176561505Y-97002664D01*
X176529100Y-97123599D01*
X117229900Y-97123599D01*
X117229900Y-94991530D01*
X117732300Y-94991530D01*
X117732300Y-95198469D01*
X117772668Y-95401412D01*
X117772670Y-95401420D01*
X117851858Y-95592596D01*
X117966824Y-95764657D01*
X118113142Y-95910975D01*
X118113145Y-95910977D01*
X118285202Y-96025941D01*
X118476380Y-96105130D01*
X118679330Y-96145499D01*
X118679334Y-96145500D01*
X118679335Y-96145500D01*
X118886266Y-96145500D01*
X118886267Y-96145499D01*
X119089220Y-96105130D01*
X119280398Y-96025941D01*
X119452455Y-95910977D01*
X119598777Y-95764655D01*
X119713741Y-95592598D01*
X119792930Y-95401420D01*
X119833300Y-95198465D01*
X119833300Y-94991535D01*
X119833299Y-94991530D01*
X120272300Y-94991530D01*
X120272300Y-95198469D01*
X120312668Y-95401412D01*
X120312670Y-95401420D01*
X120391858Y-95592596D01*
X120506824Y-95764657D01*
X120653142Y-95910975D01*
X120653145Y-95910977D01*
X120825202Y-96025941D01*
X121016380Y-96105130D01*
X121219330Y-96145499D01*
X121219334Y-96145500D01*
X121219335Y-96145500D01*
X121426266Y-96145500D01*
X121426267Y-96145499D01*
X121629220Y-96105130D01*
X121820398Y-96025941D01*
X121900829Y-95972199D01*
X156254900Y-95972199D01*
X156254900Y-96097401D01*
X156287305Y-96218336D01*
X156349905Y-96326764D01*
X156438436Y-96415295D01*
X156546864Y-96477895D01*
X156667799Y-96510300D01*
X156667801Y-96510300D01*
X156792999Y-96510300D01*
X156793001Y-96510300D01*
X156913936Y-96477895D01*
X157022364Y-96415295D01*
X157110895Y-96326764D01*
X157173495Y-96218336D01*
X157205900Y-96097401D01*
X157205900Y-95972199D01*
X157173495Y-95851264D01*
X157110895Y-95742836D01*
X157022364Y-95654305D01*
X156913936Y-95591705D01*
X156913937Y-95591705D01*
X156873624Y-95580903D01*
X156793001Y-95559300D01*
X156667799Y-95559300D01*
X156587175Y-95580903D01*
X156546863Y-95591705D01*
X156438437Y-95654304D01*
X156438434Y-95654306D01*
X156349906Y-95742834D01*
X156349904Y-95742837D01*
X156287305Y-95851263D01*
X156287305Y-95851264D01*
X156254900Y-95972199D01*
X121900829Y-95972199D01*
X121992455Y-95910977D01*
X121992458Y-95910974D01*
X122027043Y-95876390D01*
X122138774Y-95764658D01*
X122138775Y-95764657D01*
X122138777Y-95764655D01*
X122253741Y-95592598D01*
X122332930Y-95401420D01*
X122373300Y-95198465D01*
X122373300Y-94991535D01*
X122332930Y-94788580D01*
X122253741Y-94597402D01*
X122221934Y-94549799D01*
X143529500Y-94549799D01*
X143529500Y-94675001D01*
X143561905Y-94795936D01*
X143624505Y-94904364D01*
X143713036Y-94992895D01*
X143821464Y-95055495D01*
X143942399Y-95087900D01*
X143942401Y-95087900D01*
X144067599Y-95087900D01*
X144067601Y-95087900D01*
X144188536Y-95055495D01*
X144296964Y-94992895D01*
X144385495Y-94904364D01*
X144418312Y-94847521D01*
X144468879Y-94799306D01*
X144537486Y-94786082D01*
X144602351Y-94812050D01*
X144633087Y-94847521D01*
X144665905Y-94904364D01*
X144754436Y-94992895D01*
X144862864Y-95055495D01*
X144983799Y-95087900D01*
X144983801Y-95087900D01*
X145108999Y-95087900D01*
X145109001Y-95087900D01*
X145229936Y-95055495D01*
X145338364Y-94992895D01*
X145426895Y-94904364D01*
X145489495Y-94795936D01*
X145507806Y-94727599D01*
X153740300Y-94727599D01*
X153740300Y-94852801D01*
X153772705Y-94973736D01*
X153835305Y-95082164D01*
X153923836Y-95170695D01*
X154032264Y-95233295D01*
X154153199Y-95265700D01*
X154153201Y-95265700D01*
X154278399Y-95265700D01*
X154278401Y-95265700D01*
X154399336Y-95233295D01*
X154507764Y-95170695D01*
X154547219Y-95131240D01*
X154608542Y-95097755D01*
X154678234Y-95102739D01*
X154722581Y-95131240D01*
X154724305Y-95132964D01*
X154812836Y-95221495D01*
X154921264Y-95284095D01*
X155042199Y-95316500D01*
X155042201Y-95316500D01*
X155167399Y-95316500D01*
X155167401Y-95316500D01*
X155288336Y-95284095D01*
X155396764Y-95221495D01*
X155485295Y-95132964D01*
X155547895Y-95024536D01*
X155580300Y-94903601D01*
X155580300Y-94778399D01*
X155547895Y-94657464D01*
X155485295Y-94549036D01*
X155396764Y-94460505D01*
X155288336Y-94397905D01*
X155288337Y-94397905D01*
X155248024Y-94387103D01*
X155167401Y-94365500D01*
X155042199Y-94365500D01*
X154961575Y-94387103D01*
X154921263Y-94397905D01*
X154812837Y-94460504D01*
X154812834Y-94460506D01*
X154773381Y-94499960D01*
X154712058Y-94533445D01*
X154642366Y-94528461D01*
X154598019Y-94499960D01*
X154507765Y-94409706D01*
X154507764Y-94409705D01*
X154399336Y-94347105D01*
X154399337Y-94347105D01*
X154359024Y-94336303D01*
X154278401Y-94314700D01*
X154153199Y-94314700D01*
X154072575Y-94336303D01*
X154032263Y-94347105D01*
X153923837Y-94409704D01*
X153923834Y-94409706D01*
X153835306Y-94498234D01*
X153835304Y-94498237D01*
X153772705Y-94606663D01*
X153772705Y-94606664D01*
X153740300Y-94727599D01*
X145507806Y-94727599D01*
X145521900Y-94675001D01*
X145521900Y-94549799D01*
X145489495Y-94428864D01*
X145426895Y-94320436D01*
X145338364Y-94231905D01*
X145229936Y-94169305D01*
X145229937Y-94169305D01*
X145189624Y-94158503D01*
X145109001Y-94136900D01*
X144983799Y-94136900D01*
X144903175Y-94158503D01*
X144862863Y-94169305D01*
X144754437Y-94231904D01*
X144754434Y-94231906D01*
X144665906Y-94320434D01*
X144665902Y-94320439D01*
X144633087Y-94377278D01*
X144582520Y-94425494D01*
X144513913Y-94438717D01*
X144449048Y-94412749D01*
X144418313Y-94377278D01*
X144385497Y-94320439D01*
X144385496Y-94320437D01*
X144385495Y-94320436D01*
X144296964Y-94231905D01*
X144188536Y-94169305D01*
X144188537Y-94169305D01*
X144148224Y-94158503D01*
X144067601Y-94136900D01*
X143942399Y-94136900D01*
X143861775Y-94158503D01*
X143821463Y-94169305D01*
X143713037Y-94231904D01*
X143713034Y-94231906D01*
X143624506Y-94320434D01*
X143624504Y-94320437D01*
X143561905Y-94428863D01*
X143561905Y-94428864D01*
X143529500Y-94549799D01*
X122221934Y-94549799D01*
X122138777Y-94425345D01*
X122138775Y-94425342D01*
X121992457Y-94279024D01*
X121828249Y-94169305D01*
X121820398Y-94164059D01*
X121629220Y-94084870D01*
X121629212Y-94084868D01*
X121426269Y-94044500D01*
X121426265Y-94044500D01*
X121219335Y-94044500D01*
X121219330Y-94044500D01*
X121016387Y-94084868D01*
X121016379Y-94084870D01*
X120825203Y-94164058D01*
X120653142Y-94279024D01*
X120506824Y-94425342D01*
X120391858Y-94597403D01*
X120312670Y-94788579D01*
X120312668Y-94788587D01*
X120272300Y-94991530D01*
X119833299Y-94991530D01*
X119792930Y-94788580D01*
X119713741Y-94597402D01*
X119598777Y-94425345D01*
X119598775Y-94425342D01*
X119452457Y-94279024D01*
X119288249Y-94169305D01*
X119280398Y-94164059D01*
X119089220Y-94084870D01*
X119089212Y-94084868D01*
X118886269Y-94044500D01*
X118886265Y-94044500D01*
X118679335Y-94044500D01*
X118679330Y-94044500D01*
X118476387Y-94084868D01*
X118476379Y-94084870D01*
X118285203Y-94164058D01*
X118113142Y-94279024D01*
X117966824Y-94425342D01*
X117851858Y-94597403D01*
X117772670Y-94788579D01*
X117772668Y-94788587D01*
X117732300Y-94991530D01*
X117229900Y-94991530D01*
X117229900Y-92451530D01*
X117732300Y-92451530D01*
X117732300Y-92658469D01*
X117772668Y-92861412D01*
X117772670Y-92861420D01*
X117851858Y-93052596D01*
X117966824Y-93224657D01*
X118113142Y-93370975D01*
X118113145Y-93370977D01*
X118285202Y-93485941D01*
X118476380Y-93565130D01*
X118679330Y-93605499D01*
X118679334Y-93605500D01*
X118679335Y-93605500D01*
X118886266Y-93605500D01*
X118886267Y-93605499D01*
X119089220Y-93565130D01*
X119280398Y-93485941D01*
X119452455Y-93370977D01*
X119598777Y-93224655D01*
X119713741Y-93052598D01*
X119792930Y-92861420D01*
X119833300Y-92658465D01*
X119833300Y-92451535D01*
X119833299Y-92451530D01*
X120272300Y-92451530D01*
X120272300Y-92658469D01*
X120312668Y-92861412D01*
X120312670Y-92861420D01*
X120391858Y-93052596D01*
X120506824Y-93224657D01*
X120653142Y-93370975D01*
X120653145Y-93370977D01*
X120825202Y-93485941D01*
X121016380Y-93565130D01*
X121219330Y-93605499D01*
X121219334Y-93605500D01*
X121219335Y-93605500D01*
X121426266Y-93605500D01*
X121426267Y-93605499D01*
X121629220Y-93565130D01*
X121820398Y-93485941D01*
X121992455Y-93370977D01*
X122138777Y-93224655D01*
X122253741Y-93052598D01*
X122332930Y-92861420D01*
X122373300Y-92658465D01*
X122373300Y-92451535D01*
X122332930Y-92248580D01*
X122253741Y-92057402D01*
X122138777Y-91885345D01*
X122138775Y-91885342D01*
X121992458Y-91739025D01*
X121992450Y-91739019D01*
X121954931Y-91713949D01*
X121954857Y-91713901D01*
X121820398Y-91624059D01*
X121808008Y-91618927D01*
X121808003Y-91618925D01*
X135809100Y-91618925D01*
X135809100Y-91763875D01*
X135841648Y-91885345D01*
X135846617Y-91903888D01*
X135919088Y-92029411D01*
X135919090Y-92029413D01*
X135919091Y-92029415D01*
X136021585Y-92131909D01*
X136021586Y-92131910D01*
X136021588Y-92131911D01*
X136147111Y-92204382D01*
X136147112Y-92204382D01*
X136147115Y-92204384D01*
X136287125Y-92241900D01*
X136287128Y-92241900D01*
X136432072Y-92241900D01*
X136432075Y-92241900D01*
X136572085Y-92204384D01*
X136697615Y-92131909D01*
X136800109Y-92029415D01*
X136872584Y-91903885D01*
X136910100Y-91763875D01*
X136910100Y-91618925D01*
X138095100Y-91618925D01*
X138095100Y-91763875D01*
X138127648Y-91885345D01*
X138132617Y-91903888D01*
X138205088Y-92029411D01*
X138205090Y-92029413D01*
X138205091Y-92029415D01*
X138307585Y-92131909D01*
X138307586Y-92131910D01*
X138307588Y-92131911D01*
X138433111Y-92204382D01*
X138433112Y-92204382D01*
X138433115Y-92204384D01*
X138573125Y-92241900D01*
X138573128Y-92241900D01*
X138718072Y-92241900D01*
X138718075Y-92241900D01*
X138858085Y-92204384D01*
X138983615Y-92131909D01*
X139086109Y-92029415D01*
X139158584Y-91903885D01*
X139196100Y-91763875D01*
X139196100Y-91628799D01*
X152952900Y-91628799D01*
X152952900Y-91754001D01*
X152985305Y-91874936D01*
X153047905Y-91983364D01*
X153136436Y-92071895D01*
X153244864Y-92134495D01*
X153365799Y-92166900D01*
X153365801Y-92166900D01*
X153490999Y-92166900D01*
X153491001Y-92166900D01*
X153611936Y-92134495D01*
X153720364Y-92071895D01*
X153808895Y-91983364D01*
X153871495Y-91874936D01*
X153903900Y-91754001D01*
X153903900Y-91628799D01*
X153871495Y-91507864D01*
X153808895Y-91399436D01*
X153720364Y-91310905D01*
X153611936Y-91248305D01*
X153611937Y-91248305D01*
X153587650Y-91241797D01*
X153491001Y-91215900D01*
X153365799Y-91215900D01*
X153304050Y-91232446D01*
X153244863Y-91248305D01*
X153136437Y-91310904D01*
X153136434Y-91310906D01*
X153047906Y-91399434D01*
X153047904Y-91399437D01*
X152985305Y-91507863D01*
X152985305Y-91507864D01*
X152952900Y-91628799D01*
X139196100Y-91628799D01*
X139196100Y-91618925D01*
X139158584Y-91478915D01*
X139156534Y-91475365D01*
X139086111Y-91353388D01*
X139086106Y-91353382D01*
X138983617Y-91250893D01*
X138983611Y-91250888D01*
X138858088Y-91178417D01*
X138858089Y-91178417D01*
X138846606Y-91175340D01*
X138718075Y-91140900D01*
X138573125Y-91140900D01*
X138444593Y-91175340D01*
X138433111Y-91178417D01*
X138307588Y-91250888D01*
X138307582Y-91250893D01*
X138205093Y-91353382D01*
X138205088Y-91353388D01*
X138132617Y-91478911D01*
X138132616Y-91478915D01*
X138095100Y-91618925D01*
X136910100Y-91618925D01*
X136872584Y-91478915D01*
X136870534Y-91475365D01*
X136800111Y-91353388D01*
X136800106Y-91353382D01*
X136697617Y-91250893D01*
X136697611Y-91250888D01*
X136572088Y-91178417D01*
X136572089Y-91178417D01*
X136560606Y-91175340D01*
X136432075Y-91140900D01*
X136287125Y-91140900D01*
X136158593Y-91175340D01*
X136147111Y-91178417D01*
X136021588Y-91250888D01*
X136021582Y-91250893D01*
X135919093Y-91353382D01*
X135919088Y-91353388D01*
X135846617Y-91478911D01*
X135846616Y-91478915D01*
X135809100Y-91618925D01*
X121808003Y-91618925D01*
X121629220Y-91544870D01*
X121629212Y-91544868D01*
X121426269Y-91504500D01*
X121426265Y-91504500D01*
X121219335Y-91504500D01*
X121219330Y-91504500D01*
X121016387Y-91544868D01*
X121016379Y-91544870D01*
X120825203Y-91624058D01*
X120653142Y-91739024D01*
X120506824Y-91885342D01*
X120391858Y-92057403D01*
X120312670Y-92248579D01*
X120312668Y-92248587D01*
X120272300Y-92451530D01*
X119833299Y-92451530D01*
X119792930Y-92248580D01*
X119713741Y-92057402D01*
X119598777Y-91885345D01*
X119598775Y-91885342D01*
X119452457Y-91739024D01*
X119366426Y-91681541D01*
X119280398Y-91624059D01*
X119268008Y-91618927D01*
X119089220Y-91544870D01*
X119089212Y-91544868D01*
X118886269Y-91504500D01*
X118886265Y-91504500D01*
X118679335Y-91504500D01*
X118679330Y-91504500D01*
X118476387Y-91544868D01*
X118476379Y-91544870D01*
X118285203Y-91624058D01*
X118113142Y-91739024D01*
X117966824Y-91885342D01*
X117851858Y-92057403D01*
X117772670Y-92248579D01*
X117772668Y-92248587D01*
X117732300Y-92451530D01*
X117229900Y-92451530D01*
X117229900Y-91120799D01*
X164128900Y-91120799D01*
X164128900Y-91246001D01*
X164161305Y-91366936D01*
X164223905Y-91475364D01*
X164312436Y-91563895D01*
X164420864Y-91626495D01*
X164541799Y-91658900D01*
X164541801Y-91658900D01*
X164666999Y-91658900D01*
X164667001Y-91658900D01*
X164787936Y-91626495D01*
X164896364Y-91563895D01*
X164961219Y-91499040D01*
X165022542Y-91465555D01*
X165092234Y-91470539D01*
X165136581Y-91499040D01*
X165201436Y-91563895D01*
X165309864Y-91626495D01*
X165430799Y-91658900D01*
X165430801Y-91658900D01*
X165555999Y-91658900D01*
X165556001Y-91658900D01*
X165676936Y-91626495D01*
X165785364Y-91563895D01*
X165873895Y-91475364D01*
X165936495Y-91366936D01*
X165968900Y-91246001D01*
X165968900Y-91120799D01*
X165936495Y-90999864D01*
X165873895Y-90891436D01*
X165785364Y-90802905D01*
X165676936Y-90740305D01*
X165676937Y-90740305D01*
X165636624Y-90729503D01*
X165556001Y-90707900D01*
X165430799Y-90707900D01*
X165350175Y-90729503D01*
X165309863Y-90740305D01*
X165201437Y-90802904D01*
X165201434Y-90802906D01*
X165136581Y-90867760D01*
X165075258Y-90901245D01*
X165005566Y-90896261D01*
X164961219Y-90867760D01*
X164896365Y-90802906D01*
X164896364Y-90802905D01*
X164787936Y-90740305D01*
X164787937Y-90740305D01*
X164747624Y-90729503D01*
X164667001Y-90707900D01*
X164541799Y-90707900D01*
X164461175Y-90729503D01*
X164420863Y-90740305D01*
X164312437Y-90802904D01*
X164312434Y-90802906D01*
X164223906Y-90891434D01*
X164223904Y-90891437D01*
X164161305Y-90999863D01*
X164145102Y-91060331D01*
X164128900Y-91120799D01*
X117229900Y-91120799D01*
X117229900Y-89911530D01*
X117732300Y-89911530D01*
X117732300Y-90118469D01*
X117772668Y-90321412D01*
X117772670Y-90321420D01*
X117798244Y-90383162D01*
X117851859Y-90512598D01*
X117888009Y-90566700D01*
X117966824Y-90684657D01*
X118113142Y-90830975D01*
X118113145Y-90830977D01*
X118285202Y-90945941D01*
X118476380Y-91025130D01*
X118679330Y-91065499D01*
X118679334Y-91065500D01*
X118679335Y-91065500D01*
X118886266Y-91065500D01*
X118886267Y-91065499D01*
X119089220Y-91025130D01*
X119280398Y-90945941D01*
X119452455Y-90830977D01*
X119598777Y-90684655D01*
X119713741Y-90512598D01*
X119792930Y-90321420D01*
X119833300Y-90118465D01*
X119833300Y-89911535D01*
X119833299Y-89911530D01*
X120272300Y-89911530D01*
X120272300Y-90118469D01*
X120312668Y-90321412D01*
X120312670Y-90321420D01*
X120338244Y-90383162D01*
X120391859Y-90512598D01*
X120428009Y-90566700D01*
X120506824Y-90684657D01*
X120653142Y-90830975D01*
X120653145Y-90830977D01*
X120825202Y-90945941D01*
X121016380Y-91025130D01*
X121219330Y-91065499D01*
X121219334Y-91065500D01*
X121219335Y-91065500D01*
X121426266Y-91065500D01*
X121426267Y-91065499D01*
X121629220Y-91025130D01*
X121820398Y-90945941D01*
X121992455Y-90830977D01*
X122138777Y-90684655D01*
X122253741Y-90512598D01*
X122332930Y-90321420D01*
X122373300Y-90118465D01*
X122373300Y-89911535D01*
X122332930Y-89708580D01*
X122255065Y-89520599D01*
X142259500Y-89520599D01*
X142259500Y-89645801D01*
X142291905Y-89766736D01*
X142354505Y-89875164D01*
X142443036Y-89963695D01*
X142551464Y-90026295D01*
X142672399Y-90058700D01*
X142672401Y-90058700D01*
X142797599Y-90058700D01*
X142797601Y-90058700D01*
X142918536Y-90026295D01*
X143026964Y-89963695D01*
X143115495Y-89875164D01*
X143178095Y-89766736D01*
X143210500Y-89645801D01*
X143210500Y-89520599D01*
X143554900Y-89520599D01*
X143554900Y-89645801D01*
X143587305Y-89766736D01*
X143649905Y-89875164D01*
X143738436Y-89963695D01*
X143846864Y-90026295D01*
X143967799Y-90058700D01*
X143967801Y-90058700D01*
X144092999Y-90058700D01*
X144093001Y-90058700D01*
X144213936Y-90026295D01*
X144322364Y-89963695D01*
X144410895Y-89875164D01*
X144473495Y-89766736D01*
X144505900Y-89645801D01*
X144505900Y-89520599D01*
X144799500Y-89520599D01*
X144799500Y-89645801D01*
X144831905Y-89766736D01*
X144894505Y-89875164D01*
X144983036Y-89963695D01*
X145091464Y-90026295D01*
X145212399Y-90058700D01*
X145212401Y-90058700D01*
X145337599Y-90058700D01*
X145337601Y-90058700D01*
X145458536Y-90026295D01*
X145566964Y-89963695D01*
X145655495Y-89875164D01*
X145718095Y-89766736D01*
X145750500Y-89645801D01*
X145750500Y-89520599D01*
X146069500Y-89520599D01*
X146069500Y-89645801D01*
X146101905Y-89766736D01*
X146164505Y-89875164D01*
X146253036Y-89963695D01*
X146361464Y-90026295D01*
X146482399Y-90058700D01*
X146482401Y-90058700D01*
X146607599Y-90058700D01*
X146607601Y-90058700D01*
X146728536Y-90026295D01*
X146836964Y-89963695D01*
X146925495Y-89875164D01*
X146988095Y-89766736D01*
X147020500Y-89645801D01*
X147020500Y-89520599D01*
X147339500Y-89520599D01*
X147339500Y-89645801D01*
X147371905Y-89766736D01*
X147434505Y-89875164D01*
X147523036Y-89963695D01*
X147631464Y-90026295D01*
X147752399Y-90058700D01*
X147752401Y-90058700D01*
X147877599Y-90058700D01*
X147877601Y-90058700D01*
X147989938Y-90028599D01*
X156915300Y-90028599D01*
X156915300Y-90153801D01*
X156947705Y-90274736D01*
X157010305Y-90383164D01*
X157098836Y-90471695D01*
X157207264Y-90534295D01*
X157328199Y-90566700D01*
X157328201Y-90566700D01*
X157453399Y-90566700D01*
X157453401Y-90566700D01*
X157574336Y-90534295D01*
X157682764Y-90471695D01*
X157771295Y-90383164D01*
X157833895Y-90274736D01*
X157866300Y-90153801D01*
X157866300Y-90028599D01*
X157833895Y-89907664D01*
X157771295Y-89799236D01*
X157682764Y-89710705D01*
X157574336Y-89648105D01*
X157574337Y-89648105D01*
X157534024Y-89637303D01*
X157453401Y-89615700D01*
X157328199Y-89615700D01*
X157247575Y-89637303D01*
X157207263Y-89648105D01*
X157098837Y-89710704D01*
X157098834Y-89710706D01*
X157010306Y-89799234D01*
X157010304Y-89799237D01*
X156947705Y-89907663D01*
X156940972Y-89932790D01*
X156915300Y-90028599D01*
X147989938Y-90028599D01*
X147998536Y-90026295D01*
X148106964Y-89963695D01*
X148195495Y-89875164D01*
X148258095Y-89766736D01*
X148290500Y-89645801D01*
X148290500Y-89520599D01*
X148258095Y-89399664D01*
X148195495Y-89291236D01*
X148106964Y-89202705D01*
X147998536Y-89140105D01*
X147998537Y-89140105D01*
X147958224Y-89129303D01*
X147877601Y-89107700D01*
X147752399Y-89107700D01*
X147671775Y-89129303D01*
X147631463Y-89140105D01*
X147523037Y-89202704D01*
X147523034Y-89202706D01*
X147434506Y-89291234D01*
X147434504Y-89291237D01*
X147371905Y-89399663D01*
X147371905Y-89399664D01*
X147339500Y-89520599D01*
X147020500Y-89520599D01*
X146988095Y-89399664D01*
X146925495Y-89291236D01*
X146836964Y-89202705D01*
X146728536Y-89140105D01*
X146728537Y-89140105D01*
X146688224Y-89129303D01*
X146607601Y-89107700D01*
X146482399Y-89107700D01*
X146401775Y-89129303D01*
X146361463Y-89140105D01*
X146253037Y-89202704D01*
X146253034Y-89202706D01*
X146164506Y-89291234D01*
X146164504Y-89291237D01*
X146101905Y-89399663D01*
X146101905Y-89399664D01*
X146069500Y-89520599D01*
X145750500Y-89520599D01*
X145718095Y-89399664D01*
X145655495Y-89291236D01*
X145566964Y-89202705D01*
X145458536Y-89140105D01*
X145458537Y-89140105D01*
X145418224Y-89129303D01*
X145337601Y-89107700D01*
X145212399Y-89107700D01*
X145131775Y-89129303D01*
X145091463Y-89140105D01*
X144983037Y-89202704D01*
X144983034Y-89202706D01*
X144894506Y-89291234D01*
X144894504Y-89291237D01*
X144831905Y-89399663D01*
X144831905Y-89399664D01*
X144799500Y-89520599D01*
X144505900Y-89520599D01*
X144473495Y-89399664D01*
X144410895Y-89291236D01*
X144322364Y-89202705D01*
X144213936Y-89140105D01*
X144213937Y-89140105D01*
X144173624Y-89129303D01*
X144093001Y-89107700D01*
X143967799Y-89107700D01*
X143887175Y-89129303D01*
X143846863Y-89140105D01*
X143738437Y-89202704D01*
X143738434Y-89202706D01*
X143649906Y-89291234D01*
X143649904Y-89291237D01*
X143587305Y-89399663D01*
X143587305Y-89399664D01*
X143554900Y-89520599D01*
X143210500Y-89520599D01*
X143178095Y-89399664D01*
X143115495Y-89291236D01*
X143026964Y-89202705D01*
X142918536Y-89140105D01*
X142918537Y-89140105D01*
X142878224Y-89129303D01*
X142797601Y-89107700D01*
X142672399Y-89107700D01*
X142591775Y-89129303D01*
X142551463Y-89140105D01*
X142443037Y-89202704D01*
X142443034Y-89202706D01*
X142354506Y-89291234D01*
X142354504Y-89291237D01*
X142291905Y-89399663D01*
X142291905Y-89399664D01*
X142259500Y-89520599D01*
X122255065Y-89520599D01*
X122253741Y-89517402D01*
X122138777Y-89345345D01*
X122138775Y-89345342D01*
X121992457Y-89199024D01*
X121904277Y-89140105D01*
X121820398Y-89084059D01*
X121629220Y-89004870D01*
X121629212Y-89004868D01*
X121426269Y-88964500D01*
X121426265Y-88964500D01*
X121219335Y-88964500D01*
X121219330Y-88964500D01*
X121016387Y-89004868D01*
X121016379Y-89004870D01*
X120825203Y-89084058D01*
X120653142Y-89199024D01*
X120506824Y-89345342D01*
X120391858Y-89517403D01*
X120312670Y-89708579D01*
X120312668Y-89708587D01*
X120272300Y-89911530D01*
X119833299Y-89911530D01*
X119792930Y-89708580D01*
X119713741Y-89517402D01*
X119598777Y-89345345D01*
X119598775Y-89345342D01*
X119452457Y-89199024D01*
X119364277Y-89140105D01*
X119280398Y-89084059D01*
X119089220Y-89004870D01*
X119089212Y-89004868D01*
X118886269Y-88964500D01*
X118886265Y-88964500D01*
X118679335Y-88964500D01*
X118679330Y-88964500D01*
X118476387Y-89004868D01*
X118476379Y-89004870D01*
X118285203Y-89084058D01*
X118113142Y-89199024D01*
X117966824Y-89345342D01*
X117851858Y-89517403D01*
X117772670Y-89708579D01*
X117772668Y-89708587D01*
X117732300Y-89911530D01*
X117229900Y-89911530D01*
X117229900Y-87371530D01*
X117732300Y-87371530D01*
X117732300Y-87578469D01*
X117772668Y-87781412D01*
X117772670Y-87781420D01*
X117851858Y-87972596D01*
X117966824Y-88144657D01*
X118113142Y-88290975D01*
X118113145Y-88290977D01*
X118285202Y-88405941D01*
X118476380Y-88485130D01*
X118679330Y-88525499D01*
X118679334Y-88525500D01*
X118679335Y-88525500D01*
X118886266Y-88525500D01*
X118886267Y-88525499D01*
X119089220Y-88485130D01*
X119280398Y-88405941D01*
X119452455Y-88290977D01*
X119598777Y-88144655D01*
X119713741Y-87972598D01*
X119792930Y-87781420D01*
X119833300Y-87578465D01*
X119833300Y-87371535D01*
X119833299Y-87371530D01*
X120272300Y-87371530D01*
X120272300Y-87578469D01*
X120312668Y-87781412D01*
X120312670Y-87781420D01*
X120391858Y-87972596D01*
X120506824Y-88144657D01*
X120653142Y-88290975D01*
X120653145Y-88290977D01*
X120825202Y-88405941D01*
X121016380Y-88485130D01*
X121219330Y-88525499D01*
X121219334Y-88525500D01*
X121219335Y-88525500D01*
X121426266Y-88525500D01*
X121426267Y-88525499D01*
X121629220Y-88485130D01*
X121820398Y-88405941D01*
X121992455Y-88290977D01*
X122032833Y-88250599D01*
X148101500Y-88250599D01*
X148101500Y-88375801D01*
X148133905Y-88496736D01*
X148196505Y-88605164D01*
X148285036Y-88693695D01*
X148393464Y-88756295D01*
X148514399Y-88788700D01*
X148514401Y-88788700D01*
X148639599Y-88788700D01*
X148639601Y-88788700D01*
X148760536Y-88756295D01*
X148868964Y-88693695D01*
X148957495Y-88605164D01*
X149020095Y-88496736D01*
X149052500Y-88375801D01*
X149052500Y-88250599D01*
X149020095Y-88129664D01*
X148957495Y-88021236D01*
X148868964Y-87932705D01*
X148760536Y-87870105D01*
X148760537Y-87870105D01*
X148720224Y-87859303D01*
X148639601Y-87837700D01*
X148514399Y-87837700D01*
X148433775Y-87859303D01*
X148393463Y-87870105D01*
X148285037Y-87932704D01*
X148285034Y-87932706D01*
X148196506Y-88021234D01*
X148196504Y-88021237D01*
X148133905Y-88129663D01*
X148129887Y-88144658D01*
X148101500Y-88250599D01*
X122032833Y-88250599D01*
X122128643Y-88154790D01*
X122138774Y-88144658D01*
X122138775Y-88144657D01*
X122138777Y-88144655D01*
X122253741Y-87972598D01*
X122332930Y-87781420D01*
X122373300Y-87578465D01*
X122373300Y-87371535D01*
X122332930Y-87168580D01*
X122255065Y-86980599D01*
X148101500Y-86980599D01*
X148101500Y-87105801D01*
X148133905Y-87226736D01*
X148196505Y-87335164D01*
X148285036Y-87423695D01*
X148393464Y-87486295D01*
X148514399Y-87518700D01*
X148514401Y-87518700D01*
X148639599Y-87518700D01*
X148639601Y-87518700D01*
X148760536Y-87486295D01*
X148868964Y-87423695D01*
X148957495Y-87335164D01*
X149020095Y-87226736D01*
X149052500Y-87105801D01*
X149052500Y-86980599D01*
X149020095Y-86859664D01*
X149000890Y-86826399D01*
X148959709Y-86755070D01*
X148959708Y-86755068D01*
X148959707Y-86755067D01*
X148957497Y-86751239D01*
X148957496Y-86751237D01*
X148957495Y-86751236D01*
X148907458Y-86701199D01*
X159683900Y-86701199D01*
X159683900Y-86826401D01*
X159716305Y-86947336D01*
X159778905Y-87055764D01*
X159867436Y-87144295D01*
X159975864Y-87206895D01*
X160096799Y-87239300D01*
X160096801Y-87239300D01*
X160221999Y-87239300D01*
X160222001Y-87239300D01*
X160342936Y-87206895D01*
X160451364Y-87144295D01*
X160539895Y-87055764D01*
X160602495Y-86947336D01*
X160634900Y-86826401D01*
X160634900Y-86704199D01*
X164309300Y-86704199D01*
X164309300Y-86829401D01*
X164341705Y-86950336D01*
X164404305Y-87058764D01*
X164492836Y-87147295D01*
X164601264Y-87209895D01*
X164722199Y-87242300D01*
X164722201Y-87242300D01*
X164847399Y-87242300D01*
X164847401Y-87242300D01*
X164968336Y-87209895D01*
X165076764Y-87147295D01*
X165165295Y-87058764D01*
X165227895Y-86950336D01*
X165260300Y-86829401D01*
X165260300Y-86704199D01*
X165227895Y-86583264D01*
X165165295Y-86474836D01*
X165076764Y-86386305D01*
X164968336Y-86323705D01*
X164968337Y-86323705D01*
X164928024Y-86312903D01*
X164847401Y-86291300D01*
X164722199Y-86291300D01*
X164641575Y-86312903D01*
X164601263Y-86323705D01*
X164492837Y-86386304D01*
X164492834Y-86386306D01*
X164404306Y-86474834D01*
X164404304Y-86474837D01*
X164341705Y-86583263D01*
X164341705Y-86583264D01*
X164309300Y-86704199D01*
X160634900Y-86704199D01*
X160634900Y-86701199D01*
X160602495Y-86580264D01*
X160539895Y-86471836D01*
X160451364Y-86383305D01*
X160342936Y-86320705D01*
X160342937Y-86320705D01*
X160302624Y-86309903D01*
X160222001Y-86288300D01*
X160096799Y-86288300D01*
X160016175Y-86309903D01*
X159975863Y-86320705D01*
X159867437Y-86383304D01*
X159867434Y-86383306D01*
X159778906Y-86471834D01*
X159778904Y-86471837D01*
X159716305Y-86580263D01*
X159700102Y-86640731D01*
X159683900Y-86701199D01*
X148907458Y-86701199D01*
X148868964Y-86662705D01*
X148760536Y-86600105D01*
X148760537Y-86600105D01*
X148720224Y-86589303D01*
X148639601Y-86567700D01*
X148514399Y-86567700D01*
X148433775Y-86589303D01*
X148393463Y-86600105D01*
X148285037Y-86662704D01*
X148285034Y-86662706D01*
X148196506Y-86751234D01*
X148196504Y-86751237D01*
X148133905Y-86859663D01*
X148133905Y-86859664D01*
X148101500Y-86980599D01*
X122255065Y-86980599D01*
X122253741Y-86977402D01*
X122138777Y-86805345D01*
X122138775Y-86805342D01*
X121992457Y-86659024D01*
X121874581Y-86580263D01*
X121820398Y-86544059D01*
X121646032Y-86471834D01*
X121629220Y-86464870D01*
X121629212Y-86464868D01*
X121426269Y-86424500D01*
X121426265Y-86424500D01*
X121219335Y-86424500D01*
X121219330Y-86424500D01*
X121016387Y-86464868D01*
X121016379Y-86464870D01*
X120825203Y-86544058D01*
X120653142Y-86659024D01*
X120506824Y-86805342D01*
X120391858Y-86977403D01*
X120312670Y-87168579D01*
X120312668Y-87168587D01*
X120272300Y-87371530D01*
X119833299Y-87371530D01*
X119792930Y-87168580D01*
X119713741Y-86977402D01*
X119598777Y-86805345D01*
X119598775Y-86805342D01*
X119452457Y-86659024D01*
X119334581Y-86580263D01*
X119280398Y-86544059D01*
X119106032Y-86471834D01*
X119089220Y-86464870D01*
X119089212Y-86464868D01*
X118886269Y-86424500D01*
X118886265Y-86424500D01*
X118679335Y-86424500D01*
X118679330Y-86424500D01*
X118476387Y-86464868D01*
X118476379Y-86464870D01*
X118285203Y-86544058D01*
X118113142Y-86659024D01*
X117966824Y-86805342D01*
X117851858Y-86977403D01*
X117772670Y-87168579D01*
X117772668Y-87168587D01*
X117732300Y-87371530D01*
X117229900Y-87371530D01*
X117229900Y-84831530D01*
X117732300Y-84831530D01*
X117732300Y-85038469D01*
X117772668Y-85241412D01*
X117772670Y-85241420D01*
X117851858Y-85432596D01*
X117966824Y-85604657D01*
X118113142Y-85750975D01*
X118113145Y-85750977D01*
X118285202Y-85865941D01*
X118476380Y-85945130D01*
X118679330Y-85985499D01*
X118679334Y-85985500D01*
X118679335Y-85985500D01*
X118886266Y-85985500D01*
X118886267Y-85985499D01*
X119089220Y-85945130D01*
X119280398Y-85865941D01*
X119452455Y-85750977D01*
X119598777Y-85604655D01*
X119713741Y-85432598D01*
X119792930Y-85241420D01*
X119833300Y-85038465D01*
X119833300Y-84831535D01*
X119833299Y-84831530D01*
X120272300Y-84831530D01*
X120272300Y-85038469D01*
X120312668Y-85241412D01*
X120312670Y-85241420D01*
X120391858Y-85432596D01*
X120506824Y-85604657D01*
X120653142Y-85750975D01*
X120653145Y-85750977D01*
X120825202Y-85865941D01*
X121016380Y-85945130D01*
X121219330Y-85985499D01*
X121219334Y-85985500D01*
X121219335Y-85985500D01*
X121426266Y-85985500D01*
X121426267Y-85985499D01*
X121629220Y-85945130D01*
X121820398Y-85865941D01*
X121992455Y-85750977D01*
X122032833Y-85710599D01*
X148101500Y-85710599D01*
X148101500Y-85835801D01*
X148133905Y-85956736D01*
X148196505Y-86065164D01*
X148285036Y-86153695D01*
X148393464Y-86216295D01*
X148514399Y-86248700D01*
X148514401Y-86248700D01*
X148639599Y-86248700D01*
X148639601Y-86248700D01*
X148760536Y-86216295D01*
X148868964Y-86153695D01*
X148957495Y-86065164D01*
X149020095Y-85956736D01*
X149052500Y-85835801D01*
X149052500Y-85710599D01*
X149020095Y-85589664D01*
X148957495Y-85481236D01*
X148868964Y-85392705D01*
X148760536Y-85330105D01*
X148760537Y-85330105D01*
X148720224Y-85319303D01*
X148639601Y-85297700D01*
X148514399Y-85297700D01*
X148433775Y-85319303D01*
X148393463Y-85330105D01*
X148285037Y-85392704D01*
X148285034Y-85392706D01*
X148196506Y-85481234D01*
X148196504Y-85481237D01*
X148133905Y-85589663D01*
X148129887Y-85604658D01*
X148101500Y-85710599D01*
X122032833Y-85710599D01*
X122055532Y-85687900D01*
X122128643Y-85614790D01*
X122138774Y-85604658D01*
X122138775Y-85604657D01*
X122138777Y-85604655D01*
X122253741Y-85432598D01*
X122332930Y-85241420D01*
X122373300Y-85038465D01*
X122373300Y-84831535D01*
X122332930Y-84628580D01*
X122255065Y-84440599D01*
X148101500Y-84440599D01*
X148101500Y-84565801D01*
X148133905Y-84686736D01*
X148196505Y-84795164D01*
X148285036Y-84883695D01*
X148393464Y-84946295D01*
X148514399Y-84978700D01*
X148514401Y-84978700D01*
X148639599Y-84978700D01*
X148639601Y-84978700D01*
X148760536Y-84946295D01*
X148868964Y-84883695D01*
X148957495Y-84795164D01*
X149020095Y-84686736D01*
X149052500Y-84565801D01*
X149052500Y-84440599D01*
X149020095Y-84319664D01*
X148957495Y-84211236D01*
X148868964Y-84122705D01*
X148760536Y-84060105D01*
X148760537Y-84060105D01*
X148720224Y-84049303D01*
X148639601Y-84027700D01*
X148514399Y-84027700D01*
X148433775Y-84049303D01*
X148393463Y-84060105D01*
X148285037Y-84122704D01*
X148285034Y-84122706D01*
X148196506Y-84211234D01*
X148196504Y-84211237D01*
X148133905Y-84319663D01*
X148128660Y-84339238D01*
X148101500Y-84440599D01*
X122255065Y-84440599D01*
X122253741Y-84437402D01*
X122138777Y-84265345D01*
X122138775Y-84265342D01*
X121992457Y-84119024D01*
X121857620Y-84028930D01*
X121820398Y-84004059D01*
X121736410Y-83969270D01*
X121629220Y-83924870D01*
X121629212Y-83924868D01*
X121426269Y-83884500D01*
X121426265Y-83884500D01*
X121219335Y-83884500D01*
X121219330Y-83884500D01*
X121016387Y-83924868D01*
X121016379Y-83924870D01*
X120825203Y-84004058D01*
X120653142Y-84119024D01*
X120506824Y-84265342D01*
X120391858Y-84437403D01*
X120312670Y-84628579D01*
X120312668Y-84628587D01*
X120272300Y-84831530D01*
X119833299Y-84831530D01*
X119792930Y-84628580D01*
X119713741Y-84437402D01*
X119598777Y-84265345D01*
X119598775Y-84265342D01*
X119452457Y-84119024D01*
X119317620Y-84028930D01*
X119280398Y-84004059D01*
X119196410Y-83969270D01*
X119089220Y-83924870D01*
X119089212Y-83924868D01*
X118886269Y-83884500D01*
X118886265Y-83884500D01*
X118679335Y-83884500D01*
X118679330Y-83884500D01*
X118476387Y-83924868D01*
X118476379Y-83924870D01*
X118285203Y-84004058D01*
X118113142Y-84119024D01*
X117966824Y-84265342D01*
X117851858Y-84437403D01*
X117772670Y-84628579D01*
X117772668Y-84628587D01*
X117732300Y-84831530D01*
X117229900Y-84831530D01*
X117229900Y-83794925D01*
X153031100Y-83794925D01*
X153031100Y-83939875D01*
X153060920Y-84051163D01*
X153068617Y-84079888D01*
X153141088Y-84205411D01*
X153141090Y-84205413D01*
X153141091Y-84205415D01*
X153243585Y-84307909D01*
X153243586Y-84307910D01*
X153243588Y-84307911D01*
X153369111Y-84380382D01*
X153369112Y-84380382D01*
X153369115Y-84380384D01*
X153372986Y-84381421D01*
X153377481Y-84382626D01*
X153437141Y-84418991D01*
X153467669Y-84481839D01*
X153459374Y-84551214D01*
X153414888Y-84605091D01*
X153377481Y-84622174D01*
X153369116Y-84624415D01*
X153369111Y-84624417D01*
X153243588Y-84696888D01*
X153243582Y-84696893D01*
X153141093Y-84799382D01*
X153141088Y-84799388D01*
X153068617Y-84924911D01*
X153068616Y-84924915D01*
X153031100Y-85064925D01*
X153031100Y-85209875D01*
X153048363Y-85274299D01*
X153068617Y-85349888D01*
X153141088Y-85475411D01*
X153141090Y-85475413D01*
X153141091Y-85475415D01*
X153243585Y-85577909D01*
X153243586Y-85577910D01*
X153243588Y-85577911D01*
X153369111Y-85650382D01*
X153369112Y-85650382D01*
X153369115Y-85650384D01*
X153509125Y-85687900D01*
X153509128Y-85687900D01*
X153654072Y-85687900D01*
X153654075Y-85687900D01*
X153794085Y-85650384D01*
X153919615Y-85577909D01*
X154022109Y-85475415D01*
X154094584Y-85349885D01*
X154119903Y-85255395D01*
X157704299Y-85255395D01*
X157731218Y-85390722D01*
X157731221Y-85390732D01*
X157784021Y-85518204D01*
X157784028Y-85518217D01*
X157860685Y-85632941D01*
X157860688Y-85632945D01*
X157958254Y-85730511D01*
X157958258Y-85730514D01*
X158072982Y-85807171D01*
X158072995Y-85807178D01*
X158200467Y-85859978D01*
X158200472Y-85859980D01*
X158200476Y-85859980D01*
X158200477Y-85859981D01*
X158335804Y-85886900D01*
X158335807Y-85886900D01*
X158473795Y-85886900D01*
X158579160Y-85865941D01*
X158609128Y-85859980D01*
X158736611Y-85807175D01*
X158851342Y-85730514D01*
X158948914Y-85632942D01*
X159025575Y-85518211D01*
X159078380Y-85390728D01*
X159101539Y-85274300D01*
X159105300Y-85255395D01*
X159105300Y-84383668D01*
X159124985Y-84316629D01*
X159177789Y-84270874D01*
X159246947Y-84260930D01*
X159310503Y-84289955D01*
X159340987Y-84332231D01*
X159341048Y-84332197D01*
X159341391Y-84332791D01*
X159343862Y-84336218D01*
X159345112Y-84339236D01*
X159414292Y-84459061D01*
X159414294Y-84459064D01*
X159414295Y-84459065D01*
X159512135Y-84556905D01*
X159631964Y-84626088D01*
X159765617Y-84661900D01*
X159765619Y-84661900D01*
X159903981Y-84661900D01*
X159903983Y-84661900D01*
X160037636Y-84626088D01*
X160157465Y-84556905D01*
X160255305Y-84459065D01*
X160324488Y-84339236D01*
X160360300Y-84205583D01*
X160360300Y-84067217D01*
X165089300Y-84067217D01*
X165089300Y-84205583D01*
X165124304Y-84336218D01*
X165125112Y-84339235D01*
X165125113Y-84339238D01*
X165194292Y-84459061D01*
X165194294Y-84459064D01*
X165194295Y-84459065D01*
X165292135Y-84556905D01*
X165411964Y-84626088D01*
X165545617Y-84661900D01*
X165545619Y-84661900D01*
X165683981Y-84661900D01*
X165683983Y-84661900D01*
X165817636Y-84626088D01*
X165937465Y-84556905D01*
X166035305Y-84459065D01*
X166104488Y-84339236D01*
X166104489Y-84339229D01*
X166105738Y-84336218D01*
X166107475Y-84334062D01*
X166108552Y-84332197D01*
X166108842Y-84332364D01*
X166149578Y-84281813D01*
X166215872Y-84259747D01*
X166283571Y-84277025D01*
X166331183Y-84328161D01*
X166344300Y-84383668D01*
X166344300Y-85255393D01*
X166344300Y-85255395D01*
X166344299Y-85255395D01*
X166371218Y-85390722D01*
X166371221Y-85390732D01*
X166424021Y-85518204D01*
X166424028Y-85518217D01*
X166500685Y-85632941D01*
X166500688Y-85632945D01*
X166598254Y-85730511D01*
X166598258Y-85730514D01*
X166712982Y-85807171D01*
X166712995Y-85807178D01*
X166840467Y-85859978D01*
X166840472Y-85859980D01*
X166840476Y-85859980D01*
X166840477Y-85859981D01*
X166975804Y-85886900D01*
X166975807Y-85886900D01*
X167113795Y-85886900D01*
X167219160Y-85865941D01*
X167249128Y-85859980D01*
X167376611Y-85807175D01*
X167491342Y-85730514D01*
X167588914Y-85632942D01*
X167665575Y-85518211D01*
X167718380Y-85390728D01*
X167741539Y-85274300D01*
X167745300Y-85255395D01*
X167745300Y-84120330D01*
X171834300Y-84120330D01*
X171834300Y-84327269D01*
X171874668Y-84530212D01*
X171874670Y-84530220D01*
X171953858Y-84721396D01*
X172068824Y-84893457D01*
X172215142Y-85039775D01*
X172215145Y-85039777D01*
X172387202Y-85154741D01*
X172578380Y-85233930D01*
X172686293Y-85255395D01*
X172781330Y-85274299D01*
X172781334Y-85274300D01*
X172781335Y-85274300D01*
X172988266Y-85274300D01*
X172988267Y-85274299D01*
X173191220Y-85233930D01*
X173382398Y-85154741D01*
X173554455Y-85039777D01*
X173700777Y-84893455D01*
X173815741Y-84721398D01*
X173894930Y-84530220D01*
X173935300Y-84327265D01*
X173935300Y-84120335D01*
X173894930Y-83917380D01*
X173815741Y-83726202D01*
X173700777Y-83554145D01*
X173700775Y-83554142D01*
X173554457Y-83407824D01*
X173473973Y-83354047D01*
X174374300Y-83354047D01*
X174374300Y-85093552D01*
X174385931Y-85152029D01*
X174385932Y-85152030D01*
X174430247Y-85218352D01*
X174496569Y-85262667D01*
X174496570Y-85262668D01*
X174555047Y-85274299D01*
X174555050Y-85274300D01*
X174555052Y-85274300D01*
X176294550Y-85274300D01*
X176294551Y-85274299D01*
X176309368Y-85271352D01*
X176353029Y-85262668D01*
X176353029Y-85262667D01*
X176353031Y-85262667D01*
X176419352Y-85218352D01*
X176463667Y-85152031D01*
X176463667Y-85152029D01*
X176463668Y-85152029D01*
X176475299Y-85093552D01*
X176475300Y-85093550D01*
X176475300Y-83354049D01*
X176475299Y-83354047D01*
X176463668Y-83295570D01*
X176463667Y-83295569D01*
X176419352Y-83229247D01*
X176353030Y-83184932D01*
X176353029Y-83184931D01*
X176294552Y-83173300D01*
X176294548Y-83173300D01*
X174555052Y-83173300D01*
X174555047Y-83173300D01*
X174496570Y-83184931D01*
X174496569Y-83184932D01*
X174430247Y-83229247D01*
X174385932Y-83295569D01*
X174385931Y-83295570D01*
X174374300Y-83354047D01*
X173473973Y-83354047D01*
X173386455Y-83295570D01*
X173382398Y-83292859D01*
X173191220Y-83213670D01*
X173191212Y-83213668D01*
X172988269Y-83173300D01*
X172988265Y-83173300D01*
X172781335Y-83173300D01*
X172781330Y-83173300D01*
X172578387Y-83213668D01*
X172578379Y-83213670D01*
X172387203Y-83292858D01*
X172215142Y-83407824D01*
X172068824Y-83554142D01*
X171953858Y-83726203D01*
X171874670Y-83917379D01*
X171874668Y-83917387D01*
X171834300Y-84120330D01*
X167745300Y-84120330D01*
X167745300Y-84017404D01*
X167718381Y-83882077D01*
X167718380Y-83882076D01*
X167718380Y-83882072D01*
X167718378Y-83882067D01*
X167665578Y-83754595D01*
X167665571Y-83754582D01*
X167588914Y-83639858D01*
X167588911Y-83639854D01*
X167491345Y-83542288D01*
X167491341Y-83542285D01*
X167376617Y-83465628D01*
X167376604Y-83465621D01*
X167249132Y-83412821D01*
X167249122Y-83412818D01*
X167113795Y-83385900D01*
X167113793Y-83385900D01*
X166975807Y-83385900D01*
X166975805Y-83385900D01*
X166840477Y-83412818D01*
X166840467Y-83412821D01*
X166712995Y-83465621D01*
X166712982Y-83465628D01*
X166598258Y-83542285D01*
X166598254Y-83542288D01*
X166500688Y-83639854D01*
X166500685Y-83639858D01*
X166424028Y-83754582D01*
X166424021Y-83754595D01*
X166371221Y-83882067D01*
X166371218Y-83882078D01*
X166355446Y-83961367D01*
X166323060Y-84023278D01*
X166262344Y-84057852D01*
X166192575Y-84054111D01*
X166135903Y-84013244D01*
X166114055Y-83969269D01*
X166104488Y-83933564D01*
X166035305Y-83813735D01*
X165937465Y-83715895D01*
X165937464Y-83715894D01*
X165937461Y-83715892D01*
X165817638Y-83646713D01*
X165817637Y-83646712D01*
X165817636Y-83646712D01*
X165683983Y-83610900D01*
X165545617Y-83610900D01*
X165411964Y-83646712D01*
X165411961Y-83646713D01*
X165292138Y-83715892D01*
X165292133Y-83715896D01*
X165194296Y-83813733D01*
X165194292Y-83813738D01*
X165125113Y-83933561D01*
X165125112Y-83933564D01*
X165089300Y-84067217D01*
X160360300Y-84067217D01*
X160324488Y-83933564D01*
X160255305Y-83813735D01*
X160157465Y-83715895D01*
X160157464Y-83715894D01*
X160157461Y-83715892D01*
X160037638Y-83646713D01*
X160037637Y-83646712D01*
X160037636Y-83646712D01*
X159903983Y-83610900D01*
X159765617Y-83610900D01*
X159631964Y-83646712D01*
X159631961Y-83646713D01*
X159512138Y-83715892D01*
X159512133Y-83715896D01*
X159414296Y-83813733D01*
X159414292Y-83813738D01*
X159345113Y-83933561D01*
X159345110Y-83933568D01*
X159335544Y-83969270D01*
X159299179Y-84028930D01*
X159236332Y-84059458D01*
X159166956Y-84051163D01*
X159113079Y-84006677D01*
X159094153Y-83961366D01*
X159078381Y-83882079D01*
X159078381Y-83882077D01*
X159078380Y-83882072D01*
X159078378Y-83882067D01*
X159025578Y-83754595D01*
X159025571Y-83754582D01*
X158948914Y-83639858D01*
X158948911Y-83639854D01*
X158851345Y-83542288D01*
X158851341Y-83542285D01*
X158736617Y-83465628D01*
X158736604Y-83465621D01*
X158609132Y-83412821D01*
X158609122Y-83412818D01*
X158473795Y-83385900D01*
X158473793Y-83385900D01*
X158335807Y-83385900D01*
X158335805Y-83385900D01*
X158200477Y-83412818D01*
X158200467Y-83412821D01*
X158072995Y-83465621D01*
X158072982Y-83465628D01*
X157958258Y-83542285D01*
X157958254Y-83542288D01*
X157860688Y-83639854D01*
X157860685Y-83639858D01*
X157784028Y-83754582D01*
X157784021Y-83754595D01*
X157731221Y-83882067D01*
X157731218Y-83882077D01*
X157704300Y-84017404D01*
X157704300Y-84017407D01*
X157704300Y-85255393D01*
X157704300Y-85255395D01*
X157704299Y-85255395D01*
X154119903Y-85255395D01*
X154132100Y-85209875D01*
X154132100Y-85064925D01*
X154094584Y-84924915D01*
X154070784Y-84883693D01*
X154022111Y-84799388D01*
X154022106Y-84799382D01*
X153919617Y-84696893D01*
X153919611Y-84696888D01*
X153794087Y-84624417D01*
X153794086Y-84624416D01*
X153794085Y-84624416D01*
X153785718Y-84622174D01*
X153726059Y-84585810D01*
X153695530Y-84522963D01*
X153703825Y-84453588D01*
X153748310Y-84399710D01*
X153785717Y-84382626D01*
X153794085Y-84380384D01*
X153919615Y-84307909D01*
X154022109Y-84205415D01*
X154094584Y-84079885D01*
X154132100Y-83939875D01*
X154132100Y-83794925D01*
X154094584Y-83654915D01*
X154070784Y-83613693D01*
X154022111Y-83529388D01*
X154022106Y-83529382D01*
X153919617Y-83426893D01*
X153919611Y-83426888D01*
X153794088Y-83354417D01*
X153794089Y-83354417D01*
X153782606Y-83351340D01*
X153654075Y-83316900D01*
X153509125Y-83316900D01*
X153380593Y-83351340D01*
X153369111Y-83354417D01*
X153243588Y-83426888D01*
X153243582Y-83426893D01*
X153141093Y-83529382D01*
X153141088Y-83529388D01*
X153068617Y-83654911D01*
X153068616Y-83654915D01*
X153031100Y-83794925D01*
X117229900Y-83794925D01*
X117229900Y-82291530D01*
X117732300Y-82291530D01*
X117732300Y-82498469D01*
X117772668Y-82701412D01*
X117772670Y-82701420D01*
X117851858Y-82892596D01*
X117966824Y-83064657D01*
X118113142Y-83210975D01*
X118113145Y-83210977D01*
X118285202Y-83325941D01*
X118476380Y-83405130D01*
X118679330Y-83445499D01*
X118679334Y-83445500D01*
X118679335Y-83445500D01*
X118886266Y-83445500D01*
X118886267Y-83445499D01*
X119089220Y-83405130D01*
X119280398Y-83325941D01*
X119452455Y-83210977D01*
X119598777Y-83064655D01*
X119713741Y-82892598D01*
X119792930Y-82701420D01*
X119833300Y-82498465D01*
X119833300Y-82291535D01*
X119792930Y-82088580D01*
X119713741Y-81897402D01*
X119598777Y-81725345D01*
X119598775Y-81725342D01*
X119452457Y-81579024D01*
X119364277Y-81520105D01*
X119280398Y-81464059D01*
X119280393Y-81464057D01*
X119089220Y-81384870D01*
X119089212Y-81384868D01*
X118886269Y-81344500D01*
X118886265Y-81344500D01*
X118679335Y-81344500D01*
X118679330Y-81344500D01*
X118476387Y-81384868D01*
X118476379Y-81384870D01*
X118285203Y-81464058D01*
X118113142Y-81579024D01*
X117966824Y-81725342D01*
X117851858Y-81897403D01*
X117772670Y-82088579D01*
X117772668Y-82088587D01*
X117732300Y-82291530D01*
X117229900Y-82291530D01*
X117229900Y-78985247D01*
X117732300Y-78985247D01*
X117732300Y-80724752D01*
X117743931Y-80783229D01*
X117743932Y-80783230D01*
X117788247Y-80849552D01*
X117854569Y-80893867D01*
X117854570Y-80893868D01*
X117913047Y-80905499D01*
X117913050Y-80905500D01*
X117913052Y-80905500D01*
X119652550Y-80905500D01*
X119652551Y-80905499D01*
X119667368Y-80902552D01*
X119711029Y-80893868D01*
X119711029Y-80893867D01*
X119711031Y-80893867D01*
X119777352Y-80849552D01*
X119821667Y-80783231D01*
X119821667Y-80783229D01*
X119821668Y-80783229D01*
X119833299Y-80724752D01*
X119833300Y-80724750D01*
X119833300Y-80421048D01*
X119852985Y-80354009D01*
X119905789Y-80308254D01*
X119974947Y-80298310D01*
X120038503Y-80327335D01*
X120068738Y-80369264D01*
X120069494Y-80368879D01*
X120168175Y-80562550D01*
X120207528Y-80616716D01*
X120839837Y-79984408D01*
X120856875Y-80047993D01*
X120922701Y-80162007D01*
X121015793Y-80255099D01*
X121129807Y-80320925D01*
X121193390Y-80337962D01*
X120561082Y-80970269D01*
X120561082Y-80970270D01*
X120615249Y-81009624D01*
X120804582Y-81106095D01*
X120980773Y-81163343D01*
X121038448Y-81202780D01*
X121065647Y-81267139D01*
X121053732Y-81335985D01*
X121006488Y-81387461D01*
X120989908Y-81395835D01*
X120825203Y-81464057D01*
X120653142Y-81579024D01*
X120506824Y-81725342D01*
X120391858Y-81897403D01*
X120312670Y-82088579D01*
X120312668Y-82088587D01*
X120272300Y-82291530D01*
X120272300Y-82498469D01*
X120312668Y-82701412D01*
X120312670Y-82701420D01*
X120391858Y-82892596D01*
X120506824Y-83064657D01*
X120653142Y-83210975D01*
X120653145Y-83210977D01*
X120825202Y-83325941D01*
X121016380Y-83405130D01*
X121219330Y-83445499D01*
X121219334Y-83445500D01*
X121219335Y-83445500D01*
X121426266Y-83445500D01*
X121426267Y-83445499D01*
X121629220Y-83405130D01*
X121820398Y-83325941D01*
X121992455Y-83210977D01*
X122032833Y-83170599D01*
X148101500Y-83170599D01*
X148101500Y-83295801D01*
X148133905Y-83416736D01*
X148196505Y-83525164D01*
X148285036Y-83613695D01*
X148393464Y-83676295D01*
X148514399Y-83708700D01*
X148514401Y-83708700D01*
X148639599Y-83708700D01*
X148639601Y-83708700D01*
X148760536Y-83676295D01*
X148868964Y-83613695D01*
X148957495Y-83525164D01*
X149020095Y-83416736D01*
X149052500Y-83295801D01*
X149052500Y-83170599D01*
X149020095Y-83049664D01*
X148957495Y-82941236D01*
X148868964Y-82852705D01*
X148760536Y-82790105D01*
X148760537Y-82790105D01*
X148720224Y-82779303D01*
X148639601Y-82757700D01*
X148514399Y-82757700D01*
X148433775Y-82779303D01*
X148393463Y-82790105D01*
X148285037Y-82852704D01*
X148285034Y-82852706D01*
X148196506Y-82941234D01*
X148196504Y-82941237D01*
X148133905Y-83049663D01*
X148129887Y-83064658D01*
X148101500Y-83170599D01*
X122032833Y-83170599D01*
X122128643Y-83074790D01*
X122138774Y-83064658D01*
X122138775Y-83064657D01*
X122138777Y-83064655D01*
X122253741Y-82892598D01*
X122332930Y-82701420D01*
X122373300Y-82498465D01*
X122373300Y-82291535D01*
X122332930Y-82088580D01*
X122255065Y-81900599D01*
X148101500Y-81900599D01*
X148101500Y-82025801D01*
X148133905Y-82146736D01*
X148196505Y-82255164D01*
X148285036Y-82343695D01*
X148393464Y-82406295D01*
X148514399Y-82438700D01*
X148514401Y-82438700D01*
X148639599Y-82438700D01*
X148639601Y-82438700D01*
X148760536Y-82406295D01*
X148868964Y-82343695D01*
X148957495Y-82255164D01*
X149020095Y-82146736D01*
X149052500Y-82025801D01*
X149052500Y-81900599D01*
X149020095Y-81779664D01*
X148957495Y-81671236D01*
X148868964Y-81582705D01*
X148864850Y-81580330D01*
X171834300Y-81580330D01*
X171834300Y-81787269D01*
X171874668Y-81990212D01*
X171874670Y-81990220D01*
X171953858Y-82181396D01*
X172068824Y-82353457D01*
X172215142Y-82499775D01*
X172215145Y-82499777D01*
X172387202Y-82614741D01*
X172578380Y-82693930D01*
X172781330Y-82734299D01*
X172781334Y-82734300D01*
X172781335Y-82734300D01*
X172988266Y-82734300D01*
X172988267Y-82734299D01*
X173191220Y-82693930D01*
X173382398Y-82614741D01*
X173554455Y-82499777D01*
X173700777Y-82353455D01*
X173815741Y-82181398D01*
X173894930Y-81990220D01*
X173935300Y-81787265D01*
X173935300Y-81580335D01*
X173894930Y-81377380D01*
X173815741Y-81186202D01*
X173700777Y-81014145D01*
X173700775Y-81014142D01*
X173554457Y-80867824D01*
X173427853Y-80783231D01*
X173382398Y-80752859D01*
X173382393Y-80752857D01*
X173191220Y-80673670D01*
X173191212Y-80673668D01*
X172988269Y-80633300D01*
X172988265Y-80633300D01*
X172781335Y-80633300D01*
X172781330Y-80633300D01*
X172578387Y-80673668D01*
X172578379Y-80673670D01*
X172387203Y-80752858D01*
X172215142Y-80867824D01*
X172068824Y-81014142D01*
X171953858Y-81186203D01*
X171874670Y-81377379D01*
X171874668Y-81377387D01*
X171834300Y-81580330D01*
X148864850Y-81580330D01*
X148760536Y-81520105D01*
X148760537Y-81520105D01*
X148720224Y-81509303D01*
X148639601Y-81487700D01*
X148514399Y-81487700D01*
X148433775Y-81509303D01*
X148393463Y-81520105D01*
X148285037Y-81582704D01*
X148285034Y-81582706D01*
X148196506Y-81671234D01*
X148196504Y-81671237D01*
X148133905Y-81779663D01*
X148133905Y-81779664D01*
X148101500Y-81900599D01*
X122255065Y-81900599D01*
X122253741Y-81897402D01*
X122138777Y-81725345D01*
X122138775Y-81725342D01*
X121992457Y-81579024D01*
X121904277Y-81520105D01*
X121820398Y-81464059D01*
X121820393Y-81464057D01*
X121758691Y-81438499D01*
X121655690Y-81395834D01*
X121601288Y-81351994D01*
X121579223Y-81285700D01*
X121596502Y-81218001D01*
X121647639Y-81170390D01*
X121664826Y-81163343D01*
X121841017Y-81106095D01*
X122030354Y-81009622D01*
X122084516Y-80970270D01*
X122084517Y-80970270D01*
X121744845Y-80630599D01*
X148101500Y-80630599D01*
X148101500Y-80755801D01*
X148133905Y-80876736D01*
X148196505Y-80985164D01*
X148285036Y-81073695D01*
X148393464Y-81136295D01*
X148514399Y-81168700D01*
X148514401Y-81168700D01*
X148639599Y-81168700D01*
X148639601Y-81168700D01*
X148760536Y-81136295D01*
X148868964Y-81073695D01*
X148957495Y-80985164D01*
X148992002Y-80925395D01*
X157704299Y-80925395D01*
X157731218Y-81060722D01*
X157731221Y-81060732D01*
X157784021Y-81188204D01*
X157784028Y-81188217D01*
X157860685Y-81302941D01*
X157860688Y-81302945D01*
X157958254Y-81400511D01*
X157958258Y-81400514D01*
X158072982Y-81477171D01*
X158072995Y-81477178D01*
X158200467Y-81529978D01*
X158200472Y-81529980D01*
X158200476Y-81529980D01*
X158200477Y-81529981D01*
X158335804Y-81556900D01*
X158335807Y-81556900D01*
X158473795Y-81556900D01*
X158564841Y-81538789D01*
X158609128Y-81529980D01*
X158736611Y-81477175D01*
X158851342Y-81400514D01*
X158948914Y-81302942D01*
X159025575Y-81188211D01*
X159078380Y-81060728D01*
X159093411Y-80985162D01*
X159105300Y-80925395D01*
X166344299Y-80925395D01*
X166371218Y-81060722D01*
X166371221Y-81060732D01*
X166424021Y-81188204D01*
X166424028Y-81188217D01*
X166500685Y-81302941D01*
X166500688Y-81302945D01*
X166598254Y-81400511D01*
X166598258Y-81400514D01*
X166712982Y-81477171D01*
X166712995Y-81477178D01*
X166840467Y-81529978D01*
X166840472Y-81529980D01*
X166840476Y-81529980D01*
X166840477Y-81529981D01*
X166975804Y-81556900D01*
X166975807Y-81556900D01*
X167113795Y-81556900D01*
X167204841Y-81538789D01*
X167249128Y-81529980D01*
X167376611Y-81477175D01*
X167379555Y-81475207D01*
X167385641Y-81471142D01*
X167385642Y-81471141D01*
X167421062Y-81447473D01*
X167491342Y-81400514D01*
X167588914Y-81302942D01*
X167665575Y-81188211D01*
X167718380Y-81060728D01*
X167733411Y-80985162D01*
X167745300Y-80925395D01*
X167745300Y-79987404D01*
X167718381Y-79852077D01*
X167718380Y-79852076D01*
X167718380Y-79852072D01*
X167718081Y-79851350D01*
X167665578Y-79724595D01*
X167665571Y-79724582D01*
X167588914Y-79609858D01*
X167588911Y-79609854D01*
X167491345Y-79512288D01*
X167491341Y-79512285D01*
X167376617Y-79435628D01*
X167376604Y-79435621D01*
X167249132Y-79382821D01*
X167249122Y-79382818D01*
X167113795Y-79355900D01*
X167113793Y-79355900D01*
X166975807Y-79355900D01*
X166975805Y-79355900D01*
X166840477Y-79382818D01*
X166840467Y-79382821D01*
X166712995Y-79435621D01*
X166712982Y-79435628D01*
X166598258Y-79512285D01*
X166598254Y-79512288D01*
X166500688Y-79609854D01*
X166500685Y-79609858D01*
X166424028Y-79724582D01*
X166424021Y-79724595D01*
X166371221Y-79852067D01*
X166371218Y-79852077D01*
X166344300Y-79987404D01*
X166344300Y-79987407D01*
X166344300Y-80925393D01*
X166344300Y-80925395D01*
X166344299Y-80925395D01*
X159105300Y-80925395D01*
X159105300Y-79987404D01*
X159078381Y-79852077D01*
X159078380Y-79852076D01*
X159078380Y-79852072D01*
X159078081Y-79851350D01*
X159025578Y-79724595D01*
X159025571Y-79724582D01*
X158948914Y-79609858D01*
X158948911Y-79609854D01*
X158851345Y-79512288D01*
X158851341Y-79512285D01*
X158736617Y-79435628D01*
X158736604Y-79435621D01*
X158609132Y-79382821D01*
X158609122Y-79382818D01*
X158473795Y-79355900D01*
X158473793Y-79355900D01*
X158335807Y-79355900D01*
X158335805Y-79355900D01*
X158200477Y-79382818D01*
X158200467Y-79382821D01*
X158072995Y-79435621D01*
X158072982Y-79435628D01*
X157958258Y-79512285D01*
X157958254Y-79512288D01*
X157860688Y-79609854D01*
X157860685Y-79609858D01*
X157784028Y-79724582D01*
X157784021Y-79724595D01*
X157731221Y-79852067D01*
X157731218Y-79852077D01*
X157704300Y-79987404D01*
X157704300Y-79987407D01*
X157704300Y-80925393D01*
X157704300Y-80925395D01*
X157704299Y-80925395D01*
X148992002Y-80925395D01*
X149020095Y-80876736D01*
X149052500Y-80755801D01*
X149052500Y-80630599D01*
X149020095Y-80509664D01*
X148957495Y-80401236D01*
X148868964Y-80312705D01*
X148760536Y-80250105D01*
X148760537Y-80250105D01*
X148720224Y-80239303D01*
X148639601Y-80217700D01*
X148514399Y-80217700D01*
X148433775Y-80239303D01*
X148393463Y-80250105D01*
X148285037Y-80312704D01*
X148285034Y-80312706D01*
X148196506Y-80401234D01*
X148196504Y-80401237D01*
X148133905Y-80509663D01*
X148133905Y-80509664D01*
X148101500Y-80630599D01*
X121744845Y-80630599D01*
X121452208Y-80337962D01*
X121515793Y-80320925D01*
X121629807Y-80255099D01*
X121722899Y-80162007D01*
X121788725Y-80047993D01*
X121805762Y-79984409D01*
X122438070Y-80616717D01*
X122438070Y-80616716D01*
X122477421Y-80562555D01*
X122573895Y-80373217D01*
X122639557Y-80171130D01*
X122639557Y-80171127D01*
X122672800Y-79961246D01*
X122672800Y-79748753D01*
X122639557Y-79538872D01*
X122639557Y-79538869D01*
X122591443Y-79390789D01*
X122581634Y-79360599D01*
X148101500Y-79360599D01*
X148101500Y-79485801D01*
X148133905Y-79606736D01*
X148196505Y-79715164D01*
X148285036Y-79803695D01*
X148393464Y-79866295D01*
X148514399Y-79898700D01*
X148514401Y-79898700D01*
X148639599Y-79898700D01*
X148639601Y-79898700D01*
X148760536Y-79866295D01*
X148868964Y-79803695D01*
X148957495Y-79715164D01*
X149020095Y-79606736D01*
X149052500Y-79485801D01*
X149052500Y-79360599D01*
X149020095Y-79239664D01*
X148957495Y-79131236D01*
X148868964Y-79042705D01*
X148760536Y-78980105D01*
X148760537Y-78980105D01*
X148720224Y-78969303D01*
X148639601Y-78947700D01*
X148514399Y-78947700D01*
X148433775Y-78969303D01*
X148393463Y-78980105D01*
X148285037Y-79042704D01*
X148285034Y-79042706D01*
X148196506Y-79131234D01*
X148196504Y-79131237D01*
X148133905Y-79239663D01*
X148133905Y-79239664D01*
X148101500Y-79360599D01*
X122581634Y-79360599D01*
X122573895Y-79336782D01*
X122477424Y-79147449D01*
X122438070Y-79093282D01*
X122438069Y-79093282D01*
X121805762Y-79725590D01*
X121788725Y-79662007D01*
X121722899Y-79547993D01*
X121629807Y-79454901D01*
X121515793Y-79389075D01*
X121452209Y-79372037D01*
X122084516Y-78739728D01*
X122030350Y-78700375D01*
X121841017Y-78603904D01*
X121638929Y-78538242D01*
X121429046Y-78505000D01*
X121216554Y-78505000D01*
X121006672Y-78538242D01*
X121006669Y-78538242D01*
X120804582Y-78603904D01*
X120615239Y-78700380D01*
X120561082Y-78739727D01*
X120561082Y-78739728D01*
X121193391Y-79372037D01*
X121129807Y-79389075D01*
X121015793Y-79454901D01*
X120922701Y-79547993D01*
X120856875Y-79662007D01*
X120839837Y-79725591D01*
X120207528Y-79093282D01*
X120207527Y-79093282D01*
X120168180Y-79147439D01*
X120069494Y-79341121D01*
X120068478Y-79340603D01*
X120028012Y-79390813D01*
X119961716Y-79412872D01*
X119894018Y-79395588D01*
X119846412Y-79344447D01*
X119833300Y-79288951D01*
X119833300Y-78985249D01*
X119833299Y-78985247D01*
X119821668Y-78926770D01*
X119821667Y-78926769D01*
X119777352Y-78860447D01*
X119711030Y-78816132D01*
X119711029Y-78816131D01*
X119652552Y-78804500D01*
X119652548Y-78804500D01*
X117913052Y-78804500D01*
X117913047Y-78804500D01*
X117854570Y-78816131D01*
X117854569Y-78816132D01*
X117788247Y-78860447D01*
X117743932Y-78926769D01*
X117743931Y-78926770D01*
X117732300Y-78985247D01*
X117229900Y-78985247D01*
X117229900Y-77765700D01*
X117249585Y-77698661D01*
X117302389Y-77652906D01*
X117353900Y-77641700D01*
X126969189Y-77641700D01*
X127036228Y-77661385D01*
G37*
%TD.AperFunction*%
%TD*%
M02*
