%TF.GenerationSoftware,KiCad,Pcbnew,10.0.4-10.0.4~ubuntu25.10.1*%
%TF.CreationDate,Date%
%TF.ProjectId,CanSat_Devboard,43616e53-6174-45f4-9465-76626f617264,+ (Unreleased)*%
%TF.SameCoordinates,Original*%
%TF.FileFunction,Copper,L4,Bot*%
%TF.FilePolarity,Positive*%
%FSLAX46Y46*%
G04 Gerber Fmt 4.6, Leading zero omitted, Abs format (unit mm)*
G04 Created by KiCad*
%MOMM*%
%LPD*%
G01*
G04 APERTURE LIST*
G04 Aperture macros list*
%AMRoundRect*
0 Rectangle with rounded corners*
0 $1 Rounding radius*
0 $2 $3 $4 $5 $6 $7 $8 $9 X,Y pos of 4 corners*
0 Add a 4 corners polygon primitive as box body*
4,1,4,$2,$3,$4,$5,$6,$7,$8,$9,$2,$3,0*
0 Add four circle primitives for the rounded corners*
1,1,$1+$1,$2,$3*
1,1,$1+$1,$4,$5*
1,1,$1+$1,$6,$7*
1,1,$1+$1,$8,$9*
0 Add four rect primitives between the rounded corners*
20,1,$1+$1,$2,$3,$4,$5,0*
20,1,$1+$1,$4,$5,$6,$7,0*
20,1,$1+$1,$6,$7,$8,$9,0*
20,1,$1+$1,$8,$9,$2,$3,0*%
G04 Aperture macros list end*
%TA.AperFunction,ComponentPad*%
%ADD10R,1.700000X1.700000*%
%TD*%
%TA.AperFunction,ComponentPad*%
%ADD11C,1.700000*%
%TD*%
%TA.AperFunction,ComponentPad*%
%ADD12O,1.000000X2.100000*%
%TD*%
%TA.AperFunction,ComponentPad*%
%ADD13O,1.000000X1.800000*%
%TD*%
%TA.AperFunction,ComponentPad*%
%ADD14RoundRect,0.250000X-0.600000X-0.725000X0.600000X-0.725000X0.600000X0.725000X-0.600000X0.725000X0*%
%TD*%
%TA.AperFunction,ComponentPad*%
%ADD15O,1.700000X1.950000*%
%TD*%
%TA.AperFunction,SMDPad,CuDef*%
%ADD16RoundRect,0.225000X0.225000X0.250000X-0.225000X0.250000X-0.225000X-0.250000X0.225000X-0.250000X0*%
%TD*%
%TA.AperFunction,SMDPad,CuDef*%
%ADD17RoundRect,0.200000X0.200000X0.275000X-0.200000X0.275000X-0.200000X-0.275000X0.200000X-0.275000X0*%
%TD*%
%TA.AperFunction,ViaPad*%
%ADD18C,0.550000*%
%TD*%
%TA.AperFunction,ViaPad*%
%ADD19C,0.700000*%
%TD*%
%TA.AperFunction,Conductor*%
%ADD20C,0.254000*%
%TD*%
%TA.AperFunction,Conductor*%
%ADD21C,0.300000*%
%TD*%
%TA.AperFunction,Conductor*%
%ADD22C,0.200000*%
%TD*%
G04 APERTURE END LIST*
D10*
%TO.P,J8,1,Pin_1_1*%
%TO.N,+3.3V*%
X116471400Y-82928400D03*
D11*
%TO.P,J8,2,Pin_2_2*%
%TO.N,GND*%
X119011400Y-82928400D03*
%TO.P,J8,3,Pin_3_3*%
%TO.N,1.06*%
X116471400Y-85468400D03*
%TO.P,J8,4,Pin_4_4*%
%TO.N,1.04*%
X119011400Y-85468400D03*
%TO.P,J8,5,Pin_5_5*%
%TO.N,1.02*%
X116471400Y-88008400D03*
%TO.P,J8,6,Pin_6_6*%
%TO.N,1.00*%
X119011400Y-88008400D03*
%TO.P,J8,7,Pin_7_7*%
%TO.N,0.22*%
X116471400Y-90548400D03*
%TO.P,J8,8,Pin_8_8*%
%TO.N,0.20*%
X119011400Y-90548400D03*
%TO.P,J8,9,Pin_9_9*%
%TO.N,0.17*%
X116471400Y-93088400D03*
%TO.P,J8,10,Pin_10_10*%
%TO.N,0.15*%
X119011400Y-93088400D03*
%TO.P,J8,11,Pin_11_11*%
%TO.N,0.07*%
X116471400Y-95628400D03*
%TO.P,J8,12,Pin_12_12*%
%TO.N,0.12*%
X119011400Y-95628400D03*
%TO.P,J8,13,Pin_13_13*%
%TO.N,0.04*%
X116471400Y-98168400D03*
%TO.P,J8,14,Pin_14_14*%
%TO.N,VLDO*%
X119011400Y-98168400D03*
%TD*%
D12*
%TO.P,J4,SH*%
%TO.N,N/C*%
X164733400Y-87709800D03*
D13*
X164733400Y-83529800D03*
D12*
X156093400Y-87709800D03*
D13*
X156093400Y-83529800D03*
%TD*%
D14*
%TO.P,J3,1,Pin_1_1*%
%TO.N,NTC*%
X124182200Y-118496800D03*
D15*
%TO.P,J3,2,Pin_2_2*%
%TO.N,GND*%
X126682200Y-118496800D03*
%TO.P,J3,3,Pin_3_3*%
%TO.N,VBAT*%
X129182200Y-118496800D03*
%TD*%
D10*
%TO.P,J1,1,Pin_1_1*%
%TO.N,+3.3V*%
X116496800Y-101724400D03*
D11*
%TO.P,J1,2,Pin_2_2*%
%TO.N,GND*%
X116496800Y-104264400D03*
%TO.P,J1,3,Pin_3_3*%
%TO.N,SDA*%
X116496800Y-106804400D03*
%TO.P,J1,4,Pin_4_4*%
%TO.N,SCL*%
X116496800Y-109344400D03*
%TD*%
D10*
%TO.P,J7,1,Pin_1_1*%
%TO.N,RMF*%
X120306800Y-101749800D03*
D11*
%TO.P,J7,2,Pin_2_2*%
%TO.N,GND*%
X120306800Y-104289800D03*
%TD*%
D10*
%TO.P,J6,1,Pin_1_1*%
%TO.N,+3V3*%
X173113400Y-87297200D03*
D11*
%TO.P,J6,2,Pin_2_2*%
%TO.N,SWDIO*%
X170573400Y-87297200D03*
%TO.P,J6,3,Pin_3_3*%
%TO.N,RST*%
X173113400Y-84757200D03*
%TO.P,J6,4,Pin_4_4*%
%TO.N,SWDCLK*%
X170573400Y-84757200D03*
%TO.P,J6,5,Pin_5_5*%
%TO.N,GND*%
X173113400Y-82217200D03*
%TO.P,J6,6,Pin_6_6*%
%TO.N,unconnected-(J6-Pin_6-Pad6)*%
X170573400Y-82217200D03*
%TD*%
D16*
%TO.P,C3,1*%
%TO.N,GND*%
X177653600Y-104818400D03*
%TO.P,C3,2*%
%TO.N,+3.3V*%
X176103600Y-104818400D03*
%TD*%
D17*
%TO.P,R3,1*%
%TO.N,+3.3V*%
X177703600Y-100246400D03*
%TO.P,R3,2*%
%TO.N,CS*%
X176053600Y-100246400D03*
%TD*%
%TO.P,R2,1*%
%TO.N,+3.3V*%
X177690400Y-101770400D03*
%TO.P,R2,2*%
%TO.N,MOSI*%
X176040400Y-101770400D03*
%TD*%
%TO.P,R1,1*%
%TO.N,+3.3V*%
X177703600Y-106342400D03*
%TO.P,R1,2*%
%TO.N,MISO*%
X176053600Y-106342400D03*
%TD*%
D16*
%TO.P,C4,1*%
%TO.N,GND*%
X177653600Y-103294400D03*
%TO.P,C4,2*%
%TO.N,+3.3V*%
X176103600Y-103294400D03*
%TD*%
D18*
%TO.N,VLDO*%
X144492600Y-123043400D03*
%TO.N,VMCU*%
X146138600Y-100962400D03*
X146138600Y-104010400D03*
%TO.N,+3.3V*%
X152895000Y-103045200D03*
X145229200Y-113543800D03*
X174718600Y-103307600D03*
%TO.N,GND*%
X164198000Y-92148600D03*
X141795200Y-102359400D03*
X152158400Y-81455200D03*
X146849800Y-103680200D03*
X131767200Y-122433800D03*
X143344600Y-98244600D03*
X120057800Y-113315200D03*
X138117200Y-81260400D03*
X122643600Y-118564600D03*
X115455400Y-81175800D03*
X148831000Y-114170400D03*
X118325600Y-121384000D03*
X143700200Y-106677400D03*
X136689800Y-120825200D03*
X125361400Y-117193000D03*
X146042000Y-112959600D03*
X141414200Y-108938000D03*
X148246800Y-94358400D03*
X159676800Y-103832600D03*
X117792200Y-98955800D03*
X146931000Y-117887200D03*
X118274800Y-117040600D03*
X151879000Y-96009400D03*
X148221400Y-116329400D03*
X171843400Y-85163600D03*
X176877600Y-104018800D03*
X122897600Y-99616200D03*
X131762200Y-97787400D03*
X177583800Y-83258600D03*
X117741400Y-88541800D03*
X138442400Y-119352000D03*
X150355000Y-100048000D03*
X132122800Y-99370600D03*
X121226200Y-100158000D03*
X152006000Y-86408200D03*
X157467000Y-91767600D03*
X150563200Y-112248400D03*
X125564600Y-112290800D03*
X134683200Y-95476000D03*
X121912000Y-109987800D03*
X153631600Y-98320800D03*
X133260800Y-116710400D03*
X134962600Y-93444000D03*
X163588400Y-89989600D03*
X153758600Y-106347200D03*
X155181000Y-103731000D03*
X142658800Y-88770400D03*
X133489400Y-120901400D03*
X140225400Y-81285800D03*
X177939400Y-123238200D03*
X133489400Y-119377400D03*
X163237800Y-108006600D03*
X123456400Y-113840200D03*
X123862800Y-107490200D03*
X138091800Y-93528600D03*
X135165800Y-117878800D03*
X117741400Y-93621800D03*
X159829200Y-96796800D03*
X145407000Y-109556000D03*
X151066200Y-84071400D03*
X174332600Y-85824000D03*
X118071600Y-114043400D03*
X140347400Y-119275800D03*
X117741400Y-96161800D03*
X168058800Y-86662200D03*
X144843200Y-97736600D03*
X130746200Y-117447000D03*
X147535600Y-97508000D03*
X124599400Y-97838200D03*
X117258800Y-107998200D03*
X171886000Y-99497600D03*
X117716000Y-91132600D03*
X169862200Y-83487200D03*
X154165000Y-84071400D03*
X155257200Y-98778000D03*
X147870800Y-92563400D03*
X133088000Y-105695200D03*
X140931600Y-117624800D03*
X126758400Y-108557000D03*
X145889600Y-123068800D03*
X117766800Y-86001800D03*
X176852200Y-101021600D03*
X118909800Y-101978400D03*
X119930800Y-107981200D03*
X147789600Y-81429800D03*
X153733200Y-102410200D03*
X115988800Y-113916400D03*
X177583800Y-86890800D03*
X126555200Y-95984000D03*
X131686000Y-115745200D03*
X125874400Y-81285800D03*
X138620200Y-117853400D03*
X127876000Y-113814800D03*
X148069000Y-109674600D03*
X120002000Y-109928600D03*
%TO.N,VBUS*%
X128892000Y-113891000D03*
X154419000Y-99108200D03*
%TO.N,VSYS*%
X137197800Y-115737199D03*
X138493200Y-121739600D03*
X132676600Y-111519399D03*
X143065200Y-111917400D03*
X127444200Y-111520799D03*
%TO.N,1.06*%
X146265600Y-82496600D03*
%TO.N,1.04*%
X146265600Y-83766600D03*
%TO.N,1.02*%
X146265600Y-85036600D03*
%TO.N,1.00*%
X146265600Y-86306600D03*
%TO.N,0.22*%
X146265600Y-87576600D03*
%TO.N,0.20*%
X146265600Y-88846600D03*
%TO.N,0.17*%
X146265600Y-90116600D03*
%TO.N,0.15*%
X146265600Y-91386600D03*
%TO.N,0.07*%
X145503600Y-92656600D03*
%TO.N,0.12*%
X144233600Y-92656600D03*
%TO.N,0.04*%
X142963600Y-92656600D03*
%TO.N,CC1*%
X163182000Y-94256800D03*
X133718000Y-113501999D03*
X162473400Y-89840200D03*
X152793400Y-97914400D03*
%TO.N,CC2*%
X157848000Y-89837200D03*
X134810200Y-114021400D03*
X162293000Y-94256800D03*
X151904400Y-97863600D03*
%TO.N,LoRa_DIO1*%
X139153600Y-81417800D03*
X124833000Y-81412800D03*
%TO.N,SDA*%
X123126200Y-106804400D03*
D19*
X134048200Y-94764800D03*
D18*
X136435800Y-107024999D03*
D19*
%TO.N,SCL*%
X136334200Y-94764800D03*
D18*
X136473900Y-105488299D03*
X123177401Y-109293199D03*
%TO.N,SW0*%
X118914800Y-111969000D03*
X140423600Y-92656600D03*
%TO.N,BM_INT*%
X141693600Y-97685800D03*
X139661600Y-109437999D03*
%TO.N,RMF*%
X141719000Y-92656600D03*
%TO.N,BM_RST*%
X142735000Y-97685800D03*
X140499800Y-109395200D03*
%TO.N,RST*%
X155079400Y-93164600D03*
%TO.N,VBUSOUT*%
X151117000Y-94764800D03*
X132702000Y-115846800D03*
%TO.N,MISO*%
X174718600Y-106355600D03*
D19*
X151270200Y-88210800D03*
D18*
%TO.N,SCK*%
X174679000Y-104185400D03*
D19*
X151270200Y-86940800D03*
%TO.N,MOSI*%
X151270200Y-83130800D03*
D18*
X174693200Y-101783600D03*
D19*
%TO.N,CS*%
X151270200Y-81860800D03*
D18*
X174693200Y-100259600D03*
%TO.N,Net-(U4A-SHPHLD)*%
X121653000Y-119758400D03*
X136350900Y-103247699D03*
%TO.N,NTC*%
X133718000Y-109895199D03*
%TD*%
%TO.N,VLDO*%
D20*
X120210200Y-121316200D02*
X120210200Y-115330643D01*
X119011400Y-101025443D02*
X119011400Y-98168400D01*
X121988200Y-123094200D02*
X120210200Y-121316200D01*
X118307800Y-101729043D02*
X119011400Y-101025443D01*
X144441800Y-123094200D02*
X121988200Y-123094200D01*
X144492600Y-123043400D02*
X144441800Y-123094200D01*
X120210200Y-115330643D02*
X118307800Y-113428243D01*
X118307800Y-113428243D02*
X118307800Y-101729043D01*
%TO.N,VMCU*%
X146138600Y-104010400D02*
X146138600Y-100962400D01*
%TO.N,+3.3V*%
D21*
X177627600Y-106342400D02*
X176103600Y-104818400D01*
X176103600Y-103294400D02*
X174731800Y-103294400D01*
D20*
X152895000Y-103045200D02*
X145206400Y-110733800D01*
X145206400Y-110733800D02*
X145206400Y-113521000D01*
D21*
X176103600Y-104818400D02*
X176103600Y-103294400D01*
X174731800Y-103294400D02*
X174718600Y-103307600D01*
X177690400Y-101770400D02*
X177690400Y-100259600D01*
X176166400Y-103294400D02*
X177690400Y-101770400D01*
D20*
X145206400Y-113521000D02*
X145229200Y-113543800D01*
%TO.N,GND*%
D22*
X177588800Y-104018800D02*
X177614200Y-104044200D01*
X176877600Y-104018800D02*
X177588800Y-104018800D01*
%TO.N,VBUS*%
D20*
X137342600Y-122341600D02*
X138742557Y-122341600D01*
X128892000Y-113891000D02*
X137342600Y-122341600D01*
X154419000Y-106665157D02*
X154419000Y-99108200D01*
X138742557Y-122341600D02*
X154419000Y-106665157D01*
%TO.N,VSYS*%
X133836999Y-115737199D02*
X129620599Y-111520799D01*
X140346600Y-114636000D02*
X143065200Y-111917400D01*
X139606642Y-114636000D02*
X140346600Y-114636000D01*
X139047842Y-115194800D02*
X139606642Y-114636000D01*
X129620599Y-111520799D02*
X127444200Y-111520799D01*
X137197800Y-120444200D02*
X137197800Y-115737199D01*
X132676600Y-111519399D02*
X132676600Y-113945200D01*
X133926200Y-115194800D02*
X139047842Y-115194800D01*
X138493200Y-121739600D02*
X137197800Y-120444200D01*
X137197800Y-115737199D02*
X133836999Y-115737199D01*
X132676600Y-113945200D02*
X133926200Y-115194800D01*
%TO.N,1.06*%
X117834400Y-84105400D02*
X116471400Y-85468400D01*
X121373600Y-82496600D02*
X119764800Y-84105400D01*
X146265600Y-82496600D02*
X121373600Y-82496600D01*
X119764800Y-84105400D02*
X117834400Y-84105400D01*
%TO.N,1.04*%
X121856200Y-83334800D02*
X119722600Y-85468400D01*
X124015200Y-83334800D02*
X121856200Y-83334800D01*
X145833800Y-83334800D02*
X124015200Y-83334800D01*
X119722600Y-85468400D02*
X119011400Y-85468400D01*
X146265600Y-83766600D02*
X145833800Y-83334800D01*
%TO.N,1.02*%
X117834400Y-86645400D02*
X116471400Y-88008400D01*
X146265600Y-85036600D02*
X145325800Y-84096800D01*
X122313400Y-84096800D02*
X119764800Y-86645400D01*
X119764800Y-86645400D02*
X117834400Y-86645400D01*
X145325800Y-84096800D02*
X122313400Y-84096800D01*
%TO.N,1.00*%
X144817800Y-84858800D02*
X122973800Y-84858800D01*
X146265600Y-86306600D02*
X144817800Y-84858800D01*
X122973800Y-84858800D02*
X119824200Y-88008400D01*
X119824200Y-88008400D02*
X119011400Y-88008400D01*
%TO.N,0.22*%
X123685000Y-85620800D02*
X120120400Y-89185400D01*
X144309800Y-85620800D02*
X123685000Y-85620800D01*
X117834400Y-89185400D02*
X116471400Y-90548400D01*
X120120400Y-89185400D02*
X117834400Y-89185400D01*
X146265600Y-87576600D02*
X144309800Y-85620800D01*
%TO.N,0.20*%
X143801800Y-86382800D02*
X124320000Y-86382800D01*
X146265600Y-88846600D02*
X143801800Y-86382800D01*
X120154400Y-90548400D02*
X119011400Y-90548400D01*
X124320000Y-86382800D02*
X120154400Y-90548400D01*
%TO.N,0.17*%
X120357600Y-91742200D02*
X117817600Y-91742200D01*
X124955000Y-87144800D02*
X120357600Y-91742200D01*
X117817600Y-91742200D02*
X116471400Y-93088400D01*
X143293800Y-87144800D02*
X124955000Y-87144800D01*
X146265600Y-90116600D02*
X143293800Y-87144800D01*
%TO.N,0.15*%
X146265600Y-91386600D02*
X142785800Y-87906800D01*
X142785800Y-87906800D02*
X125615400Y-87906800D01*
X120433800Y-93088400D02*
X119011400Y-93088400D01*
X125615400Y-87906800D02*
X120433800Y-93088400D01*
%TO.N,0.07*%
X141515800Y-88668800D02*
X126250400Y-88668800D01*
X126250400Y-88668800D02*
X120653800Y-94265400D01*
X117834400Y-94265400D02*
X116471400Y-95628400D01*
X145503600Y-92656600D02*
X141515800Y-88668800D01*
X120653800Y-94265400D02*
X117834400Y-94265400D01*
%TO.N,0.12*%
X120764000Y-95628400D02*
X119011400Y-95628400D01*
X144233600Y-92656600D02*
X141007800Y-89430800D01*
X126961600Y-89430800D02*
X120764000Y-95628400D01*
X141007800Y-89430800D02*
X126961600Y-89430800D01*
%TO.N,0.04*%
X127596600Y-90192800D02*
X120984000Y-96805400D01*
X117834400Y-96805400D02*
X116471400Y-98168400D01*
X140499800Y-90192800D02*
X127596600Y-90192800D01*
X120984000Y-96805400D02*
X117834400Y-96805400D01*
X142963600Y-92656600D02*
X140499800Y-90192800D01*
%TO.N,CC1*%
X134649643Y-114712200D02*
X138888389Y-114712200D01*
X138888389Y-114712200D02*
X139438190Y-114162399D01*
X133718000Y-113501999D02*
X133718000Y-113780557D01*
X152793400Y-101267200D02*
X139898201Y-114162399D01*
X163182000Y-90548800D02*
X163182000Y-94256800D01*
X139438190Y-114162399D02*
X139898201Y-114162399D01*
X162473400Y-89840200D02*
X163182000Y-90548800D01*
X152793400Y-97914400D02*
X152793400Y-101267200D01*
X133718000Y-113780557D02*
X134649643Y-114712200D01*
%TO.N,CC2*%
X139577000Y-113670800D02*
X151904400Y-101343400D01*
X151904400Y-101343400D02*
X151904400Y-97863600D01*
X162267600Y-94256800D02*
X162293000Y-94256800D01*
X135160800Y-113670800D02*
X139577000Y-113670800D01*
X157848000Y-89837200D02*
X162267600Y-94256800D01*
X134810200Y-114021400D02*
X135160800Y-113670800D01*
%TO.N,LoRa_DIO1*%
D21*
X138574400Y-81997000D02*
X125417200Y-81997000D01*
X125417200Y-81997000D02*
X124833000Y-81412800D01*
X139153600Y-81417800D02*
X138574400Y-81997000D01*
%TO.N,SDA*%
D20*
X134048200Y-94764800D02*
X134006200Y-94806800D01*
X134006200Y-104595399D02*
X136435800Y-107024999D01*
X134006200Y-94806800D02*
X134006200Y-104595399D01*
X136215201Y-106804400D02*
X123126200Y-106804400D01*
X136435800Y-107024999D02*
X136215201Y-106804400D01*
%TO.N,SCL*%
X123177401Y-109293199D02*
X123151600Y-109319000D01*
X136473900Y-105488299D02*
X137037800Y-106052199D01*
X137037800Y-106052199D02*
X137037800Y-107274356D01*
X124650200Y-107820400D02*
X123177401Y-109293199D01*
X136491756Y-107820400D02*
X124650200Y-107820400D01*
X137037800Y-107274356D02*
X136491756Y-107820400D01*
X134683200Y-96415800D02*
X134683200Y-103697599D01*
X136334200Y-94764800D02*
X134683200Y-96415800D01*
X134683200Y-103697599D02*
X136473900Y-105488299D01*
%TO.N,SW0*%
D21*
X122115200Y-108768600D02*
X122115200Y-98100600D01*
X118914800Y-111969000D02*
X122115200Y-108768600D01*
X128465200Y-91750600D02*
X139517600Y-91750600D01*
X122115200Y-98100600D02*
X128465200Y-91750600D01*
X139517600Y-91750600D02*
X140423600Y-92656600D01*
%TO.N,BM_INT*%
D20*
X139661600Y-109437999D02*
X139661600Y-99717800D01*
X139661600Y-99717800D02*
X141693600Y-97685800D01*
%TO.N,RMF*%
D21*
X120306800Y-98639000D02*
X120306800Y-101749800D01*
X127957200Y-90988600D02*
X120306800Y-98639000D01*
X140051000Y-90988600D02*
X127957200Y-90988600D01*
X141719000Y-92656600D02*
X140051000Y-90988600D01*
%TO.N,BM_RST*%
D20*
X140703000Y-99717800D02*
X142735000Y-97685800D01*
X140703000Y-109192000D02*
X140703000Y-99717800D01*
X140499800Y-109395200D02*
X140703000Y-109192000D01*
%TO.N,RST*%
X171818000Y-86052600D02*
X173113400Y-84757200D01*
X155079400Y-91754443D02*
X160781243Y-86052600D01*
X155079400Y-93164600D02*
X155079400Y-91754443D01*
X160781243Y-86052600D02*
X171818000Y-86052600D01*
%TO.N,VBUSOUT*%
X151117000Y-100383356D02*
X151117000Y-94764800D01*
X126656800Y-111097000D02*
X127205801Y-110547999D01*
X126656800Y-111859000D02*
X126656800Y-111097000D01*
X132702000Y-115846800D02*
X129577800Y-112722600D01*
X140952357Y-110547999D02*
X151117000Y-100383356D01*
X127520400Y-112722600D02*
X126656800Y-111859000D01*
X127205801Y-110547999D02*
X140952357Y-110547999D01*
X129577800Y-112722600D02*
X127520400Y-112722600D01*
%TO.N,MISO*%
D21*
X163901600Y-106355600D02*
X151270200Y-93724200D01*
X174718600Y-106355600D02*
X163901600Y-106355600D01*
X151270200Y-93724200D02*
X151270200Y-88210800D01*
X176053600Y-106342400D02*
X174731800Y-106342400D01*
X174731800Y-106342400D02*
X174718600Y-106355600D01*
%TO.N,SCK*%
X151970200Y-87640800D02*
X151270200Y-86940800D01*
X151970200Y-93332000D02*
X151970200Y-87640800D01*
X174679000Y-104185400D02*
X162823600Y-104185400D01*
X162823600Y-104185400D02*
X151970200Y-93332000D01*
%TO.N,MOSI*%
X174706400Y-101770400D02*
X174693200Y-101783600D01*
X152717200Y-84577800D02*
X152717200Y-92986800D01*
X152717200Y-92986800D02*
X161658000Y-101927600D01*
X176040400Y-101770400D02*
X174706400Y-101770400D01*
X174549200Y-101927600D02*
X161658000Y-101927600D01*
X174693200Y-101783600D02*
X174549200Y-101927600D01*
X151270200Y-83130800D02*
X152717200Y-84577800D01*
%TO.N,CS*%
X176053600Y-100246400D02*
X174706400Y-100246400D01*
X174706400Y-100246400D02*
X174693200Y-100259600D01*
X161107600Y-100259600D02*
X153453800Y-92605800D01*
X153453800Y-92605800D02*
X153453800Y-84044400D01*
X153453800Y-84044400D02*
X151270200Y-81860800D01*
X174693200Y-100259600D02*
X161107600Y-100259600D01*
%TO.N,Net-(U4A-SHPHLD)*%
D20*
X127005749Y-109293199D02*
X121653000Y-114645948D01*
X137491800Y-104388599D02*
X137491800Y-107462408D01*
X136350900Y-103247699D02*
X137491800Y-104388599D01*
X137491800Y-107462408D02*
X135661009Y-109293199D01*
X121653000Y-114645948D02*
X121653000Y-119758400D01*
X135661009Y-109293199D02*
X127005749Y-109293199D01*
X121653000Y-119758400D02*
X121653000Y-119809200D01*
%TO.N,NTC*%
X124182200Y-118496800D02*
X124182200Y-112758800D01*
X124182200Y-112758800D02*
X127045801Y-109895199D01*
X127045801Y-109895199D02*
X133718000Y-109895199D01*
%TD*%
%TA.AperFunction,Conductor*%
%TO.N,GND*%
G36*
X151803481Y-94753163D02*
G01*
X163686388Y-106636070D01*
X163743449Y-106669014D01*
X163743451Y-106669015D01*
X163766309Y-106682213D01*
X163766311Y-106682213D01*
X163766312Y-106682214D01*
X163855456Y-106706100D01*
X174345454Y-106706100D01*
X174412493Y-106725785D01*
X174420943Y-106731726D01*
X174426632Y-106736091D01*
X174426636Y-106736095D01*
X174535064Y-106798695D01*
X174655999Y-106831100D01*
X174656001Y-106831100D01*
X174781199Y-106831100D01*
X174781201Y-106831100D01*
X174902136Y-106798695D01*
X175010564Y-106736095D01*
X175017440Y-106729219D01*
X175078763Y-106695734D01*
X175105121Y-106692900D01*
X175366590Y-106692900D01*
X175433629Y-106712585D01*
X175477074Y-106760604D01*
X175525549Y-106855740D01*
X175525554Y-106855747D01*
X175615252Y-106945445D01*
X175615254Y-106945446D01*
X175615258Y-106945450D01*
X175728294Y-107003045D01*
X175728298Y-107003047D01*
X175822075Y-107017899D01*
X175822081Y-107017900D01*
X176285118Y-107017899D01*
X176378904Y-107003046D01*
X176491942Y-106945450D01*
X176581650Y-106855742D01*
X176639246Y-106742704D01*
X176639246Y-106742702D01*
X176639247Y-106742701D01*
X176654099Y-106648924D01*
X176654100Y-106648919D01*
X176654099Y-106163942D01*
X176673783Y-106096904D01*
X176726587Y-106051149D01*
X176795746Y-106041205D01*
X176859302Y-106070230D01*
X176865780Y-106076262D01*
X177066781Y-106277263D01*
X177100266Y-106338586D01*
X177103100Y-106364944D01*
X177103100Y-106648917D01*
X177108374Y-106682213D01*
X177117954Y-106742704D01*
X177175550Y-106855742D01*
X177175552Y-106855744D01*
X177175554Y-106855747D01*
X177265252Y-106945445D01*
X177265254Y-106945446D01*
X177265258Y-106945450D01*
X177378294Y-107003045D01*
X177378298Y-107003047D01*
X177472075Y-107017899D01*
X177472081Y-107017900D01*
X177935118Y-107017899D01*
X178028904Y-107003046D01*
X178141942Y-106945450D01*
X178231650Y-106855742D01*
X178241816Y-106835789D01*
X178289790Y-106784995D01*
X178357611Y-106768200D01*
X178423746Y-106790738D01*
X178467197Y-106845453D01*
X178476300Y-106892086D01*
X178476300Y-123651100D01*
X178456615Y-123718139D01*
X178403811Y-123763894D01*
X178352300Y-123775100D01*
X115042500Y-123775100D01*
X114975461Y-123755415D01*
X114929706Y-123702611D01*
X114918500Y-123651100D01*
X114918500Y-109240930D01*
X115446300Y-109240930D01*
X115446300Y-109447869D01*
X115486668Y-109650812D01*
X115486670Y-109650820D01*
X115565858Y-109841996D01*
X115680824Y-110014057D01*
X115827142Y-110160375D01*
X115827145Y-110160377D01*
X115999202Y-110275341D01*
X116190380Y-110354530D01*
X116393330Y-110394899D01*
X116393334Y-110394900D01*
X116393335Y-110394900D01*
X116600266Y-110394900D01*
X116600267Y-110394899D01*
X116803220Y-110354530D01*
X116994398Y-110275341D01*
X117166455Y-110160377D01*
X117312777Y-110014055D01*
X117427741Y-109841998D01*
X117506930Y-109650820D01*
X117547300Y-109447865D01*
X117547300Y-109240935D01*
X117506930Y-109037980D01*
X117427741Y-108846802D01*
X117312777Y-108674745D01*
X117312775Y-108674742D01*
X117166457Y-108528424D01*
X117080426Y-108470941D01*
X116994398Y-108413459D01*
X116803220Y-108334270D01*
X116803212Y-108334268D01*
X116600269Y-108293900D01*
X116600265Y-108293900D01*
X116393335Y-108293900D01*
X116393330Y-108293900D01*
X116190387Y-108334268D01*
X116190379Y-108334270D01*
X115999203Y-108413458D01*
X115827142Y-108528424D01*
X115680824Y-108674742D01*
X115565858Y-108846803D01*
X115486670Y-109037979D01*
X115486668Y-109037987D01*
X115446300Y-109240930D01*
X114918500Y-109240930D01*
X114918500Y-104504783D01*
X114938185Y-104437744D01*
X114990989Y-104391989D01*
X115060147Y-104382045D01*
X115123703Y-104411070D01*
X115161477Y-104469848D01*
X115164973Y-104485385D01*
X115180042Y-104580527D01*
X115180042Y-104580530D01*
X115245704Y-104782617D01*
X115342175Y-104971950D01*
X115381528Y-105026116D01*
X116013837Y-104393808D01*
X116030875Y-104457393D01*
X116096701Y-104571407D01*
X116189793Y-104664499D01*
X116303807Y-104730325D01*
X116367390Y-104747362D01*
X115735082Y-105379669D01*
X115735082Y-105379670D01*
X115789249Y-105419024D01*
X115978582Y-105515495D01*
X116154773Y-105572743D01*
X116212448Y-105612180D01*
X116239647Y-105676539D01*
X116227732Y-105745385D01*
X116180488Y-105796861D01*
X116163908Y-105805235D01*
X115999203Y-105873457D01*
X115827142Y-105988424D01*
X115680824Y-106134742D01*
X115565858Y-106306803D01*
X115486670Y-106497979D01*
X115486668Y-106497987D01*
X115446300Y-106700930D01*
X115446300Y-106907869D01*
X115486668Y-107110812D01*
X115486670Y-107110820D01*
X115543282Y-107247494D01*
X115565859Y-107301998D01*
X115592064Y-107341217D01*
X115680824Y-107474057D01*
X115827142Y-107620375D01*
X115827145Y-107620377D01*
X115999202Y-107735341D01*
X116190380Y-107814530D01*
X116393330Y-107854899D01*
X116393334Y-107854900D01*
X116393335Y-107854900D01*
X116600266Y-107854900D01*
X116600267Y-107854899D01*
X116803220Y-107814530D01*
X116994398Y-107735341D01*
X117166455Y-107620377D01*
X117312777Y-107474055D01*
X117427741Y-107301998D01*
X117506930Y-107110820D01*
X117547300Y-106907865D01*
X117547300Y-106700935D01*
X117506930Y-106497980D01*
X117427741Y-106306802D01*
X117312777Y-106134745D01*
X117312775Y-106134742D01*
X117166457Y-105988424D01*
X117004337Y-105880100D01*
X116994398Y-105873459D01*
X116994393Y-105873457D01*
X116932691Y-105847899D01*
X116829690Y-105805234D01*
X116775288Y-105761394D01*
X116753223Y-105695100D01*
X116770502Y-105627401D01*
X116821639Y-105579790D01*
X116838826Y-105572743D01*
X117015017Y-105515495D01*
X117204354Y-105419022D01*
X117258516Y-105379670D01*
X117258517Y-105379670D01*
X116626208Y-104747362D01*
X116689793Y-104730325D01*
X116803807Y-104664499D01*
X116896899Y-104571407D01*
X116962725Y-104457393D01*
X116979762Y-104393809D01*
X117612070Y-105026117D01*
X117612070Y-105026116D01*
X117651422Y-104971954D01*
X117745815Y-104786700D01*
X117793790Y-104735904D01*
X117861611Y-104719109D01*
X117927746Y-104741647D01*
X117971197Y-104796362D01*
X117980300Y-104842995D01*
X117980300Y-113385127D01*
X117980300Y-113471359D01*
X117990790Y-113510506D01*
X118002619Y-113554653D01*
X118045734Y-113629331D01*
X118045736Y-113629334D01*
X119846381Y-115429979D01*
X119879866Y-115491302D01*
X119882700Y-115517660D01*
X119882700Y-121273084D01*
X119882700Y-121359316D01*
X119905019Y-121442610D01*
X119948135Y-121517290D01*
X121726135Y-123295290D01*
X121787110Y-123356265D01*
X121861790Y-123399381D01*
X121945084Y-123421700D01*
X144163609Y-123421700D01*
X144225606Y-123438311D01*
X144309064Y-123486495D01*
X144429999Y-123518900D01*
X144430001Y-123518900D01*
X144555199Y-123518900D01*
X144555201Y-123518900D01*
X144676136Y-123486495D01*
X144784564Y-123423895D01*
X144873095Y-123335364D01*
X144935695Y-123226936D01*
X144968100Y-123106001D01*
X144968100Y-122980799D01*
X144935695Y-122859864D01*
X144873095Y-122751436D01*
X144784564Y-122662905D01*
X144676136Y-122600305D01*
X144676137Y-122600305D01*
X144635824Y-122589503D01*
X144555201Y-122567900D01*
X144429999Y-122567900D01*
X144349375Y-122589503D01*
X144309063Y-122600305D01*
X144200637Y-122662903D01*
X144133159Y-122730382D01*
X144071835Y-122763866D01*
X144045478Y-122766700D01*
X139079974Y-122766700D01*
X139012935Y-122747015D01*
X138967180Y-122694211D01*
X138957236Y-122625053D01*
X138986261Y-122561497D01*
X138992293Y-122555019D01*
X146802028Y-114745284D01*
X154681065Y-106866247D01*
X154724181Y-106791567D01*
X154746500Y-106708273D01*
X154746500Y-106622041D01*
X154746500Y-99504521D01*
X154766185Y-99437482D01*
X154782819Y-99416840D01*
X154799495Y-99400164D01*
X154862095Y-99291736D01*
X154894500Y-99170801D01*
X154894500Y-99045599D01*
X154862095Y-98924664D01*
X154799495Y-98816236D01*
X154710964Y-98727705D01*
X154602536Y-98665105D01*
X154602537Y-98665105D01*
X154562224Y-98654303D01*
X154481601Y-98632700D01*
X154356399Y-98632700D01*
X154275775Y-98654303D01*
X154235463Y-98665105D01*
X154127037Y-98727704D01*
X154127034Y-98727706D01*
X154038506Y-98816234D01*
X154038504Y-98816237D01*
X153975905Y-98924663D01*
X153975905Y-98924664D01*
X153943500Y-99045599D01*
X153943500Y-99170801D01*
X153965432Y-99252652D01*
X153975905Y-99291736D01*
X154038504Y-99400162D01*
X154038506Y-99400165D01*
X154055181Y-99416840D01*
X154088666Y-99478163D01*
X154091500Y-99504521D01*
X154091500Y-106478139D01*
X154071815Y-106545178D01*
X154055181Y-106565820D01*
X139097649Y-121523351D01*
X139036326Y-121556836D01*
X138966634Y-121551852D01*
X138910701Y-121509980D01*
X138902584Y-121497674D01*
X138873695Y-121447636D01*
X138785164Y-121359105D01*
X138676736Y-121296505D01*
X138676737Y-121296505D01*
X138636424Y-121285703D01*
X138555801Y-121264100D01*
X138555799Y-121264100D01*
X138532217Y-121264100D01*
X138465178Y-121244415D01*
X138444536Y-121227781D01*
X137561619Y-120344864D01*
X137528134Y-120283541D01*
X137525300Y-120257183D01*
X137525300Y-116133520D01*
X137544985Y-116066481D01*
X137561619Y-116045839D01*
X137565079Y-116042379D01*
X137578295Y-116029163D01*
X137640895Y-115920735D01*
X137673300Y-115799800D01*
X137673300Y-115674598D01*
X137673299Y-115674597D01*
X137672239Y-115666541D01*
X137674605Y-115666229D01*
X137675982Y-115608536D01*
X137715148Y-115550676D01*
X137779378Y-115523176D01*
X137794092Y-115522300D01*
X139090956Y-115522300D01*
X139090958Y-115522300D01*
X139174252Y-115499981D01*
X139248932Y-115456865D01*
X139705978Y-114999819D01*
X139767301Y-114966334D01*
X139793659Y-114963500D01*
X140389714Y-114963500D01*
X140389716Y-114963500D01*
X140473010Y-114941181D01*
X140547690Y-114898065D01*
X141964556Y-113481199D01*
X144753700Y-113481199D01*
X144753700Y-113606401D01*
X144786105Y-113727336D01*
X144848705Y-113835764D01*
X144937236Y-113924295D01*
X145045664Y-113986895D01*
X145166599Y-114019300D01*
X145166601Y-114019300D01*
X145291799Y-114019300D01*
X145291801Y-114019300D01*
X145412736Y-113986895D01*
X145521164Y-113924295D01*
X145609695Y-113835764D01*
X145672295Y-113727336D01*
X145704700Y-113606401D01*
X145704700Y-113481199D01*
X145672295Y-113360264D01*
X145609695Y-113251836D01*
X145570219Y-113212360D01*
X145536734Y-113151037D01*
X145533900Y-113124679D01*
X145533900Y-110920817D01*
X145553585Y-110853778D01*
X145570219Y-110833136D01*
X152846336Y-103557019D01*
X152907659Y-103523534D01*
X152934017Y-103520700D01*
X152957599Y-103520700D01*
X152957601Y-103520700D01*
X153078536Y-103488295D01*
X153186964Y-103425695D01*
X153275495Y-103337164D01*
X153338095Y-103228736D01*
X153370500Y-103107801D01*
X153370500Y-102982599D01*
X153338095Y-102861664D01*
X153275495Y-102753236D01*
X153186964Y-102664705D01*
X153078536Y-102602105D01*
X153078537Y-102602105D01*
X153038224Y-102591303D01*
X152957601Y-102569700D01*
X152832399Y-102569700D01*
X152751775Y-102591303D01*
X152711463Y-102602105D01*
X152603037Y-102664704D01*
X152603034Y-102664706D01*
X152514506Y-102753234D01*
X152514504Y-102753237D01*
X152451905Y-102861663D01*
X152419500Y-102982600D01*
X152419500Y-103006183D01*
X152399815Y-103073222D01*
X152383181Y-103093864D01*
X144944336Y-110532708D01*
X144944334Y-110532711D01*
X144901219Y-110607389D01*
X144878900Y-110690685D01*
X144878900Y-113170393D01*
X144859215Y-113237432D01*
X144853275Y-113245881D01*
X144848704Y-113251837D01*
X144786105Y-113360263D01*
X144786105Y-113360264D01*
X144753700Y-113481199D01*
X141964556Y-113481199D01*
X143016536Y-112429219D01*
X143077859Y-112395734D01*
X143104217Y-112392900D01*
X143127799Y-112392900D01*
X143127801Y-112392900D01*
X143248736Y-112360495D01*
X143357164Y-112297895D01*
X143445695Y-112209364D01*
X143508295Y-112100936D01*
X143540700Y-111980001D01*
X143540700Y-111854799D01*
X143508295Y-111733864D01*
X143445695Y-111625436D01*
X143357164Y-111536905D01*
X143357163Y-111536904D01*
X143357160Y-111536902D01*
X143262343Y-111482160D01*
X143214128Y-111431593D01*
X143200904Y-111362986D01*
X143226872Y-111298122D01*
X143236654Y-111287100D01*
X153055465Y-101468290D01*
X153098581Y-101393610D01*
X153120900Y-101310316D01*
X153120900Y-101224084D01*
X153120900Y-98310721D01*
X153140585Y-98243682D01*
X153157219Y-98223040D01*
X153173895Y-98206364D01*
X153236495Y-98097936D01*
X153268900Y-97977001D01*
X153268900Y-97851799D01*
X153236495Y-97730864D01*
X153173895Y-97622436D01*
X153085364Y-97533905D01*
X152976936Y-97471305D01*
X152976937Y-97471305D01*
X152936624Y-97460503D01*
X152856001Y-97438900D01*
X152730799Y-97438900D01*
X152650175Y-97460503D01*
X152609863Y-97471305D01*
X152501437Y-97533904D01*
X152501434Y-97533906D01*
X152461981Y-97573360D01*
X152400658Y-97606845D01*
X152330966Y-97601861D01*
X152286619Y-97573360D01*
X152196365Y-97483106D01*
X152196364Y-97483105D01*
X152087936Y-97420505D01*
X152087937Y-97420505D01*
X152047624Y-97409703D01*
X151967001Y-97388100D01*
X151841799Y-97388100D01*
X151761175Y-97409703D01*
X151720863Y-97420505D01*
X151630499Y-97472676D01*
X151562598Y-97489147D01*
X151496572Y-97466295D01*
X151453382Y-97411373D01*
X151444500Y-97365288D01*
X151444500Y-95161121D01*
X151464185Y-95094082D01*
X151480819Y-95073440D01*
X151497495Y-95056764D01*
X151560095Y-94948336D01*
X151592500Y-94827401D01*
X151592500Y-94827397D01*
X151592861Y-94824659D01*
X151593807Y-94822518D01*
X151594603Y-94819551D01*
X151595065Y-94819675D01*
X151621128Y-94760762D01*
X151679452Y-94722291D01*
X151749317Y-94721460D01*
X151803481Y-94753163D01*
G37*
%TD.AperFunction*%
%TA.AperFunction,Conductor*%
G36*
X122670903Y-106980441D02*
G01*
X122697086Y-107012153D01*
X122745705Y-107096364D01*
X122834236Y-107184895D01*
X122942664Y-107247495D01*
X123063599Y-107279900D01*
X123063601Y-107279900D01*
X123188799Y-107279900D01*
X123188801Y-107279900D01*
X123309736Y-107247495D01*
X123418164Y-107184895D01*
X123434840Y-107168219D01*
X123496163Y-107134734D01*
X123522521Y-107131900D01*
X124450000Y-107131900D01*
X124458685Y-107134450D01*
X124467647Y-107133162D01*
X124491687Y-107144140D01*
X124517039Y-107151585D01*
X124522966Y-107158425D01*
X124531203Y-107162187D01*
X124545492Y-107184421D01*
X124562794Y-107204389D01*
X124565081Y-107214903D01*
X124568977Y-107220965D01*
X124574000Y-107255900D01*
X124574000Y-107414638D01*
X124554315Y-107481677D01*
X124512000Y-107522025D01*
X124449113Y-107558332D01*
X124449108Y-107558336D01*
X123226065Y-108781380D01*
X123164742Y-108814865D01*
X123138384Y-108817699D01*
X123114800Y-108817699D01*
X123034176Y-108839302D01*
X122993864Y-108850104D01*
X122885438Y-108912703D01*
X122885435Y-108912705D01*
X122796907Y-109001233D01*
X122796905Y-109001236D01*
X122734306Y-109109662D01*
X122718103Y-109170130D01*
X122701901Y-109230598D01*
X122701901Y-109355800D01*
X122734306Y-109476735D01*
X122796906Y-109585163D01*
X122885437Y-109673694D01*
X122993865Y-109736294D01*
X123114800Y-109768699D01*
X123114802Y-109768699D01*
X123240000Y-109768699D01*
X123240002Y-109768699D01*
X123360937Y-109736294D01*
X123469365Y-109673694D01*
X123557896Y-109585163D01*
X123620496Y-109476735D01*
X123652901Y-109355800D01*
X123652901Y-109332216D01*
X123672586Y-109265177D01*
X123689220Y-109244535D01*
X124749536Y-108184219D01*
X124810859Y-108150734D01*
X124837217Y-108147900D01*
X136043791Y-108147900D01*
X136110830Y-108167585D01*
X136156585Y-108220389D01*
X136166529Y-108289547D01*
X136137504Y-108353103D01*
X136131472Y-108359581D01*
X135561673Y-108929380D01*
X135500350Y-108962865D01*
X135473992Y-108965699D01*
X127048865Y-108965699D01*
X126962633Y-108965699D01*
X126907103Y-108980578D01*
X126879338Y-108988018D01*
X126804660Y-109031133D01*
X126804657Y-109031135D01*
X121390936Y-114444856D01*
X121390934Y-114444859D01*
X121347819Y-114519537D01*
X121325500Y-114602833D01*
X121325500Y-119362079D01*
X121305815Y-119429118D01*
X121289181Y-119449760D01*
X121272506Y-119466434D01*
X121272504Y-119466437D01*
X121209905Y-119574863D01*
X121209905Y-119574864D01*
X121177500Y-119695799D01*
X121177500Y-119821001D01*
X121209905Y-119941936D01*
X121272505Y-120050364D01*
X121361036Y-120138895D01*
X121469464Y-120201495D01*
X121590399Y-120233900D01*
X121590401Y-120233900D01*
X121715599Y-120233900D01*
X121715601Y-120233900D01*
X121836536Y-120201495D01*
X121944964Y-120138895D01*
X122033495Y-120050364D01*
X122096095Y-119941936D01*
X122128500Y-119821001D01*
X122128500Y-119695799D01*
X122096095Y-119574864D01*
X122033495Y-119466436D01*
X122016819Y-119449760D01*
X121983334Y-119388437D01*
X121980500Y-119362079D01*
X121980500Y-114832965D01*
X122000185Y-114765926D01*
X122016819Y-114745284D01*
X123643019Y-113119084D01*
X123704342Y-113085599D01*
X123774034Y-113090583D01*
X123829967Y-113132455D01*
X123854384Y-113197919D01*
X123854700Y-113206765D01*
X123854700Y-117197300D01*
X123835015Y-117264339D01*
X123782211Y-117310094D01*
X123730700Y-117321300D01*
X123527930Y-117321300D01*
X123497500Y-117324153D01*
X123497498Y-117324153D01*
X123369319Y-117369006D01*
X123369317Y-117369007D01*
X123260050Y-117449650D01*
X123179407Y-117558917D01*
X123179406Y-117558919D01*
X123134553Y-117687098D01*
X123134553Y-117687100D01*
X123131700Y-117717530D01*
X123131700Y-119276069D01*
X123134553Y-119306499D01*
X123134553Y-119306501D01*
X123171974Y-119413441D01*
X123179407Y-119434682D01*
X123260050Y-119543950D01*
X123369318Y-119624593D01*
X123390289Y-119631931D01*
X123497499Y-119669446D01*
X123527930Y-119672300D01*
X123527934Y-119672300D01*
X124836470Y-119672300D01*
X124866899Y-119669446D01*
X124866901Y-119669446D01*
X124930990Y-119647019D01*
X124995082Y-119624593D01*
X125104350Y-119543950D01*
X125184993Y-119434682D01*
X125221848Y-119329357D01*
X125229846Y-119306501D01*
X125229846Y-119306499D01*
X125232700Y-119276069D01*
X125232700Y-119267123D01*
X125252385Y-119200084D01*
X125305189Y-119154329D01*
X125374347Y-119144385D01*
X125437903Y-119173410D01*
X125467185Y-119210828D01*
X125527579Y-119329357D01*
X125652472Y-119501259D01*
X125652476Y-119501264D01*
X125802735Y-119651523D01*
X125802740Y-119651527D01*
X125974642Y-119776420D01*
X126163982Y-119872895D01*
X126366071Y-119938557D01*
X126432200Y-119949031D01*
X126432200Y-118900945D01*
X126498857Y-118939430D01*
X126619665Y-118971800D01*
X126744735Y-118971800D01*
X126865543Y-118939430D01*
X126932200Y-118900945D01*
X126932200Y-119949030D01*
X126998326Y-119938557D01*
X126998329Y-119938557D01*
X127200417Y-119872895D01*
X127389757Y-119776420D01*
X127561659Y-119651527D01*
X127561664Y-119651523D01*
X127711923Y-119501264D01*
X127711927Y-119501259D01*
X127836820Y-119329357D01*
X127933295Y-119140017D01*
X127972959Y-119017944D01*
X128012396Y-118960269D01*
X128076755Y-118933070D01*
X128145601Y-118944984D01*
X128197077Y-118992228D01*
X128205451Y-119008809D01*
X128251257Y-119119396D01*
X128366224Y-119291457D01*
X128512542Y-119437775D01*
X128512545Y-119437777D01*
X128684602Y-119552741D01*
X128875780Y-119631930D01*
X129064387Y-119669446D01*
X129078730Y-119672299D01*
X129078734Y-119672300D01*
X129078735Y-119672300D01*
X129285666Y-119672300D01*
X129285667Y-119672299D01*
X129488620Y-119631930D01*
X129679798Y-119552741D01*
X129851855Y-119437777D01*
X129998177Y-119291455D01*
X130113141Y-119119398D01*
X130192330Y-118928220D01*
X130232700Y-118725265D01*
X130232700Y-118268335D01*
X130192330Y-118065380D01*
X130113141Y-117874202D01*
X129998177Y-117702145D01*
X129998175Y-117702142D01*
X129851857Y-117555824D01*
X129756838Y-117492335D01*
X129679798Y-117440859D01*
X129488620Y-117361670D01*
X129488612Y-117361668D01*
X129285669Y-117321300D01*
X129285665Y-117321300D01*
X129078735Y-117321300D01*
X129078730Y-117321300D01*
X128875787Y-117361668D01*
X128875779Y-117361670D01*
X128684603Y-117440858D01*
X128512542Y-117555824D01*
X128366224Y-117702142D01*
X128251257Y-117874204D01*
X128205451Y-117984790D01*
X128161609Y-118039194D01*
X128095315Y-118061258D01*
X128027616Y-118043978D01*
X127980006Y-117992841D01*
X127972959Y-117975655D01*
X127933295Y-117853582D01*
X127836820Y-117664242D01*
X127711927Y-117492340D01*
X127711923Y-117492335D01*
X127561664Y-117342076D01*
X127561659Y-117342072D01*
X127389757Y-117217179D01*
X127200415Y-117120703D01*
X126998324Y-117055041D01*
X126932200Y-117044568D01*
X126932200Y-118092654D01*
X126865543Y-118054170D01*
X126744735Y-118021800D01*
X126619665Y-118021800D01*
X126498857Y-118054170D01*
X126432200Y-118092654D01*
X126432200Y-117044568D01*
X126432199Y-117044568D01*
X126366075Y-117055041D01*
X126163984Y-117120703D01*
X125974642Y-117217179D01*
X125802740Y-117342072D01*
X125802735Y-117342076D01*
X125652476Y-117492335D01*
X125652472Y-117492340D01*
X125527579Y-117664242D01*
X125467185Y-117782771D01*
X125419210Y-117833567D01*
X125351389Y-117850362D01*
X125285254Y-117827824D01*
X125241803Y-117773109D01*
X125232700Y-117726476D01*
X125232700Y-117717530D01*
X125229846Y-117687100D01*
X125229846Y-117687098D01*
X125184993Y-117558919D01*
X125184992Y-117558917D01*
X125104350Y-117449650D01*
X124995082Y-117369007D01*
X124995080Y-117369006D01*
X124866900Y-117324153D01*
X124836470Y-117321300D01*
X124836466Y-117321300D01*
X124633700Y-117321300D01*
X124566661Y-117301615D01*
X124520906Y-117248811D01*
X124509700Y-117197300D01*
X124509700Y-112945817D01*
X124529385Y-112878778D01*
X124546019Y-112858136D01*
X126117619Y-111286536D01*
X126178942Y-111253051D01*
X126248634Y-111258035D01*
X126304567Y-111299907D01*
X126328984Y-111365371D01*
X126329300Y-111374217D01*
X126329300Y-111815884D01*
X126329300Y-111902116D01*
X126351619Y-111985410D01*
X126394735Y-112060090D01*
X127258335Y-112923690D01*
X127319310Y-112984665D01*
X127393990Y-113027781D01*
X127477284Y-113050100D01*
X129390783Y-113050100D01*
X129457822Y-113069785D01*
X129478464Y-113086419D01*
X132190181Y-115798136D01*
X132223666Y-115859459D01*
X132226500Y-115885817D01*
X132226500Y-115909401D01*
X132258905Y-116030336D01*
X132321505Y-116138764D01*
X132410036Y-116227295D01*
X132518464Y-116289895D01*
X132639399Y-116322300D01*
X132639401Y-116322300D01*
X132764599Y-116322300D01*
X132764601Y-116322300D01*
X132885536Y-116289895D01*
X132993964Y-116227295D01*
X133082495Y-116138764D01*
X133145095Y-116030336D01*
X133177500Y-115909401D01*
X133177500Y-115840217D01*
X133197185Y-115773178D01*
X133249989Y-115727423D01*
X133319147Y-115717479D01*
X133382703Y-115746504D01*
X133389181Y-115752536D01*
X133574934Y-115938289D01*
X133635909Y-115999264D01*
X133710589Y-116042380D01*
X133793883Y-116064699D01*
X136746300Y-116064699D01*
X136813339Y-116084384D01*
X136859094Y-116137188D01*
X136870300Y-116188699D01*
X136870300Y-120401084D01*
X136870300Y-120487316D01*
X136892619Y-120570610D01*
X136935734Y-120645288D01*
X136935736Y-120645291D01*
X137981381Y-121690936D01*
X138014866Y-121752259D01*
X138015905Y-121757593D01*
X138017700Y-121768026D01*
X138017700Y-121802201D01*
X138034123Y-121863494D01*
X138035084Y-121869076D01*
X138031692Y-121898376D01*
X138030991Y-121927855D01*
X138027720Y-121932686D01*
X138027050Y-121938483D01*
X138008360Y-121961292D01*
X137991830Y-121985718D01*
X137986465Y-121988015D01*
X137982768Y-121992528D01*
X137954711Y-122001613D01*
X137927601Y-122013223D01*
X137916889Y-122013861D01*
X137916297Y-122014053D01*
X137915812Y-122013925D01*
X137912879Y-122014100D01*
X137529617Y-122014100D01*
X137462578Y-121994415D01*
X137441936Y-121977781D01*
X129403819Y-113939664D01*
X129370334Y-113878341D01*
X129367500Y-113851983D01*
X129367500Y-113828400D01*
X129364365Y-113816701D01*
X129335095Y-113707464D01*
X129272495Y-113599036D01*
X129183964Y-113510505D01*
X129075536Y-113447905D01*
X129075537Y-113447905D01*
X129035224Y-113437103D01*
X128954601Y-113415500D01*
X128829399Y-113415500D01*
X128748775Y-113437103D01*
X128708463Y-113447905D01*
X128600037Y-113510504D01*
X128600034Y-113510506D01*
X128511506Y-113599034D01*
X128511504Y-113599037D01*
X128448905Y-113707463D01*
X128435315Y-113758183D01*
X128416500Y-113828399D01*
X128416500Y-113953601D01*
X128448905Y-114074536D01*
X128511505Y-114182964D01*
X128600036Y-114271495D01*
X128708464Y-114334095D01*
X128829399Y-114366500D01*
X128852983Y-114366500D01*
X128920022Y-114386185D01*
X128940664Y-114402819D01*
X137092864Y-122555019D01*
X137126349Y-122616342D01*
X137121365Y-122686034D01*
X137079493Y-122741967D01*
X137014029Y-122766384D01*
X137005183Y-122766700D01*
X122175217Y-122766700D01*
X122108178Y-122747015D01*
X122087536Y-122730381D01*
X120574019Y-121216864D01*
X120540534Y-121155541D01*
X120537700Y-121129183D01*
X120537700Y-115287528D01*
X120537700Y-115287527D01*
X120515381Y-115204233D01*
X120472265Y-115129553D01*
X120411290Y-115068578D01*
X118671619Y-113328907D01*
X118638134Y-113267584D01*
X118635300Y-113241226D01*
X118635300Y-112547981D01*
X118654985Y-112480942D01*
X118707789Y-112435187D01*
X118776947Y-112425243D01*
X118791389Y-112428205D01*
X118852199Y-112444500D01*
X118852200Y-112444500D01*
X118977399Y-112444500D01*
X118977401Y-112444500D01*
X119098336Y-112412095D01*
X119206764Y-112349495D01*
X119295295Y-112260964D01*
X119357895Y-112152536D01*
X119390300Y-112031601D01*
X119390300Y-112031596D01*
X119391237Y-112024484D01*
X119419502Y-111960587D01*
X119426483Y-111952998D01*
X122395670Y-108983812D01*
X122441814Y-108903888D01*
X122465700Y-108814744D01*
X122465700Y-107074154D01*
X122485385Y-107007115D01*
X122538189Y-106961360D01*
X122607347Y-106951416D01*
X122670903Y-106980441D01*
G37*
%TD.AperFunction*%
%TA.AperFunction,Conductor*%
G36*
X119175634Y-101426878D02*
G01*
X119231567Y-101468750D01*
X119255984Y-101534214D01*
X119256300Y-101543060D01*
X119256300Y-102619552D01*
X119267931Y-102678029D01*
X119267932Y-102678030D01*
X119312247Y-102744352D01*
X119378569Y-102788667D01*
X119378570Y-102788668D01*
X119437047Y-102800299D01*
X119437050Y-102800300D01*
X119740752Y-102800300D01*
X119807791Y-102819985D01*
X119853546Y-102872789D01*
X119863490Y-102941947D01*
X119834465Y-103005503D01*
X119792535Y-103035738D01*
X119792921Y-103036494D01*
X119599239Y-103135180D01*
X119545082Y-103174527D01*
X119545082Y-103174528D01*
X120177391Y-103806837D01*
X120113807Y-103823875D01*
X119999793Y-103889701D01*
X119906701Y-103982793D01*
X119840875Y-104096807D01*
X119823837Y-104160391D01*
X119191528Y-103528082D01*
X119191527Y-103528082D01*
X119152180Y-103582239D01*
X119055704Y-103771582D01*
X118990042Y-103973669D01*
X118990042Y-103973672D01*
X118956800Y-104183553D01*
X118956800Y-104396046D01*
X118990042Y-104605927D01*
X118990042Y-104605930D01*
X119055704Y-104808017D01*
X119152175Y-104997350D01*
X119191528Y-105051516D01*
X119823837Y-104419208D01*
X119840875Y-104482793D01*
X119906701Y-104596807D01*
X119999793Y-104689899D01*
X120113807Y-104755725D01*
X120177390Y-104772762D01*
X119545082Y-105405069D01*
X119545082Y-105405070D01*
X119599249Y-105444424D01*
X119788582Y-105540895D01*
X119990670Y-105606557D01*
X120200554Y-105639800D01*
X120413046Y-105639800D01*
X120622927Y-105606557D01*
X120622930Y-105606557D01*
X120825017Y-105540895D01*
X121014354Y-105444422D01*
X121068516Y-105405070D01*
X121068517Y-105405070D01*
X120436208Y-104772762D01*
X120499793Y-104755725D01*
X120613807Y-104689899D01*
X120706899Y-104596807D01*
X120772725Y-104482793D01*
X120789762Y-104419209D01*
X121422070Y-105051517D01*
X121422070Y-105051516D01*
X121461422Y-104997354D01*
X121530215Y-104862342D01*
X121578190Y-104811546D01*
X121646011Y-104794751D01*
X121712146Y-104817288D01*
X121755597Y-104872003D01*
X121764700Y-104918637D01*
X121764700Y-108572056D01*
X121745015Y-108639095D01*
X121728381Y-108659737D01*
X118930813Y-111457304D01*
X118916002Y-111465627D01*
X118905202Y-111476970D01*
X118881475Y-111485033D01*
X118872444Y-111490109D01*
X118858506Y-111493500D01*
X118852199Y-111493500D01*
X118790005Y-111510164D01*
X118788612Y-111510504D01*
X118755094Y-111508928D01*
X118721544Y-111508130D01*
X118720308Y-111507293D01*
X118718820Y-111507224D01*
X118691483Y-111487784D01*
X118663681Y-111468968D01*
X118663093Y-111467596D01*
X118661879Y-111466733D01*
X118649385Y-111435584D01*
X118636177Y-111404739D01*
X118636031Y-111402289D01*
X118635869Y-111401885D01*
X118635974Y-111401336D01*
X118635300Y-111390018D01*
X118635300Y-101916060D01*
X118654985Y-101849021D01*
X118671619Y-101828379D01*
X119044619Y-101455379D01*
X119105942Y-101421894D01*
X119175634Y-101426878D01*
G37*
%TD.AperFunction*%
%TA.AperFunction,Conductor*%
G36*
X172651829Y-80734785D02*
G01*
X172697584Y-80787589D01*
X172707528Y-80856747D01*
X172678503Y-80920303D01*
X172623108Y-80957031D01*
X172595182Y-80966104D01*
X172405839Y-81062580D01*
X172351682Y-81101927D01*
X172351682Y-81101928D01*
X172983991Y-81734237D01*
X172920407Y-81751275D01*
X172806393Y-81817101D01*
X172713301Y-81910193D01*
X172647475Y-82024207D01*
X172630437Y-82087791D01*
X171998128Y-81455482D01*
X171998127Y-81455482D01*
X171958780Y-81509639D01*
X171862305Y-81698981D01*
X171805056Y-81875174D01*
X171765618Y-81932849D01*
X171701259Y-81960047D01*
X171632413Y-81948132D01*
X171580937Y-81900888D01*
X171572564Y-81884307D01*
X171569910Y-81877900D01*
X171532807Y-81788325D01*
X171504343Y-81719605D01*
X171389375Y-81547542D01*
X171243057Y-81401224D01*
X171106978Y-81310300D01*
X171070998Y-81286259D01*
X170879820Y-81207070D01*
X170879812Y-81207068D01*
X170676869Y-81166700D01*
X170676865Y-81166700D01*
X170469935Y-81166700D01*
X170469930Y-81166700D01*
X170266987Y-81207068D01*
X170266979Y-81207070D01*
X170075803Y-81286258D01*
X169903742Y-81401224D01*
X169757424Y-81547542D01*
X169642458Y-81719603D01*
X169563270Y-81910779D01*
X169563268Y-81910787D01*
X169522900Y-82113730D01*
X169522900Y-82320669D01*
X169563268Y-82523612D01*
X169563270Y-82523620D01*
X169632308Y-82690293D01*
X169642459Y-82714798D01*
X169656236Y-82735417D01*
X169757424Y-82886857D01*
X169903742Y-83033175D01*
X169903745Y-83033177D01*
X170075802Y-83148141D01*
X170266980Y-83227330D01*
X170469930Y-83267699D01*
X170469934Y-83267700D01*
X170469935Y-83267700D01*
X170676866Y-83267700D01*
X170676867Y-83267699D01*
X170879820Y-83227330D01*
X171070998Y-83148141D01*
X171243055Y-83033177D01*
X171389377Y-82886855D01*
X171504341Y-82714798D01*
X171572565Y-82550089D01*
X171616404Y-82495688D01*
X171682698Y-82473623D01*
X171750398Y-82490902D01*
X171798009Y-82542039D01*
X171805056Y-82559226D01*
X171862304Y-82735416D01*
X171958775Y-82924750D01*
X171998128Y-82978916D01*
X172630437Y-82346608D01*
X172647475Y-82410193D01*
X172713301Y-82524207D01*
X172806393Y-82617299D01*
X172920407Y-82683125D01*
X172983990Y-82700162D01*
X172351682Y-83332469D01*
X172351682Y-83332470D01*
X172405849Y-83371824D01*
X172595182Y-83468295D01*
X172771373Y-83525543D01*
X172829048Y-83564980D01*
X172856247Y-83629339D01*
X172844332Y-83698185D01*
X172797088Y-83749661D01*
X172780508Y-83758035D01*
X172615803Y-83826257D01*
X172443742Y-83941224D01*
X172297424Y-84087542D01*
X172182458Y-84259603D01*
X172103270Y-84450779D01*
X172103268Y-84450787D01*
X172062900Y-84653730D01*
X172062900Y-84860669D01*
X172103268Y-85063612D01*
X172103270Y-85063620D01*
X172142020Y-85157170D01*
X172149489Y-85226639D01*
X172118214Y-85289119D01*
X172115140Y-85292304D01*
X171718664Y-85688781D01*
X171691736Y-85703484D01*
X171665918Y-85720077D01*
X171659717Y-85720968D01*
X171657341Y-85722266D01*
X171630983Y-85725100D01*
X171390495Y-85725100D01*
X171323456Y-85705415D01*
X171277701Y-85652611D01*
X171267757Y-85583453D01*
X171296782Y-85519897D01*
X171302814Y-85513419D01*
X171389374Y-85426858D01*
X171389375Y-85426857D01*
X171389377Y-85426855D01*
X171504341Y-85254798D01*
X171583530Y-85063620D01*
X171623900Y-84860665D01*
X171623900Y-84653735D01*
X171583530Y-84450780D01*
X171504341Y-84259602D01*
X171389377Y-84087545D01*
X171389375Y-84087542D01*
X171243057Y-83941224D01*
X171116453Y-83856631D01*
X171070998Y-83826259D01*
X171070993Y-83826257D01*
X170879820Y-83747070D01*
X170879812Y-83747068D01*
X170676869Y-83706700D01*
X170676865Y-83706700D01*
X170469935Y-83706700D01*
X170469930Y-83706700D01*
X170266987Y-83747068D01*
X170266979Y-83747070D01*
X170075803Y-83826258D01*
X169903742Y-83941224D01*
X169757424Y-84087542D01*
X169642458Y-84259603D01*
X169563270Y-84450779D01*
X169563268Y-84450787D01*
X169522900Y-84653730D01*
X169522900Y-84860669D01*
X169563268Y-85063612D01*
X169563270Y-85063620D01*
X169642459Y-85254798D01*
X169667520Y-85292304D01*
X169757424Y-85426857D01*
X169843986Y-85513419D01*
X169877471Y-85574742D01*
X169872487Y-85644434D01*
X169830615Y-85700367D01*
X169765151Y-85724784D01*
X169756305Y-85725100D01*
X160824359Y-85725100D01*
X160738127Y-85725100D01*
X160682597Y-85739979D01*
X160654832Y-85747419D01*
X160580154Y-85790534D01*
X160580151Y-85790536D01*
X154817336Y-91553351D01*
X154817334Y-91553354D01*
X154774219Y-91628032D01*
X154751900Y-91711328D01*
X154751900Y-92768279D01*
X154732215Y-92835318D01*
X154715581Y-92855960D01*
X154698906Y-92872634D01*
X154698904Y-92872637D01*
X154636305Y-92981063D01*
X154636304Y-92981066D01*
X154626051Y-93019329D01*
X154589685Y-93078989D01*
X154526837Y-93109517D01*
X154457462Y-93101220D01*
X154418596Y-93074914D01*
X153840619Y-92496937D01*
X153807134Y-92435614D01*
X153804300Y-92409256D01*
X153804300Y-88328795D01*
X155392899Y-88328795D01*
X155419818Y-88464122D01*
X155419821Y-88464132D01*
X155472621Y-88591604D01*
X155472628Y-88591617D01*
X155549285Y-88706341D01*
X155549288Y-88706345D01*
X155646854Y-88803911D01*
X155646858Y-88803914D01*
X155761582Y-88880571D01*
X155761595Y-88880578D01*
X155889067Y-88933378D01*
X155889072Y-88933380D01*
X155889076Y-88933380D01*
X155889077Y-88933381D01*
X156024404Y-88960300D01*
X156024407Y-88960300D01*
X156162395Y-88960300D01*
X156267760Y-88939341D01*
X156297728Y-88933380D01*
X156425211Y-88880575D01*
X156539942Y-88803914D01*
X156637514Y-88706342D01*
X156714175Y-88591611D01*
X156766980Y-88464128D01*
X156782788Y-88384658D01*
X156793900Y-88328795D01*
X156793900Y-87457068D01*
X156813585Y-87390029D01*
X156866389Y-87344274D01*
X156935547Y-87334330D01*
X156999103Y-87363355D01*
X157029587Y-87405631D01*
X157029648Y-87405597D01*
X157029991Y-87406191D01*
X157032462Y-87409618D01*
X157033712Y-87412636D01*
X157102892Y-87532461D01*
X157102894Y-87532464D01*
X157102895Y-87532465D01*
X157200735Y-87630305D01*
X157200736Y-87630306D01*
X157200738Y-87630307D01*
X157252688Y-87660300D01*
X157320564Y-87699488D01*
X157454217Y-87735300D01*
X157454219Y-87735300D01*
X157592581Y-87735300D01*
X157592583Y-87735300D01*
X157726236Y-87699488D01*
X157846065Y-87630305D01*
X157943905Y-87532465D01*
X158013088Y-87412636D01*
X158048900Y-87278983D01*
X158048900Y-87140617D01*
X158013088Y-87006964D01*
X157960283Y-86915503D01*
X157943907Y-86887138D01*
X157943903Y-86887133D01*
X157846066Y-86789296D01*
X157846061Y-86789292D01*
X157726238Y-86720113D01*
X157726237Y-86720112D01*
X157726236Y-86720112D01*
X157592583Y-86684300D01*
X157454217Y-86684300D01*
X157320564Y-86720112D01*
X157320561Y-86720113D01*
X157200738Y-86789292D01*
X157200733Y-86789296D01*
X157102896Y-86887133D01*
X157102892Y-86887138D01*
X157033713Y-87006961D01*
X157033710Y-87006968D01*
X157024144Y-87042670D01*
X156987779Y-87102330D01*
X156924932Y-87132858D01*
X156855556Y-87124563D01*
X156801679Y-87080077D01*
X156782753Y-87034766D01*
X156770800Y-86974678D01*
X156766980Y-86955472D01*
X156753108Y-86921981D01*
X156714178Y-86827995D01*
X156714171Y-86827982D01*
X156637514Y-86713258D01*
X156637511Y-86713254D01*
X156539945Y-86615688D01*
X156539941Y-86615685D01*
X156425217Y-86539028D01*
X156425204Y-86539021D01*
X156297732Y-86486221D01*
X156297722Y-86486218D01*
X156162395Y-86459300D01*
X156162393Y-86459300D01*
X156024407Y-86459300D01*
X156024405Y-86459300D01*
X155889077Y-86486218D01*
X155889067Y-86486221D01*
X155761595Y-86539021D01*
X155761582Y-86539028D01*
X155646858Y-86615685D01*
X155646854Y-86615688D01*
X155549288Y-86713254D01*
X155549285Y-86713258D01*
X155472628Y-86827982D01*
X155472621Y-86827995D01*
X155419821Y-86955467D01*
X155419818Y-86955477D01*
X155392900Y-87090804D01*
X155392900Y-87090807D01*
X155392900Y-88328793D01*
X155392900Y-88328795D01*
X155392899Y-88328795D01*
X153804300Y-88328795D01*
X153804300Y-83998795D01*
X155392899Y-83998795D01*
X155419818Y-84134122D01*
X155419821Y-84134132D01*
X155472621Y-84261604D01*
X155472628Y-84261617D01*
X155549285Y-84376341D01*
X155549288Y-84376345D01*
X155646854Y-84473911D01*
X155646858Y-84473914D01*
X155761582Y-84550571D01*
X155761595Y-84550578D01*
X155868853Y-84595005D01*
X155889072Y-84603380D01*
X155889076Y-84603380D01*
X155889077Y-84603381D01*
X156024404Y-84630300D01*
X156024407Y-84630300D01*
X156162395Y-84630300D01*
X156253441Y-84612189D01*
X156297728Y-84603380D01*
X156425211Y-84550575D01*
X156539942Y-84473914D01*
X156637514Y-84376342D01*
X156714175Y-84261611D01*
X156766980Y-84134128D01*
X156793900Y-83998795D01*
X164032899Y-83998795D01*
X164059818Y-84134122D01*
X164059821Y-84134132D01*
X164112621Y-84261604D01*
X164112628Y-84261617D01*
X164189285Y-84376341D01*
X164189288Y-84376345D01*
X164286854Y-84473911D01*
X164286858Y-84473914D01*
X164401582Y-84550571D01*
X164401595Y-84550578D01*
X164508853Y-84595005D01*
X164529072Y-84603380D01*
X164529076Y-84603380D01*
X164529077Y-84603381D01*
X164664404Y-84630300D01*
X164664407Y-84630300D01*
X164802395Y-84630300D01*
X164893441Y-84612189D01*
X164937728Y-84603380D01*
X165065211Y-84550575D01*
X165179942Y-84473914D01*
X165277514Y-84376342D01*
X165354175Y-84261611D01*
X165406980Y-84134128D01*
X165433900Y-83998793D01*
X165433900Y-83060807D01*
X165433900Y-83060804D01*
X165406981Y-82925477D01*
X165406980Y-82925476D01*
X165406980Y-82925472D01*
X165406681Y-82924750D01*
X165354178Y-82797995D01*
X165354171Y-82797982D01*
X165277514Y-82683258D01*
X165277511Y-82683254D01*
X165179945Y-82585688D01*
X165179941Y-82585685D01*
X165065217Y-82509028D01*
X165065204Y-82509021D01*
X164937732Y-82456221D01*
X164937722Y-82456218D01*
X164802395Y-82429300D01*
X164802393Y-82429300D01*
X164664407Y-82429300D01*
X164664405Y-82429300D01*
X164529077Y-82456218D01*
X164529067Y-82456221D01*
X164401595Y-82509021D01*
X164401582Y-82509028D01*
X164286858Y-82585685D01*
X164286854Y-82585688D01*
X164189288Y-82683254D01*
X164189285Y-82683258D01*
X164112628Y-82797982D01*
X164112621Y-82797995D01*
X164059821Y-82925467D01*
X164059818Y-82925477D01*
X164032900Y-83060804D01*
X164032900Y-83060807D01*
X164032900Y-83998793D01*
X164032900Y-83998795D01*
X164032899Y-83998795D01*
X156793900Y-83998795D01*
X156793900Y-83998793D01*
X156793900Y-83060807D01*
X156793900Y-83060804D01*
X156766981Y-82925477D01*
X156766980Y-82925476D01*
X156766980Y-82925472D01*
X156766681Y-82924750D01*
X156714178Y-82797995D01*
X156714171Y-82797982D01*
X156637514Y-82683258D01*
X156637511Y-82683254D01*
X156539945Y-82585688D01*
X156539941Y-82585685D01*
X156425217Y-82509028D01*
X156425204Y-82509021D01*
X156297732Y-82456221D01*
X156297722Y-82456218D01*
X156162395Y-82429300D01*
X156162393Y-82429300D01*
X156024407Y-82429300D01*
X156024405Y-82429300D01*
X155889077Y-82456218D01*
X155889067Y-82456221D01*
X155761595Y-82509021D01*
X155761582Y-82509028D01*
X155646858Y-82585685D01*
X155646854Y-82585688D01*
X155549288Y-82683254D01*
X155549285Y-82683258D01*
X155472628Y-82797982D01*
X155472621Y-82797995D01*
X155419821Y-82925467D01*
X155419818Y-82925477D01*
X155392900Y-83060804D01*
X155392900Y-83060807D01*
X155392900Y-83998793D01*
X155392900Y-83998795D01*
X155392899Y-83998795D01*
X153804300Y-83998795D01*
X153804300Y-83998258D01*
X153804300Y-83998256D01*
X153780414Y-83909112D01*
X153772676Y-83895710D01*
X153772676Y-83895709D01*
X153772674Y-83895707D01*
X153734278Y-83829201D01*
X153734272Y-83829191D01*
X153734268Y-83829186D01*
X151857019Y-81951937D01*
X151823534Y-81890614D01*
X151820700Y-81864256D01*
X151820700Y-81788327D01*
X151820700Y-81788325D01*
X151783184Y-81648315D01*
X151761167Y-81610181D01*
X151710711Y-81522788D01*
X151710706Y-81522782D01*
X151608217Y-81420293D01*
X151608211Y-81420288D01*
X151482688Y-81347817D01*
X151482689Y-81347817D01*
X151471206Y-81344740D01*
X151342675Y-81310300D01*
X151197725Y-81310300D01*
X151069193Y-81344740D01*
X151057711Y-81347817D01*
X150932188Y-81420288D01*
X150932182Y-81420293D01*
X150829693Y-81522782D01*
X150829688Y-81522788D01*
X150757217Y-81648311D01*
X150757216Y-81648315D01*
X150719700Y-81788325D01*
X150719700Y-81933275D01*
X150753295Y-82058652D01*
X150757217Y-82073288D01*
X150829688Y-82198811D01*
X150829690Y-82198813D01*
X150829691Y-82198815D01*
X150932185Y-82301309D01*
X150932186Y-82301310D01*
X150932188Y-82301311D01*
X151057711Y-82373782D01*
X151057712Y-82373782D01*
X151057715Y-82373784D01*
X151061586Y-82374821D01*
X151066081Y-82376026D01*
X151125741Y-82412391D01*
X151156269Y-82475239D01*
X151147974Y-82544614D01*
X151103488Y-82598491D01*
X151066081Y-82615574D01*
X151057716Y-82617815D01*
X151057711Y-82617817D01*
X150932188Y-82690288D01*
X150932182Y-82690293D01*
X150829693Y-82792782D01*
X150829688Y-82792788D01*
X150757217Y-82918311D01*
X150757216Y-82918315D01*
X150719700Y-83058325D01*
X150719700Y-83203275D01*
X150743233Y-83291100D01*
X150757217Y-83343288D01*
X150829688Y-83468811D01*
X150829690Y-83468813D01*
X150829691Y-83468815D01*
X150932185Y-83571309D01*
X150932186Y-83571310D01*
X150932188Y-83571311D01*
X151057711Y-83643782D01*
X151057712Y-83643782D01*
X151057715Y-83643784D01*
X151197725Y-83681300D01*
X151273656Y-83681300D01*
X151340695Y-83700985D01*
X151361337Y-83717619D01*
X152330381Y-84686663D01*
X152363866Y-84747986D01*
X152366700Y-84774344D01*
X152366700Y-87242256D01*
X152347015Y-87309295D01*
X152294211Y-87355050D01*
X152225053Y-87364994D01*
X152161497Y-87335969D01*
X152155019Y-87329937D01*
X151857019Y-87031937D01*
X151823534Y-86970614D01*
X151820700Y-86944256D01*
X151820700Y-86868327D01*
X151820700Y-86868325D01*
X151783184Y-86728315D01*
X151774419Y-86713134D01*
X151710711Y-86602788D01*
X151710706Y-86602782D01*
X151608217Y-86500293D01*
X151608211Y-86500288D01*
X151482688Y-86427817D01*
X151482689Y-86427817D01*
X151440151Y-86416419D01*
X151342675Y-86390300D01*
X151197725Y-86390300D01*
X151100249Y-86416419D01*
X151057711Y-86427817D01*
X150932188Y-86500288D01*
X150932182Y-86500293D01*
X150829693Y-86602782D01*
X150829688Y-86602788D01*
X150757217Y-86728311D01*
X150756251Y-86731915D01*
X150719700Y-86868325D01*
X150719700Y-87013275D01*
X150746836Y-87114547D01*
X150757217Y-87153288D01*
X150829688Y-87278811D01*
X150829690Y-87278813D01*
X150829691Y-87278815D01*
X150932185Y-87381309D01*
X150932186Y-87381310D01*
X150932188Y-87381311D01*
X151057711Y-87453782D01*
X151057712Y-87453782D01*
X151057715Y-87453784D01*
X151061586Y-87454821D01*
X151066081Y-87456026D01*
X151125741Y-87492391D01*
X151156269Y-87555239D01*
X151147974Y-87624614D01*
X151103488Y-87678491D01*
X151066081Y-87695574D01*
X151057716Y-87697815D01*
X151057711Y-87697817D01*
X150932188Y-87770288D01*
X150932182Y-87770293D01*
X150829693Y-87872782D01*
X150829688Y-87872788D01*
X150757217Y-87998311D01*
X150757216Y-87998315D01*
X150719700Y-88138325D01*
X150719700Y-88283275D01*
X150757216Y-88423285D01*
X150757217Y-88423288D01*
X150829688Y-88548811D01*
X150829693Y-88548817D01*
X150883381Y-88602505D01*
X150916866Y-88663828D01*
X150919700Y-88690186D01*
X150919700Y-93770344D01*
X150940101Y-93846479D01*
X150943586Y-93859487D01*
X150943587Y-93859490D01*
X150989727Y-93939408D01*
X150989731Y-93939413D01*
X151128636Y-94078318D01*
X151162121Y-94139641D01*
X151157137Y-94209333D01*
X151115265Y-94265266D01*
X151062167Y-94286893D01*
X151062249Y-94287197D01*
X151059833Y-94287844D01*
X151057153Y-94288936D01*
X151054410Y-94289297D01*
X150933463Y-94321705D01*
X150825037Y-94384304D01*
X150825034Y-94384306D01*
X150736506Y-94472834D01*
X150736504Y-94472837D01*
X150673905Y-94581263D01*
X150670028Y-94595734D01*
X150641500Y-94702199D01*
X150641500Y-94827401D01*
X150673905Y-94948336D01*
X150690618Y-94977285D01*
X150736504Y-95056762D01*
X150736506Y-95056765D01*
X150753181Y-95073440D01*
X150786666Y-95134763D01*
X150789500Y-95161121D01*
X150789500Y-100196339D01*
X150769815Y-100263378D01*
X150753181Y-100284020D01*
X146813184Y-104224016D01*
X146751861Y-104257501D01*
X146682169Y-104252517D01*
X146626236Y-104210645D01*
X146601819Y-104145181D01*
X146605728Y-104104242D01*
X146614100Y-104073001D01*
X146614100Y-103947799D01*
X146581695Y-103826864D01*
X146519095Y-103718436D01*
X146502419Y-103701760D01*
X146468934Y-103640437D01*
X146466100Y-103614079D01*
X146466100Y-101358721D01*
X146485785Y-101291682D01*
X146502419Y-101271040D01*
X146519095Y-101254364D01*
X146581695Y-101145936D01*
X146614100Y-101025001D01*
X146614100Y-100899799D01*
X146581695Y-100778864D01*
X146519095Y-100670436D01*
X146430564Y-100581905D01*
X146322136Y-100519305D01*
X146322137Y-100519305D01*
X146281824Y-100508503D01*
X146201201Y-100486900D01*
X146075999Y-100486900D01*
X145995375Y-100508503D01*
X145955063Y-100519305D01*
X145846637Y-100581904D01*
X145846634Y-100581906D01*
X145758106Y-100670434D01*
X145758104Y-100670437D01*
X145695505Y-100778863D01*
X145695505Y-100778864D01*
X145663100Y-100899799D01*
X145663100Y-101025001D01*
X145695505Y-101145936D01*
X145752158Y-101244064D01*
X145758104Y-101254362D01*
X145758106Y-101254365D01*
X145774781Y-101271040D01*
X145808266Y-101332363D01*
X145811100Y-101358721D01*
X145811100Y-103614079D01*
X145791415Y-103681118D01*
X145774781Y-103701760D01*
X145758106Y-103718434D01*
X145758104Y-103718437D01*
X145695505Y-103826863D01*
X145687542Y-103856581D01*
X145663100Y-103947799D01*
X145663100Y-104073001D01*
X145695505Y-104193936D01*
X145758105Y-104302364D01*
X145846636Y-104390895D01*
X145955064Y-104453495D01*
X146075999Y-104485900D01*
X146076001Y-104485900D01*
X146201200Y-104485900D01*
X146201201Y-104485900D01*
X146232441Y-104477529D01*
X146302289Y-104479190D01*
X146360152Y-104518351D01*
X146387658Y-104582579D01*
X146376073Y-104651482D01*
X146352216Y-104684984D01*
X140853021Y-110184180D01*
X140791698Y-110217665D01*
X140765340Y-110220499D01*
X134284709Y-110220499D01*
X134217670Y-110200814D01*
X134171915Y-110148010D01*
X134161971Y-110078852D01*
X134164931Y-110064417D01*
X134193500Y-109957800D01*
X134193500Y-109832598D01*
X134178547Y-109776793D01*
X134180209Y-109706944D01*
X134219370Y-109649081D01*
X134283599Y-109621576D01*
X134298321Y-109620699D01*
X135704123Y-109620699D01*
X135704125Y-109620699D01*
X135787419Y-109598380D01*
X135862099Y-109555264D01*
X136041965Y-109375398D01*
X139186100Y-109375398D01*
X139186100Y-109500600D01*
X139218505Y-109621535D01*
X139281105Y-109729963D01*
X139369636Y-109818494D01*
X139478064Y-109881094D01*
X139598999Y-109913499D01*
X139599001Y-109913499D01*
X139724199Y-109913499D01*
X139724201Y-109913499D01*
X139845136Y-109881094D01*
X139953564Y-109818494D01*
X140014421Y-109757636D01*
X140075740Y-109724154D01*
X140145432Y-109729138D01*
X140189780Y-109757639D01*
X140207836Y-109775695D01*
X140316264Y-109838295D01*
X140437199Y-109870700D01*
X140437201Y-109870700D01*
X140562399Y-109870700D01*
X140562401Y-109870700D01*
X140683336Y-109838295D01*
X140791764Y-109775695D01*
X140880295Y-109687164D01*
X140942895Y-109578736D01*
X140975300Y-109457801D01*
X140975300Y-109408587D01*
X140991913Y-109346587D01*
X141000210Y-109332216D01*
X141008181Y-109318410D01*
X141030500Y-109235116D01*
X141030500Y-109148884D01*
X141030500Y-99904817D01*
X141050185Y-99837778D01*
X141066819Y-99817136D01*
X142686336Y-98197619D01*
X142747659Y-98164134D01*
X142774017Y-98161300D01*
X142797599Y-98161300D01*
X142797601Y-98161300D01*
X142918536Y-98128895D01*
X143026964Y-98066295D01*
X143115495Y-97977764D01*
X143178095Y-97869336D01*
X143210500Y-97748401D01*
X143210500Y-97623199D01*
X143178095Y-97502264D01*
X143115495Y-97393836D01*
X143026964Y-97305305D01*
X142918536Y-97242705D01*
X142918537Y-97242705D01*
X142853058Y-97225160D01*
X142797601Y-97210300D01*
X142672399Y-97210300D01*
X142616942Y-97225160D01*
X142551463Y-97242705D01*
X142443037Y-97305304D01*
X142443034Y-97305306D01*
X142354506Y-97393834D01*
X142354502Y-97393839D01*
X142321687Y-97450678D01*
X142271120Y-97498894D01*
X142202513Y-97512117D01*
X142137648Y-97486149D01*
X142106913Y-97450678D01*
X142074097Y-97393839D01*
X142074096Y-97393837D01*
X142074095Y-97393836D01*
X141985564Y-97305305D01*
X141877136Y-97242705D01*
X141877137Y-97242705D01*
X141811658Y-97225160D01*
X141756201Y-97210300D01*
X141630999Y-97210300D01*
X141575542Y-97225160D01*
X141510063Y-97242705D01*
X141401637Y-97305304D01*
X141401634Y-97305306D01*
X141313106Y-97393834D01*
X141313104Y-97393837D01*
X141250505Y-97502263D01*
X141250505Y-97502264D01*
X141218305Y-97622436D01*
X141218100Y-97623200D01*
X141218100Y-97646783D01*
X141198415Y-97713822D01*
X141181781Y-97734464D01*
X139399536Y-99516708D01*
X139399534Y-99516711D01*
X139356419Y-99591389D01*
X139334100Y-99674685D01*
X139334100Y-109041678D01*
X139314415Y-109108717D01*
X139297781Y-109129359D01*
X139281106Y-109146033D01*
X139281104Y-109146036D01*
X139218505Y-109254462D01*
X139218505Y-109254463D01*
X139186100Y-109375398D01*
X136041965Y-109375398D01*
X137753865Y-107663498D01*
X137796981Y-107588819D01*
X137819300Y-107505524D01*
X137819300Y-107419292D01*
X137819300Y-104345483D01*
X137796981Y-104262189D01*
X137753865Y-104187509D01*
X137692890Y-104126534D01*
X136862719Y-103296363D01*
X136829234Y-103235040D01*
X136826400Y-103208682D01*
X136826400Y-103185099D01*
X136826400Y-103185098D01*
X136793995Y-103064163D01*
X136731395Y-102955735D01*
X136642864Y-102867204D01*
X136534436Y-102804604D01*
X136534437Y-102804604D01*
X136474959Y-102788667D01*
X136413501Y-102772199D01*
X136288299Y-102772199D01*
X136226841Y-102788667D01*
X136167363Y-102804604D01*
X136058937Y-102867203D01*
X136058934Y-102867205D01*
X135970406Y-102955733D01*
X135970404Y-102955736D01*
X135907805Y-103064162D01*
X135896112Y-103107801D01*
X135875400Y-103185098D01*
X135875400Y-103310300D01*
X135907805Y-103431235D01*
X135970405Y-103539663D01*
X136058936Y-103628194D01*
X136167364Y-103690794D01*
X136288299Y-103723199D01*
X136311883Y-103723199D01*
X136378922Y-103742884D01*
X136399564Y-103759518D01*
X137127981Y-104487935D01*
X137161466Y-104549258D01*
X137164300Y-104575616D01*
X137164300Y-105285844D01*
X137144615Y-105352883D01*
X137091811Y-105398638D01*
X137022653Y-105408582D01*
X136959097Y-105379557D01*
X136921323Y-105320779D01*
X136920526Y-105317940D01*
X136919668Y-105314738D01*
X136916995Y-105304763D01*
X136854395Y-105196335D01*
X136765864Y-105107804D01*
X136657436Y-105045204D01*
X136657437Y-105045204D01*
X136617124Y-105034402D01*
X136536501Y-105012799D01*
X136536499Y-105012799D01*
X136512917Y-105012799D01*
X136445878Y-104993114D01*
X136425236Y-104976480D01*
X135047019Y-103598263D01*
X135013534Y-103536940D01*
X135010700Y-103510582D01*
X135010700Y-96602816D01*
X135030385Y-96535777D01*
X135047014Y-96515139D01*
X136210535Y-95351618D01*
X136271858Y-95318134D01*
X136298216Y-95315300D01*
X136406672Y-95315300D01*
X136406675Y-95315300D01*
X136546685Y-95277784D01*
X136672215Y-95205309D01*
X136774709Y-95102815D01*
X136847184Y-94977285D01*
X136884700Y-94837275D01*
X136884700Y-94692325D01*
X136847184Y-94552315D01*
X136845134Y-94548765D01*
X136774711Y-94426788D01*
X136774706Y-94426782D01*
X136672217Y-94324293D01*
X136672211Y-94324288D01*
X136546688Y-94251817D01*
X136546689Y-94251817D01*
X136535206Y-94248740D01*
X136406675Y-94214300D01*
X136261725Y-94214300D01*
X136133193Y-94248740D01*
X136121711Y-94251817D01*
X135996188Y-94324288D01*
X135996182Y-94324293D01*
X135893693Y-94426782D01*
X135893688Y-94426788D01*
X135821217Y-94552311D01*
X135821216Y-94552315D01*
X135783700Y-94692325D01*
X135783700Y-94692327D01*
X135783700Y-94800782D01*
X135764015Y-94867821D01*
X135747381Y-94888463D01*
X134545381Y-96090463D01*
X134484058Y-96123948D01*
X134414366Y-96118964D01*
X134358433Y-96077092D01*
X134334016Y-96011628D01*
X134333700Y-96002782D01*
X134333700Y-95306755D01*
X134353385Y-95239716D01*
X134382212Y-95208380D01*
X134386207Y-95205313D01*
X134386215Y-95205309D01*
X134488709Y-95102815D01*
X134561184Y-94977285D01*
X134598700Y-94837275D01*
X134598700Y-94692325D01*
X134561184Y-94552315D01*
X134559134Y-94548765D01*
X134488711Y-94426788D01*
X134488706Y-94426782D01*
X134386217Y-94324293D01*
X134386211Y-94324288D01*
X134260688Y-94251817D01*
X134260689Y-94251817D01*
X134249206Y-94248740D01*
X134120675Y-94214300D01*
X133975725Y-94214300D01*
X133847193Y-94248740D01*
X133835711Y-94251817D01*
X133710188Y-94324288D01*
X133710182Y-94324293D01*
X133607693Y-94426782D01*
X133607688Y-94426788D01*
X133535217Y-94552311D01*
X133535216Y-94552315D01*
X133497700Y-94692325D01*
X133497700Y-94837275D01*
X133530248Y-94958745D01*
X133535217Y-94977288D01*
X133607688Y-95102811D01*
X133607693Y-95102817D01*
X133642381Y-95137505D01*
X133675866Y-95198828D01*
X133678700Y-95225186D01*
X133678700Y-104552283D01*
X133678700Y-104638515D01*
X133701019Y-104721809D01*
X133738483Y-104786700D01*
X133744134Y-104796487D01*
X133744136Y-104796490D01*
X135212865Y-106265219D01*
X135246350Y-106326542D01*
X135241366Y-106396234D01*
X135199494Y-106452167D01*
X135134030Y-106476584D01*
X135125184Y-106476900D01*
X123522521Y-106476900D01*
X123455482Y-106457215D01*
X123434840Y-106440581D01*
X123418165Y-106423906D01*
X123418164Y-106423905D01*
X123309736Y-106361305D01*
X123309737Y-106361305D01*
X123269424Y-106350503D01*
X123188801Y-106328900D01*
X123063599Y-106328900D01*
X122982975Y-106350503D01*
X122942663Y-106361305D01*
X122834237Y-106423904D01*
X122834234Y-106423906D01*
X122745706Y-106512434D01*
X122745702Y-106512439D01*
X122697087Y-106596645D01*
X122646521Y-106644860D01*
X122577914Y-106658084D01*
X122513049Y-106632116D01*
X122472520Y-106575202D01*
X122465700Y-106534645D01*
X122465700Y-98297144D01*
X122485385Y-98230105D01*
X122502019Y-98209463D01*
X128574063Y-92137419D01*
X128635386Y-92103934D01*
X128661744Y-92101100D01*
X139321056Y-92101100D01*
X139388095Y-92120785D01*
X139408737Y-92137419D01*
X139911904Y-92640586D01*
X139945389Y-92701909D01*
X139947161Y-92712076D01*
X139948098Y-92719193D01*
X139948100Y-92719199D01*
X139948100Y-92719201D01*
X139980505Y-92840136D01*
X140043105Y-92948564D01*
X140131636Y-93037095D01*
X140240064Y-93099695D01*
X140360999Y-93132100D01*
X140361001Y-93132100D01*
X140486199Y-93132100D01*
X140486201Y-93132100D01*
X140607136Y-93099695D01*
X140715564Y-93037095D01*
X140804095Y-92948564D01*
X140866695Y-92840136D01*
X140899100Y-92719201D01*
X140899100Y-92631744D01*
X140905338Y-92610498D01*
X140906918Y-92588410D01*
X140914990Y-92577626D01*
X140918785Y-92564705D01*
X140935518Y-92550205D01*
X140948790Y-92532477D01*
X140961410Y-92527769D01*
X140971589Y-92518950D01*
X140993506Y-92515798D01*
X141014254Y-92508060D01*
X141027414Y-92510922D01*
X141040747Y-92509006D01*
X141060890Y-92518205D01*
X141082527Y-92522912D01*
X141100252Y-92536180D01*
X141104303Y-92538031D01*
X141110781Y-92544063D01*
X141207304Y-92640586D01*
X141240789Y-92701909D01*
X141242561Y-92712076D01*
X141243498Y-92719193D01*
X141243500Y-92719199D01*
X141243500Y-92719201D01*
X141275905Y-92840136D01*
X141338505Y-92948564D01*
X141427036Y-93037095D01*
X141535464Y-93099695D01*
X141656399Y-93132100D01*
X141656401Y-93132100D01*
X141781599Y-93132100D01*
X141781601Y-93132100D01*
X141902536Y-93099695D01*
X142010964Y-93037095D01*
X142099495Y-92948564D01*
X142162095Y-92840136D01*
X142194500Y-92719201D01*
X142194500Y-92650017D01*
X142200738Y-92628771D01*
X142202318Y-92606683D01*
X142210390Y-92595899D01*
X142214185Y-92582978D01*
X142230918Y-92568478D01*
X142244190Y-92550750D01*
X142256810Y-92546042D01*
X142266989Y-92537223D01*
X142288906Y-92534071D01*
X142309654Y-92526333D01*
X142322814Y-92529195D01*
X142336147Y-92527279D01*
X142356290Y-92536478D01*
X142377927Y-92541185D01*
X142395652Y-92554453D01*
X142399703Y-92556304D01*
X142406181Y-92562336D01*
X142451781Y-92607936D01*
X142485266Y-92669259D01*
X142488100Y-92695617D01*
X142488100Y-92719201D01*
X142520505Y-92840136D01*
X142583105Y-92948564D01*
X142671636Y-93037095D01*
X142780064Y-93099695D01*
X142900999Y-93132100D01*
X142901001Y-93132100D01*
X143026199Y-93132100D01*
X143026201Y-93132100D01*
X143147136Y-93099695D01*
X143255564Y-93037095D01*
X143344095Y-92948564D01*
X143406695Y-92840136D01*
X143439100Y-92719201D01*
X143439100Y-92624617D01*
X143445338Y-92603371D01*
X143446918Y-92581283D01*
X143454990Y-92570499D01*
X143458785Y-92557578D01*
X143475518Y-92543078D01*
X143488790Y-92525350D01*
X143501410Y-92520642D01*
X143511589Y-92511823D01*
X143533506Y-92508671D01*
X143554254Y-92500933D01*
X143567414Y-92503795D01*
X143580747Y-92501879D01*
X143600890Y-92511078D01*
X143622527Y-92515785D01*
X143640252Y-92529053D01*
X143644303Y-92530904D01*
X143650781Y-92536936D01*
X143721781Y-92607936D01*
X143755266Y-92669259D01*
X143758100Y-92695617D01*
X143758100Y-92719201D01*
X143790505Y-92840136D01*
X143853105Y-92948564D01*
X143941636Y-93037095D01*
X144050064Y-93099695D01*
X144170999Y-93132100D01*
X144171001Y-93132100D01*
X144296199Y-93132100D01*
X144296201Y-93132100D01*
X144417136Y-93099695D01*
X144525564Y-93037095D01*
X144614095Y-92948564D01*
X144676695Y-92840136D01*
X144709100Y-92719201D01*
X144709100Y-92624617D01*
X144715338Y-92603371D01*
X144716918Y-92581283D01*
X144724990Y-92570499D01*
X144728785Y-92557578D01*
X144745518Y-92543078D01*
X144758790Y-92525350D01*
X144771410Y-92520642D01*
X144781589Y-92511823D01*
X144803506Y-92508671D01*
X144824254Y-92500933D01*
X144837414Y-92503795D01*
X144850747Y-92501879D01*
X144870890Y-92511078D01*
X144892527Y-92515785D01*
X144910252Y-92529053D01*
X144914303Y-92530904D01*
X144920781Y-92536936D01*
X144991781Y-92607936D01*
X145025266Y-92669259D01*
X145028100Y-92695617D01*
X145028100Y-92719201D01*
X145060505Y-92840136D01*
X145123105Y-92948564D01*
X145211636Y-93037095D01*
X145320064Y-93099695D01*
X145440999Y-93132100D01*
X145441001Y-93132100D01*
X145566199Y-93132100D01*
X145566201Y-93132100D01*
X145687136Y-93099695D01*
X145795564Y-93037095D01*
X145884095Y-92948564D01*
X145946695Y-92840136D01*
X145979100Y-92719201D01*
X145979100Y-92593999D01*
X145946695Y-92473064D01*
X145884095Y-92364636D01*
X145795564Y-92276105D01*
X145687136Y-92213505D01*
X145687137Y-92213505D01*
X145646824Y-92202703D01*
X145566201Y-92181100D01*
X145566199Y-92181100D01*
X145542617Y-92181100D01*
X145475578Y-92161415D01*
X145454936Y-92144781D01*
X141756136Y-88445981D01*
X141722651Y-88384658D01*
X141727635Y-88314966D01*
X141769507Y-88259033D01*
X141834971Y-88234616D01*
X141843817Y-88234300D01*
X142598783Y-88234300D01*
X142665822Y-88253985D01*
X142686464Y-88270619D01*
X145753781Y-91337936D01*
X145787266Y-91399259D01*
X145790100Y-91425617D01*
X145790100Y-91449201D01*
X145822505Y-91570136D01*
X145885105Y-91678564D01*
X145973636Y-91767095D01*
X146082064Y-91829695D01*
X146202999Y-91862100D01*
X146203001Y-91862100D01*
X146328199Y-91862100D01*
X146328201Y-91862100D01*
X146449136Y-91829695D01*
X146557564Y-91767095D01*
X146646095Y-91678564D01*
X146708695Y-91570136D01*
X146741100Y-91449201D01*
X146741100Y-91323999D01*
X146708695Y-91203064D01*
X146646095Y-91094636D01*
X146557564Y-91006105D01*
X146449136Y-90943505D01*
X146449137Y-90943505D01*
X146408824Y-90932703D01*
X146328201Y-90911100D01*
X146328199Y-90911100D01*
X146304617Y-90911100D01*
X146275176Y-90902455D01*
X146245190Y-90895932D01*
X146240174Y-90892177D01*
X146237578Y-90891415D01*
X146216936Y-90874781D01*
X146145936Y-90803781D01*
X146112451Y-90742458D01*
X146117435Y-90672766D01*
X146159307Y-90616833D01*
X146224771Y-90592416D01*
X146233617Y-90592100D01*
X146328199Y-90592100D01*
X146328201Y-90592100D01*
X146449136Y-90559695D01*
X146557564Y-90497095D01*
X146646095Y-90408564D01*
X146708695Y-90300136D01*
X146741100Y-90179201D01*
X146741100Y-90053999D01*
X146708695Y-89933064D01*
X146646095Y-89824636D01*
X146557564Y-89736105D01*
X146449136Y-89673505D01*
X146449137Y-89673505D01*
X146408824Y-89662703D01*
X146328201Y-89641100D01*
X146328199Y-89641100D01*
X146304617Y-89641100D01*
X146275176Y-89632455D01*
X146245190Y-89625932D01*
X146240174Y-89622177D01*
X146237578Y-89621415D01*
X146216936Y-89604781D01*
X146145936Y-89533781D01*
X146112451Y-89472458D01*
X146117435Y-89402766D01*
X146159307Y-89346833D01*
X146224771Y-89322416D01*
X146233617Y-89322100D01*
X146328199Y-89322100D01*
X146328201Y-89322100D01*
X146449136Y-89289695D01*
X146557564Y-89227095D01*
X146646095Y-89138564D01*
X146708695Y-89030136D01*
X146741100Y-88909201D01*
X146741100Y-88783999D01*
X146708695Y-88663064D01*
X146646095Y-88554636D01*
X146557564Y-88466105D01*
X146449136Y-88403505D01*
X146449137Y-88403505D01*
X146378799Y-88384658D01*
X146328201Y-88371100D01*
X146328199Y-88371100D01*
X146304617Y-88371100D01*
X146275176Y-88362455D01*
X146245190Y-88355932D01*
X146240174Y-88352177D01*
X146237578Y-88351415D01*
X146216936Y-88334781D01*
X146145936Y-88263781D01*
X146112451Y-88202458D01*
X146117435Y-88132766D01*
X146159307Y-88076833D01*
X146224771Y-88052416D01*
X146233617Y-88052100D01*
X146328199Y-88052100D01*
X146328201Y-88052100D01*
X146449136Y-88019695D01*
X146557564Y-87957095D01*
X146646095Y-87868564D01*
X146708695Y-87760136D01*
X146741100Y-87639201D01*
X146741100Y-87513999D01*
X146708695Y-87393064D01*
X146646095Y-87284636D01*
X146557564Y-87196105D01*
X146449136Y-87133505D01*
X146449137Y-87133505D01*
X146408824Y-87122703D01*
X146328201Y-87101100D01*
X146328199Y-87101100D01*
X146304617Y-87101100D01*
X146275176Y-87092455D01*
X146245190Y-87085932D01*
X146240174Y-87082177D01*
X146237578Y-87081415D01*
X146216936Y-87064781D01*
X146145936Y-86993781D01*
X146112451Y-86932458D01*
X146117435Y-86862766D01*
X146159307Y-86806833D01*
X146224771Y-86782416D01*
X146233617Y-86782100D01*
X146328199Y-86782100D01*
X146328201Y-86782100D01*
X146449136Y-86749695D01*
X146557564Y-86687095D01*
X146646095Y-86598564D01*
X146708695Y-86490136D01*
X146741100Y-86369201D01*
X146741100Y-86243999D01*
X146708695Y-86123064D01*
X146646095Y-86014636D01*
X146557564Y-85926105D01*
X146449136Y-85863505D01*
X146449137Y-85863505D01*
X146408824Y-85852703D01*
X146328201Y-85831100D01*
X146328199Y-85831100D01*
X146304617Y-85831100D01*
X146275176Y-85822455D01*
X146245190Y-85815932D01*
X146240174Y-85812177D01*
X146237578Y-85811415D01*
X146216936Y-85794781D01*
X146145936Y-85723781D01*
X146112451Y-85662458D01*
X146117435Y-85592766D01*
X146159307Y-85536833D01*
X146224771Y-85512416D01*
X146233617Y-85512100D01*
X146328199Y-85512100D01*
X146328201Y-85512100D01*
X146449136Y-85479695D01*
X146557564Y-85417095D01*
X146646095Y-85328564D01*
X146708695Y-85220136D01*
X146741100Y-85099201D01*
X146741100Y-84973999D01*
X146708695Y-84853064D01*
X146646095Y-84744636D01*
X146557564Y-84656105D01*
X146449136Y-84593505D01*
X146449137Y-84593505D01*
X146408824Y-84582703D01*
X146328201Y-84561100D01*
X146328199Y-84561100D01*
X146304617Y-84561100D01*
X146275176Y-84552455D01*
X146245190Y-84545932D01*
X146240174Y-84542177D01*
X146237578Y-84541415D01*
X146216936Y-84524781D01*
X146145936Y-84453781D01*
X146112451Y-84392458D01*
X146117435Y-84322766D01*
X146159307Y-84266833D01*
X146224771Y-84242416D01*
X146233617Y-84242100D01*
X146328199Y-84242100D01*
X146328201Y-84242100D01*
X146449136Y-84209695D01*
X146557564Y-84147095D01*
X146646095Y-84058564D01*
X146708695Y-83950136D01*
X146741100Y-83829201D01*
X146741100Y-83703999D01*
X146708695Y-83583064D01*
X146646095Y-83474636D01*
X146557564Y-83386105D01*
X146449136Y-83323505D01*
X146449137Y-83323505D01*
X146408824Y-83312703D01*
X146328201Y-83291100D01*
X146328199Y-83291100D01*
X146304617Y-83291100D01*
X146275176Y-83282455D01*
X146245190Y-83275932D01*
X146240174Y-83272177D01*
X146237578Y-83271415D01*
X146216936Y-83254781D01*
X146145936Y-83183781D01*
X146112451Y-83122458D01*
X146117435Y-83052766D01*
X146159307Y-82996833D01*
X146224771Y-82972416D01*
X146233617Y-82972100D01*
X146328199Y-82972100D01*
X146328201Y-82972100D01*
X146449136Y-82939695D01*
X146557564Y-82877095D01*
X146646095Y-82788564D01*
X146708695Y-82680136D01*
X146741100Y-82559201D01*
X146741100Y-82433999D01*
X146708695Y-82313064D01*
X146646095Y-82204636D01*
X146557564Y-82116105D01*
X146449136Y-82053505D01*
X146449137Y-82053505D01*
X146401665Y-82040785D01*
X146328201Y-82021100D01*
X146202999Y-82021100D01*
X146129535Y-82040785D01*
X146082063Y-82053505D01*
X145973637Y-82116104D01*
X145973634Y-82116106D01*
X145956960Y-82132781D01*
X145895637Y-82166266D01*
X145869279Y-82169100D01*
X139197344Y-82169100D01*
X139176101Y-82162862D01*
X139154013Y-82161283D01*
X139143227Y-82153209D01*
X139130305Y-82149415D01*
X139115806Y-82132683D01*
X139098078Y-82119412D01*
X139093369Y-82106789D01*
X139084550Y-82096611D01*
X139081398Y-82074695D01*
X139073660Y-82053948D01*
X139076523Y-82040785D01*
X139074606Y-82027453D01*
X139083804Y-82007310D01*
X139088511Y-81985675D01*
X139101781Y-81967945D01*
X139103631Y-81963897D01*
X139109647Y-81957434D01*
X139137588Y-81929493D01*
X139198907Y-81896010D01*
X139209084Y-81894237D01*
X139216196Y-81893300D01*
X139216201Y-81893300D01*
X139337136Y-81860895D01*
X139445564Y-81798295D01*
X139534095Y-81709764D01*
X139596695Y-81601336D01*
X139629100Y-81480401D01*
X139629100Y-81355199D01*
X139596695Y-81234264D01*
X139534095Y-81125836D01*
X139445564Y-81037305D01*
X139337136Y-80974705D01*
X139337137Y-80974705D01*
X139305037Y-80966104D01*
X139278055Y-80958874D01*
X139218397Y-80922509D01*
X139187868Y-80859662D01*
X139196163Y-80790287D01*
X139240649Y-80736409D01*
X139307201Y-80715135D01*
X139310151Y-80715100D01*
X172584790Y-80715100D01*
X172651829Y-80734785D01*
G37*
%TD.AperFunction*%
%TA.AperFunction,Conductor*%
G36*
X177846639Y-103314085D02*
G01*
X177892394Y-103366889D01*
X177903600Y-103418400D01*
X177903600Y-104694400D01*
X177883915Y-104761439D01*
X177831111Y-104807194D01*
X177779600Y-104818400D01*
X177527600Y-104818400D01*
X177460561Y-104798715D01*
X177414806Y-104745911D01*
X177403600Y-104694400D01*
X177403600Y-103418400D01*
X177423285Y-103351361D01*
X177476089Y-103305606D01*
X177527600Y-103294400D01*
X177779600Y-103294400D01*
X177846639Y-103314085D01*
G37*
%TD.AperFunction*%
%TA.AperFunction,Conductor*%
G36*
X121706722Y-97837272D02*
G01*
X121762656Y-97879144D01*
X121787073Y-97944608D01*
X121783164Y-97985547D01*
X121764700Y-98054456D01*
X121764700Y-103660962D01*
X121745015Y-103728001D01*
X121692211Y-103773756D01*
X121623053Y-103783700D01*
X121559497Y-103754675D01*
X121530215Y-103717257D01*
X121461424Y-103582249D01*
X121422070Y-103528082D01*
X121422069Y-103528082D01*
X120789762Y-104160390D01*
X120772725Y-104096807D01*
X120706899Y-103982793D01*
X120613807Y-103889701D01*
X120499793Y-103823875D01*
X120436209Y-103806837D01*
X121068516Y-103174528D01*
X121014350Y-103135175D01*
X120820679Y-103036494D01*
X120821196Y-103035478D01*
X120770992Y-102995021D01*
X120748927Y-102928727D01*
X120766206Y-102861028D01*
X120817342Y-102813417D01*
X120872848Y-102800300D01*
X121176550Y-102800300D01*
X121176551Y-102800299D01*
X121191368Y-102797352D01*
X121235029Y-102788668D01*
X121235029Y-102788667D01*
X121235031Y-102788667D01*
X121301352Y-102744352D01*
X121345667Y-102678031D01*
X121345667Y-102678029D01*
X121345668Y-102678029D01*
X121357299Y-102619552D01*
X121357300Y-102619550D01*
X121357300Y-100880049D01*
X121357299Y-100880047D01*
X121345668Y-100821570D01*
X121345667Y-100821569D01*
X121301352Y-100755247D01*
X121235030Y-100710932D01*
X121235029Y-100710931D01*
X121176552Y-100699300D01*
X121176548Y-100699300D01*
X120781300Y-100699300D01*
X120714261Y-100679615D01*
X120668506Y-100626811D01*
X120657300Y-100575300D01*
X120657300Y-98835544D01*
X120676985Y-98768505D01*
X120693619Y-98747863D01*
X121130761Y-98310721D01*
X121575710Y-97865771D01*
X121637031Y-97832288D01*
X121706722Y-97837272D01*
G37*
%TD.AperFunction*%
%TA.AperFunction,Conductor*%
G36*
X124724828Y-80734785D02*
G01*
X124770583Y-80787589D01*
X124780527Y-80856747D01*
X124751502Y-80920303D01*
X124692724Y-80958077D01*
X124689916Y-80958865D01*
X124665046Y-80965529D01*
X124649463Y-80969705D01*
X124541037Y-81032304D01*
X124541034Y-81032306D01*
X124452506Y-81120834D01*
X124452504Y-81120837D01*
X124389905Y-81229263D01*
X124389905Y-81229264D01*
X124357500Y-81350199D01*
X124357500Y-81475401D01*
X124389905Y-81596336D01*
X124452505Y-81704764D01*
X124541036Y-81793295D01*
X124649464Y-81855895D01*
X124770399Y-81888300D01*
X124770401Y-81888300D01*
X124777517Y-81889237D01*
X124798421Y-81898484D01*
X124820759Y-81903344D01*
X124837159Y-81915621D01*
X124841413Y-81917503D01*
X124849013Y-81924495D01*
X124881937Y-81957419D01*
X124915422Y-82018742D01*
X124910438Y-82088434D01*
X124868566Y-82144367D01*
X124803102Y-82168784D01*
X124794256Y-82169100D01*
X121416716Y-82169100D01*
X121330484Y-82169100D01*
X121274954Y-82183979D01*
X121247189Y-82191419D01*
X121172511Y-82234534D01*
X121172508Y-82234536D01*
X120564041Y-82843003D01*
X120502718Y-82876488D01*
X120433026Y-82871504D01*
X120377093Y-82829632D01*
X120353887Y-82774720D01*
X120328157Y-82612272D01*
X120328157Y-82612269D01*
X120262495Y-82410182D01*
X120166024Y-82220849D01*
X120126670Y-82166682D01*
X120126669Y-82166682D01*
X119494362Y-82798989D01*
X119477325Y-82735407D01*
X119411499Y-82621393D01*
X119318407Y-82528301D01*
X119204393Y-82462475D01*
X119140809Y-82445437D01*
X119773116Y-81813128D01*
X119718950Y-81773775D01*
X119529617Y-81677304D01*
X119327529Y-81611642D01*
X119117646Y-81578400D01*
X118905154Y-81578400D01*
X118695272Y-81611642D01*
X118695269Y-81611642D01*
X118493182Y-81677304D01*
X118303839Y-81773780D01*
X118249682Y-81813127D01*
X118249682Y-81813128D01*
X118881991Y-82445437D01*
X118818407Y-82462475D01*
X118704393Y-82528301D01*
X118611301Y-82621393D01*
X118545475Y-82735407D01*
X118528437Y-82798991D01*
X117896128Y-82166682D01*
X117896127Y-82166682D01*
X117856780Y-82220839D01*
X117758094Y-82414521D01*
X117757078Y-82414003D01*
X117716612Y-82464213D01*
X117650316Y-82486272D01*
X117582618Y-82468988D01*
X117535012Y-82417847D01*
X117521900Y-82362351D01*
X117521900Y-82058649D01*
X117521899Y-82058647D01*
X117510268Y-82000170D01*
X117510267Y-82000169D01*
X117465952Y-81933847D01*
X117399630Y-81889532D01*
X117399629Y-81889531D01*
X117341152Y-81877900D01*
X117341148Y-81877900D01*
X115601652Y-81877900D01*
X115601647Y-81877900D01*
X115543170Y-81889531D01*
X115543169Y-81889532D01*
X115476847Y-81933847D01*
X115432532Y-82000169D01*
X115432531Y-82000170D01*
X115420900Y-82058647D01*
X115420900Y-83798152D01*
X115432531Y-83856629D01*
X115432532Y-83856630D01*
X115476847Y-83922952D01*
X115543169Y-83967267D01*
X115543170Y-83967268D01*
X115601647Y-83978899D01*
X115601650Y-83978900D01*
X117198382Y-83978900D01*
X117265421Y-83998585D01*
X117311176Y-84051389D01*
X117321120Y-84120547D01*
X117292095Y-84184103D01*
X117286063Y-84190581D01*
X117006504Y-84470140D01*
X116945181Y-84503625D01*
X116875489Y-84498641D01*
X116871370Y-84497020D01*
X116806476Y-84470140D01*
X116777820Y-84458270D01*
X116777812Y-84458268D01*
X116574869Y-84417900D01*
X116574865Y-84417900D01*
X116367935Y-84417900D01*
X116367930Y-84417900D01*
X116164987Y-84458268D01*
X116164979Y-84458270D01*
X115973803Y-84537458D01*
X115801742Y-84652424D01*
X115655424Y-84798742D01*
X115540458Y-84970803D01*
X115461270Y-85161979D01*
X115461268Y-85161987D01*
X115420900Y-85364930D01*
X115420900Y-85571869D01*
X115459780Y-85767329D01*
X115461270Y-85774820D01*
X115540459Y-85965998D01*
X115597941Y-86052026D01*
X115655424Y-86138057D01*
X115801742Y-86284375D01*
X115801745Y-86284377D01*
X115973802Y-86399341D01*
X116164980Y-86478530D01*
X116367930Y-86518899D01*
X116367934Y-86518900D01*
X116367935Y-86518900D01*
X116574866Y-86518900D01*
X116574867Y-86518899D01*
X116777820Y-86478530D01*
X116968998Y-86399341D01*
X117141055Y-86284377D01*
X117287377Y-86138055D01*
X117402341Y-85965998D01*
X117481530Y-85774820D01*
X117521900Y-85571865D01*
X117521900Y-85364935D01*
X117481530Y-85161980D01*
X117442779Y-85068428D01*
X117435310Y-84998959D01*
X117466585Y-84936479D01*
X117469628Y-84933325D01*
X117933736Y-84469219D01*
X117960663Y-84454515D01*
X117986482Y-84437923D01*
X117992682Y-84437031D01*
X117995059Y-84435734D01*
X118021417Y-84432900D01*
X118262677Y-84432900D01*
X118329716Y-84452585D01*
X118375471Y-84505389D01*
X118385415Y-84574547D01*
X118356390Y-84638103D01*
X118344034Y-84650132D01*
X118195424Y-84798742D01*
X118080458Y-84970803D01*
X118001270Y-85161979D01*
X118001268Y-85161987D01*
X117960900Y-85364930D01*
X117960900Y-85571869D01*
X118001268Y-85774812D01*
X118001270Y-85774820D01*
X118080459Y-85965999D01*
X118080459Y-85966000D01*
X118186706Y-86125010D01*
X118207584Y-86191687D01*
X118189099Y-86259067D01*
X118137120Y-86305757D01*
X118083604Y-86317900D01*
X117877516Y-86317900D01*
X117791284Y-86317900D01*
X117735754Y-86332779D01*
X117707989Y-86340219D01*
X117633311Y-86383334D01*
X117633308Y-86383336D01*
X117006504Y-87010140D01*
X116945181Y-87043625D01*
X116875489Y-87038641D01*
X116871370Y-87037020D01*
X116806476Y-87010140D01*
X116777820Y-86998270D01*
X116777812Y-86998268D01*
X116574869Y-86957900D01*
X116574865Y-86957900D01*
X116367935Y-86957900D01*
X116367930Y-86957900D01*
X116164987Y-86998268D01*
X116164979Y-86998270D01*
X115973803Y-87077458D01*
X115801742Y-87192424D01*
X115655424Y-87338742D01*
X115540458Y-87510803D01*
X115461270Y-87701979D01*
X115461268Y-87701987D01*
X115420900Y-87904930D01*
X115420900Y-88111869D01*
X115461268Y-88314812D01*
X115461270Y-88314820D01*
X115540459Y-88505998D01*
X115569066Y-88548811D01*
X115655424Y-88678057D01*
X115801742Y-88824375D01*
X115801745Y-88824377D01*
X115973802Y-88939341D01*
X116164980Y-89018530D01*
X116367930Y-89058899D01*
X116367934Y-89058900D01*
X116367935Y-89058900D01*
X116574866Y-89058900D01*
X116574867Y-89058899D01*
X116777820Y-89018530D01*
X116968998Y-88939341D01*
X117141055Y-88824377D01*
X117287377Y-88678055D01*
X117402341Y-88505998D01*
X117481530Y-88314820D01*
X117521900Y-88111865D01*
X117521900Y-87904935D01*
X117481530Y-87701980D01*
X117442779Y-87608428D01*
X117435310Y-87538959D01*
X117466585Y-87476479D01*
X117469628Y-87473325D01*
X117933736Y-87009219D01*
X117960663Y-86994515D01*
X117986482Y-86977923D01*
X117992682Y-86977031D01*
X117995059Y-86975734D01*
X118021417Y-86972900D01*
X118262677Y-86972900D01*
X118329716Y-86992585D01*
X118375471Y-87045389D01*
X118385415Y-87114547D01*
X118356390Y-87178103D01*
X118344034Y-87190132D01*
X118195424Y-87338742D01*
X118080458Y-87510803D01*
X118001270Y-87701979D01*
X118001268Y-87701987D01*
X117960900Y-87904930D01*
X117960900Y-88111869D01*
X118001268Y-88314812D01*
X118001270Y-88314820D01*
X118080459Y-88505999D01*
X118080459Y-88506000D01*
X118186706Y-88665010D01*
X118207584Y-88731687D01*
X118189099Y-88799067D01*
X118137120Y-88845757D01*
X118083604Y-88857900D01*
X117877516Y-88857900D01*
X117791284Y-88857900D01*
X117735754Y-88872779D01*
X117707989Y-88880219D01*
X117633311Y-88923334D01*
X117633308Y-88923336D01*
X117006504Y-89550140D01*
X116945181Y-89583625D01*
X116875489Y-89578641D01*
X116871370Y-89577020D01*
X116806476Y-89550140D01*
X116777820Y-89538270D01*
X116777812Y-89538268D01*
X116574869Y-89497900D01*
X116574865Y-89497900D01*
X116367935Y-89497900D01*
X116367930Y-89497900D01*
X116164987Y-89538268D01*
X116164979Y-89538270D01*
X115973803Y-89617458D01*
X115801742Y-89732424D01*
X115655424Y-89878742D01*
X115540458Y-90050803D01*
X115461270Y-90241979D01*
X115461268Y-90241987D01*
X115420900Y-90444930D01*
X115420900Y-90651869D01*
X115461268Y-90854812D01*
X115461270Y-90854820D01*
X115540458Y-91045996D01*
X115655424Y-91218057D01*
X115801742Y-91364375D01*
X115801745Y-91364377D01*
X115973802Y-91479341D01*
X116164980Y-91558530D01*
X116367930Y-91598899D01*
X116367934Y-91598900D01*
X116367935Y-91598900D01*
X116574866Y-91598900D01*
X116574867Y-91598899D01*
X116777820Y-91558530D01*
X116968998Y-91479341D01*
X117141055Y-91364377D01*
X117287377Y-91218055D01*
X117402341Y-91045998D01*
X117481530Y-90854820D01*
X117521900Y-90651865D01*
X117521900Y-90444935D01*
X117481530Y-90241980D01*
X117442779Y-90148428D01*
X117435310Y-90078959D01*
X117466585Y-90016479D01*
X117469628Y-90013325D01*
X117933736Y-89549219D01*
X117960663Y-89534515D01*
X117986482Y-89517923D01*
X117992682Y-89517031D01*
X117995059Y-89515734D01*
X118021417Y-89512900D01*
X118262677Y-89512900D01*
X118329716Y-89532585D01*
X118375471Y-89585389D01*
X118385415Y-89654547D01*
X118356390Y-89718103D01*
X118344034Y-89730132D01*
X118195424Y-89878742D01*
X118080458Y-90050803D01*
X118001270Y-90241979D01*
X118001268Y-90241987D01*
X117960900Y-90444930D01*
X117960900Y-90651869D01*
X118001268Y-90854812D01*
X118001270Y-90854820D01*
X118080459Y-91045998D01*
X118185406Y-91203063D01*
X118197932Y-91221810D01*
X118218809Y-91288487D01*
X118200324Y-91355867D01*
X118148345Y-91402557D01*
X118094829Y-91414700D01*
X117860716Y-91414700D01*
X117774484Y-91414700D01*
X117718954Y-91429579D01*
X117691189Y-91437019D01*
X117616511Y-91480134D01*
X117616508Y-91480136D01*
X117006504Y-92090140D01*
X116945181Y-92123625D01*
X116875489Y-92118641D01*
X116871370Y-92117020D01*
X116844811Y-92106019D01*
X116777820Y-92078270D01*
X116777812Y-92078268D01*
X116574869Y-92037900D01*
X116574865Y-92037900D01*
X116367935Y-92037900D01*
X116367930Y-92037900D01*
X116164987Y-92078268D01*
X116164979Y-92078270D01*
X115973803Y-92157458D01*
X115801742Y-92272424D01*
X115655424Y-92418742D01*
X115540458Y-92590803D01*
X115461270Y-92781979D01*
X115461268Y-92781987D01*
X115420900Y-92984930D01*
X115420900Y-93191869D01*
X115461268Y-93394812D01*
X115461270Y-93394820D01*
X115486844Y-93456562D01*
X115540459Y-93585998D01*
X115576609Y-93640100D01*
X115655424Y-93758057D01*
X115801742Y-93904375D01*
X115801745Y-93904377D01*
X115973802Y-94019341D01*
X116164980Y-94098530D01*
X116367930Y-94138899D01*
X116367934Y-94138900D01*
X116367935Y-94138900D01*
X116574866Y-94138900D01*
X116574867Y-94138899D01*
X116777820Y-94098530D01*
X116968998Y-94019341D01*
X117141055Y-93904377D01*
X117287377Y-93758055D01*
X117402341Y-93585998D01*
X117481530Y-93394820D01*
X117521900Y-93191865D01*
X117521900Y-92984935D01*
X117481530Y-92781980D01*
X117442779Y-92688428D01*
X117435310Y-92618959D01*
X117466585Y-92556479D01*
X117469628Y-92553325D01*
X117916936Y-92106019D01*
X117943863Y-92091315D01*
X117969682Y-92074723D01*
X117975882Y-92073831D01*
X117978259Y-92072534D01*
X118004617Y-92069700D01*
X118245105Y-92069700D01*
X118312144Y-92089385D01*
X118357899Y-92142189D01*
X118367843Y-92211347D01*
X118338818Y-92274903D01*
X118332786Y-92281381D01*
X118195425Y-92418741D01*
X118195424Y-92418742D01*
X118080458Y-92590803D01*
X118001270Y-92781979D01*
X118001268Y-92781987D01*
X117960900Y-92984930D01*
X117960900Y-93191869D01*
X118001268Y-93394812D01*
X118001270Y-93394820D01*
X118080459Y-93585999D01*
X118080459Y-93586000D01*
X118186706Y-93745010D01*
X118207584Y-93811687D01*
X118189099Y-93879067D01*
X118137120Y-93925757D01*
X118083604Y-93937900D01*
X117877516Y-93937900D01*
X117791284Y-93937900D01*
X117735754Y-93952779D01*
X117707989Y-93960219D01*
X117633311Y-94003334D01*
X117633308Y-94003336D01*
X117006504Y-94630140D01*
X116945181Y-94663625D01*
X116875489Y-94658641D01*
X116871370Y-94657020D01*
X116806476Y-94630140D01*
X116777820Y-94618270D01*
X116777812Y-94618268D01*
X116574869Y-94577900D01*
X116574865Y-94577900D01*
X116367935Y-94577900D01*
X116367930Y-94577900D01*
X116164987Y-94618268D01*
X116164979Y-94618270D01*
X115973803Y-94697458D01*
X115801742Y-94812424D01*
X115655424Y-94958742D01*
X115540458Y-95130803D01*
X115461270Y-95321979D01*
X115461268Y-95321987D01*
X115420900Y-95524930D01*
X115420900Y-95731869D01*
X115461268Y-95934812D01*
X115461270Y-95934820D01*
X115540459Y-96125998D01*
X115558992Y-96153735D01*
X115655424Y-96298057D01*
X115801742Y-96444375D01*
X115801745Y-96444377D01*
X115973802Y-96559341D01*
X116164980Y-96638530D01*
X116367930Y-96678899D01*
X116367934Y-96678900D01*
X116367935Y-96678900D01*
X116574866Y-96678900D01*
X116574867Y-96678899D01*
X116777820Y-96638530D01*
X116968998Y-96559341D01*
X117141055Y-96444377D01*
X117287377Y-96298055D01*
X117402341Y-96125998D01*
X117481530Y-95934820D01*
X117521900Y-95731865D01*
X117521900Y-95524935D01*
X117481530Y-95321980D01*
X117442779Y-95228428D01*
X117435310Y-95158959D01*
X117466585Y-95096479D01*
X117469628Y-95093325D01*
X117933736Y-94629219D01*
X117960663Y-94614515D01*
X117986482Y-94597923D01*
X117992682Y-94597031D01*
X117995059Y-94595734D01*
X118021417Y-94592900D01*
X118262677Y-94592900D01*
X118329716Y-94612585D01*
X118375471Y-94665389D01*
X118385415Y-94734547D01*
X118356390Y-94798103D01*
X118344034Y-94810132D01*
X118195424Y-94958742D01*
X118080458Y-95130803D01*
X118001270Y-95321979D01*
X118001268Y-95321987D01*
X117960900Y-95524930D01*
X117960900Y-95731869D01*
X118001268Y-95934812D01*
X118001270Y-95934820D01*
X118080459Y-96125999D01*
X118080459Y-96126000D01*
X118186706Y-96285010D01*
X118207584Y-96351687D01*
X118189099Y-96419067D01*
X118137120Y-96465757D01*
X118083604Y-96477900D01*
X117877516Y-96477900D01*
X117791284Y-96477900D01*
X117735754Y-96492779D01*
X117707989Y-96500219D01*
X117633311Y-96543334D01*
X117633308Y-96543336D01*
X117006504Y-97170140D01*
X116945181Y-97203625D01*
X116875489Y-97198641D01*
X116871370Y-97197020D01*
X116806476Y-97170140D01*
X116777820Y-97158270D01*
X116777812Y-97158268D01*
X116574869Y-97117900D01*
X116574865Y-97117900D01*
X116367935Y-97117900D01*
X116367930Y-97117900D01*
X116164987Y-97158268D01*
X116164979Y-97158270D01*
X115973803Y-97237458D01*
X115801742Y-97352424D01*
X115655424Y-97498742D01*
X115540458Y-97670803D01*
X115461270Y-97861979D01*
X115461268Y-97861987D01*
X115420900Y-98064930D01*
X115420900Y-98271869D01*
X115461268Y-98474812D01*
X115461270Y-98474820D01*
X115540458Y-98665996D01*
X115655424Y-98838057D01*
X115801742Y-98984375D01*
X115801745Y-98984377D01*
X115973802Y-99099341D01*
X116164980Y-99178530D01*
X116367930Y-99218899D01*
X116367934Y-99218900D01*
X116367935Y-99218900D01*
X116574866Y-99218900D01*
X116574867Y-99218899D01*
X116777820Y-99178530D01*
X116968998Y-99099341D01*
X117141055Y-98984377D01*
X117287377Y-98838055D01*
X117402341Y-98665998D01*
X117481530Y-98474820D01*
X117521900Y-98271865D01*
X117521900Y-98064935D01*
X117481530Y-97861980D01*
X117442779Y-97768428D01*
X117435310Y-97698959D01*
X117466585Y-97636479D01*
X117469628Y-97633325D01*
X117933736Y-97169219D01*
X117960663Y-97154515D01*
X117986482Y-97137923D01*
X117992682Y-97137031D01*
X117995059Y-97135734D01*
X118021417Y-97132900D01*
X118262677Y-97132900D01*
X118329716Y-97152585D01*
X118375471Y-97205389D01*
X118385415Y-97274547D01*
X118356390Y-97338103D01*
X118344034Y-97350132D01*
X118195424Y-97498742D01*
X118080458Y-97670803D01*
X118001270Y-97861979D01*
X118001268Y-97861987D01*
X117960900Y-98064930D01*
X117960900Y-98271869D01*
X118001268Y-98474812D01*
X118001270Y-98474820D01*
X118080458Y-98665996D01*
X118195424Y-98838057D01*
X118341742Y-98984375D01*
X118513805Y-99099343D01*
X118607352Y-99138091D01*
X118661756Y-99181932D01*
X118683821Y-99248226D01*
X118683900Y-99252652D01*
X118683900Y-100838426D01*
X118664215Y-100905465D01*
X118647581Y-100926107D01*
X118045736Y-101527951D01*
X118045734Y-101527954D01*
X118002619Y-101602632D01*
X117980300Y-101685928D01*
X117980300Y-103685804D01*
X117960615Y-103752843D01*
X117907811Y-103798598D01*
X117838653Y-103808542D01*
X117775097Y-103779517D01*
X117745815Y-103742099D01*
X117651424Y-103556850D01*
X117612070Y-103502682D01*
X117612069Y-103502682D01*
X116979762Y-104134990D01*
X116962725Y-104071407D01*
X116896899Y-103957393D01*
X116803807Y-103864301D01*
X116689793Y-103798475D01*
X116626209Y-103781437D01*
X117258516Y-103149128D01*
X117204350Y-103109775D01*
X117010679Y-103011094D01*
X117011196Y-103010078D01*
X116960992Y-102969621D01*
X116938927Y-102903327D01*
X116956206Y-102835628D01*
X117007342Y-102788017D01*
X117062848Y-102774900D01*
X117366550Y-102774900D01*
X117366551Y-102774899D01*
X117381368Y-102771952D01*
X117425029Y-102763268D01*
X117425029Y-102763267D01*
X117425031Y-102763267D01*
X117491352Y-102718952D01*
X117535667Y-102652631D01*
X117535667Y-102652629D01*
X117535668Y-102652629D01*
X117547299Y-102594152D01*
X117547300Y-102594150D01*
X117547300Y-100854649D01*
X117547299Y-100854647D01*
X117535668Y-100796170D01*
X117535667Y-100796169D01*
X117491352Y-100729847D01*
X117425030Y-100685532D01*
X117425029Y-100685531D01*
X117366552Y-100673900D01*
X117366548Y-100673900D01*
X115627052Y-100673900D01*
X115627047Y-100673900D01*
X115568570Y-100685531D01*
X115568569Y-100685532D01*
X115502247Y-100729847D01*
X115457932Y-100796169D01*
X115457931Y-100796170D01*
X115446300Y-100854647D01*
X115446300Y-102594152D01*
X115457931Y-102652629D01*
X115457932Y-102652630D01*
X115502247Y-102718952D01*
X115568569Y-102763267D01*
X115568570Y-102763268D01*
X115627047Y-102774899D01*
X115627050Y-102774900D01*
X115930752Y-102774900D01*
X115997791Y-102794585D01*
X116043546Y-102847389D01*
X116053490Y-102916547D01*
X116024465Y-102980103D01*
X115982535Y-103010338D01*
X115982921Y-103011094D01*
X115789239Y-103109780D01*
X115735082Y-103149127D01*
X115735082Y-103149128D01*
X116367391Y-103781437D01*
X116303807Y-103798475D01*
X116189793Y-103864301D01*
X116096701Y-103957393D01*
X116030875Y-104071407D01*
X116013837Y-104134991D01*
X115381528Y-103502682D01*
X115381527Y-103502682D01*
X115342180Y-103556839D01*
X115245704Y-103746182D01*
X115180042Y-103948269D01*
X115180042Y-103948272D01*
X115164973Y-104043414D01*
X115135044Y-104106549D01*
X115075732Y-104143480D01*
X115005870Y-104142482D01*
X114947637Y-104103872D01*
X114919523Y-104039908D01*
X114918500Y-104024016D01*
X114918500Y-80839100D01*
X114938185Y-80772061D01*
X114990989Y-80726306D01*
X115042500Y-80715100D01*
X124657789Y-80715100D01*
X124724828Y-80734785D01*
G37*
%TD.AperFunction*%
%TA.AperFunction,Conductor*%
G36*
X178419339Y-80734785D02*
G01*
X178465094Y-80787589D01*
X178476300Y-80839100D01*
X178476300Y-99696714D01*
X178456615Y-99763753D01*
X178403811Y-99809508D01*
X178334653Y-99819452D01*
X178271097Y-99790427D01*
X178241816Y-99753011D01*
X178231650Y-99733058D01*
X178231646Y-99733054D01*
X178231645Y-99733052D01*
X178141947Y-99643354D01*
X178141944Y-99643352D01*
X178141942Y-99643350D01*
X178065117Y-99604205D01*
X178028901Y-99585752D01*
X177935124Y-99570900D01*
X177472082Y-99570900D01*
X177391119Y-99583723D01*
X177378296Y-99585754D01*
X177265258Y-99643350D01*
X177265257Y-99643351D01*
X177265252Y-99643354D01*
X177175554Y-99733052D01*
X177175551Y-99733057D01*
X177175550Y-99733058D01*
X177163060Y-99757571D01*
X177117952Y-99846098D01*
X177103100Y-99939875D01*
X177103100Y-100552917D01*
X177113184Y-100616585D01*
X177117954Y-100646704D01*
X177175550Y-100759742D01*
X177175552Y-100759744D01*
X177175554Y-100759747D01*
X177265252Y-100849445D01*
X177265254Y-100849446D01*
X177265258Y-100849450D01*
X177272196Y-100852985D01*
X177283259Y-100863433D01*
X177297103Y-100869756D01*
X177308144Y-100886936D01*
X177322991Y-100900959D01*
X177327232Y-100916638D01*
X177334877Y-100928534D01*
X177339900Y-100963469D01*
X177339900Y-101046605D01*
X177320215Y-101113644D01*
X177272196Y-101157089D01*
X177252059Y-101167349D01*
X177252052Y-101167354D01*
X177162354Y-101257052D01*
X177162351Y-101257057D01*
X177162350Y-101257058D01*
X177155226Y-101271040D01*
X177104752Y-101370098D01*
X177089900Y-101463875D01*
X177089900Y-101823855D01*
X177070215Y-101890894D01*
X177053581Y-101911536D01*
X176852580Y-102112536D01*
X176791257Y-102146021D01*
X176721565Y-102141037D01*
X176665632Y-102099165D01*
X176641215Y-102033701D01*
X176640899Y-102024880D01*
X176640899Y-101463882D01*
X176626046Y-101370096D01*
X176568450Y-101257058D01*
X176568446Y-101257054D01*
X176568445Y-101257052D01*
X176478747Y-101167354D01*
X176478743Y-101167351D01*
X176478742Y-101167350D01*
X176436715Y-101145936D01*
X176390222Y-101122246D01*
X176339427Y-101074272D01*
X176322632Y-101006450D01*
X176345170Y-100940316D01*
X176390220Y-100901279D01*
X176491942Y-100849450D01*
X176581650Y-100759742D01*
X176639246Y-100646704D01*
X176639246Y-100646702D01*
X176639247Y-100646701D01*
X176654099Y-100552924D01*
X176654100Y-100552919D01*
X176654099Y-99939882D01*
X176639246Y-99846096D01*
X176581650Y-99733058D01*
X176581646Y-99733054D01*
X176581645Y-99733052D01*
X176491947Y-99643354D01*
X176491944Y-99643352D01*
X176491942Y-99643350D01*
X176415117Y-99604205D01*
X176378901Y-99585752D01*
X176285124Y-99570900D01*
X175822082Y-99570900D01*
X175741119Y-99583723D01*
X175728296Y-99585754D01*
X175615258Y-99643350D01*
X175615257Y-99643351D01*
X175615252Y-99643354D01*
X175525554Y-99733052D01*
X175525549Y-99733059D01*
X175477074Y-99828196D01*
X175429100Y-99878991D01*
X175366590Y-99895900D01*
X175047480Y-99895900D01*
X174985481Y-99879288D01*
X174876736Y-99816505D01*
X174876737Y-99816505D01*
X174836424Y-99805703D01*
X174755801Y-99784100D01*
X174630599Y-99784100D01*
X174549975Y-99805703D01*
X174509663Y-99816505D01*
X174401237Y-99879104D01*
X174395543Y-99883474D01*
X174330375Y-99908670D01*
X174320054Y-99909100D01*
X161304144Y-99909100D01*
X161237105Y-99889415D01*
X161216463Y-99872781D01*
X155169085Y-93825403D01*
X155135600Y-93764080D01*
X155140584Y-93694388D01*
X155182456Y-93638455D01*
X155224669Y-93617948D01*
X155262936Y-93607695D01*
X155371364Y-93545095D01*
X155459895Y-93456564D01*
X155522495Y-93348136D01*
X155554900Y-93227201D01*
X155554900Y-93101999D01*
X155522495Y-92981064D01*
X155459895Y-92872636D01*
X155443219Y-92855960D01*
X155409734Y-92794637D01*
X155406900Y-92768279D01*
X155406900Y-91941459D01*
X155426585Y-91874420D01*
X155443214Y-91853783D01*
X157243551Y-90053445D01*
X157304872Y-90019962D01*
X157374564Y-90024946D01*
X157430497Y-90066818D01*
X157438615Y-90079125D01*
X157467505Y-90129164D01*
X157556036Y-90217695D01*
X157664464Y-90280295D01*
X157785399Y-90312700D01*
X157808983Y-90312700D01*
X157876022Y-90332385D01*
X157896664Y-90349019D01*
X161781181Y-94233536D01*
X161814666Y-94294859D01*
X161816438Y-94311342D01*
X161816439Y-94311342D01*
X161817499Y-94319398D01*
X161846273Y-94426782D01*
X161849905Y-94440336D01*
X161912505Y-94548764D01*
X162001036Y-94637295D01*
X162109464Y-94699895D01*
X162230399Y-94732300D01*
X162230401Y-94732300D01*
X162355599Y-94732300D01*
X162355601Y-94732300D01*
X162476536Y-94699895D01*
X162584964Y-94637295D01*
X162649819Y-94572440D01*
X162711142Y-94538955D01*
X162780834Y-94543939D01*
X162825181Y-94572440D01*
X162890036Y-94637295D01*
X162998464Y-94699895D01*
X163119399Y-94732300D01*
X163119401Y-94732300D01*
X163244599Y-94732300D01*
X163244601Y-94732300D01*
X163365536Y-94699895D01*
X163473964Y-94637295D01*
X163562495Y-94548764D01*
X163625095Y-94440336D01*
X163657500Y-94319401D01*
X163657500Y-94194199D01*
X163625095Y-94073264D01*
X163562495Y-93964836D01*
X163545819Y-93948160D01*
X163512334Y-93886837D01*
X163509500Y-93860479D01*
X163509500Y-90505685D01*
X163509500Y-90505684D01*
X163487181Y-90422390D01*
X163444065Y-90347710D01*
X163383090Y-90286735D01*
X162985219Y-89888864D01*
X162951734Y-89827541D01*
X162948900Y-89801183D01*
X162948900Y-89777600D01*
X162948096Y-89774599D01*
X162916495Y-89656664D01*
X162853895Y-89548236D01*
X162765364Y-89459705D01*
X162656936Y-89397105D01*
X162656937Y-89397105D01*
X162616624Y-89386303D01*
X162536001Y-89364700D01*
X162410799Y-89364700D01*
X162330175Y-89386303D01*
X162289863Y-89397105D01*
X162181437Y-89459704D01*
X162181434Y-89459706D01*
X162092906Y-89548234D01*
X162092904Y-89548237D01*
X162030305Y-89656663D01*
X162030305Y-89656664D01*
X161997900Y-89777599D01*
X161997900Y-89902801D01*
X162030305Y-90023736D01*
X162092905Y-90132164D01*
X162181436Y-90220695D01*
X162289864Y-90283295D01*
X162410799Y-90315700D01*
X162434383Y-90315700D01*
X162501422Y-90335385D01*
X162522064Y-90352019D01*
X162818181Y-90648136D01*
X162851666Y-90709459D01*
X162854500Y-90735817D01*
X162854500Y-93846479D01*
X162834815Y-93913518D01*
X162782011Y-93959273D01*
X162712853Y-93969217D01*
X162649297Y-93940192D01*
X162642819Y-93934160D01*
X162584965Y-93876306D01*
X162584964Y-93876305D01*
X162476536Y-93813705D01*
X162476537Y-93813705D01*
X162411405Y-93796253D01*
X162355601Y-93781300D01*
X162355599Y-93781300D01*
X162306617Y-93781300D01*
X162239578Y-93761615D01*
X162218936Y-93744981D01*
X158359819Y-89885864D01*
X158326334Y-89824541D01*
X158323500Y-89798183D01*
X158323500Y-89774600D01*
X158323500Y-89774599D01*
X158291095Y-89653664D01*
X158228495Y-89545236D01*
X158139964Y-89456705D01*
X158139963Y-89456704D01*
X158110258Y-89439554D01*
X158089928Y-89427817D01*
X158041713Y-89377251D01*
X158028489Y-89308644D01*
X158054457Y-89243779D01*
X158064238Y-89232758D01*
X160880579Y-86416419D01*
X160941902Y-86382934D01*
X160968260Y-86380100D01*
X164230664Y-86380100D01*
X164297703Y-86399785D01*
X164343458Y-86452589D01*
X164353402Y-86521747D01*
X164324377Y-86585303D01*
X164299554Y-86607203D01*
X164286855Y-86615687D01*
X164189288Y-86713254D01*
X164189285Y-86713258D01*
X164112628Y-86827982D01*
X164112621Y-86827995D01*
X164059821Y-86955467D01*
X164059818Y-86955478D01*
X164044046Y-87034767D01*
X164011660Y-87096678D01*
X163950944Y-87131252D01*
X163881175Y-87127511D01*
X163824503Y-87086644D01*
X163802655Y-87042669D01*
X163793088Y-87006964D01*
X163740283Y-86915503D01*
X163723907Y-86887138D01*
X163723903Y-86887133D01*
X163626066Y-86789296D01*
X163626061Y-86789292D01*
X163506238Y-86720113D01*
X163506237Y-86720112D01*
X163506236Y-86720112D01*
X163372583Y-86684300D01*
X163234217Y-86684300D01*
X163100564Y-86720112D01*
X163100561Y-86720113D01*
X162980738Y-86789292D01*
X162980733Y-86789296D01*
X162882896Y-86887133D01*
X162882892Y-86887138D01*
X162813713Y-87006961D01*
X162813712Y-87006964D01*
X162777900Y-87140617D01*
X162777900Y-87278983D01*
X162812904Y-87409618D01*
X162813712Y-87412635D01*
X162813713Y-87412638D01*
X162882892Y-87532461D01*
X162882894Y-87532464D01*
X162882895Y-87532465D01*
X162980735Y-87630305D01*
X162980736Y-87630306D01*
X162980738Y-87630307D01*
X163032688Y-87660300D01*
X163100564Y-87699488D01*
X163234217Y-87735300D01*
X163234219Y-87735300D01*
X163372581Y-87735300D01*
X163372583Y-87735300D01*
X163506236Y-87699488D01*
X163626065Y-87630305D01*
X163723905Y-87532465D01*
X163793088Y-87412636D01*
X163793089Y-87412629D01*
X163794338Y-87409618D01*
X163796075Y-87407462D01*
X163797152Y-87405597D01*
X163797442Y-87405764D01*
X163838178Y-87355213D01*
X163904472Y-87333147D01*
X163972171Y-87350425D01*
X164019783Y-87401561D01*
X164032900Y-87457068D01*
X164032900Y-88328793D01*
X164032900Y-88328795D01*
X164032899Y-88328795D01*
X164059818Y-88464122D01*
X164059821Y-88464132D01*
X164112621Y-88591604D01*
X164112628Y-88591617D01*
X164189285Y-88706341D01*
X164189288Y-88706345D01*
X164286854Y-88803911D01*
X164286858Y-88803914D01*
X164401582Y-88880571D01*
X164401595Y-88880578D01*
X164529067Y-88933378D01*
X164529072Y-88933380D01*
X164529076Y-88933380D01*
X164529077Y-88933381D01*
X164664404Y-88960300D01*
X164664407Y-88960300D01*
X164802395Y-88960300D01*
X164907760Y-88939341D01*
X164937728Y-88933380D01*
X165065211Y-88880575D01*
X165179942Y-88803914D01*
X165277514Y-88706342D01*
X165354175Y-88591611D01*
X165406980Y-88464128D01*
X165422788Y-88384658D01*
X165433900Y-88328795D01*
X165433900Y-87090804D01*
X165406981Y-86955477D01*
X165406980Y-86955476D01*
X165406980Y-86955472D01*
X165393108Y-86921981D01*
X165354178Y-86827995D01*
X165354171Y-86827982D01*
X165277514Y-86713258D01*
X165277511Y-86713254D01*
X165179944Y-86615687D01*
X165167246Y-86607203D01*
X165122441Y-86553591D01*
X165113733Y-86484266D01*
X165143887Y-86421238D01*
X165203329Y-86384519D01*
X165236136Y-86380100D01*
X169705505Y-86380100D01*
X169772544Y-86399785D01*
X169818299Y-86452589D01*
X169828243Y-86521747D01*
X169799218Y-86585303D01*
X169793186Y-86591781D01*
X169757425Y-86627541D01*
X169757424Y-86627542D01*
X169642458Y-86799603D01*
X169563270Y-86990779D01*
X169563268Y-86990787D01*
X169522900Y-87193730D01*
X169522900Y-87400669D01*
X169563268Y-87603612D01*
X169563270Y-87603620D01*
X169642458Y-87794796D01*
X169757424Y-87966857D01*
X169903742Y-88113175D01*
X169903745Y-88113177D01*
X170075802Y-88228141D01*
X170266980Y-88307330D01*
X170411452Y-88336067D01*
X170469930Y-88347699D01*
X170469934Y-88347700D01*
X170469935Y-88347700D01*
X170676866Y-88347700D01*
X170676867Y-88347699D01*
X170879820Y-88307330D01*
X171070998Y-88228141D01*
X171243055Y-88113177D01*
X171389377Y-87966855D01*
X171504341Y-87794798D01*
X171583530Y-87603620D01*
X171623900Y-87400665D01*
X171623900Y-87193735D01*
X171583530Y-86990780D01*
X171504341Y-86799602D01*
X171389377Y-86627545D01*
X171389375Y-86627542D01*
X171353614Y-86591781D01*
X171320129Y-86530458D01*
X171325113Y-86460766D01*
X171366985Y-86404833D01*
X171432449Y-86380416D01*
X171441295Y-86380100D01*
X171861115Y-86380100D01*
X171861116Y-86380100D01*
X171906806Y-86367857D01*
X171976654Y-86369518D01*
X172034517Y-86408680D01*
X172062023Y-86472908D01*
X172062900Y-86487631D01*
X172062900Y-88166952D01*
X172074531Y-88225429D01*
X172074532Y-88225430D01*
X172118847Y-88291752D01*
X172185169Y-88336067D01*
X172185170Y-88336068D01*
X172243647Y-88347699D01*
X172243650Y-88347700D01*
X172243652Y-88347700D01*
X173983150Y-88347700D01*
X173983151Y-88347699D01*
X173997968Y-88344752D01*
X174041629Y-88336068D01*
X174041629Y-88336067D01*
X174041631Y-88336067D01*
X174107952Y-88291752D01*
X174152267Y-88225431D01*
X174152267Y-88225429D01*
X174152268Y-88225429D01*
X174163899Y-88166952D01*
X174163900Y-88166950D01*
X174163900Y-86427449D01*
X174163899Y-86427447D01*
X174152268Y-86368970D01*
X174152267Y-86368969D01*
X174107952Y-86302647D01*
X174041630Y-86258332D01*
X174041629Y-86258331D01*
X173983152Y-86246700D01*
X173983148Y-86246700D01*
X172386417Y-86246700D01*
X172319378Y-86227015D01*
X172273623Y-86174211D01*
X172263679Y-86105053D01*
X172292704Y-86041497D01*
X172298727Y-86035026D01*
X172578297Y-85755456D01*
X172639616Y-85721974D01*
X172709308Y-85726958D01*
X172713428Y-85728579D01*
X172806980Y-85767330D01*
X173009930Y-85807699D01*
X173009934Y-85807700D01*
X173009935Y-85807700D01*
X173216866Y-85807700D01*
X173216867Y-85807699D01*
X173419820Y-85767330D01*
X173610998Y-85688141D01*
X173783055Y-85573177D01*
X173929377Y-85426855D01*
X174044341Y-85254798D01*
X174123530Y-85063620D01*
X174163900Y-84860665D01*
X174163900Y-84653735D01*
X174123530Y-84450780D01*
X174044341Y-84259602D01*
X173929377Y-84087545D01*
X173929375Y-84087542D01*
X173783057Y-83941224D01*
X173656453Y-83856631D01*
X173610998Y-83826259D01*
X173610993Y-83826257D01*
X173527370Y-83791619D01*
X173446290Y-83758034D01*
X173391888Y-83714194D01*
X173369823Y-83647900D01*
X173387102Y-83580201D01*
X173438239Y-83532590D01*
X173455426Y-83525543D01*
X173631617Y-83468295D01*
X173820954Y-83371822D01*
X173875116Y-83332470D01*
X173875117Y-83332470D01*
X173242808Y-82700162D01*
X173306393Y-82683125D01*
X173420407Y-82617299D01*
X173513499Y-82524207D01*
X173579325Y-82410193D01*
X173596362Y-82346608D01*
X174228670Y-82978917D01*
X174228670Y-82978916D01*
X174268022Y-82924754D01*
X174364495Y-82735417D01*
X174430157Y-82533330D01*
X174430157Y-82533327D01*
X174463400Y-82323446D01*
X174463400Y-82110953D01*
X174430157Y-81901072D01*
X174430157Y-81901069D01*
X174364495Y-81698982D01*
X174268024Y-81509649D01*
X174228670Y-81455482D01*
X174228669Y-81455482D01*
X173596362Y-82087790D01*
X173579325Y-82024207D01*
X173513499Y-81910193D01*
X173420407Y-81817101D01*
X173306393Y-81751275D01*
X173242809Y-81734237D01*
X173875116Y-81101928D01*
X173820950Y-81062575D01*
X173631617Y-80966104D01*
X173603692Y-80957031D01*
X173546017Y-80917594D01*
X173518818Y-80853235D01*
X173530733Y-80784389D01*
X173577977Y-80732913D01*
X173642010Y-80715100D01*
X178352300Y-80715100D01*
X178419339Y-80734785D01*
G37*
%TD.AperFunction*%
%TA.AperFunction,Conductor*%
G36*
X139015538Y-80720529D02*
G01*
X139034805Y-80720988D01*
X139048371Y-80730170D01*
X139064088Y-80734785D01*
X139076706Y-80749347D01*
X139092667Y-80760150D01*
X139099116Y-80775209D01*
X139109843Y-80787589D01*
X139112585Y-80806662D01*
X139120172Y-80824378D01*
X139117455Y-80840532D01*
X139119787Y-80856747D01*
X139111781Y-80874276D01*
X139108586Y-80893280D01*
X139097567Y-80905401D01*
X139090762Y-80920303D01*
X139074550Y-80930721D01*
X139061588Y-80944981D01*
X139033936Y-80956822D01*
X139031984Y-80958077D01*
X139029177Y-80958865D01*
X139002163Y-80966104D01*
X138970063Y-80974705D01*
X138861637Y-81037304D01*
X138861634Y-81037306D01*
X138773106Y-81125834D01*
X138773104Y-81125837D01*
X138710505Y-81234263D01*
X138678098Y-81355206D01*
X138677161Y-81362324D01*
X138667913Y-81383224D01*
X138663055Y-81405559D01*
X138650772Y-81421965D01*
X138648891Y-81426219D01*
X138641904Y-81433813D01*
X138465537Y-81610181D01*
X138404214Y-81643666D01*
X138377856Y-81646500D01*
X125613744Y-81646500D01*
X125546705Y-81626815D01*
X125526063Y-81610181D01*
X125344695Y-81428813D01*
X125311210Y-81367490D01*
X125309437Y-81357317D01*
X125308500Y-81350201D01*
X125308500Y-81350200D01*
X125308500Y-81350199D01*
X125276095Y-81229264D01*
X125213495Y-81120836D01*
X125124964Y-81032305D01*
X125016536Y-80969705D01*
X125016537Y-80969705D01*
X125000953Y-80965529D01*
X124976115Y-80958874D01*
X124916456Y-80922509D01*
X124885928Y-80859662D01*
X124894223Y-80790287D01*
X124938709Y-80736409D01*
X125005261Y-80715135D01*
X125008211Y-80715100D01*
X138997049Y-80715100D01*
X139015538Y-80720529D01*
G37*
%TD.AperFunction*%
%TD*%
M02*
