%TF.GenerationSoftware,KiCad,Pcbnew,10.0.4-10.0.4~ubuntu25.10.1*%
%TF.CreationDate,Date%
%TF.ProjectId,CanSat_Devboard,43616e53-6174-45f4-9465-76626f617264,+ (Unreleased)*%
%TF.SameCoordinates,Original*%
%TF.FileFunction,Legend,Top*%
%TF.FilePolarity,Positive*%
%FSLAX46Y46*%
G04 Gerber Fmt 4.6, Leading zero omitted, Abs format (unit mm)*
G04 Created by KiCad*
%MOMM*%
%LPD*%
G01*
G04 APERTURE LIST*
G04 Aperture macros list*
%AMRoundRect*
0 Rectangle with rounded corners*
0 $1 Rounding radius*
0 $2 $3 $4 $5 $6 $7 $8 $9 X,Y pos of 4 corners*
0 Add a 4 corners polygon primitive as box body*
4,1,4,$2,$3,$4,$5,$6,$7,$8,$9,$2,$3,0*
0 Add four circle primitives for the rounded corners*
1,1,$1+$1,$2,$3*
1,1,$1+$1,$4,$5*
1,1,$1+$1,$6,$7*
1,1,$1+$1,$8,$9*
0 Add four rect primitives between the rounded corners*
20,1,$1+$1,$2,$3,$4,$5,0*
20,1,$1+$1,$4,$5,$6,$7,0*
20,1,$1+$1,$6,$7,$8,$9,0*
20,1,$1+$1,$8,$9,$2,$3,0*%
G04 Aperture macros list end*
%ADD10C,0.150000*%
%ADD11C,0.254000*%
%ADD12C,0.120000*%
%ADD13C,0.200000*%
%ADD14C,0.100000*%
%ADD15C,0.127000*%
%ADD16C,0.400000*%
%ADD17C,0.152400*%
%ADD18C,0.000000*%
%ADD19C,1.100000*%
%ADD20RoundRect,0.102000X0.550000X0.950000X-0.550000X0.950000X-0.550000X-0.950000X0.550000X-0.950000X0*%
%ADD21RoundRect,0.300000X1.450000X-0.312500X1.450000X0.312500X-1.450000X0.312500X-1.450000X-0.312500X0*%
%ADD22RoundRect,0.300000X-1.450000X0.312500X-1.450000X-0.312500X1.450000X-0.312500X1.450000X0.312500X0*%
%ADD23RoundRect,0.275000X-0.225000X-0.250000X0.225000X-0.250000X0.225000X0.250000X-0.225000X0.250000X0*%
%ADD24RoundRect,0.250000X-0.275000X0.200000X-0.275000X-0.200000X0.275000X-0.200000X0.275000X0.200000X0*%
%ADD25RoundRect,0.212500X-0.617500X-0.162500X0.617500X-0.162500X0.617500X0.162500X-0.617500X0.162500X0*%
%ADD26RoundRect,0.050000X-0.850000X-0.850000X0.850000X-0.850000X0.850000X0.850000X-0.850000X0.850000X0*%
%ADD27C,1.800000*%
%ADD28C,0.001000*%
%ADD29RoundRect,0.200000X0.150000X0.425000X-0.150000X0.425000X-0.150000X-0.425000X0.150000X-0.425000X0*%
%ADD30RoundRect,0.125000X0.075000X0.500000X-0.075000X0.500000X-0.075000X-0.500000X0.075000X-0.500000X0*%
%ADD31O,1.100000X2.200000*%
%ADD32O,1.100000X1.900000*%
%ADD33RoundRect,0.300000X0.375000X1.075000X-0.375000X1.075000X-0.375000X-1.075000X0.375000X-1.075000X0*%
%ADD34RoundRect,0.050000X-0.300000X-1.100000X0.300000X-1.100000X0.300000X1.100000X-0.300000X1.100000X0*%
%ADD35RoundRect,0.102000X-1.000000X-0.500000X1.000000X-0.500000X1.000000X0.500000X-1.000000X0.500000X0*%
%ADD36RoundRect,0.102000X-0.500000X-1.000000X0.500000X-1.000000X0.500000X1.000000X-0.500000X1.000000X0*%
%ADD37RoundRect,0.102000X-0.450000X-0.450000X0.450000X-0.450000X0.450000X0.450000X-0.450000X0.450000X0*%
%ADD38RoundRect,0.275000X0.250000X-0.225000X0.250000X0.225000X-0.250000X0.225000X-0.250000X-0.225000X0*%
%ADD39RoundRect,0.275000X-0.250000X0.225000X-0.250000X-0.225000X0.250000X-0.225000X0.250000X0.225000X0*%
%ADD40RoundRect,0.102000X-0.750000X0.400000X-0.750000X-0.400000X0.750000X-0.400000X0.750000X0.400000X0*%
%ADD41RoundRect,0.102000X-0.950000X0.700000X-0.950000X-0.700000X0.950000X-0.700000X0.950000X0.700000X0*%
%ADD42RoundRect,0.102000X-0.700000X0.900000X-0.700000X-0.900000X0.700000X-0.900000X0.700000X0.900000X0*%
%ADD43RoundRect,0.268750X-0.256250X0.218750X-0.256250X-0.218750X0.256250X-0.218750X0.256250X0.218750X0*%
%ADD44RoundRect,0.250000X-0.200000X-0.275000X0.200000X-0.275000X0.200000X0.275000X-0.200000X0.275000X0*%
%ADD45RoundRect,0.050000X-0.381000X0.127000X-0.381000X-0.127000X0.381000X-0.127000X0.381000X0.127000X0*%
%ADD46RoundRect,0.050000X0.127000X0.381000X-0.127000X0.381000X-0.127000X-0.381000X0.127000X-0.381000X0*%
%ADD47RoundRect,0.050000X1.803400X1.803400X-1.803400X1.803400X-1.803400X-1.803400X1.803400X-1.803400X0*%
%ADD48RoundRect,0.300000X-0.600000X-0.725000X0.600000X-0.725000X0.600000X0.725000X-0.600000X0.725000X0*%
%ADD49O,1.800000X2.050000*%
%ADD50RoundRect,0.050000X-0.450000X-0.500000X0.450000X-0.500000X0.450000X0.500000X-0.450000X0.500000X0*%
%ADD51RoundRect,0.250000X0.200000X0.275000X-0.200000X0.275000X-0.200000X-0.275000X0.200000X-0.275000X0*%
%ADD52RoundRect,0.050000X0.500000X-0.450000X0.500000X0.450000X-0.500000X0.450000X-0.500000X-0.450000X0*%
%ADD53RoundRect,0.250000X0.275000X-0.200000X0.275000X0.200000X-0.275000X0.200000X-0.275000X-0.200000X0*%
%ADD54RoundRect,0.050000X-0.500000X0.450000X-0.500000X-0.450000X0.500000X-0.450000X0.500000X0.450000X0*%
%ADD55RoundRect,0.050000X0.850000X0.850000X-0.850000X0.850000X-0.850000X-0.850000X0.850000X-0.850000X0*%
G04 APERTURE END LIST*
D10*
X142089105Y-117021018D02*
X142660533Y-117021018D01*
X142374819Y-118021018D02*
X142374819Y-117021018D01*
X142993867Y-118021018D02*
X142993867Y-117021018D01*
X142993867Y-117021018D02*
X143374819Y-117021018D01*
X143374819Y-117021018D02*
X143470057Y-117068637D01*
X143470057Y-117068637D02*
X143517676Y-117116256D01*
X143517676Y-117116256D02*
X143565295Y-117211494D01*
X143565295Y-117211494D02*
X143565295Y-117354351D01*
X143565295Y-117354351D02*
X143517676Y-117449589D01*
X143517676Y-117449589D02*
X143470057Y-117497208D01*
X143470057Y-117497208D02*
X143374819Y-117544827D01*
X143374819Y-117544827D02*
X142993867Y-117544827D01*
X144517676Y-118021018D02*
X143946248Y-118021018D01*
X144231962Y-118021018D02*
X144231962Y-117021018D01*
X144231962Y-117021018D02*
X144136724Y-117163875D01*
X144136724Y-117163875D02*
X144041486Y-117259113D01*
X144041486Y-117259113D02*
X143946248Y-117306732D01*
X145136724Y-117021018D02*
X145231962Y-117021018D01*
X145231962Y-117021018D02*
X145327200Y-117068637D01*
X145327200Y-117068637D02*
X145374819Y-117116256D01*
X145374819Y-117116256D02*
X145422438Y-117211494D01*
X145422438Y-117211494D02*
X145470057Y-117401970D01*
X145470057Y-117401970D02*
X145470057Y-117640065D01*
X145470057Y-117640065D02*
X145422438Y-117830541D01*
X145422438Y-117830541D02*
X145374819Y-117925779D01*
X145374819Y-117925779D02*
X145327200Y-117973399D01*
X145327200Y-117973399D02*
X145231962Y-118021018D01*
X145231962Y-118021018D02*
X145136724Y-118021018D01*
X145136724Y-118021018D02*
X145041486Y-117973399D01*
X145041486Y-117973399D02*
X144993867Y-117925779D01*
X144993867Y-117925779D02*
X144946248Y-117830541D01*
X144946248Y-117830541D02*
X144898629Y-117640065D01*
X144898629Y-117640065D02*
X144898629Y-117401970D01*
X144898629Y-117401970D02*
X144946248Y-117211494D01*
X144946248Y-117211494D02*
X144993867Y-117116256D01*
X144993867Y-117116256D02*
X145041486Y-117068637D01*
X145041486Y-117068637D02*
X145136724Y-117021018D01*
X137991609Y-95327628D02*
X137991609Y-95803819D01*
X137658276Y-94803819D02*
X137991609Y-95327628D01*
X137991609Y-95327628D02*
X138324942Y-94803819D01*
X139182085Y-95803819D02*
X138610657Y-95803819D01*
X138896371Y-95803819D02*
X138896371Y-94803819D01*
X138896371Y-94803819D02*
X138801133Y-94946676D01*
X138801133Y-94946676D02*
X138705895Y-95041914D01*
X138705895Y-95041914D02*
X138610657Y-95089533D01*
X144955933Y-106667018D02*
X144479743Y-106667018D01*
X144479743Y-106667018D02*
X144479743Y-105667018D01*
X145717838Y-106000351D02*
X145717838Y-106667018D01*
X145479743Y-105619399D02*
X145241648Y-106333684D01*
X145241648Y-106333684D02*
X145860695Y-106333684D01*
X148994533Y-106692418D02*
X148518343Y-106692418D01*
X148518343Y-106692418D02*
X148518343Y-105692418D01*
X149804057Y-105692418D02*
X149327867Y-105692418D01*
X149327867Y-105692418D02*
X149280248Y-106168608D01*
X149280248Y-106168608D02*
X149327867Y-106120989D01*
X149327867Y-106120989D02*
X149423105Y-106073370D01*
X149423105Y-106073370D02*
X149661200Y-106073370D01*
X149661200Y-106073370D02*
X149756438Y-106120989D01*
X149756438Y-106120989D02*
X149804057Y-106168608D01*
X149804057Y-106168608D02*
X149851676Y-106263846D01*
X149851676Y-106263846D02*
X149851676Y-106501941D01*
X149851676Y-106501941D02*
X149804057Y-106597179D01*
X149804057Y-106597179D02*
X149756438Y-106644799D01*
X149756438Y-106644799D02*
X149661200Y-106692418D01*
X149661200Y-106692418D02*
X149423105Y-106692418D01*
X149423105Y-106692418D02*
X149327867Y-106644799D01*
X149327867Y-106644799D02*
X149280248Y-106597179D01*
X129544542Y-110280179D02*
X129496923Y-110327799D01*
X129496923Y-110327799D02*
X129354066Y-110375418D01*
X129354066Y-110375418D02*
X129258828Y-110375418D01*
X129258828Y-110375418D02*
X129115971Y-110327799D01*
X129115971Y-110327799D02*
X129020733Y-110232560D01*
X129020733Y-110232560D02*
X128973114Y-110137322D01*
X128973114Y-110137322D02*
X128925495Y-109946846D01*
X128925495Y-109946846D02*
X128925495Y-109803989D01*
X128925495Y-109803989D02*
X128973114Y-109613513D01*
X128973114Y-109613513D02*
X129020733Y-109518275D01*
X129020733Y-109518275D02*
X129115971Y-109423037D01*
X129115971Y-109423037D02*
X129258828Y-109375418D01*
X129258828Y-109375418D02*
X129354066Y-109375418D01*
X129354066Y-109375418D02*
X129496923Y-109423037D01*
X129496923Y-109423037D02*
X129544542Y-109470656D01*
X130496923Y-110375418D02*
X129925495Y-110375418D01*
X130211209Y-110375418D02*
X130211209Y-109375418D01*
X130211209Y-109375418D02*
X130115971Y-109518275D01*
X130115971Y-109518275D02*
X130020733Y-109613513D01*
X130020733Y-109613513D02*
X129925495Y-109661132D01*
X130877876Y-109470656D02*
X130925495Y-109423037D01*
X130925495Y-109423037D02*
X131020733Y-109375418D01*
X131020733Y-109375418D02*
X131258828Y-109375418D01*
X131258828Y-109375418D02*
X131354066Y-109423037D01*
X131354066Y-109423037D02*
X131401685Y-109470656D01*
X131401685Y-109470656D02*
X131449304Y-109565894D01*
X131449304Y-109565894D02*
X131449304Y-109661132D01*
X131449304Y-109661132D02*
X131401685Y-109803989D01*
X131401685Y-109803989D02*
X130830257Y-110375418D01*
X130830257Y-110375418D02*
X131449304Y-110375418D01*
X137651742Y-120459218D02*
X137318409Y-119983027D01*
X137080314Y-120459218D02*
X137080314Y-119459218D01*
X137080314Y-119459218D02*
X137461266Y-119459218D01*
X137461266Y-119459218D02*
X137556504Y-119506837D01*
X137556504Y-119506837D02*
X137604123Y-119554456D01*
X137604123Y-119554456D02*
X137651742Y-119649694D01*
X137651742Y-119649694D02*
X137651742Y-119792551D01*
X137651742Y-119792551D02*
X137604123Y-119887789D01*
X137604123Y-119887789D02*
X137556504Y-119935408D01*
X137556504Y-119935408D02*
X137461266Y-119983027D01*
X137461266Y-119983027D02*
X137080314Y-119983027D01*
X138604123Y-120459218D02*
X138032695Y-120459218D01*
X138318409Y-120459218D02*
X138318409Y-119459218D01*
X138318409Y-119459218D02*
X138223171Y-119602075D01*
X138223171Y-119602075D02*
X138127933Y-119697313D01*
X138127933Y-119697313D02*
X138032695Y-119744932D01*
X139461266Y-119792551D02*
X139461266Y-120459218D01*
X139223171Y-119411599D02*
X138985076Y-120125884D01*
X138985076Y-120125884D02*
X139604123Y-120125884D01*
X162168095Y-90731619D02*
X162168095Y-91541142D01*
X162168095Y-91541142D02*
X162215714Y-91636380D01*
X162215714Y-91636380D02*
X162263333Y-91684000D01*
X162263333Y-91684000D02*
X162358571Y-91731619D01*
X162358571Y-91731619D02*
X162549047Y-91731619D01*
X162549047Y-91731619D02*
X162644285Y-91684000D01*
X162644285Y-91684000D02*
X162691904Y-91636380D01*
X162691904Y-91636380D02*
X162739523Y-91541142D01*
X162739523Y-91541142D02*
X162739523Y-90731619D01*
X163120476Y-90731619D02*
X163739523Y-90731619D01*
X163739523Y-90731619D02*
X163406190Y-91112571D01*
X163406190Y-91112571D02*
X163549047Y-91112571D01*
X163549047Y-91112571D02*
X163644285Y-91160190D01*
X163644285Y-91160190D02*
X163691904Y-91207809D01*
X163691904Y-91207809D02*
X163739523Y-91303047D01*
X163739523Y-91303047D02*
X163739523Y-91541142D01*
X163739523Y-91541142D02*
X163691904Y-91636380D01*
X163691904Y-91636380D02*
X163644285Y-91684000D01*
X163644285Y-91684000D02*
X163549047Y-91731619D01*
X163549047Y-91731619D02*
X163263333Y-91731619D01*
X163263333Y-91731619D02*
X163168095Y-91684000D01*
X163168095Y-91684000D02*
X163120476Y-91636380D01*
X123351666Y-95464219D02*
X123351666Y-96178504D01*
X123351666Y-96178504D02*
X123304047Y-96321361D01*
X123304047Y-96321361D02*
X123208809Y-96416600D01*
X123208809Y-96416600D02*
X123065952Y-96464219D01*
X123065952Y-96464219D02*
X122970714Y-96464219D01*
X123970714Y-95892790D02*
X123875476Y-95845171D01*
X123875476Y-95845171D02*
X123827857Y-95797552D01*
X123827857Y-95797552D02*
X123780238Y-95702314D01*
X123780238Y-95702314D02*
X123780238Y-95654695D01*
X123780238Y-95654695D02*
X123827857Y-95559457D01*
X123827857Y-95559457D02*
X123875476Y-95511838D01*
X123875476Y-95511838D02*
X123970714Y-95464219D01*
X123970714Y-95464219D02*
X124161190Y-95464219D01*
X124161190Y-95464219D02*
X124256428Y-95511838D01*
X124256428Y-95511838D02*
X124304047Y-95559457D01*
X124304047Y-95559457D02*
X124351666Y-95654695D01*
X124351666Y-95654695D02*
X124351666Y-95702314D01*
X124351666Y-95702314D02*
X124304047Y-95797552D01*
X124304047Y-95797552D02*
X124256428Y-95845171D01*
X124256428Y-95845171D02*
X124161190Y-95892790D01*
X124161190Y-95892790D02*
X123970714Y-95892790D01*
X123970714Y-95892790D02*
X123875476Y-95940409D01*
X123875476Y-95940409D02*
X123827857Y-95988028D01*
X123827857Y-95988028D02*
X123780238Y-96083266D01*
X123780238Y-96083266D02*
X123780238Y-96273742D01*
X123780238Y-96273742D02*
X123827857Y-96368980D01*
X123827857Y-96368980D02*
X123875476Y-96416600D01*
X123875476Y-96416600D02*
X123970714Y-96464219D01*
X123970714Y-96464219D02*
X124161190Y-96464219D01*
X124161190Y-96464219D02*
X124256428Y-96416600D01*
X124256428Y-96416600D02*
X124304047Y-96368980D01*
X124304047Y-96368980D02*
X124351666Y-96273742D01*
X124351666Y-96273742D02*
X124351666Y-96083266D01*
X124351666Y-96083266D02*
X124304047Y-95988028D01*
X124304047Y-95988028D02*
X124256428Y-95940409D01*
X124256428Y-95940409D02*
X124161190Y-95892790D01*
X141779619Y-118474956D02*
X141303428Y-118808289D01*
X141779619Y-119046384D02*
X140779619Y-119046384D01*
X140779619Y-119046384D02*
X140779619Y-118665432D01*
X140779619Y-118665432D02*
X140827238Y-118570194D01*
X140827238Y-118570194D02*
X140874857Y-118522575D01*
X140874857Y-118522575D02*
X140970095Y-118474956D01*
X140970095Y-118474956D02*
X141112952Y-118474956D01*
X141112952Y-118474956D02*
X141208190Y-118522575D01*
X141208190Y-118522575D02*
X141255809Y-118570194D01*
X141255809Y-118570194D02*
X141303428Y-118665432D01*
X141303428Y-118665432D02*
X141303428Y-119046384D01*
X141779619Y-117522575D02*
X141779619Y-118094003D01*
X141779619Y-117808289D02*
X140779619Y-117808289D01*
X140779619Y-117808289D02*
X140922476Y-117903527D01*
X140922476Y-117903527D02*
X141017714Y-117998765D01*
X141017714Y-117998765D02*
X141065333Y-118094003D01*
X140779619Y-116617813D02*
X140779619Y-117094003D01*
X140779619Y-117094003D02*
X141255809Y-117141622D01*
X141255809Y-117141622D02*
X141208190Y-117094003D01*
X141208190Y-117094003D02*
X141160571Y-116998765D01*
X141160571Y-116998765D02*
X141160571Y-116760670D01*
X141160571Y-116760670D02*
X141208190Y-116665432D01*
X141208190Y-116665432D02*
X141255809Y-116617813D01*
X141255809Y-116617813D02*
X141351047Y-116570194D01*
X141351047Y-116570194D02*
X141589142Y-116570194D01*
X141589142Y-116570194D02*
X141684380Y-116617813D01*
X141684380Y-116617813D02*
X141732000Y-116665432D01*
X141732000Y-116665432D02*
X141779619Y-116760670D01*
X141779619Y-116760670D02*
X141779619Y-116998765D01*
X141779619Y-116998765D02*
X141732000Y-117094003D01*
X141732000Y-117094003D02*
X141684380Y-117141622D01*
X162391466Y-80986219D02*
X162391466Y-81700504D01*
X162391466Y-81700504D02*
X162343847Y-81843361D01*
X162343847Y-81843361D02*
X162248609Y-81938600D01*
X162248609Y-81938600D02*
X162105752Y-81986219D01*
X162105752Y-81986219D02*
X162010514Y-81986219D01*
X163296228Y-81319552D02*
X163296228Y-81986219D01*
X163058133Y-80938600D02*
X162820038Y-81652885D01*
X162820038Y-81652885D02*
X163439085Y-81652885D01*
X149683333Y-98439419D02*
X149207143Y-98439419D01*
X149207143Y-98439419D02*
X149207143Y-97439419D01*
X150540476Y-98439419D02*
X149969048Y-98439419D01*
X150254762Y-98439419D02*
X150254762Y-97439419D01*
X150254762Y-97439419D02*
X150159524Y-97582276D01*
X150159524Y-97582276D02*
X150064286Y-97677514D01*
X150064286Y-97677514D02*
X149969048Y-97725133D01*
X145968895Y-116165019D02*
X146540323Y-116165019D01*
X146254609Y-117165019D02*
X146254609Y-116165019D01*
X146873657Y-117165019D02*
X146873657Y-116165019D01*
X146873657Y-116165019D02*
X147254609Y-116165019D01*
X147254609Y-116165019D02*
X147349847Y-116212638D01*
X147349847Y-116212638D02*
X147397466Y-116260257D01*
X147397466Y-116260257D02*
X147445085Y-116355495D01*
X147445085Y-116355495D02*
X147445085Y-116498352D01*
X147445085Y-116498352D02*
X147397466Y-116593590D01*
X147397466Y-116593590D02*
X147349847Y-116641209D01*
X147349847Y-116641209D02*
X147254609Y-116688828D01*
X147254609Y-116688828D02*
X146873657Y-116688828D01*
X148016514Y-116593590D02*
X147921276Y-116545971D01*
X147921276Y-116545971D02*
X147873657Y-116498352D01*
X147873657Y-116498352D02*
X147826038Y-116403114D01*
X147826038Y-116403114D02*
X147826038Y-116355495D01*
X147826038Y-116355495D02*
X147873657Y-116260257D01*
X147873657Y-116260257D02*
X147921276Y-116212638D01*
X147921276Y-116212638D02*
X148016514Y-116165019D01*
X148016514Y-116165019D02*
X148206990Y-116165019D01*
X148206990Y-116165019D02*
X148302228Y-116212638D01*
X148302228Y-116212638D02*
X148349847Y-116260257D01*
X148349847Y-116260257D02*
X148397466Y-116355495D01*
X148397466Y-116355495D02*
X148397466Y-116403114D01*
X148397466Y-116403114D02*
X148349847Y-116498352D01*
X148349847Y-116498352D02*
X148302228Y-116545971D01*
X148302228Y-116545971D02*
X148206990Y-116593590D01*
X148206990Y-116593590D02*
X148016514Y-116593590D01*
X148016514Y-116593590D02*
X147921276Y-116641209D01*
X147921276Y-116641209D02*
X147873657Y-116688828D01*
X147873657Y-116688828D02*
X147826038Y-116784066D01*
X147826038Y-116784066D02*
X147826038Y-116974542D01*
X147826038Y-116974542D02*
X147873657Y-117069780D01*
X147873657Y-117069780D02*
X147921276Y-117117400D01*
X147921276Y-117117400D02*
X148016514Y-117165019D01*
X148016514Y-117165019D02*
X148206990Y-117165019D01*
X148206990Y-117165019D02*
X148302228Y-117117400D01*
X148302228Y-117117400D02*
X148349847Y-117069780D01*
X148349847Y-117069780D02*
X148397466Y-116974542D01*
X148397466Y-116974542D02*
X148397466Y-116784066D01*
X148397466Y-116784066D02*
X148349847Y-116688828D01*
X148349847Y-116688828D02*
X148302228Y-116641209D01*
X148302228Y-116641209D02*
X148206990Y-116593590D01*
D11*
X129119637Y-86271318D02*
X129119637Y-85001318D01*
X130450114Y-86150365D02*
X130389638Y-86210842D01*
X130389638Y-86210842D02*
X130208209Y-86271318D01*
X130208209Y-86271318D02*
X130087257Y-86271318D01*
X130087257Y-86271318D02*
X129905828Y-86210842D01*
X129905828Y-86210842D02*
X129784876Y-86089889D01*
X129784876Y-86089889D02*
X129724399Y-85968937D01*
X129724399Y-85968937D02*
X129663923Y-85727032D01*
X129663923Y-85727032D02*
X129663923Y-85545603D01*
X129663923Y-85545603D02*
X129724399Y-85303699D01*
X129724399Y-85303699D02*
X129784876Y-85182746D01*
X129784876Y-85182746D02*
X129905828Y-85061794D01*
X129905828Y-85061794D02*
X130087257Y-85001318D01*
X130087257Y-85001318D02*
X130208209Y-85001318D01*
X130208209Y-85001318D02*
X130389638Y-85061794D01*
X130389638Y-85061794D02*
X130450114Y-85122270D01*
X131659638Y-86271318D02*
X130933923Y-86271318D01*
X131296780Y-86271318D02*
X131296780Y-85001318D01*
X131296780Y-85001318D02*
X131175828Y-85182746D01*
X131175828Y-85182746D02*
X131054876Y-85303699D01*
X131054876Y-85303699D02*
X130933923Y-85364175D01*
D10*
X141338095Y-73112219D02*
X141338095Y-73921742D01*
X141338095Y-73921742D02*
X141385714Y-74016980D01*
X141385714Y-74016980D02*
X141433333Y-74064600D01*
X141433333Y-74064600D02*
X141528571Y-74112219D01*
X141528571Y-74112219D02*
X141719047Y-74112219D01*
X141719047Y-74112219D02*
X141814285Y-74064600D01*
X141814285Y-74064600D02*
X141861904Y-74016980D01*
X141861904Y-74016980D02*
X141909523Y-73921742D01*
X141909523Y-73921742D02*
X141909523Y-73112219D01*
X142909523Y-74112219D02*
X142338095Y-74112219D01*
X142623809Y-74112219D02*
X142623809Y-73112219D01*
X142623809Y-73112219D02*
X142528571Y-73255076D01*
X142528571Y-73255076D02*
X142433333Y-73350314D01*
X142433333Y-73350314D02*
X142338095Y-73397933D01*
X139208380Y-98309666D02*
X139256000Y-98357285D01*
X139256000Y-98357285D02*
X139303619Y-98500142D01*
X139303619Y-98500142D02*
X139303619Y-98595380D01*
X139303619Y-98595380D02*
X139256000Y-98738237D01*
X139256000Y-98738237D02*
X139160761Y-98833475D01*
X139160761Y-98833475D02*
X139065523Y-98881094D01*
X139065523Y-98881094D02*
X138875047Y-98928713D01*
X138875047Y-98928713D02*
X138732190Y-98928713D01*
X138732190Y-98928713D02*
X138541714Y-98881094D01*
X138541714Y-98881094D02*
X138446476Y-98833475D01*
X138446476Y-98833475D02*
X138351238Y-98738237D01*
X138351238Y-98738237D02*
X138303619Y-98595380D01*
X138303619Y-98595380D02*
X138303619Y-98500142D01*
X138303619Y-98500142D02*
X138351238Y-98357285D01*
X138351238Y-98357285D02*
X138398857Y-98309666D01*
X139303619Y-97357285D02*
X139303619Y-97928713D01*
X139303619Y-97642999D02*
X138303619Y-97642999D01*
X138303619Y-97642999D02*
X138446476Y-97738237D01*
X138446476Y-97738237D02*
X138541714Y-97833475D01*
X138541714Y-97833475D02*
X138589333Y-97928713D01*
X134255380Y-105394256D02*
X134303000Y-105441875D01*
X134303000Y-105441875D02*
X134350619Y-105584732D01*
X134350619Y-105584732D02*
X134350619Y-105679970D01*
X134350619Y-105679970D02*
X134303000Y-105822827D01*
X134303000Y-105822827D02*
X134207761Y-105918065D01*
X134207761Y-105918065D02*
X134112523Y-105965684D01*
X134112523Y-105965684D02*
X133922047Y-106013303D01*
X133922047Y-106013303D02*
X133779190Y-106013303D01*
X133779190Y-106013303D02*
X133588714Y-105965684D01*
X133588714Y-105965684D02*
X133493476Y-105918065D01*
X133493476Y-105918065D02*
X133398238Y-105822827D01*
X133398238Y-105822827D02*
X133350619Y-105679970D01*
X133350619Y-105679970D02*
X133350619Y-105584732D01*
X133350619Y-105584732D02*
X133398238Y-105441875D01*
X133398238Y-105441875D02*
X133445857Y-105394256D01*
X134350619Y-104441875D02*
X134350619Y-105013303D01*
X134350619Y-104727589D02*
X133350619Y-104727589D01*
X133350619Y-104727589D02*
X133493476Y-104822827D01*
X133493476Y-104822827D02*
X133588714Y-104918065D01*
X133588714Y-104918065D02*
X133636333Y-105013303D01*
X133350619Y-104108541D02*
X133350619Y-103441875D01*
X133350619Y-103441875D02*
X134350619Y-103870446D01*
X150693295Y-102753819D02*
X151264723Y-102753819D01*
X150979009Y-103753819D02*
X150979009Y-102753819D01*
X151598057Y-103753819D02*
X151598057Y-102753819D01*
X151598057Y-102753819D02*
X151979009Y-102753819D01*
X151979009Y-102753819D02*
X152074247Y-102801438D01*
X152074247Y-102801438D02*
X152121866Y-102849057D01*
X152121866Y-102849057D02*
X152169485Y-102944295D01*
X152169485Y-102944295D02*
X152169485Y-103087152D01*
X152169485Y-103087152D02*
X152121866Y-103182390D01*
X152121866Y-103182390D02*
X152074247Y-103230009D01*
X152074247Y-103230009D02*
X151979009Y-103277628D01*
X151979009Y-103277628D02*
X151598057Y-103277628D01*
X152502819Y-102753819D02*
X153169485Y-102753819D01*
X153169485Y-102753819D02*
X152740914Y-103753819D01*
X175651219Y-101672933D02*
X176365504Y-101672933D01*
X176365504Y-101672933D02*
X176508361Y-101720552D01*
X176508361Y-101720552D02*
X176603600Y-101815790D01*
X176603600Y-101815790D02*
X176651219Y-101958647D01*
X176651219Y-101958647D02*
X176651219Y-102053885D01*
X175651219Y-100720552D02*
X175651219Y-101196742D01*
X175651219Y-101196742D02*
X176127409Y-101244361D01*
X176127409Y-101244361D02*
X176079790Y-101196742D01*
X176079790Y-101196742D02*
X176032171Y-101101504D01*
X176032171Y-101101504D02*
X176032171Y-100863409D01*
X176032171Y-100863409D02*
X176079790Y-100768171D01*
X176079790Y-100768171D02*
X176127409Y-100720552D01*
X176127409Y-100720552D02*
X176222647Y-100672933D01*
X176222647Y-100672933D02*
X176460742Y-100672933D01*
X176460742Y-100672933D02*
X176555980Y-100720552D01*
X176555980Y-100720552D02*
X176603600Y-100768171D01*
X176603600Y-100768171D02*
X176651219Y-100863409D01*
X176651219Y-100863409D02*
X176651219Y-101101504D01*
X176651219Y-101101504D02*
X176603600Y-101196742D01*
X176603600Y-101196742D02*
X176555980Y-101244361D01*
X137556505Y-113067818D02*
X137556505Y-112067818D01*
X137556505Y-112067818D02*
X137794600Y-112067818D01*
X137794600Y-112067818D02*
X137937457Y-112115437D01*
X137937457Y-112115437D02*
X138032695Y-112210675D01*
X138032695Y-112210675D02*
X138080314Y-112305913D01*
X138080314Y-112305913D02*
X138127933Y-112496389D01*
X138127933Y-112496389D02*
X138127933Y-112639246D01*
X138127933Y-112639246D02*
X138080314Y-112829722D01*
X138080314Y-112829722D02*
X138032695Y-112924960D01*
X138032695Y-112924960D02*
X137937457Y-113020199D01*
X137937457Y-113020199D02*
X137794600Y-113067818D01*
X137794600Y-113067818D02*
X137556505Y-113067818D01*
X139032695Y-112067818D02*
X138556505Y-112067818D01*
X138556505Y-112067818D02*
X138508886Y-112544008D01*
X138508886Y-112544008D02*
X138556505Y-112496389D01*
X138556505Y-112496389D02*
X138651743Y-112448770D01*
X138651743Y-112448770D02*
X138889838Y-112448770D01*
X138889838Y-112448770D02*
X138985076Y-112496389D01*
X138985076Y-112496389D02*
X139032695Y-112544008D01*
X139032695Y-112544008D02*
X139080314Y-112639246D01*
X139080314Y-112639246D02*
X139080314Y-112877341D01*
X139080314Y-112877341D02*
X139032695Y-112972579D01*
X139032695Y-112972579D02*
X138985076Y-113020199D01*
X138985076Y-113020199D02*
X138889838Y-113067818D01*
X138889838Y-113067818D02*
X138651743Y-113067818D01*
X138651743Y-113067818D02*
X138556505Y-113020199D01*
X138556505Y-113020199D02*
X138508886Y-112972579D01*
X142854142Y-103390418D02*
X142520809Y-102914227D01*
X142282714Y-103390418D02*
X142282714Y-102390418D01*
X142282714Y-102390418D02*
X142663666Y-102390418D01*
X142663666Y-102390418D02*
X142758904Y-102438037D01*
X142758904Y-102438037D02*
X142806523Y-102485656D01*
X142806523Y-102485656D02*
X142854142Y-102580894D01*
X142854142Y-102580894D02*
X142854142Y-102723751D01*
X142854142Y-102723751D02*
X142806523Y-102818989D01*
X142806523Y-102818989D02*
X142758904Y-102866608D01*
X142758904Y-102866608D02*
X142663666Y-102914227D01*
X142663666Y-102914227D02*
X142282714Y-102914227D01*
X143806523Y-103390418D02*
X143235095Y-103390418D01*
X143520809Y-103390418D02*
X143520809Y-102390418D01*
X143520809Y-102390418D02*
X143425571Y-102533275D01*
X143425571Y-102533275D02*
X143330333Y-102628513D01*
X143330333Y-102628513D02*
X143235095Y-102676132D01*
X144187476Y-102485656D02*
X144235095Y-102438037D01*
X144235095Y-102438037D02*
X144330333Y-102390418D01*
X144330333Y-102390418D02*
X144568428Y-102390418D01*
X144568428Y-102390418D02*
X144663666Y-102438037D01*
X144663666Y-102438037D02*
X144711285Y-102485656D01*
X144711285Y-102485656D02*
X144758904Y-102580894D01*
X144758904Y-102580894D02*
X144758904Y-102676132D01*
X144758904Y-102676132D02*
X144711285Y-102818989D01*
X144711285Y-102818989D02*
X144139857Y-103390418D01*
X144139857Y-103390418D02*
X144758904Y-103390418D01*
X129052495Y-93406619D02*
X129623923Y-93406619D01*
X129338209Y-94406619D02*
X129338209Y-93406619D01*
X129957257Y-94406619D02*
X129957257Y-93406619D01*
X129957257Y-93406619D02*
X130338209Y-93406619D01*
X130338209Y-93406619D02*
X130433447Y-93454238D01*
X130433447Y-93454238D02*
X130481066Y-93501857D01*
X130481066Y-93501857D02*
X130528685Y-93597095D01*
X130528685Y-93597095D02*
X130528685Y-93739952D01*
X130528685Y-93739952D02*
X130481066Y-93835190D01*
X130481066Y-93835190D02*
X130433447Y-93882809D01*
X130433447Y-93882809D02*
X130338209Y-93930428D01*
X130338209Y-93930428D02*
X129957257Y-93930428D01*
X131004876Y-94406619D02*
X131195352Y-94406619D01*
X131195352Y-94406619D02*
X131290590Y-94359000D01*
X131290590Y-94359000D02*
X131338209Y-94311380D01*
X131338209Y-94311380D02*
X131433447Y-94168523D01*
X131433447Y-94168523D02*
X131481066Y-93978047D01*
X131481066Y-93978047D02*
X131481066Y-93597095D01*
X131481066Y-93597095D02*
X131433447Y-93501857D01*
X131433447Y-93501857D02*
X131385828Y-93454238D01*
X131385828Y-93454238D02*
X131290590Y-93406619D01*
X131290590Y-93406619D02*
X131100114Y-93406619D01*
X131100114Y-93406619D02*
X131004876Y-93454238D01*
X131004876Y-93454238D02*
X130957257Y-93501857D01*
X130957257Y-93501857D02*
X130909638Y-93597095D01*
X130909638Y-93597095D02*
X130909638Y-93835190D01*
X130909638Y-93835190D02*
X130957257Y-93930428D01*
X130957257Y-93930428D02*
X131004876Y-93978047D01*
X131004876Y-93978047D02*
X131100114Y-94025666D01*
X131100114Y-94025666D02*
X131290590Y-94025666D01*
X131290590Y-94025666D02*
X131385828Y-93978047D01*
X131385828Y-93978047D02*
X131433447Y-93930428D01*
X131433447Y-93930428D02*
X131481066Y-93835190D01*
X145343342Y-115614179D02*
X145295723Y-115661799D01*
X145295723Y-115661799D02*
X145152866Y-115709418D01*
X145152866Y-115709418D02*
X145057628Y-115709418D01*
X145057628Y-115709418D02*
X144914771Y-115661799D01*
X144914771Y-115661799D02*
X144819533Y-115566560D01*
X144819533Y-115566560D02*
X144771914Y-115471322D01*
X144771914Y-115471322D02*
X144724295Y-115280846D01*
X144724295Y-115280846D02*
X144724295Y-115137989D01*
X144724295Y-115137989D02*
X144771914Y-114947513D01*
X144771914Y-114947513D02*
X144819533Y-114852275D01*
X144819533Y-114852275D02*
X144914771Y-114757037D01*
X144914771Y-114757037D02*
X145057628Y-114709418D01*
X145057628Y-114709418D02*
X145152866Y-114709418D01*
X145152866Y-114709418D02*
X145295723Y-114757037D01*
X145295723Y-114757037D02*
X145343342Y-114804656D01*
X146295723Y-115709418D02*
X145724295Y-115709418D01*
X146010009Y-115709418D02*
X146010009Y-114709418D01*
X146010009Y-114709418D02*
X145914771Y-114852275D01*
X145914771Y-114852275D02*
X145819533Y-114947513D01*
X145819533Y-114947513D02*
X145724295Y-114995132D01*
X147152866Y-115042751D02*
X147152866Y-115709418D01*
X146914771Y-114661799D02*
X146676676Y-115376084D01*
X146676676Y-115376084D02*
X147295723Y-115376084D01*
X140309204Y-109241179D02*
X140309204Y-108431656D01*
X140309204Y-108431656D02*
X140261585Y-108336418D01*
X140261585Y-108336418D02*
X140213966Y-108288799D01*
X140213966Y-108288799D02*
X140118728Y-108241179D01*
X140118728Y-108241179D02*
X139928252Y-108241179D01*
X139928252Y-108241179D02*
X139833014Y-108288799D01*
X139833014Y-108288799D02*
X139785395Y-108336418D01*
X139785395Y-108336418D02*
X139737776Y-108431656D01*
X139737776Y-108431656D02*
X139737776Y-109241179D01*
X138833014Y-108907846D02*
X138833014Y-108241179D01*
X139071109Y-109288799D02*
X139309204Y-108574513D01*
X139309204Y-108574513D02*
X138690157Y-108574513D01*
X142989000Y-110150818D02*
X142989000Y-110388913D01*
X142750905Y-110293675D02*
X142989000Y-110388913D01*
X142989000Y-110388913D02*
X143227095Y-110293675D01*
X142846143Y-110579389D02*
X142989000Y-110388913D01*
X142989000Y-110388913D02*
X143131857Y-110579389D01*
X142988999Y-111241179D02*
X142988999Y-111003084D01*
X143227094Y-111098322D02*
X142988999Y-111003084D01*
X142988999Y-111003084D02*
X142750904Y-111098322D01*
X143131856Y-110812608D02*
X142988999Y-111003084D01*
X142988999Y-111003084D02*
X142846142Y-110812608D01*
X124037466Y-111313819D02*
X124037466Y-112028104D01*
X124037466Y-112028104D02*
X123989847Y-112170961D01*
X123989847Y-112170961D02*
X123894609Y-112266200D01*
X123894609Y-112266200D02*
X123751752Y-112313819D01*
X123751752Y-112313819D02*
X123656514Y-112313819D01*
X124418419Y-111313819D02*
X125037466Y-111313819D01*
X125037466Y-111313819D02*
X124704133Y-111694771D01*
X124704133Y-111694771D02*
X124846990Y-111694771D01*
X124846990Y-111694771D02*
X124942228Y-111742390D01*
X124942228Y-111742390D02*
X124989847Y-111790009D01*
X124989847Y-111790009D02*
X125037466Y-111885247D01*
X125037466Y-111885247D02*
X125037466Y-112123342D01*
X125037466Y-112123342D02*
X124989847Y-112218580D01*
X124989847Y-112218580D02*
X124942228Y-112266200D01*
X124942228Y-112266200D02*
X124846990Y-112313819D01*
X124846990Y-112313819D02*
X124561276Y-112313819D01*
X124561276Y-112313819D02*
X124466038Y-112266200D01*
X124466038Y-112266200D02*
X124418419Y-112218580D01*
X142879542Y-104920779D02*
X142831923Y-104968399D01*
X142831923Y-104968399D02*
X142689066Y-105016018D01*
X142689066Y-105016018D02*
X142593828Y-105016018D01*
X142593828Y-105016018D02*
X142450971Y-104968399D01*
X142450971Y-104968399D02*
X142355733Y-104873160D01*
X142355733Y-104873160D02*
X142308114Y-104777922D01*
X142308114Y-104777922D02*
X142260495Y-104587446D01*
X142260495Y-104587446D02*
X142260495Y-104444589D01*
X142260495Y-104444589D02*
X142308114Y-104254113D01*
X142308114Y-104254113D02*
X142355733Y-104158875D01*
X142355733Y-104158875D02*
X142450971Y-104063637D01*
X142450971Y-104063637D02*
X142593828Y-104016018D01*
X142593828Y-104016018D02*
X142689066Y-104016018D01*
X142689066Y-104016018D02*
X142831923Y-104063637D01*
X142831923Y-104063637D02*
X142879542Y-104111256D01*
X143831923Y-105016018D02*
X143260495Y-105016018D01*
X143546209Y-105016018D02*
X143546209Y-104016018D01*
X143546209Y-104016018D02*
X143450971Y-104158875D01*
X143450971Y-104158875D02*
X143355733Y-104254113D01*
X143355733Y-104254113D02*
X143260495Y-104301732D01*
X144736685Y-104016018D02*
X144260495Y-104016018D01*
X144260495Y-104016018D02*
X144212876Y-104492208D01*
X144212876Y-104492208D02*
X144260495Y-104444589D01*
X144260495Y-104444589D02*
X144355733Y-104396970D01*
X144355733Y-104396970D02*
X144593828Y-104396970D01*
X144593828Y-104396970D02*
X144689066Y-104444589D01*
X144689066Y-104444589D02*
X144736685Y-104492208D01*
X144736685Y-104492208D02*
X144784304Y-104587446D01*
X144784304Y-104587446D02*
X144784304Y-104825541D01*
X144784304Y-104825541D02*
X144736685Y-104920779D01*
X144736685Y-104920779D02*
X144689066Y-104968399D01*
X144689066Y-104968399D02*
X144593828Y-105016018D01*
X144593828Y-105016018D02*
X144355733Y-105016018D01*
X144355733Y-105016018D02*
X144260495Y-104968399D01*
X144260495Y-104968399D02*
X144212876Y-104920779D01*
X135707619Y-118488156D02*
X135231428Y-118821489D01*
X135707619Y-119059584D02*
X134707619Y-119059584D01*
X134707619Y-119059584D02*
X134707619Y-118678632D01*
X134707619Y-118678632D02*
X134755238Y-118583394D01*
X134755238Y-118583394D02*
X134802857Y-118535775D01*
X134802857Y-118535775D02*
X134898095Y-118488156D01*
X134898095Y-118488156D02*
X135040952Y-118488156D01*
X135040952Y-118488156D02*
X135136190Y-118535775D01*
X135136190Y-118535775D02*
X135183809Y-118583394D01*
X135183809Y-118583394D02*
X135231428Y-118678632D01*
X135231428Y-118678632D02*
X135231428Y-119059584D01*
X135707619Y-117535775D02*
X135707619Y-118107203D01*
X135707619Y-117821489D02*
X134707619Y-117821489D01*
X134707619Y-117821489D02*
X134850476Y-117916727D01*
X134850476Y-117916727D02*
X134945714Y-118011965D01*
X134945714Y-118011965D02*
X134993333Y-118107203D01*
X134707619Y-117202441D02*
X134707619Y-116583394D01*
X134707619Y-116583394D02*
X135088571Y-116916727D01*
X135088571Y-116916727D02*
X135088571Y-116773870D01*
X135088571Y-116773870D02*
X135136190Y-116678632D01*
X135136190Y-116678632D02*
X135183809Y-116631013D01*
X135183809Y-116631013D02*
X135279047Y-116583394D01*
X135279047Y-116583394D02*
X135517142Y-116583394D01*
X135517142Y-116583394D02*
X135612380Y-116631013D01*
X135612380Y-116631013D02*
X135660000Y-116678632D01*
X135660000Y-116678632D02*
X135707619Y-116773870D01*
X135707619Y-116773870D02*
X135707619Y-117059584D01*
X135707619Y-117059584D02*
X135660000Y-117154822D01*
X135660000Y-117154822D02*
X135612380Y-117202441D01*
X144516980Y-98309666D02*
X144564600Y-98357285D01*
X144564600Y-98357285D02*
X144612219Y-98500142D01*
X144612219Y-98500142D02*
X144612219Y-98595380D01*
X144612219Y-98595380D02*
X144564600Y-98738237D01*
X144564600Y-98738237D02*
X144469361Y-98833475D01*
X144469361Y-98833475D02*
X144374123Y-98881094D01*
X144374123Y-98881094D02*
X144183647Y-98928713D01*
X144183647Y-98928713D02*
X144040790Y-98928713D01*
X144040790Y-98928713D02*
X143850314Y-98881094D01*
X143850314Y-98881094D02*
X143755076Y-98833475D01*
X143755076Y-98833475D02*
X143659838Y-98738237D01*
X143659838Y-98738237D02*
X143612219Y-98595380D01*
X143612219Y-98595380D02*
X143612219Y-98500142D01*
X143612219Y-98500142D02*
X143659838Y-98357285D01*
X143659838Y-98357285D02*
X143707457Y-98309666D01*
X143707457Y-97928713D02*
X143659838Y-97881094D01*
X143659838Y-97881094D02*
X143612219Y-97785856D01*
X143612219Y-97785856D02*
X143612219Y-97547761D01*
X143612219Y-97547761D02*
X143659838Y-97452523D01*
X143659838Y-97452523D02*
X143707457Y-97404904D01*
X143707457Y-97404904D02*
X143802695Y-97357285D01*
X143802695Y-97357285D02*
X143897933Y-97357285D01*
X143897933Y-97357285D02*
X144040790Y-97404904D01*
X144040790Y-97404904D02*
X144612219Y-97976332D01*
X144612219Y-97976332D02*
X144612219Y-97357285D01*
X170310809Y-85633233D02*
X170310809Y-85966566D01*
X170834619Y-85966566D02*
X169834619Y-85966566D01*
X169834619Y-85966566D02*
X169834619Y-85490376D01*
X170310809Y-84776090D02*
X170358428Y-84633233D01*
X170358428Y-84633233D02*
X170406047Y-84585614D01*
X170406047Y-84585614D02*
X170501285Y-84537995D01*
X170501285Y-84537995D02*
X170644142Y-84537995D01*
X170644142Y-84537995D02*
X170739380Y-84585614D01*
X170739380Y-84585614D02*
X170787000Y-84633233D01*
X170787000Y-84633233D02*
X170834619Y-84728471D01*
X170834619Y-84728471D02*
X170834619Y-85109423D01*
X170834619Y-85109423D02*
X169834619Y-85109423D01*
X169834619Y-85109423D02*
X169834619Y-84776090D01*
X169834619Y-84776090D02*
X169882238Y-84680852D01*
X169882238Y-84680852D02*
X169929857Y-84633233D01*
X169929857Y-84633233D02*
X170025095Y-84585614D01*
X170025095Y-84585614D02*
X170120333Y-84585614D01*
X170120333Y-84585614D02*
X170215571Y-84633233D01*
X170215571Y-84633233D02*
X170263190Y-84680852D01*
X170263190Y-84680852D02*
X170310809Y-84776090D01*
X170310809Y-84776090D02*
X170310809Y-85109423D01*
X170834619Y-83585614D02*
X170834619Y-84157042D01*
X170834619Y-83871328D02*
X169834619Y-83871328D01*
X169834619Y-83871328D02*
X169977476Y-83966566D01*
X169977476Y-83966566D02*
X170072714Y-84061804D01*
X170072714Y-84061804D02*
X170120333Y-84157042D01*
X120700667Y-115480400D02*
X120843524Y-115528019D01*
X120843524Y-115528019D02*
X121081619Y-115528019D01*
X121081619Y-115528019D02*
X121176857Y-115480400D01*
X121176857Y-115480400D02*
X121224476Y-115432780D01*
X121224476Y-115432780D02*
X121272095Y-115337542D01*
X121272095Y-115337542D02*
X121272095Y-115242304D01*
X121272095Y-115242304D02*
X121224476Y-115147066D01*
X121224476Y-115147066D02*
X121176857Y-115099447D01*
X121176857Y-115099447D02*
X121081619Y-115051828D01*
X121081619Y-115051828D02*
X120891143Y-115004209D01*
X120891143Y-115004209D02*
X120795905Y-114956590D01*
X120795905Y-114956590D02*
X120748286Y-114908971D01*
X120748286Y-114908971D02*
X120700667Y-114813733D01*
X120700667Y-114813733D02*
X120700667Y-114718495D01*
X120700667Y-114718495D02*
X120748286Y-114623257D01*
X120748286Y-114623257D02*
X120795905Y-114575638D01*
X120795905Y-114575638D02*
X120891143Y-114528019D01*
X120891143Y-114528019D02*
X121129238Y-114528019D01*
X121129238Y-114528019D02*
X121272095Y-114575638D01*
X121605429Y-114528019D02*
X121843524Y-115528019D01*
X121843524Y-115528019D02*
X122034000Y-114813733D01*
X122034000Y-114813733D02*
X122224476Y-115528019D01*
X122224476Y-115528019D02*
X122462572Y-114528019D01*
X123272095Y-114861352D02*
X123272095Y-115528019D01*
X123034000Y-114480400D02*
X122795905Y-115194685D01*
X122795905Y-115194685D02*
X123414952Y-115194685D01*
X142841942Y-101845618D02*
X142508609Y-101369427D01*
X142270514Y-101845618D02*
X142270514Y-100845618D01*
X142270514Y-100845618D02*
X142651466Y-100845618D01*
X142651466Y-100845618D02*
X142746704Y-100893237D01*
X142746704Y-100893237D02*
X142794323Y-100940856D01*
X142794323Y-100940856D02*
X142841942Y-101036094D01*
X142841942Y-101036094D02*
X142841942Y-101178951D01*
X142841942Y-101178951D02*
X142794323Y-101274189D01*
X142794323Y-101274189D02*
X142746704Y-101321808D01*
X142746704Y-101321808D02*
X142651466Y-101369427D01*
X142651466Y-101369427D02*
X142270514Y-101369427D01*
X143794323Y-101845618D02*
X143222895Y-101845618D01*
X143508609Y-101845618D02*
X143508609Y-100845618D01*
X143508609Y-100845618D02*
X143413371Y-100988475D01*
X143413371Y-100988475D02*
X143318133Y-101083713D01*
X143318133Y-101083713D02*
X143222895Y-101131332D01*
X144746704Y-101845618D02*
X144175276Y-101845618D01*
X144460990Y-101845618D02*
X144460990Y-100845618D01*
X144460990Y-100845618D02*
X144365752Y-100988475D01*
X144365752Y-100988475D02*
X144270514Y-101083713D01*
X144270514Y-101083713D02*
X144175276Y-101131332D01*
X131207380Y-105419656D02*
X131255000Y-105467275D01*
X131255000Y-105467275D02*
X131302619Y-105610132D01*
X131302619Y-105610132D02*
X131302619Y-105705370D01*
X131302619Y-105705370D02*
X131255000Y-105848227D01*
X131255000Y-105848227D02*
X131159761Y-105943465D01*
X131159761Y-105943465D02*
X131064523Y-105991084D01*
X131064523Y-105991084D02*
X130874047Y-106038703D01*
X130874047Y-106038703D02*
X130731190Y-106038703D01*
X130731190Y-106038703D02*
X130540714Y-105991084D01*
X130540714Y-105991084D02*
X130445476Y-105943465D01*
X130445476Y-105943465D02*
X130350238Y-105848227D01*
X130350238Y-105848227D02*
X130302619Y-105705370D01*
X130302619Y-105705370D02*
X130302619Y-105610132D01*
X130302619Y-105610132D02*
X130350238Y-105467275D01*
X130350238Y-105467275D02*
X130397857Y-105419656D01*
X131302619Y-104467275D02*
X131302619Y-105038703D01*
X131302619Y-104752989D02*
X130302619Y-104752989D01*
X130302619Y-104752989D02*
X130445476Y-104848227D01*
X130445476Y-104848227D02*
X130540714Y-104943465D01*
X130540714Y-104943465D02*
X130588333Y-105038703D01*
X131302619Y-103991084D02*
X131302619Y-103800608D01*
X131302619Y-103800608D02*
X131255000Y-103705370D01*
X131255000Y-103705370D02*
X131207380Y-103657751D01*
X131207380Y-103657751D02*
X131064523Y-103562513D01*
X131064523Y-103562513D02*
X130874047Y-103514894D01*
X130874047Y-103514894D02*
X130493095Y-103514894D01*
X130493095Y-103514894D02*
X130397857Y-103562513D01*
X130397857Y-103562513D02*
X130350238Y-103610132D01*
X130350238Y-103610132D02*
X130302619Y-103705370D01*
X130302619Y-103705370D02*
X130302619Y-103895846D01*
X130302619Y-103895846D02*
X130350238Y-103991084D01*
X130350238Y-103991084D02*
X130397857Y-104038703D01*
X130397857Y-104038703D02*
X130493095Y-104086322D01*
X130493095Y-104086322D02*
X130731190Y-104086322D01*
X130731190Y-104086322D02*
X130826428Y-104038703D01*
X130826428Y-104038703D02*
X130874047Y-103991084D01*
X130874047Y-103991084D02*
X130921666Y-103895846D01*
X130921666Y-103895846D02*
X130921666Y-103705370D01*
X130921666Y-103705370D02*
X130874047Y-103610132D01*
X130874047Y-103610132D02*
X130826428Y-103562513D01*
X130826428Y-103562513D02*
X130731190Y-103514894D01*
X178422800Y-85887332D02*
X178470419Y-85744475D01*
X178470419Y-85744475D02*
X178470419Y-85506380D01*
X178470419Y-85506380D02*
X178422800Y-85411142D01*
X178422800Y-85411142D02*
X178375180Y-85363523D01*
X178375180Y-85363523D02*
X178279942Y-85315904D01*
X178279942Y-85315904D02*
X178184704Y-85315904D01*
X178184704Y-85315904D02*
X178089466Y-85363523D01*
X178089466Y-85363523D02*
X178041847Y-85411142D01*
X178041847Y-85411142D02*
X177994228Y-85506380D01*
X177994228Y-85506380D02*
X177946609Y-85696856D01*
X177946609Y-85696856D02*
X177898990Y-85792094D01*
X177898990Y-85792094D02*
X177851371Y-85839713D01*
X177851371Y-85839713D02*
X177756133Y-85887332D01*
X177756133Y-85887332D02*
X177660895Y-85887332D01*
X177660895Y-85887332D02*
X177565657Y-85839713D01*
X177565657Y-85839713D02*
X177518038Y-85792094D01*
X177518038Y-85792094D02*
X177470419Y-85696856D01*
X177470419Y-85696856D02*
X177470419Y-85458761D01*
X177470419Y-85458761D02*
X177518038Y-85315904D01*
X177470419Y-84982570D02*
X178470419Y-84744475D01*
X178470419Y-84744475D02*
X177756133Y-84553999D01*
X177756133Y-84553999D02*
X178470419Y-84363523D01*
X178470419Y-84363523D02*
X177470419Y-84125428D01*
X177470419Y-83268285D02*
X177470419Y-83744475D01*
X177470419Y-83744475D02*
X177946609Y-83792094D01*
X177946609Y-83792094D02*
X177898990Y-83744475D01*
X177898990Y-83744475D02*
X177851371Y-83649237D01*
X177851371Y-83649237D02*
X177851371Y-83411142D01*
X177851371Y-83411142D02*
X177898990Y-83315904D01*
X177898990Y-83315904D02*
X177946609Y-83268285D01*
X177946609Y-83268285D02*
X178041847Y-83220666D01*
X178041847Y-83220666D02*
X178279942Y-83220666D01*
X178279942Y-83220666D02*
X178375180Y-83268285D01*
X178375180Y-83268285D02*
X178422800Y-83315904D01*
X178422800Y-83315904D02*
X178470419Y-83411142D01*
X178470419Y-83411142D02*
X178470419Y-83649237D01*
X178470419Y-83649237D02*
X178422800Y-83744475D01*
X178422800Y-83744475D02*
X178375180Y-83792094D01*
X120837066Y-106614819D02*
X120837066Y-107329104D01*
X120837066Y-107329104D02*
X120789447Y-107471961D01*
X120789447Y-107471961D02*
X120694209Y-107567200D01*
X120694209Y-107567200D02*
X120551352Y-107614819D01*
X120551352Y-107614819D02*
X120456114Y-107614819D01*
X121837066Y-107614819D02*
X121265638Y-107614819D01*
X121551352Y-107614819D02*
X121551352Y-106614819D01*
X121551352Y-106614819D02*
X121456114Y-106757676D01*
X121456114Y-106757676D02*
X121360876Y-106852914D01*
X121360876Y-106852914D02*
X121265638Y-106900533D01*
X124647066Y-101585619D02*
X124647066Y-102299904D01*
X124647066Y-102299904D02*
X124599447Y-102442761D01*
X124599447Y-102442761D02*
X124504209Y-102538000D01*
X124504209Y-102538000D02*
X124361352Y-102585619D01*
X124361352Y-102585619D02*
X124266114Y-102585619D01*
X125028019Y-101585619D02*
X125694685Y-101585619D01*
X125694685Y-101585619D02*
X125266114Y-102585619D01*
X137158580Y-105305656D02*
X137206200Y-105353275D01*
X137206200Y-105353275D02*
X137253819Y-105496132D01*
X137253819Y-105496132D02*
X137253819Y-105591370D01*
X137253819Y-105591370D02*
X137206200Y-105734227D01*
X137206200Y-105734227D02*
X137110961Y-105829465D01*
X137110961Y-105829465D02*
X137015723Y-105877084D01*
X137015723Y-105877084D02*
X136825247Y-105924703D01*
X136825247Y-105924703D02*
X136682390Y-105924703D01*
X136682390Y-105924703D02*
X136491914Y-105877084D01*
X136491914Y-105877084D02*
X136396676Y-105829465D01*
X136396676Y-105829465D02*
X136301438Y-105734227D01*
X136301438Y-105734227D02*
X136253819Y-105591370D01*
X136253819Y-105591370D02*
X136253819Y-105496132D01*
X136253819Y-105496132D02*
X136301438Y-105353275D01*
X136301438Y-105353275D02*
X136349057Y-105305656D01*
X137253819Y-104353275D02*
X137253819Y-104924703D01*
X137253819Y-104638989D02*
X136253819Y-104638989D01*
X136253819Y-104638989D02*
X136396676Y-104734227D01*
X136396676Y-104734227D02*
X136491914Y-104829465D01*
X136491914Y-104829465D02*
X136539533Y-104924703D01*
X136253819Y-104019941D02*
X136253819Y-103400894D01*
X136253819Y-103400894D02*
X136634771Y-103734227D01*
X136634771Y-103734227D02*
X136634771Y-103591370D01*
X136634771Y-103591370D02*
X136682390Y-103496132D01*
X136682390Y-103496132D02*
X136730009Y-103448513D01*
X136730009Y-103448513D02*
X136825247Y-103400894D01*
X136825247Y-103400894D02*
X137063342Y-103400894D01*
X137063342Y-103400894D02*
X137158580Y-103448513D01*
X137158580Y-103448513D02*
X137206200Y-103496132D01*
X137206200Y-103496132D02*
X137253819Y-103591370D01*
X137253819Y-103591370D02*
X137253819Y-103877084D01*
X137253819Y-103877084D02*
X137206200Y-103972322D01*
X137206200Y-103972322D02*
X137158580Y-104019941D01*
X136285619Y-98423256D02*
X135809428Y-98756589D01*
X136285619Y-98994684D02*
X135285619Y-98994684D01*
X135285619Y-98994684D02*
X135285619Y-98613732D01*
X135285619Y-98613732D02*
X135333238Y-98518494D01*
X135333238Y-98518494D02*
X135380857Y-98470875D01*
X135380857Y-98470875D02*
X135476095Y-98423256D01*
X135476095Y-98423256D02*
X135618952Y-98423256D01*
X135618952Y-98423256D02*
X135714190Y-98470875D01*
X135714190Y-98470875D02*
X135761809Y-98518494D01*
X135761809Y-98518494D02*
X135809428Y-98613732D01*
X135809428Y-98613732D02*
X135809428Y-98994684D01*
X136285619Y-97470875D02*
X136285619Y-98042303D01*
X136285619Y-97756589D02*
X135285619Y-97756589D01*
X135285619Y-97756589D02*
X135428476Y-97851827D01*
X135428476Y-97851827D02*
X135523714Y-97947065D01*
X135523714Y-97947065D02*
X135571333Y-98042303D01*
X135285619Y-97137541D02*
X135285619Y-96470875D01*
X135285619Y-96470875D02*
X136285619Y-96899446D01*
X129532142Y-112007379D02*
X129484523Y-112054999D01*
X129484523Y-112054999D02*
X129341666Y-112102618D01*
X129341666Y-112102618D02*
X129246428Y-112102618D01*
X129246428Y-112102618D02*
X129103571Y-112054999D01*
X129103571Y-112054999D02*
X129008333Y-111959760D01*
X129008333Y-111959760D02*
X128960714Y-111864522D01*
X128960714Y-111864522D02*
X128913095Y-111674046D01*
X128913095Y-111674046D02*
X128913095Y-111531189D01*
X128913095Y-111531189D02*
X128960714Y-111340713D01*
X128960714Y-111340713D02*
X129008333Y-111245475D01*
X129008333Y-111245475D02*
X129103571Y-111150237D01*
X129103571Y-111150237D02*
X129246428Y-111102618D01*
X129246428Y-111102618D02*
X129341666Y-111102618D01*
X129341666Y-111102618D02*
X129484523Y-111150237D01*
X129484523Y-111150237D02*
X129532142Y-111197856D01*
X130484523Y-112102618D02*
X129913095Y-112102618D01*
X130198809Y-112102618D02*
X130198809Y-111102618D01*
X130198809Y-111102618D02*
X130103571Y-111245475D01*
X130103571Y-111245475D02*
X130008333Y-111340713D01*
X130008333Y-111340713D02*
X129913095Y-111388332D01*
X131436904Y-112102618D02*
X130865476Y-112102618D01*
X131151190Y-112102618D02*
X131151190Y-111102618D01*
X131151190Y-111102618D02*
X131055952Y-111245475D01*
X131055952Y-111245475D02*
X130960714Y-111340713D01*
X130960714Y-111340713D02*
X130865476Y-111388332D01*
X132731380Y-105394256D02*
X132779000Y-105441875D01*
X132779000Y-105441875D02*
X132826619Y-105584732D01*
X132826619Y-105584732D02*
X132826619Y-105679970D01*
X132826619Y-105679970D02*
X132779000Y-105822827D01*
X132779000Y-105822827D02*
X132683761Y-105918065D01*
X132683761Y-105918065D02*
X132588523Y-105965684D01*
X132588523Y-105965684D02*
X132398047Y-106013303D01*
X132398047Y-106013303D02*
X132255190Y-106013303D01*
X132255190Y-106013303D02*
X132064714Y-105965684D01*
X132064714Y-105965684D02*
X131969476Y-105918065D01*
X131969476Y-105918065D02*
X131874238Y-105822827D01*
X131874238Y-105822827D02*
X131826619Y-105679970D01*
X131826619Y-105679970D02*
X131826619Y-105584732D01*
X131826619Y-105584732D02*
X131874238Y-105441875D01*
X131874238Y-105441875D02*
X131921857Y-105394256D01*
X132826619Y-104441875D02*
X132826619Y-105013303D01*
X132826619Y-104727589D02*
X131826619Y-104727589D01*
X131826619Y-104727589D02*
X131969476Y-104822827D01*
X131969476Y-104822827D02*
X132064714Y-104918065D01*
X132064714Y-104918065D02*
X132112333Y-105013303D01*
X132255190Y-103870446D02*
X132207571Y-103965684D01*
X132207571Y-103965684D02*
X132159952Y-104013303D01*
X132159952Y-104013303D02*
X132064714Y-104060922D01*
X132064714Y-104060922D02*
X132017095Y-104060922D01*
X132017095Y-104060922D02*
X131921857Y-104013303D01*
X131921857Y-104013303D02*
X131874238Y-103965684D01*
X131874238Y-103965684D02*
X131826619Y-103870446D01*
X131826619Y-103870446D02*
X131826619Y-103679970D01*
X131826619Y-103679970D02*
X131874238Y-103584732D01*
X131874238Y-103584732D02*
X131921857Y-103537113D01*
X131921857Y-103537113D02*
X132017095Y-103489494D01*
X132017095Y-103489494D02*
X132064714Y-103489494D01*
X132064714Y-103489494D02*
X132159952Y-103537113D01*
X132159952Y-103537113D02*
X132207571Y-103584732D01*
X132207571Y-103584732D02*
X132255190Y-103679970D01*
X132255190Y-103679970D02*
X132255190Y-103870446D01*
X132255190Y-103870446D02*
X132302809Y-103965684D01*
X132302809Y-103965684D02*
X132350428Y-104013303D01*
X132350428Y-104013303D02*
X132445666Y-104060922D01*
X132445666Y-104060922D02*
X132636142Y-104060922D01*
X132636142Y-104060922D02*
X132731380Y-104013303D01*
X132731380Y-104013303D02*
X132779000Y-103965684D01*
X132779000Y-103965684D02*
X132826619Y-103870446D01*
X132826619Y-103870446D02*
X132826619Y-103679970D01*
X132826619Y-103679970D02*
X132779000Y-103584732D01*
X132779000Y-103584732D02*
X132731380Y-103537113D01*
X132731380Y-103537113D02*
X132636142Y-103489494D01*
X132636142Y-103489494D02*
X132445666Y-103489494D01*
X132445666Y-103489494D02*
X132350428Y-103537113D01*
X132350428Y-103537113D02*
X132302809Y-103584732D01*
X132302809Y-103584732D02*
X132255190Y-103679970D01*
X137835019Y-98575656D02*
X137358828Y-98908989D01*
X137835019Y-99147084D02*
X136835019Y-99147084D01*
X136835019Y-99147084D02*
X136835019Y-98766132D01*
X136835019Y-98766132D02*
X136882638Y-98670894D01*
X136882638Y-98670894D02*
X136930257Y-98623275D01*
X136930257Y-98623275D02*
X137025495Y-98575656D01*
X137025495Y-98575656D02*
X137168352Y-98575656D01*
X137168352Y-98575656D02*
X137263590Y-98623275D01*
X137263590Y-98623275D02*
X137311209Y-98670894D01*
X137311209Y-98670894D02*
X137358828Y-98766132D01*
X137358828Y-98766132D02*
X137358828Y-99147084D01*
X137835019Y-97623275D02*
X137835019Y-98194703D01*
X137835019Y-97908989D02*
X136835019Y-97908989D01*
X136835019Y-97908989D02*
X136977876Y-98004227D01*
X136977876Y-98004227D02*
X137073114Y-98099465D01*
X137073114Y-98099465D02*
X137120733Y-98194703D01*
X136835019Y-96766132D02*
X136835019Y-96956608D01*
X136835019Y-96956608D02*
X136882638Y-97051846D01*
X136882638Y-97051846D02*
X136930257Y-97099465D01*
X136930257Y-97099465D02*
X137073114Y-97194703D01*
X137073114Y-97194703D02*
X137263590Y-97242322D01*
X137263590Y-97242322D02*
X137644542Y-97242322D01*
X137644542Y-97242322D02*
X137739780Y-97194703D01*
X137739780Y-97194703D02*
X137787400Y-97147084D01*
X137787400Y-97147084D02*
X137835019Y-97051846D01*
X137835019Y-97051846D02*
X137835019Y-96861370D01*
X137835019Y-96861370D02*
X137787400Y-96766132D01*
X137787400Y-96766132D02*
X137739780Y-96718513D01*
X137739780Y-96718513D02*
X137644542Y-96670894D01*
X137644542Y-96670894D02*
X137406447Y-96670894D01*
X137406447Y-96670894D02*
X137311209Y-96718513D01*
X137311209Y-96718513D02*
X137263590Y-96766132D01*
X137263590Y-96766132D02*
X137215971Y-96861370D01*
X137215971Y-96861370D02*
X137215971Y-97051846D01*
X137215971Y-97051846D02*
X137263590Y-97147084D01*
X137263590Y-97147084D02*
X137311209Y-97194703D01*
X137311209Y-97194703D02*
X137406447Y-97242322D01*
X141779619Y-115535393D02*
X140779619Y-115535393D01*
X140779619Y-115535393D02*
X140779619Y-115297298D01*
X140779619Y-115297298D02*
X140827238Y-115154441D01*
X140827238Y-115154441D02*
X140922476Y-115059203D01*
X140922476Y-115059203D02*
X141017714Y-115011584D01*
X141017714Y-115011584D02*
X141208190Y-114963965D01*
X141208190Y-114963965D02*
X141351047Y-114963965D01*
X141351047Y-114963965D02*
X141541523Y-115011584D01*
X141541523Y-115011584D02*
X141636761Y-115059203D01*
X141636761Y-115059203D02*
X141732000Y-115154441D01*
X141732000Y-115154441D02*
X141779619Y-115297298D01*
X141779619Y-115297298D02*
X141779619Y-115535393D01*
X140779619Y-114106822D02*
X140779619Y-114297298D01*
X140779619Y-114297298D02*
X140827238Y-114392536D01*
X140827238Y-114392536D02*
X140874857Y-114440155D01*
X140874857Y-114440155D02*
X141017714Y-114535393D01*
X141017714Y-114535393D02*
X141208190Y-114583012D01*
X141208190Y-114583012D02*
X141589142Y-114583012D01*
X141589142Y-114583012D02*
X141684380Y-114535393D01*
X141684380Y-114535393D02*
X141732000Y-114487774D01*
X141732000Y-114487774D02*
X141779619Y-114392536D01*
X141779619Y-114392536D02*
X141779619Y-114202060D01*
X141779619Y-114202060D02*
X141732000Y-114106822D01*
X141732000Y-114106822D02*
X141684380Y-114059203D01*
X141684380Y-114059203D02*
X141589142Y-114011584D01*
X141589142Y-114011584D02*
X141351047Y-114011584D01*
X141351047Y-114011584D02*
X141255809Y-114059203D01*
X141255809Y-114059203D02*
X141208190Y-114106822D01*
X141208190Y-114106822D02*
X141160571Y-114202060D01*
X141160571Y-114202060D02*
X141160571Y-114392536D01*
X141160571Y-114392536D02*
X141208190Y-114487774D01*
X141208190Y-114487774D02*
X141255809Y-114535393D01*
X141255809Y-114535393D02*
X141351047Y-114583012D01*
X135682219Y-115509993D02*
X134682219Y-115509993D01*
X134682219Y-115509993D02*
X134682219Y-115271898D01*
X134682219Y-115271898D02*
X134729838Y-115129041D01*
X134729838Y-115129041D02*
X134825076Y-115033803D01*
X134825076Y-115033803D02*
X134920314Y-114986184D01*
X134920314Y-114986184D02*
X135110790Y-114938565D01*
X135110790Y-114938565D02*
X135253647Y-114938565D01*
X135253647Y-114938565D02*
X135444123Y-114986184D01*
X135444123Y-114986184D02*
X135539361Y-115033803D01*
X135539361Y-115033803D02*
X135634600Y-115129041D01*
X135634600Y-115129041D02*
X135682219Y-115271898D01*
X135682219Y-115271898D02*
X135682219Y-115509993D01*
X135015552Y-114081422D02*
X135682219Y-114081422D01*
X134634600Y-114319517D02*
X135348885Y-114557612D01*
X135348885Y-114557612D02*
X135348885Y-113938565D01*
X121678000Y-112285332D02*
X121725619Y-112142475D01*
X121725619Y-112142475D02*
X121725619Y-111904380D01*
X121725619Y-111904380D02*
X121678000Y-111809142D01*
X121678000Y-111809142D02*
X121630380Y-111761523D01*
X121630380Y-111761523D02*
X121535142Y-111713904D01*
X121535142Y-111713904D02*
X121439904Y-111713904D01*
X121439904Y-111713904D02*
X121344666Y-111761523D01*
X121344666Y-111761523D02*
X121297047Y-111809142D01*
X121297047Y-111809142D02*
X121249428Y-111904380D01*
X121249428Y-111904380D02*
X121201809Y-112094856D01*
X121201809Y-112094856D02*
X121154190Y-112190094D01*
X121154190Y-112190094D02*
X121106571Y-112237713D01*
X121106571Y-112237713D02*
X121011333Y-112285332D01*
X121011333Y-112285332D02*
X120916095Y-112285332D01*
X120916095Y-112285332D02*
X120820857Y-112237713D01*
X120820857Y-112237713D02*
X120773238Y-112190094D01*
X120773238Y-112190094D02*
X120725619Y-112094856D01*
X120725619Y-112094856D02*
X120725619Y-111856761D01*
X120725619Y-111856761D02*
X120773238Y-111713904D01*
X120725619Y-111380570D02*
X121725619Y-111142475D01*
X121725619Y-111142475D02*
X121011333Y-110951999D01*
X121011333Y-110951999D02*
X121725619Y-110761523D01*
X121725619Y-110761523D02*
X120725619Y-110523428D01*
X120725619Y-110237713D02*
X120725619Y-109618666D01*
X120725619Y-109618666D02*
X121106571Y-109951999D01*
X121106571Y-109951999D02*
X121106571Y-109809142D01*
X121106571Y-109809142D02*
X121154190Y-109713904D01*
X121154190Y-109713904D02*
X121201809Y-109666285D01*
X121201809Y-109666285D02*
X121297047Y-109618666D01*
X121297047Y-109618666D02*
X121535142Y-109618666D01*
X121535142Y-109618666D02*
X121630380Y-109666285D01*
X121630380Y-109666285D02*
X121678000Y-109713904D01*
X121678000Y-109713904D02*
X121725619Y-109809142D01*
X121725619Y-109809142D02*
X121725619Y-110094856D01*
X121725619Y-110094856D02*
X121678000Y-110190094D01*
X121678000Y-110190094D02*
X121630380Y-110237713D01*
X153711780Y-113433656D02*
X153759400Y-113481275D01*
X153759400Y-113481275D02*
X153807019Y-113624132D01*
X153807019Y-113624132D02*
X153807019Y-113719370D01*
X153807019Y-113719370D02*
X153759400Y-113862227D01*
X153759400Y-113862227D02*
X153664161Y-113957465D01*
X153664161Y-113957465D02*
X153568923Y-114005084D01*
X153568923Y-114005084D02*
X153378447Y-114052703D01*
X153378447Y-114052703D02*
X153235590Y-114052703D01*
X153235590Y-114052703D02*
X153045114Y-114005084D01*
X153045114Y-114005084D02*
X152949876Y-113957465D01*
X152949876Y-113957465D02*
X152854638Y-113862227D01*
X152854638Y-113862227D02*
X152807019Y-113719370D01*
X152807019Y-113719370D02*
X152807019Y-113624132D01*
X152807019Y-113624132D02*
X152854638Y-113481275D01*
X152854638Y-113481275D02*
X152902257Y-113433656D01*
X153807019Y-112481275D02*
X153807019Y-113052703D01*
X153807019Y-112766989D02*
X152807019Y-112766989D01*
X152807019Y-112766989D02*
X152949876Y-112862227D01*
X152949876Y-112862227D02*
X153045114Y-112957465D01*
X153045114Y-112957465D02*
X153092733Y-113052703D01*
X152807019Y-111624132D02*
X152807019Y-111814608D01*
X152807019Y-111814608D02*
X152854638Y-111909846D01*
X152854638Y-111909846D02*
X152902257Y-111957465D01*
X152902257Y-111957465D02*
X153045114Y-112052703D01*
X153045114Y-112052703D02*
X153235590Y-112100322D01*
X153235590Y-112100322D02*
X153616542Y-112100322D01*
X153616542Y-112100322D02*
X153711780Y-112052703D01*
X153711780Y-112052703D02*
X153759400Y-112005084D01*
X153759400Y-112005084D02*
X153807019Y-111909846D01*
X153807019Y-111909846D02*
X153807019Y-111719370D01*
X153807019Y-111719370D02*
X153759400Y-111624132D01*
X153759400Y-111624132D02*
X153711780Y-111576513D01*
X153711780Y-111576513D02*
X153616542Y-111528894D01*
X153616542Y-111528894D02*
X153378447Y-111528894D01*
X153378447Y-111528894D02*
X153283209Y-111576513D01*
X153283209Y-111576513D02*
X153235590Y-111624132D01*
X153235590Y-111624132D02*
X153187971Y-111719370D01*
X153187971Y-111719370D02*
X153187971Y-111909846D01*
X153187971Y-111909846D02*
X153235590Y-112005084D01*
X153235590Y-112005084D02*
X153283209Y-112052703D01*
X153283209Y-112052703D02*
X153378447Y-112100322D01*
X173821466Y-86058619D02*
X173821466Y-86772904D01*
X173821466Y-86772904D02*
X173773847Y-86915761D01*
X173773847Y-86915761D02*
X173678609Y-87011000D01*
X173678609Y-87011000D02*
X173535752Y-87058619D01*
X173535752Y-87058619D02*
X173440514Y-87058619D01*
X174726228Y-86058619D02*
X174535752Y-86058619D01*
X174535752Y-86058619D02*
X174440514Y-86106238D01*
X174440514Y-86106238D02*
X174392895Y-86153857D01*
X174392895Y-86153857D02*
X174297657Y-86296714D01*
X174297657Y-86296714D02*
X174250038Y-86487190D01*
X174250038Y-86487190D02*
X174250038Y-86868142D01*
X174250038Y-86868142D02*
X174297657Y-86963380D01*
X174297657Y-86963380D02*
X174345276Y-87011000D01*
X174345276Y-87011000D02*
X174440514Y-87058619D01*
X174440514Y-87058619D02*
X174630990Y-87058619D01*
X174630990Y-87058619D02*
X174726228Y-87011000D01*
X174726228Y-87011000D02*
X174773847Y-86963380D01*
X174773847Y-86963380D02*
X174821466Y-86868142D01*
X174821466Y-86868142D02*
X174821466Y-86630047D01*
X174821466Y-86630047D02*
X174773847Y-86534809D01*
X174773847Y-86534809D02*
X174726228Y-86487190D01*
X174726228Y-86487190D02*
X174630990Y-86439571D01*
X174630990Y-86439571D02*
X174440514Y-86439571D01*
X174440514Y-86439571D02*
X174345276Y-86487190D01*
X174345276Y-86487190D02*
X174297657Y-86534809D01*
X174297657Y-86534809D02*
X174250038Y-86630047D01*
%TO.C,TP10*%
D12*
X144527200Y-116118199D02*
G75*
G02*
X143127200Y-116118199I-700000J0D01*
G01*
X143127200Y-116118199D02*
G75*
G02*
X144527200Y-116118199I700000J0D01*
G01*
%TO.C,Y1*%
D13*
X141765000Y-94499000D02*
X141165000Y-94499000D01*
X141765000Y-96199000D02*
X141165000Y-96199000D01*
%TO.C,L4*%
D12*
X143488800Y-111306851D02*
X143488800Y-108534347D01*
X146908800Y-111306851D02*
X146908800Y-108534347D01*
%TO.C,L5*%
X147451200Y-108534347D02*
X147451200Y-111306851D01*
X150871200Y-108534347D02*
X150871200Y-111306851D01*
%TO.C,C12*%
X132980220Y-109461399D02*
X133261380Y-109461399D01*
X132980220Y-110481399D02*
X133261380Y-110481399D01*
%TO.C,R14*%
X137767500Y-117594941D02*
X137767500Y-118069457D01*
X138812500Y-117594941D02*
X138812500Y-118069457D01*
%TO.C,U3*%
X162077000Y-90306200D02*
X163877000Y-90306200D01*
X163077000Y-87086200D02*
X162277000Y-87086200D01*
X163077000Y-87086200D02*
X163877000Y-87086200D01*
X161777000Y-87136200D02*
X161537000Y-86806200D01*
X162017000Y-86806200D01*
X161777000Y-87136200D01*
G36*
X161777000Y-87136200D02*
G01*
X161537000Y-86806200D01*
X162017000Y-86806200D01*
X161777000Y-87136200D01*
G37*
%TO.C,J8*%
X117402800Y-78475000D02*
X118782800Y-78475000D01*
X117402800Y-79855000D02*
X117402800Y-78475000D01*
X117402800Y-81125000D02*
X117402800Y-96475000D01*
X117402800Y-81125000D02*
X120052800Y-81125000D01*
X117402800Y-96475000D02*
X122702800Y-96475000D01*
X120052800Y-78475000D02*
X122702800Y-78475000D01*
X120052800Y-81125000D02*
X120052800Y-78475000D01*
X122702800Y-78475000D02*
X122702800Y-96475000D01*
%TO.C,R15*%
X139372300Y-117594841D02*
X139372300Y-118069357D01*
X140417300Y-117594841D02*
X140417300Y-118069357D01*
%TO.C,J4*%
X158054800Y-81631400D02*
X158054800Y-83331400D01*
X167394800Y-81631400D02*
X167394800Y-83331400D01*
%TO.C,L1*%
X150452064Y-94344600D02*
X149247936Y-94344600D01*
X150452064Y-97064600D02*
X149247936Y-97064600D01*
%TO.C,TP8*%
X147930800Y-118158200D02*
G75*
G02*
X146530800Y-118158200I-700000J0D01*
G01*
X146530800Y-118158200D02*
G75*
G02*
X147930800Y-118158200I700000J0D01*
G01*
%TO.C,IC1*%
D13*
X124539400Y-80197000D02*
X125869400Y-80197000D01*
X124539400Y-91197000D02*
X124539400Y-80197000D01*
X124869400Y-91197000D02*
X124539400Y-91197000D01*
D14*
X125869400Y-92797000D02*
X125869400Y-92797000D01*
X125869400Y-92897000D02*
X125869400Y-92897000D01*
D13*
X131869400Y-80197000D02*
X136179400Y-80197000D01*
X136179400Y-80197000D02*
X136179400Y-91197000D01*
X136179400Y-91197000D02*
X135869400Y-91197000D01*
D14*
X125869400Y-92797000D02*
G75*
G02*
X125869400Y-92897000I0J-50000D01*
G01*
X125869400Y-92897000D02*
G75*
G02*
X125869400Y-92797000I0J50000D01*
G01*
%TO.C,U1*%
D15*
X138775000Y-74317400D02*
X138775000Y-92817400D01*
X138775000Y-92817400D02*
X151775000Y-92817400D01*
X151775000Y-74317400D02*
X138775000Y-74317400D01*
X151775000Y-92817400D02*
X151775000Y-74317400D01*
%TO.C,C1*%
D12*
X139710400Y-98283580D02*
X139710400Y-98002420D01*
X140730400Y-98283580D02*
X140730400Y-98002420D01*
%TO.C,C17*%
X133360400Y-107531819D02*
X133360400Y-107812979D01*
X134380400Y-107531819D02*
X134380400Y-107812979D01*
%TO.C,TP7*%
X152655200Y-104747000D02*
G75*
G02*
X151255200Y-104747000I-700000J0D01*
G01*
X151255200Y-104747000D02*
G75*
G02*
X152655200Y-104747000I700000J0D01*
G01*
%TO.C,J5*%
D13*
X158861400Y-105589600D02*
X158861400Y-106839600D01*
X159761400Y-103709600D02*
X159761400Y-105589600D01*
X159761400Y-105589600D02*
X158861400Y-105589600D01*
X160561400Y-95939600D02*
X160561400Y-103709600D01*
X160561400Y-103709600D02*
X159761400Y-103709600D01*
X174261400Y-94239600D02*
X161961400Y-94239600D01*
X174261400Y-95139600D02*
X174261400Y-94239600D01*
X174261400Y-97639600D02*
X174261400Y-100839600D01*
X174261400Y-103239600D02*
X174261400Y-108439600D01*
X174261400Y-108439600D02*
X160861400Y-108439600D01*
D16*
X162761400Y-104539600D02*
G75*
G02*
X162361400Y-104539600I-200000J0D01*
G01*
X162361400Y-104539600D02*
G75*
G02*
X162761400Y-104539600I200000J0D01*
G01*
%TO.C,D5*%
D12*
X137559600Y-113312399D02*
X137559600Y-115597399D01*
X139029600Y-113312399D02*
X137559600Y-113312399D01*
X139029600Y-115597399D02*
X139029600Y-113312399D01*
%TO.C,R12*%
X140338742Y-102413099D02*
X140813258Y-102413099D01*
X140338742Y-103458099D02*
X140813258Y-103458099D01*
%TO.C,TP9*%
X131014400Y-95399800D02*
G75*
G02*
X129614400Y-95399800I-700000J0D01*
G01*
X129614400Y-95399800D02*
G75*
G02*
X131014400Y-95399800I700000J0D01*
G01*
%TO.C,C14*%
X145845620Y-113296799D02*
X146126780Y-113296799D01*
X145845620Y-114316799D02*
X146126780Y-114316799D01*
%TO.C,U4*%
D17*
X136918400Y-106067099D02*
X136918400Y-106486260D01*
X136918400Y-110905738D02*
X136918400Y-111324899D01*
X136918400Y-111324899D02*
X137337561Y-111324899D01*
X137337561Y-106067099D02*
X136918400Y-106067099D01*
X141757039Y-111324899D02*
X142176200Y-111324899D01*
X142176200Y-106067099D02*
X141757039Y-106067099D01*
X142176200Y-106486260D02*
X142176200Y-106067099D01*
X142176200Y-111324899D02*
X142176200Y-110905738D01*
D18*
G36*
X136486600Y-108636500D02*
G01*
X136232600Y-108636500D01*
X136232600Y-108255499D01*
X136486600Y-108255499D01*
X136486600Y-108636500D01*
G37*
G36*
X140487801Y-112010699D02*
G01*
X140106801Y-112010699D01*
X140106801Y-111756699D01*
X140487801Y-111756699D01*
X140487801Y-112010699D01*
G37*
G36*
X140987800Y-105635299D02*
G01*
X140606800Y-105635299D01*
X140606800Y-105381299D01*
X140987800Y-105381299D01*
X140987800Y-105635299D01*
G37*
%TO.C,J3*%
D12*
X123643600Y-112673400D02*
X123643600Y-113923400D01*
X123943600Y-115223400D02*
X124693600Y-115223400D01*
X124693600Y-115223400D02*
X124693600Y-118173400D01*
X124693600Y-118173400D02*
X128993600Y-118173400D01*
X124893600Y-112673400D02*
X123643600Y-112673400D01*
X133293600Y-115223400D02*
X133293600Y-118173400D01*
X133293600Y-118173400D02*
X128993600Y-118173400D01*
X134043600Y-115223400D02*
X133293600Y-115223400D01*
X123933600Y-112963400D02*
X134053600Y-112963400D01*
X134053600Y-118933400D01*
X123933600Y-118933400D01*
X123933600Y-112963400D01*
X123943600Y-112973400D02*
X125743600Y-112973400D01*
X125743600Y-113723400D01*
X123943600Y-113723400D01*
X123943600Y-112973400D01*
X127243600Y-112973400D02*
X130743600Y-112973400D01*
X130743600Y-113723400D01*
X127243600Y-113723400D01*
X127243600Y-112973400D01*
X132243600Y-112973400D02*
X134043600Y-112973400D01*
X134043600Y-113723400D01*
X132243600Y-113723400D01*
X132243600Y-112973400D01*
%TO.C,C15*%
X140435420Y-104051199D02*
X140716580Y-104051199D01*
X140435420Y-105071199D02*
X140716580Y-105071199D01*
%TO.C,R13*%
X136171900Y-117609741D02*
X136171900Y-118084257D01*
X137216900Y-117609741D02*
X137216900Y-118084257D01*
%TO.C,C2*%
X142225000Y-98295980D02*
X142225000Y-98014820D01*
X143245000Y-98295980D02*
X143245000Y-98014820D01*
%TO.C,FB1*%
X168439800Y-84637121D02*
X168439800Y-84962679D01*
X169459800Y-84637121D02*
X169459800Y-84962679D01*
%TO.C,SW4*%
X118411600Y-117573200D02*
X118411600Y-117473200D01*
X118411600Y-119073200D02*
X122811600Y-119073200D01*
X122811600Y-115973200D02*
X118411600Y-115973200D01*
X122811600Y-117573200D02*
X122811600Y-117473200D01*
%TO.C,R11*%
X140813258Y-100863699D02*
X140338742Y-100863699D01*
X140813258Y-101908699D02*
X140338742Y-101908699D01*
%TO.C,C19*%
X130312400Y-107531819D02*
X130312400Y-107812979D01*
X131332400Y-107531819D02*
X131332400Y-107812979D01*
%TO.C,SW5*%
X177545000Y-77992600D02*
X177545000Y-82392600D01*
X179145000Y-77992600D02*
X179045000Y-77992600D01*
X179145000Y-82392600D02*
X179045000Y-82392600D01*
X180645000Y-82392600D02*
X180645000Y-77992600D01*
%TO.C,J1*%
X117428200Y-97271000D02*
X118808200Y-97271000D01*
X117428200Y-98651000D02*
X117428200Y-97271000D01*
X117428200Y-99921000D02*
X117428200Y-107651000D01*
X117428200Y-99921000D02*
X120188200Y-99921000D01*
X117428200Y-107651000D02*
X120188200Y-107651000D01*
X120188200Y-99921000D02*
X120188200Y-107651000D01*
%TO.C,J7*%
X121238200Y-97296400D02*
X122618200Y-97296400D01*
X121238200Y-98676400D02*
X121238200Y-97296400D01*
X121238200Y-99946400D02*
X121238200Y-102596400D01*
X121238200Y-99946400D02*
X123998200Y-99946400D01*
X121238200Y-102596400D02*
X123998200Y-102596400D01*
X123998200Y-99946400D02*
X123998200Y-102596400D01*
%TO.C,C13*%
X134859000Y-104522219D02*
X134859000Y-104803379D01*
X135879000Y-104522219D02*
X135879000Y-104803379D01*
%TO.C,R17*%
X135329100Y-101128657D02*
X135329100Y-100654141D01*
X136374100Y-101128657D02*
X136374100Y-100654141D01*
%TO.C,C11*%
X132980820Y-111137799D02*
X133261980Y-111137799D01*
X132980820Y-112157799D02*
X133261980Y-112157799D01*
%TO.C,C18*%
X131836400Y-107544819D02*
X131836400Y-107825979D01*
X132856400Y-107544819D02*
X132856400Y-107825979D01*
%TO.C,R16*%
X136857700Y-101141857D02*
X136857700Y-100667341D01*
X137902700Y-101141857D02*
X137902700Y-100667341D01*
%TO.C,D6*%
X139159800Y-113312299D02*
X139159800Y-115597299D01*
X140629800Y-113312299D02*
X139159800Y-113312299D01*
X140629800Y-115597299D02*
X140629800Y-113312299D01*
%TO.C,D4*%
X135965600Y-113312199D02*
X135965600Y-115597199D01*
X137435600Y-113312199D02*
X135965600Y-113312199D01*
X137435600Y-115597199D02*
X137435600Y-113312199D01*
%TO.C,SW3*%
X117270800Y-108752000D02*
X117270800Y-113152000D01*
X118770800Y-108752000D02*
X118870800Y-108752000D01*
X118770800Y-113152000D02*
X118870800Y-113152000D01*
X120370800Y-113152000D02*
X120370800Y-108752000D01*
%TO.C,C16*%
X151445200Y-112982179D02*
X151445200Y-112701019D01*
X152465200Y-112982179D02*
X152465200Y-112701019D01*
%TO.C,J6*%
X171504800Y-85603800D02*
X171504800Y-77763800D01*
X174154800Y-82953800D02*
X174154800Y-85603800D01*
X174154800Y-85603800D02*
X171504800Y-85603800D01*
X176804800Y-77763800D02*
X171504800Y-77763800D01*
X176804800Y-82953800D02*
X174154800Y-82953800D01*
X176804800Y-82953800D02*
X176804800Y-77763800D01*
X176804800Y-84223800D02*
X176804800Y-85603800D01*
X176804800Y-85603800D02*
X175424800Y-85603800D01*
%TD*%
%LPC*%
D19*
%TO.C,TP10*%
X143827200Y-116118199D03*
%TD*%
D20*
%TO.C,Y1*%
X142715000Y-95349000D03*
X140215000Y-95349000D03*
%TD*%
D21*
%TO.C,L4*%
X145198800Y-112058099D03*
X145198800Y-107783099D03*
%TD*%
D22*
%TO.C,L5*%
X149161200Y-107783099D03*
X149161200Y-112058099D03*
%TD*%
D23*
%TO.C,C12*%
X132345800Y-109971399D03*
X133895800Y-109971399D03*
%TD*%
D24*
%TO.C,R14*%
X138290000Y-117007199D03*
X138290000Y-118657199D03*
%TD*%
D25*
%TO.C,U3*%
X161627000Y-87746200D03*
X161627000Y-88696200D03*
X161627000Y-89646200D03*
X164327000Y-89646200D03*
X164327000Y-88696200D03*
X164327000Y-87746200D03*
%TD*%
D26*
%TO.C,J8*%
X118782800Y-79855000D03*
D27*
X121322800Y-79855000D03*
X118782800Y-82395000D03*
X121322800Y-82395000D03*
X118782800Y-84935000D03*
X121322800Y-84935000D03*
X118782800Y-87475000D03*
X121322800Y-87475000D03*
X118782800Y-90015000D03*
X121322800Y-90015000D03*
X118782800Y-92555000D03*
X121322800Y-92555000D03*
X118782800Y-95095000D03*
X121322800Y-95095000D03*
%TD*%
D24*
%TO.C,R15*%
X139894800Y-117007099D03*
X139894800Y-118657099D03*
%TD*%
D28*
%TO.C,J4*%
X165614800Y-84136400D03*
X159834800Y-84136400D03*
D29*
X165924800Y-85211400D03*
X165124800Y-85211400D03*
D30*
X163974800Y-85211400D03*
X162974800Y-85211400D03*
X162474800Y-85211400D03*
X161474800Y-85211400D03*
D29*
X160324800Y-85211400D03*
X159524800Y-85211400D03*
X159524800Y-85211400D03*
X160324800Y-85211400D03*
D30*
X160974800Y-85211400D03*
X161974800Y-85211400D03*
X163474800Y-85211400D03*
X164474800Y-85211400D03*
D29*
X165124800Y-85211400D03*
X165924800Y-85211400D03*
D31*
X167044800Y-84636400D03*
D32*
X167044800Y-80456400D03*
D31*
X158404800Y-84636400D03*
D32*
X158404800Y-80456400D03*
%TD*%
D33*
%TO.C,L1*%
X151250000Y-95704600D03*
X148450000Y-95704600D03*
%TD*%
D19*
%TO.C,TP8*%
X147230800Y-118158200D03*
%TD*%
D34*
%TO.C,IC1*%
X125869400Y-91197000D03*
X127139400Y-91197000D03*
X128409400Y-91197000D03*
X129679400Y-91197000D03*
X130949400Y-91197000D03*
X132219400Y-91197000D03*
X133489400Y-91197000D03*
X134759400Y-91197000D03*
X130949400Y-80197000D03*
X129679400Y-80197000D03*
X128409400Y-80197000D03*
X127139400Y-80197000D03*
%TD*%
D35*
%TO.C,U1*%
X138775000Y-78787400D03*
X138775000Y-80057400D03*
X138775000Y-81327400D03*
X138775000Y-82597400D03*
X138775000Y-83867400D03*
X138775000Y-85137400D03*
X138775000Y-86407400D03*
X138775000Y-87677400D03*
X138775000Y-88947400D03*
X138775000Y-90217400D03*
D36*
X140835000Y-92817400D03*
D37*
X141465000Y-90717400D03*
D36*
X142105000Y-92817400D03*
D37*
X142735000Y-90717400D03*
D36*
X143375000Y-92817400D03*
D37*
X144005000Y-90717400D03*
D36*
X144645000Y-92817400D03*
D37*
X145275000Y-90717400D03*
D36*
X145915000Y-92817400D03*
D37*
X146545000Y-90717400D03*
D36*
X147185000Y-92817400D03*
D37*
X147815000Y-90717400D03*
D36*
X148455000Y-92817400D03*
D37*
X149085000Y-90717400D03*
D36*
X149725000Y-92817400D03*
D35*
X151775000Y-90217400D03*
X151775000Y-88947400D03*
D37*
X149675000Y-88312400D03*
D35*
X151775000Y-87677400D03*
D37*
X149675000Y-87042400D03*
D35*
X151775000Y-86407400D03*
D37*
X149675000Y-85772400D03*
D35*
X151775000Y-85137400D03*
D37*
X149675000Y-84502400D03*
D35*
X151775000Y-83867400D03*
D37*
X149675000Y-83232400D03*
D35*
X151775000Y-82597400D03*
D37*
X149675000Y-81962400D03*
D35*
X151775000Y-81327400D03*
D37*
X149675000Y-80692400D03*
D35*
X151775000Y-80057400D03*
D37*
X149675000Y-79422400D03*
D35*
X151775000Y-78787400D03*
%TD*%
D38*
%TO.C,C1*%
X140220400Y-98918000D03*
X140220400Y-97368000D03*
%TD*%
D39*
%TO.C,C17*%
X133870400Y-106897399D03*
X133870400Y-108447399D03*
%TD*%
D19*
%TO.C,TP7*%
X151955200Y-104747000D03*
%TD*%
D40*
%TO.C,J5*%
X163461400Y-103279600D03*
X163861400Y-102179600D03*
X163461400Y-101079600D03*
X163261400Y-99979600D03*
X163461400Y-98879600D03*
X163261400Y-97779600D03*
X163461400Y-96679600D03*
X163461400Y-95579600D03*
D41*
X159611400Y-107939600D03*
X160611400Y-94789600D03*
D42*
X173761400Y-102039600D03*
X173761400Y-96389600D03*
%TD*%
D43*
%TO.C,D5*%
X138294600Y-114009899D03*
X138294600Y-115584899D03*
%TD*%
D44*
%TO.C,R12*%
X139751000Y-102935599D03*
X141401000Y-102935599D03*
%TD*%
D19*
%TO.C,TP9*%
X130314400Y-95399800D03*
%TD*%
D23*
%TO.C,C14*%
X145211200Y-113806799D03*
X146761200Y-113806799D03*
%TD*%
D45*
%TO.C,U4*%
X141973000Y-110445998D03*
X141973000Y-109945999D03*
X141973000Y-109446000D03*
X141973000Y-108945999D03*
X141973000Y-108445999D03*
X141973000Y-107945998D03*
X141973000Y-107445999D03*
X141973000Y-106946000D03*
D46*
X141297299Y-106270299D03*
X140797300Y-106270299D03*
X140297301Y-106270299D03*
X139797300Y-106270299D03*
X139297300Y-106270299D03*
X138797299Y-106270299D03*
X138297300Y-106270299D03*
X137797301Y-106270299D03*
D45*
X137121600Y-106946000D03*
X137121600Y-107445999D03*
X137121600Y-107945998D03*
X137121600Y-108445999D03*
X137121600Y-108945999D03*
X137121600Y-109446000D03*
X137121600Y-109945999D03*
X137121600Y-110445998D03*
D46*
X137797301Y-111121699D03*
X138297300Y-111121699D03*
X138797299Y-111121699D03*
X139297300Y-111121699D03*
X139797300Y-111121699D03*
X140297301Y-111121699D03*
X140797300Y-111121699D03*
X141297299Y-111121699D03*
D47*
X139547300Y-108695999D03*
%TD*%
D48*
%TO.C,J3*%
X126493600Y-115423400D03*
D49*
X128993600Y-115423400D03*
X131493600Y-115423400D03*
%TD*%
D23*
%TO.C,C15*%
X139801000Y-104561199D03*
X141351000Y-104561199D03*
%TD*%
D24*
%TO.C,R13*%
X136694400Y-117021999D03*
X136694400Y-118671999D03*
%TD*%
D38*
%TO.C,C2*%
X142735000Y-98930400D03*
X142735000Y-97380400D03*
%TD*%
D43*
%TO.C,FB1*%
X168949800Y-84012400D03*
X168949800Y-85587400D03*
%TD*%
D50*
%TO.C,SW4*%
X118561600Y-116723200D03*
X122661600Y-116723200D03*
X118561600Y-118323200D03*
X122661600Y-118323200D03*
%TD*%
D51*
%TO.C,R11*%
X141401000Y-101386199D03*
X139751000Y-101386199D03*
%TD*%
D39*
%TO.C,C19*%
X130822400Y-106897399D03*
X130822400Y-108447399D03*
%TD*%
D52*
%TO.C,SW5*%
X178295000Y-82242600D03*
X178295000Y-78142600D03*
X179895000Y-82242600D03*
X179895000Y-78142600D03*
%TD*%
D26*
%TO.C,J1*%
X118808200Y-98651000D03*
D27*
X118808200Y-101191000D03*
X118808200Y-103731000D03*
X118808200Y-106271000D03*
%TD*%
D26*
%TO.C,J7*%
X122618200Y-98676400D03*
D27*
X122618200Y-101216400D03*
%TD*%
D39*
%TO.C,C13*%
X135369000Y-103887799D03*
X135369000Y-105437799D03*
%TD*%
D53*
%TO.C,R17*%
X135851600Y-101716399D03*
X135851600Y-100066399D03*
%TD*%
D23*
%TO.C,C11*%
X132346400Y-111647799D03*
X133896400Y-111647799D03*
%TD*%
D39*
%TO.C,C18*%
X132346400Y-106910399D03*
X132346400Y-108460399D03*
%TD*%
D53*
%TO.C,R16*%
X137380200Y-101729599D03*
X137380200Y-100079599D03*
%TD*%
D43*
%TO.C,D6*%
X139894800Y-114009799D03*
X139894800Y-115584799D03*
%TD*%
%TO.C,D4*%
X136700600Y-114009699D03*
X136700600Y-115584699D03*
%TD*%
D54*
%TO.C,SW3*%
X119620800Y-108902000D03*
X119620800Y-113002000D03*
X118020800Y-108902000D03*
X118020800Y-113002000D03*
%TD*%
D38*
%TO.C,C16*%
X151955200Y-113616599D03*
X151955200Y-112066599D03*
%TD*%
D55*
%TO.C,J6*%
X175424800Y-84223800D03*
D27*
X172884800Y-84223800D03*
X175424800Y-81683800D03*
X172884800Y-81683800D03*
X175424800Y-79143800D03*
X172884800Y-79143800D03*
%TD*%
%LPD*%
M02*
