M48
; DRILL file KiCad 10.0.4-10.0.4~ubuntu25.10.1 date 2026-07-16T17:37:55
; FORMAT={-:-/ absolute / metric / decimal}
; #@! TF.CreationDate,2026-07-16T17:37:55+00:00
; #@! TF.GenerationSoftware,Kicad,Pcbnew,10.0.4-10.0.4~ubuntu25.10.1
; #@! TF.FileFunction,Plated,1,4,PTH
FMAT,2
METRIC
; #@! TA.AperFunction,Plated,PTH,ViaDrill
T1C0.250
; #@! TA.AperFunction,Plated,PTH,ViaDrill
T2C0.300
; #@! TA.AperFunction,Plated,PTH,ComponentDrill
T3C0.600
; #@! TA.AperFunction,Plated,PTH,ComponentDrill
T4C0.950
; #@! TA.AperFunction,Plated,PTH,ComponentDrill
T5C1.000
%
G90
G05
T1
X117.767Y-78.102
X118.3Y-110.843
X119.57Y-104.925
X120.027Y-88.059
X120.053Y-85.468
X120.053Y-90.548
X120.053Y-93.088
X120.078Y-82.928
X120.104Y-95.882
X120.383Y-110.97
X120.586Y-113.967
X120.637Y-118.311
X121.221Y-98.905
X121.226Y-108.896
X122.313Y-106.855
X123.538Y-97.085
X123.964Y-116.685
X124.223Y-106.914
X124.955Y-115.491
X125.209Y-96.543
X125.438Y-103.731
X125.489Y-106.22
X125.768Y-110.767
X126.174Y-104.417
X126.911Y-94.765
X127.144Y-78.339
X127.673Y-114.12
X127.876Y-109.217
X128.186Y-78.212
X128.867Y-92.911
X129.07Y-105.484
X129.756Y-108.447
X130.187Y-110.741
X131.203Y-110.818
X133.058Y-114.374
X133.997Y-112.672
X134.074Y-94.714
X134.434Y-96.297
X134.988Y-108.446
X135.013Y-112.773
X135.399Y-102.622
X135.572Y-113.637
X135.801Y-116.304
X135.801Y-117.828
X136.029Y-106.822
X136.029Y-110.429
X136.995Y-92.403
X137.122Y-110.948
X137.274Y-90.371
X137.477Y-114.805
X138.662Y-100.174
X138.747Y-103.952
X138.785Y-102.415
X139.001Y-117.752
X139.509Y-112.664
X140.347Y-120.063
X140.403Y-90.455
X140.429Y-78.187
X140.754Y-116.279
X140.805Y-118.666
X140.932Y-114.78
X141.465Y-78.344
X141.846Y-112.486
X141.973Y-106.365
X142.537Y-78.212
X142.659Y-113.154
X142.659Y-116.202
X142.735Y-89.583
X142.811Y-106.322
X143.243Y-114.551
X143.726Y-105.865
X144.005Y-94.612
X144.03Y-89.583
X144.107Y-99.286
X144.97Y-85.697
X145.046Y-94.612
X145.275Y-89.583
X145.377Y-108.844
X145.656Y-95.171
X146.012Y-103.604
X146.545Y-89.583
X147.155Y-94.663
X147.434Y-106.754
X147.815Y-89.583
X148.12Y-109.852
X148.45Y-97.889
X148.45Y-100.937
X148.577Y-79.423
X148.577Y-80.693
X148.577Y-81.963
X148.577Y-83.233
X148.577Y-84.503
X148.577Y-85.773
X148.577Y-87.043
X148.577Y-88.313
X149.161Y-100.607
X149.847Y-94.435
X150.101Y-78.356
X150.182Y-89.49
X150.38Y-106.601
X150.533Y-113.256
X150.558Y-91.285
X151.142Y-111.097
X152.666Y-96.975
X153.378Y-80.998
X153.428Y-91.691
X154.19Y-92.936
X154.216Y-94.79
X154.317Y-83.335
X154.47Y-78.382
X155.105Y-94.841
X155.206Y-99.972
X155.943Y-95.247
X156.045Y-99.337
X156.07Y-103.274
X156.476Y-80.998
X156.73Y-96.035
X157.391Y-90.091
X157.492Y-100.658
X157.569Y-95.705
X159.778Y-88.694
X160.159Y-86.764
X161.988Y-100.759
X162.141Y-93.723
X164.604Y-91.183
X164.785Y-86.767
X165.493Y-91.183
X165.549Y-104.933
X165.9Y-86.916
X166.509Y-89.075
X170.37Y-83.589
X172.174Y-80.414
X174.155Y-82.09
X174.197Y-96.424
X176.644Y-82.751
X176.99Y-101.112
X177.005Y-97.186
X177.005Y-98.71
X177.03Y-100.234
X177.03Y-103.282
X179.164Y-97.948
X179.189Y-100.945
X179.895Y-80.185
X179.895Y-83.817
X180.251Y-120.165
T2
X136.36Y-91.691
X138.646Y-91.691
X153.582Y-78.787
X153.582Y-80.057
X153.582Y-83.867
X153.582Y-85.137
T4
X126.494Y-115.423
X128.994Y-115.423
X131.494Y-115.423
T5
X118.783Y-79.855
X118.783Y-82.395
X118.783Y-84.935
X118.783Y-87.475
X118.783Y-90.015
X118.783Y-92.555
X118.783Y-95.095
X118.808Y-98.651
X118.808Y-101.191
X118.808Y-103.731
X118.808Y-106.271
X121.323Y-79.855
X121.323Y-82.395
X121.323Y-84.935
X121.323Y-87.475
X121.323Y-90.015
X121.323Y-92.555
X121.323Y-95.095
X122.618Y-98.676
X122.618Y-101.216
X172.885Y-79.144
X172.885Y-81.684
X172.885Y-84.224
X175.425Y-79.144
X175.425Y-81.684
X175.425Y-84.224
T3
G00X158.405Y-80.856
M15
G01X158.405Y-80.056
M16
G05
G00X158.405Y-85.186
M15
G01X158.405Y-84.086
M16
G05
G00X167.045Y-80.856
M15
G01X167.045Y-80.056
M16
G05
G00X167.045Y-85.186
M15
G01X167.045Y-84.086
M16
G05
M30
