M48
; DRILL file KiCad 10.0.4-10.0.4~ubuntu25.10.1 date 2026-07-17T19:45:14
; FORMAT={-:-/ absolute / metric / decimal}
; #@! TF.CreationDate,2026-07-17T19:45:14+00:00
; #@! TF.GenerationSoftware,Kicad,Pcbnew,10.0.4-10.0.4~ubuntu25.10.1
; #@! TF.FileFunction,Plated,1,4,PTH
FMAT,2
METRIC
; #@! TA.AperFunction,Plated,PTH,ViaDrill
T1C0.250
; #@! TA.AperFunction,Plated,PTH,ViaDrill
T2C0.300
; #@! TA.AperFunction,Plated,PTH,ComponentDrill
T3C0.600
; #@! TA.AperFunction,Plated,PTH,ComponentDrill
T4C0.950
; #@! TA.AperFunction,Plated,PTH,ComponentDrill
T5C1.000
%
G90
G05
T1
X115.455Y-81.176
X115.989Y-113.916
X117.259Y-107.998
X117.716Y-91.133
X117.741Y-88.542
X117.741Y-93.622
X117.741Y-96.162
X117.767Y-86.002
X117.792Y-98.956
X118.072Y-114.043
X118.275Y-117.041
X118.326Y-121.384
X118.91Y-101.978
X118.915Y-111.969
X119.931Y-107.981
X120.002Y-109.929
X120.058Y-113.315
X121.226Y-100.158
X121.653Y-119.758
X121.912Y-109.988
X122.644Y-118.565
X122.898Y-99.616
X123.126Y-106.804
X123.177Y-109.293
X123.456Y-113.84
X123.863Y-107.49
X124.599Y-97.838
X124.833Y-81.413
X125.361Y-117.193
X125.565Y-112.291
X125.874Y-81.286
X126.555Y-95.984
X126.758Y-108.557
X127.444Y-111.521
X127.876Y-113.815
X128.892Y-113.891
X130.746Y-117.447
X131.686Y-115.745
X131.762Y-97.787
X131.767Y-122.434
X132.123Y-99.371
X132.677Y-111.519
X132.702Y-115.847
X133.088Y-105.695
X133.261Y-116.71
X133.489Y-119.377
X133.489Y-120.901
X133.718Y-109.895
X133.718Y-113.502
X134.683Y-95.476
X134.81Y-114.021
X134.963Y-93.444
X135.166Y-117.879
X136.351Y-103.248
X136.436Y-107.025
X136.474Y-105.488
X136.69Y-120.825
X137.198Y-115.737
X138.092Y-93.529
X138.117Y-81.26
X138.442Y-119.352
X138.493Y-121.74
X138.62Y-117.853
X139.154Y-81.418
X139.662Y-109.438
X140.225Y-81.286
X140.347Y-119.276
X140.424Y-92.657
X140.5Y-109.395
X140.932Y-117.625
X141.414Y-108.938
X141.694Y-97.686
X141.719Y-92.657
X141.795Y-102.359
X142.659Y-88.77
X142.735Y-97.686
X142.964Y-92.657
X143.065Y-111.917
X143.345Y-98.245
X143.7Y-106.677
X144.234Y-92.657
X144.493Y-123.043
X144.843Y-97.737
X145.229Y-113.544
X145.407Y-109.556
X145.504Y-92.657
X145.89Y-123.069
X146.042Y-112.96
X146.139Y-100.962
X146.139Y-104.01
X146.266Y-82.497
X146.266Y-83.767
X146.266Y-85.037
X146.266Y-86.307
X146.266Y-87.577
X146.266Y-88.847
X146.266Y-90.117
X146.266Y-91.387
X146.85Y-103.68
X146.931Y-117.887
X147.536Y-97.508
X147.79Y-81.43
X147.871Y-92.563
X148.069Y-109.675
X148.221Y-116.329
X148.247Y-94.358
X148.831Y-114.17
X150.355Y-100.048
X150.563Y-112.248
X151.066Y-84.071
X151.117Y-94.765
X151.879Y-96.009
X151.904Y-97.864
X152.006Y-86.408
X152.158Y-81.455
X152.793Y-97.914
X152.895Y-103.045
X153.632Y-98.321
X153.733Y-102.41
X153.759Y-106.347
X154.165Y-84.071
X154.419Y-99.108
X155.079Y-93.165
X155.181Y-103.731
X155.257Y-98.778
X157.467Y-91.768
X157.848Y-89.837
X159.677Y-103.833
X159.829Y-96.797
X162.293Y-94.257
X162.473Y-89.84
X163.182Y-94.257
X163.238Y-108.007
X163.588Y-89.99
X164.198Y-92.149
X168.059Y-86.662
X169.862Y-83.487
X171.843Y-85.164
X171.886Y-99.498
X174.333Y-85.824
X174.679Y-104.185
X174.693Y-100.26
X174.693Y-101.784
X174.719Y-103.308
X174.719Y-106.356
X176.852Y-101.022
X176.878Y-104.019
X177.584Y-83.259
X177.584Y-86.891
X177.939Y-123.238
T2
X134.048Y-94.765
X136.334Y-94.765
X151.27Y-81.861
X151.27Y-83.131
X151.27Y-86.941
X151.27Y-88.211
T4
X124.182Y-118.497
X126.682Y-118.497
X129.182Y-118.497
T5
X116.471Y-82.928
X116.471Y-85.468
X116.471Y-88.008
X116.471Y-90.548
X116.471Y-93.088
X116.471Y-95.628
X116.471Y-98.168
X116.497Y-101.724
X116.497Y-104.264
X116.497Y-106.804
X116.497Y-109.344
X119.011Y-82.928
X119.011Y-85.468
X119.011Y-88.008
X119.011Y-90.548
X119.011Y-93.088
X119.011Y-95.628
X119.011Y-98.168
X120.307Y-101.75
X120.307Y-104.29
X170.573Y-82.217
X170.573Y-84.757
X170.573Y-87.297
X173.113Y-82.217
X173.113Y-84.757
X173.113Y-87.297
T3
G00X156.093Y-83.93
M15
G01X156.093Y-83.13
M16
G05
G00X156.093Y-88.26
M15
G01X156.093Y-87.16
M16
G05
G00X164.733Y-83.93
M15
G01X164.733Y-83.13
M16
G05
G00X164.733Y-88.26
M15
G01X164.733Y-87.16
M16
G05
M30
