%TF.GenerationSoftware,KiCad,Pcbnew,10.0.4-10.0.4~ubuntu25.10.1*%
%TF.CreationDate,Date%
%TF.ProjectId,CanSat_Devboard,43616e53-6174-45f4-9465-76626f617264,+ (Unreleased)*%
%TF.SameCoordinates,Original*%
%TF.FileFunction,Legend,Bot*%
%TF.FilePolarity,Positive*%
%FSLAX46Y46*%
G04 Gerber Fmt 4.6, Leading zero omitted, Abs format (unit mm)*
G04 Created by KiCad*
%MOMM*%
%LPD*%
G01*
G04 APERTURE LIST*
G04 Aperture macros list*
%AMRoundRect*
0 Rectangle with rounded corners*
0 $1 Rounding radius*
0 $2 $3 $4 $5 $6 $7 $8 $9 X,Y pos of 4 corners*
0 Add a 4 corners polygon primitive as box body*
4,1,4,$2,$3,$4,$5,$6,$7,$8,$9,$2,$3,0*
0 Add four circle primitives for the rounded corners*
1,1,$1+$1,$2,$3*
1,1,$1+$1,$4,$5*
1,1,$1+$1,$6,$7*
1,1,$1+$1,$8,$9*
0 Add four rect primitives between the rounded corners*
20,1,$1+$1,$2,$3,$4,$5,0*
20,1,$1+$1,$4,$5,$6,$7,0*
20,1,$1+$1,$6,$7,$8,$9,0*
20,1,$1+$1,$8,$9,$2,$3,0*%
G04 Aperture macros list end*
%ADD10C,0.150000*%
%ADD11C,0.120000*%
%ADD12RoundRect,0.050000X-0.850000X-0.850000X0.850000X-0.850000X0.850000X0.850000X-0.850000X0.850000X0*%
%ADD13C,1.800000*%
%ADD14C,0.001000*%
%ADD15O,1.100000X2.200000*%
%ADD16O,1.100000X1.900000*%
%ADD17RoundRect,0.300000X-0.600000X-0.725000X0.600000X-0.725000X0.600000X0.725000X-0.600000X0.725000X0*%
%ADD18O,1.800000X2.050000*%
%ADD19RoundRect,0.050000X0.850000X0.850000X-0.850000X0.850000X-0.850000X-0.850000X0.850000X-0.850000X0*%
%ADD20RoundRect,0.275000X0.225000X0.250000X-0.225000X0.250000X-0.225000X-0.250000X0.225000X-0.250000X0*%
%ADD21RoundRect,0.250000X0.200000X0.275000X-0.200000X0.275000X-0.200000X-0.275000X0.200000X-0.275000X0*%
G04 APERTURE END LIST*
D10*
X169647866Y-98223180D02*
X169695485Y-98270800D01*
X169695485Y-98270800D02*
X169838342Y-98318419D01*
X169838342Y-98318419D02*
X169933580Y-98318419D01*
X169933580Y-98318419D02*
X170076437Y-98270800D01*
X170076437Y-98270800D02*
X170171675Y-98175561D01*
X170171675Y-98175561D02*
X170219294Y-98080323D01*
X170219294Y-98080323D02*
X170266913Y-97889847D01*
X170266913Y-97889847D02*
X170266913Y-97746990D01*
X170266913Y-97746990D02*
X170219294Y-97556514D01*
X170219294Y-97556514D02*
X170171675Y-97461276D01*
X170171675Y-97461276D02*
X170076437Y-97366038D01*
X170076437Y-97366038D02*
X169933580Y-97318419D01*
X169933580Y-97318419D02*
X169838342Y-97318419D01*
X169838342Y-97318419D02*
X169695485Y-97366038D01*
X169695485Y-97366038D02*
X169647866Y-97413657D01*
X169314532Y-97318419D02*
X168695485Y-97318419D01*
X168695485Y-97318419D02*
X169028818Y-97699371D01*
X169028818Y-97699371D02*
X168885961Y-97699371D01*
X168885961Y-97699371D02*
X168790723Y-97746990D01*
X168790723Y-97746990D02*
X168743104Y-97794609D01*
X168743104Y-97794609D02*
X168695485Y-97889847D01*
X168695485Y-97889847D02*
X168695485Y-98127942D01*
X168695485Y-98127942D02*
X168743104Y-98223180D01*
X168743104Y-98223180D02*
X168790723Y-98270800D01*
X168790723Y-98270800D02*
X168885961Y-98318419D01*
X168885961Y-98318419D02*
X169171675Y-98318419D01*
X169171675Y-98318419D02*
X169266913Y-98270800D01*
X169266913Y-98270800D02*
X169314532Y-98223180D01*
X169571666Y-102941219D02*
X169904999Y-102465028D01*
X170143094Y-102941219D02*
X170143094Y-101941219D01*
X170143094Y-101941219D02*
X169762142Y-101941219D01*
X169762142Y-101941219D02*
X169666904Y-101988838D01*
X169666904Y-101988838D02*
X169619285Y-102036457D01*
X169619285Y-102036457D02*
X169571666Y-102131695D01*
X169571666Y-102131695D02*
X169571666Y-102274552D01*
X169571666Y-102274552D02*
X169619285Y-102369790D01*
X169619285Y-102369790D02*
X169666904Y-102417409D01*
X169666904Y-102417409D02*
X169762142Y-102465028D01*
X169762142Y-102465028D02*
X170143094Y-102465028D01*
X169238332Y-101941219D02*
X168619285Y-101941219D01*
X168619285Y-101941219D02*
X168952618Y-102322171D01*
X168952618Y-102322171D02*
X168809761Y-102322171D01*
X168809761Y-102322171D02*
X168714523Y-102369790D01*
X168714523Y-102369790D02*
X168666904Y-102417409D01*
X168666904Y-102417409D02*
X168619285Y-102512647D01*
X168619285Y-102512647D02*
X168619285Y-102750742D01*
X168619285Y-102750742D02*
X168666904Y-102845980D01*
X168666904Y-102845980D02*
X168714523Y-102893600D01*
X168714523Y-102893600D02*
X168809761Y-102941219D01*
X168809761Y-102941219D02*
X169095475Y-102941219D01*
X169095475Y-102941219D02*
X169190713Y-102893600D01*
X169190713Y-102893600D02*
X169238332Y-102845980D01*
X169597066Y-101468019D02*
X169930399Y-100991828D01*
X170168494Y-101468019D02*
X170168494Y-100468019D01*
X170168494Y-100468019D02*
X169787542Y-100468019D01*
X169787542Y-100468019D02*
X169692304Y-100515638D01*
X169692304Y-100515638D02*
X169644685Y-100563257D01*
X169644685Y-100563257D02*
X169597066Y-100658495D01*
X169597066Y-100658495D02*
X169597066Y-100801352D01*
X169597066Y-100801352D02*
X169644685Y-100896590D01*
X169644685Y-100896590D02*
X169692304Y-100944209D01*
X169692304Y-100944209D02*
X169787542Y-100991828D01*
X169787542Y-100991828D02*
X170168494Y-100991828D01*
X169216113Y-100563257D02*
X169168494Y-100515638D01*
X169168494Y-100515638D02*
X169073256Y-100468019D01*
X169073256Y-100468019D02*
X168835161Y-100468019D01*
X168835161Y-100468019D02*
X168739923Y-100515638D01*
X168739923Y-100515638D02*
X168692304Y-100563257D01*
X168692304Y-100563257D02*
X168644685Y-100658495D01*
X168644685Y-100658495D02*
X168644685Y-100753733D01*
X168644685Y-100753733D02*
X168692304Y-100896590D01*
X168692304Y-100896590D02*
X169263732Y-101468019D01*
X169263732Y-101468019D02*
X168644685Y-101468019D01*
X169534066Y-96769019D02*
X169867399Y-96292828D01*
X170105494Y-96769019D02*
X170105494Y-95769019D01*
X170105494Y-95769019D02*
X169724542Y-95769019D01*
X169724542Y-95769019D02*
X169629304Y-95816638D01*
X169629304Y-95816638D02*
X169581685Y-95864257D01*
X169581685Y-95864257D02*
X169534066Y-95959495D01*
X169534066Y-95959495D02*
X169534066Y-96102352D01*
X169534066Y-96102352D02*
X169581685Y-96197590D01*
X169581685Y-96197590D02*
X169629304Y-96245209D01*
X169629304Y-96245209D02*
X169724542Y-96292828D01*
X169724542Y-96292828D02*
X170105494Y-96292828D01*
X168581685Y-96769019D02*
X169153113Y-96769019D01*
X168867399Y-96769019D02*
X168867399Y-95769019D01*
X168867399Y-95769019D02*
X168962637Y-95911876D01*
X168962637Y-95911876D02*
X169057875Y-96007114D01*
X169057875Y-96007114D02*
X169153113Y-96054733D01*
X169597066Y-99772580D02*
X169644685Y-99820200D01*
X169644685Y-99820200D02*
X169787542Y-99867819D01*
X169787542Y-99867819D02*
X169882780Y-99867819D01*
X169882780Y-99867819D02*
X170025637Y-99820200D01*
X170025637Y-99820200D02*
X170120875Y-99724961D01*
X170120875Y-99724961D02*
X170168494Y-99629723D01*
X170168494Y-99629723D02*
X170216113Y-99439247D01*
X170216113Y-99439247D02*
X170216113Y-99296390D01*
X170216113Y-99296390D02*
X170168494Y-99105914D01*
X170168494Y-99105914D02*
X170120875Y-99010676D01*
X170120875Y-99010676D02*
X170025637Y-98915438D01*
X170025637Y-98915438D02*
X169882780Y-98867819D01*
X169882780Y-98867819D02*
X169787542Y-98867819D01*
X169787542Y-98867819D02*
X169644685Y-98915438D01*
X169644685Y-98915438D02*
X169597066Y-98963057D01*
X168739923Y-99201152D02*
X168739923Y-99867819D01*
X168978018Y-98820200D02*
X169216113Y-99534485D01*
X169216113Y-99534485D02*
X168597066Y-99534485D01*
%TO.C,C3*%
D11*
X167107180Y-97353600D02*
X166826020Y-97353600D01*
X167107180Y-98373600D02*
X166826020Y-98373600D01*
%TO.C,R3*%
X167203858Y-101913100D02*
X166729342Y-101913100D01*
X167203858Y-102958100D02*
X166729342Y-102958100D01*
%TO.C,R2*%
X167217058Y-100389100D02*
X166742542Y-100389100D01*
X167217058Y-101434100D02*
X166742542Y-101434100D01*
%TO.C,R1*%
X167203858Y-95817100D02*
X166729342Y-95817100D01*
X167203858Y-96862100D02*
X166729342Y-96862100D01*
%TO.C,C4*%
X167107180Y-98877600D02*
X166826020Y-98877600D01*
X167107180Y-99897600D02*
X166826020Y-99897600D01*
%TD*%
%LPC*%
D12*
%TO.C,J8*%
X118782800Y-79855000D03*
D13*
X121322800Y-79855000D03*
X118782800Y-82395000D03*
X121322800Y-82395000D03*
X118782800Y-84935000D03*
X121322800Y-84935000D03*
X118782800Y-87475000D03*
X121322800Y-87475000D03*
X118782800Y-90015000D03*
X121322800Y-90015000D03*
X118782800Y-92555000D03*
X121322800Y-92555000D03*
X118782800Y-95095000D03*
X121322800Y-95095000D03*
%TD*%
D14*
%TO.C,J4*%
X165614800Y-84136400D03*
X159834800Y-84136400D03*
D15*
X167044800Y-84636400D03*
D16*
X167044800Y-80456400D03*
D15*
X158404800Y-84636400D03*
D16*
X158404800Y-80456400D03*
%TD*%
D17*
%TO.C,J3*%
X126493600Y-115423400D03*
D18*
X128993600Y-115423400D03*
X131493600Y-115423400D03*
%TD*%
D12*
%TO.C,J1*%
X118808200Y-98651000D03*
D13*
X118808200Y-101191000D03*
X118808200Y-103731000D03*
X118808200Y-106271000D03*
%TD*%
D12*
%TO.C,J7*%
X122618200Y-98676400D03*
D13*
X122618200Y-101216400D03*
%TD*%
D19*
%TO.C,J6*%
X175424800Y-84223800D03*
D13*
X172884800Y-84223800D03*
X175424800Y-81683800D03*
X172884800Y-81683800D03*
X175424800Y-79143800D03*
X172884800Y-79143800D03*
%TD*%
D20*
%TO.C,C3*%
X167741600Y-97863600D03*
X166191600Y-97863600D03*
%TD*%
D21*
%TO.C,R3*%
X167791600Y-102435600D03*
X166141600Y-102435600D03*
%TD*%
%TO.C,R2*%
X167804800Y-100911600D03*
X166154800Y-100911600D03*
%TD*%
%TO.C,R1*%
X167791600Y-96339600D03*
X166141600Y-96339600D03*
%TD*%
D20*
%TO.C,C4*%
X167741600Y-99387600D03*
X166191600Y-99387600D03*
%TD*%
%LPD*%
M02*
