%TF.GenerationSoftware,KiCad,Pcbnew,10.0.4-10.0.4~ubuntu25.10.1*%
%TF.CreationDate,Date%
%TF.ProjectId,CanSat_Devboard,43616e53-6174-45f4-9465-76626f617264,+ (Unreleased)*%
%TF.SameCoordinates,Original*%
%TF.FileFunction,Copper,L3,Inr*%
%TF.FilePolarity,Positive*%
%FSLAX46Y46*%
G04 Gerber Fmt 4.6, Leading zero omitted, Abs format (unit mm)*
G04 Created by KiCad*
%MOMM*%
%LPD*%
G01*
G04 APERTURE LIST*
G04 Aperture macros list*
%AMRoundRect*
0 Rectangle with rounded corners*
0 $1 Rounding radius*
0 $2 $3 $4 $5 $6 $7 $8 $9 X,Y pos of 4 corners*
0 Add a 4 corners polygon primitive as box body*
4,1,4,$2,$3,$4,$5,$6,$7,$8,$9,$2,$3,0*
0 Add four circle primitives for the rounded corners*
1,1,$1+$1,$2,$3*
1,1,$1+$1,$4,$5*
1,1,$1+$1,$6,$7*
1,1,$1+$1,$8,$9*
0 Add four rect primitives between the rounded corners*
20,1,$1+$1,$2,$3,$4,$5,0*
20,1,$1+$1,$4,$5,$6,$7,0*
20,1,$1+$1,$6,$7,$8,$9,0*
20,1,$1+$1,$8,$9,$2,$3,0*%
G04 Aperture macros list end*
%TA.AperFunction,ComponentPad*%
%ADD10R,1.700000X1.700000*%
%TD*%
%TA.AperFunction,ComponentPad*%
%ADD11C,1.700000*%
%TD*%
%TA.AperFunction,ComponentPad*%
%ADD12O,1.000000X2.100000*%
%TD*%
%TA.AperFunction,ComponentPad*%
%ADD13O,1.000000X1.800000*%
%TD*%
%TA.AperFunction,ComponentPad*%
%ADD14RoundRect,0.250000X-0.600000X-0.725000X0.600000X-0.725000X0.600000X0.725000X-0.600000X0.725000X0*%
%TD*%
%TA.AperFunction,ComponentPad*%
%ADD15O,1.700000X1.950000*%
%TD*%
%TA.AperFunction,ViaPad*%
%ADD16C,0.550000*%
%TD*%
%TA.AperFunction,ViaPad*%
%ADD17C,0.700000*%
%TD*%
G04 APERTURE END LIST*
D10*
%TO.N,+3.3V*%
%TO.C,J8*%
X116471400Y-82928400D03*
D11*
%TO.N,GND*%
X119011400Y-82928400D03*
%TO.N,1.06*%
X116471400Y-85468400D03*
%TO.N,1.04*%
X119011400Y-85468400D03*
%TO.N,1.02*%
X116471400Y-88008400D03*
%TO.N,1.00*%
X119011400Y-88008400D03*
%TO.N,0.22*%
X116471400Y-90548400D03*
%TO.N,0.20*%
X119011400Y-90548400D03*
%TO.N,0.17*%
X116471400Y-93088400D03*
%TO.N,0.15*%
X119011400Y-93088400D03*
%TO.N,0.07*%
X116471400Y-95628400D03*
%TO.N,0.12*%
X119011400Y-95628400D03*
%TO.N,0.04*%
X116471400Y-98168400D03*
%TO.N,VLDO*%
X119011400Y-98168400D03*
%TD*%
D12*
%TO.N,N/C*%
%TO.C,J4*%
X164733400Y-87709800D03*
D13*
X164733400Y-83529800D03*
D12*
X156093400Y-87709800D03*
D13*
X156093400Y-83529800D03*
%TD*%
D14*
%TO.N,NTC*%
%TO.C,J3*%
X124182200Y-118496800D03*
D15*
%TO.N,GND*%
X126682200Y-118496800D03*
%TO.N,VBAT*%
X129182200Y-118496800D03*
%TD*%
D10*
%TO.N,+3.3V*%
%TO.C,J1*%
X116496800Y-101724400D03*
D11*
%TO.N,GND*%
X116496800Y-104264400D03*
%TO.N,SDA*%
X116496800Y-106804400D03*
%TO.N,SCL*%
X116496800Y-109344400D03*
%TD*%
D10*
%TO.N,RMF*%
%TO.C,J7*%
X120306800Y-101749800D03*
D11*
%TO.N,GND*%
X120306800Y-104289800D03*
%TD*%
D10*
%TO.N,+3V3*%
%TO.C,J6*%
X173113400Y-87297200D03*
D11*
%TO.N,SWDIO*%
X170573400Y-87297200D03*
%TO.N,RST*%
X173113400Y-84757200D03*
%TO.N,SWDCLK*%
X170573400Y-84757200D03*
%TO.N,GND*%
X173113400Y-82217200D03*
%TO.N,unconnected-(J6-Pin_6-Pad6)*%
X170573400Y-82217200D03*
%TD*%
D16*
%TO.N,VLDO*%
X144492600Y-123043400D03*
%TO.N,VMCU*%
X146138600Y-100962400D03*
X146138600Y-104010400D03*
%TO.N,+3.3V*%
X152895000Y-103045200D03*
X145229200Y-113543800D03*
X174718600Y-103307600D03*
%TO.N,GND*%
X164198000Y-92148600D03*
X141795200Y-102359400D03*
X152158400Y-81455200D03*
X146849800Y-103680200D03*
X131767200Y-122433800D03*
X143344600Y-98244600D03*
X120057800Y-113315200D03*
X138117200Y-81260400D03*
X122643600Y-118564600D03*
X115455400Y-81175800D03*
X148831000Y-114170400D03*
X118325600Y-121384000D03*
X143700200Y-106677400D03*
X136689800Y-120825200D03*
X125361400Y-117193000D03*
X146042000Y-112959600D03*
X141414200Y-108938000D03*
X148246800Y-94358400D03*
X159676800Y-103832600D03*
X117792200Y-98955800D03*
X146931000Y-117887200D03*
X118274800Y-117040600D03*
X151879000Y-96009400D03*
X148221400Y-116329400D03*
X171843400Y-85163600D03*
X176877600Y-104018800D03*
X122897600Y-99616200D03*
X131762200Y-97787400D03*
X177583800Y-83258600D03*
X117741400Y-88541800D03*
X138442400Y-119352000D03*
X150355000Y-100048000D03*
X132122800Y-99370600D03*
X121226200Y-100158000D03*
X152006000Y-86408200D03*
X157467000Y-91767600D03*
X150563200Y-112248400D03*
X125564600Y-112290800D03*
X134683200Y-95476000D03*
X121912000Y-109987800D03*
X153631600Y-98320800D03*
X133260800Y-116710400D03*
X134962600Y-93444000D03*
X163588400Y-89989600D03*
X153758600Y-106347200D03*
X155181000Y-103731000D03*
X142658800Y-88770400D03*
X133489400Y-120901400D03*
X140225400Y-81285800D03*
X177939400Y-123238200D03*
X133489400Y-119377400D03*
X163237800Y-108006600D03*
X123456400Y-113840200D03*
X123862800Y-107490200D03*
X138091800Y-93528600D03*
X135165800Y-117878800D03*
X117741400Y-93621800D03*
X159829200Y-96796800D03*
X145407000Y-109556000D03*
X151066200Y-84071400D03*
X174332600Y-85824000D03*
X118071600Y-114043400D03*
X140347400Y-119275800D03*
X117741400Y-96161800D03*
X168058800Y-86662200D03*
X144843200Y-97736600D03*
X130746200Y-117447000D03*
X147535600Y-97508000D03*
X124599400Y-97838200D03*
X117258800Y-107998200D03*
X171886000Y-99497600D03*
X117716000Y-91132600D03*
X169862200Y-83487200D03*
X154165000Y-84071400D03*
X155257200Y-98778000D03*
X147870800Y-92563400D03*
X133088000Y-105695200D03*
X140931600Y-117624800D03*
X126758400Y-108557000D03*
X145889600Y-123068800D03*
X117766800Y-86001800D03*
X176852200Y-101021600D03*
X118909800Y-101978400D03*
X119930800Y-107981200D03*
X147789600Y-81429800D03*
X153733200Y-102410200D03*
X115988800Y-113916400D03*
X177583800Y-86890800D03*
X126555200Y-95984000D03*
X131686000Y-115745200D03*
X125874400Y-81285800D03*
X138620200Y-117853400D03*
X127876000Y-113814800D03*
X148069000Y-109674600D03*
X120002000Y-109928600D03*
%TO.N,VBUS*%
X128892000Y-113891000D03*
X154419000Y-99108200D03*
%TO.N,VSYS*%
X137197800Y-115737199D03*
X138493200Y-121739600D03*
X132676600Y-111519399D03*
X143065200Y-111917400D03*
X127444200Y-111520799D03*
%TO.N,1.06*%
X146265600Y-82496600D03*
%TO.N,1.04*%
X146265600Y-83766600D03*
%TO.N,1.02*%
X146265600Y-85036600D03*
%TO.N,1.00*%
X146265600Y-86306600D03*
%TO.N,0.22*%
X146265600Y-87576600D03*
%TO.N,0.20*%
X146265600Y-88846600D03*
%TO.N,0.17*%
X146265600Y-90116600D03*
%TO.N,0.15*%
X146265600Y-91386600D03*
%TO.N,0.07*%
X145503600Y-92656600D03*
%TO.N,0.12*%
X144233600Y-92656600D03*
%TO.N,0.04*%
X142963600Y-92656600D03*
%TO.N,CC1*%
X163182000Y-94256800D03*
X133718000Y-113501999D03*
X162473400Y-89840200D03*
X152793400Y-97914400D03*
%TO.N,CC2*%
X157848000Y-89837200D03*
X134810200Y-114021400D03*
X162293000Y-94256800D03*
X151904400Y-97863600D03*
%TO.N,LoRa_DIO1*%
X139153600Y-81417800D03*
X124833000Y-81412800D03*
%TO.N,SDA*%
X123126200Y-106804400D03*
D17*
X134048200Y-94764800D03*
D16*
X136435800Y-107024999D03*
D17*
%TO.N,SCL*%
X136334200Y-94764800D03*
D16*
X136473900Y-105488299D03*
X123177401Y-109293199D03*
%TO.N,SW0*%
X118914800Y-111969000D03*
X140423600Y-92656600D03*
%TO.N,BM_INT*%
X141693600Y-97685800D03*
X139661600Y-109437999D03*
%TO.N,RMF*%
X141719000Y-92656600D03*
%TO.N,BM_RST*%
X142735000Y-97685800D03*
X140499800Y-109395200D03*
%TO.N,RST*%
X155079400Y-93164600D03*
%TO.N,VBUSOUT*%
X151117000Y-94764800D03*
X132702000Y-115846800D03*
%TO.N,MISO*%
X174718600Y-106355600D03*
D17*
X151270200Y-88210800D03*
D16*
%TO.N,SCK*%
X174679000Y-104185400D03*
D17*
X151270200Y-86940800D03*
%TO.N,MOSI*%
X151270200Y-83130800D03*
D16*
X174693200Y-101783600D03*
D17*
%TO.N,CS*%
X151270200Y-81860800D03*
D16*
X174693200Y-100259600D03*
%TO.N,Net-(U4A-SHPHLD)*%
X121653000Y-119758400D03*
X136350900Y-103247699D03*
%TO.N,NTC*%
X133718000Y-109895199D03*
%TD*%
%TA.AperFunction,Conductor*%
%TO.N,GND*%
G36*
X124724828Y-80734785D02*
G01*
X124770583Y-80787589D01*
X124780527Y-80856747D01*
X124751502Y-80920303D01*
X124692724Y-80958077D01*
X124689916Y-80958865D01*
X124665046Y-80965529D01*
X124649463Y-80969705D01*
X124541037Y-81032304D01*
X124541034Y-81032306D01*
X124452506Y-81120834D01*
X124452504Y-81120837D01*
X124389905Y-81229263D01*
X124389905Y-81229264D01*
X124357500Y-81350199D01*
X124357500Y-81475401D01*
X124389905Y-81596336D01*
X124452505Y-81704764D01*
X124541036Y-81793295D01*
X124649464Y-81855895D01*
X124770399Y-81888300D01*
X124770401Y-81888300D01*
X124895599Y-81888300D01*
X124895601Y-81888300D01*
X125016536Y-81855895D01*
X125124964Y-81793295D01*
X125213495Y-81704764D01*
X125276095Y-81596336D01*
X125308500Y-81475401D01*
X125308500Y-81350199D01*
X125276095Y-81229264D01*
X125213495Y-81120836D01*
X125124964Y-81032305D01*
X125016536Y-80969705D01*
X125016537Y-80969705D01*
X125000953Y-80965529D01*
X124976115Y-80958874D01*
X124916456Y-80922509D01*
X124885928Y-80859662D01*
X124894223Y-80790287D01*
X124938709Y-80736409D01*
X125005261Y-80715135D01*
X125008211Y-80715100D01*
X138997049Y-80715100D01*
X139064088Y-80734785D01*
X139109843Y-80787589D01*
X139119787Y-80856747D01*
X139090762Y-80920303D01*
X139031984Y-80958077D01*
X139029177Y-80958865D01*
X139002163Y-80966104D01*
X138970063Y-80974705D01*
X138861637Y-81037304D01*
X138861634Y-81037306D01*
X138773106Y-81125834D01*
X138773104Y-81125837D01*
X138710505Y-81234263D01*
X138710505Y-81234264D01*
X138678100Y-81355199D01*
X138678100Y-81480401D01*
X138710505Y-81601336D01*
X138773105Y-81709764D01*
X138861636Y-81798295D01*
X138970064Y-81860895D01*
X139090999Y-81893300D01*
X139091001Y-81893300D01*
X139216199Y-81893300D01*
X139216201Y-81893300D01*
X139337136Y-81860895D01*
X139445564Y-81798295D01*
X139455534Y-81788325D01*
X150719700Y-81788325D01*
X150719700Y-81933275D01*
X150753295Y-82058652D01*
X150757217Y-82073288D01*
X150829688Y-82198811D01*
X150829690Y-82198813D01*
X150829691Y-82198815D01*
X150932185Y-82301309D01*
X150932186Y-82301310D01*
X150932188Y-82301311D01*
X151057711Y-82373782D01*
X151057712Y-82373782D01*
X151057715Y-82373784D01*
X151061586Y-82374821D01*
X151066081Y-82376026D01*
X151125741Y-82412391D01*
X151156269Y-82475239D01*
X151147974Y-82544614D01*
X151103488Y-82598491D01*
X151066081Y-82615574D01*
X151057716Y-82617815D01*
X151057711Y-82617817D01*
X150932188Y-82690288D01*
X150932182Y-82690293D01*
X150829693Y-82792782D01*
X150829688Y-82792788D01*
X150757217Y-82918311D01*
X150757216Y-82918315D01*
X150719700Y-83058325D01*
X150719700Y-83203275D01*
X150743233Y-83291100D01*
X150757217Y-83343288D01*
X150829688Y-83468811D01*
X150829690Y-83468813D01*
X150829691Y-83468815D01*
X150932185Y-83571309D01*
X150932186Y-83571310D01*
X150932188Y-83571311D01*
X151057711Y-83643782D01*
X151057712Y-83643782D01*
X151057715Y-83643784D01*
X151197725Y-83681300D01*
X151197728Y-83681300D01*
X151342672Y-83681300D01*
X151342675Y-83681300D01*
X151482685Y-83643784D01*
X151608215Y-83571309D01*
X151710709Y-83468815D01*
X151783184Y-83343285D01*
X151820700Y-83203275D01*
X151820700Y-83058325D01*
X151783184Y-82918315D01*
X151759384Y-82877093D01*
X151710711Y-82792788D01*
X151710706Y-82792782D01*
X151608217Y-82690293D01*
X151608211Y-82690288D01*
X151482687Y-82617817D01*
X151482686Y-82617816D01*
X151482685Y-82617816D01*
X151474318Y-82615574D01*
X151414659Y-82579210D01*
X151384130Y-82516363D01*
X151392425Y-82446988D01*
X151436910Y-82393110D01*
X151474317Y-82376026D01*
X151482685Y-82373784D01*
X151608215Y-82301309D01*
X151710709Y-82198815D01*
X151783184Y-82073285D01*
X151820700Y-81933275D01*
X151820700Y-81788325D01*
X151783184Y-81648315D01*
X151742818Y-81578400D01*
X151710711Y-81522788D01*
X151710706Y-81522782D01*
X151608217Y-81420293D01*
X151608211Y-81420288D01*
X151482688Y-81347817D01*
X151482689Y-81347817D01*
X151471206Y-81344740D01*
X151342675Y-81310300D01*
X151197725Y-81310300D01*
X151069193Y-81344740D01*
X151057711Y-81347817D01*
X150932188Y-81420288D01*
X150932182Y-81420293D01*
X150829693Y-81522782D01*
X150829688Y-81522788D01*
X150757217Y-81648311D01*
X150757216Y-81648315D01*
X150719700Y-81788325D01*
X139455534Y-81788325D01*
X139534095Y-81709764D01*
X139596695Y-81601336D01*
X139629100Y-81480401D01*
X139629100Y-81355199D01*
X139596695Y-81234264D01*
X139534095Y-81125836D01*
X139445564Y-81037305D01*
X139337136Y-80974705D01*
X139337137Y-80974705D01*
X139305037Y-80966104D01*
X139278055Y-80958874D01*
X139218397Y-80922509D01*
X139187868Y-80859662D01*
X139196163Y-80790287D01*
X139240649Y-80736409D01*
X139307201Y-80715135D01*
X139310151Y-80715100D01*
X172584790Y-80715100D01*
X172651829Y-80734785D01*
X172697584Y-80787589D01*
X172707528Y-80856747D01*
X172678503Y-80920303D01*
X172623108Y-80957031D01*
X172595182Y-80966104D01*
X172405839Y-81062580D01*
X172351682Y-81101927D01*
X172351682Y-81101928D01*
X172983991Y-81734237D01*
X172920407Y-81751275D01*
X172806393Y-81817101D01*
X172713301Y-81910193D01*
X172647475Y-82024207D01*
X172630437Y-82087791D01*
X171998128Y-81455482D01*
X171998127Y-81455482D01*
X171958780Y-81509639D01*
X171862305Y-81698981D01*
X171805056Y-81875174D01*
X171765618Y-81932849D01*
X171701259Y-81960047D01*
X171632413Y-81948132D01*
X171580937Y-81900888D01*
X171572564Y-81884307D01*
X171569910Y-81877900D01*
X171532807Y-81788325D01*
X171504343Y-81719605D01*
X171389375Y-81547542D01*
X171243057Y-81401224D01*
X171106978Y-81310300D01*
X171070998Y-81286259D01*
X170879820Y-81207070D01*
X170879812Y-81207068D01*
X170676869Y-81166700D01*
X170676865Y-81166700D01*
X170469935Y-81166700D01*
X170469930Y-81166700D01*
X170266987Y-81207068D01*
X170266979Y-81207070D01*
X170075803Y-81286258D01*
X169903742Y-81401224D01*
X169757424Y-81547542D01*
X169642458Y-81719603D01*
X169563270Y-81910779D01*
X169563268Y-81910787D01*
X169522900Y-82113730D01*
X169522900Y-82320669D01*
X169563268Y-82523612D01*
X169563270Y-82523620D01*
X169632308Y-82690293D01*
X169642459Y-82714798D01*
X169656236Y-82735417D01*
X169757424Y-82886857D01*
X169903742Y-83033175D01*
X169903745Y-83033177D01*
X170075802Y-83148141D01*
X170266980Y-83227330D01*
X170469930Y-83267699D01*
X170469934Y-83267700D01*
X170469935Y-83267700D01*
X170676866Y-83267700D01*
X170676867Y-83267699D01*
X170879820Y-83227330D01*
X171070998Y-83148141D01*
X171243055Y-83033177D01*
X171389377Y-82886855D01*
X171504341Y-82714798D01*
X171572565Y-82550089D01*
X171616404Y-82495688D01*
X171682698Y-82473623D01*
X171750398Y-82490902D01*
X171798009Y-82542039D01*
X171805056Y-82559226D01*
X171862304Y-82735416D01*
X171958775Y-82924750D01*
X171998128Y-82978916D01*
X172630437Y-82346608D01*
X172647475Y-82410193D01*
X172713301Y-82524207D01*
X172806393Y-82617299D01*
X172920407Y-82683125D01*
X172983990Y-82700162D01*
X172351682Y-83332469D01*
X172351682Y-83332470D01*
X172405849Y-83371824D01*
X172595182Y-83468295D01*
X172771373Y-83525543D01*
X172829048Y-83564980D01*
X172856247Y-83629339D01*
X172844332Y-83698185D01*
X172797088Y-83749661D01*
X172780508Y-83758035D01*
X172615803Y-83826257D01*
X172443742Y-83941224D01*
X172297424Y-84087542D01*
X172182458Y-84259603D01*
X172103270Y-84450779D01*
X172103268Y-84450787D01*
X172062900Y-84653730D01*
X172062900Y-84860669D01*
X172103268Y-85063612D01*
X172103270Y-85063620D01*
X172182458Y-85254796D01*
X172297424Y-85426857D01*
X172443742Y-85573175D01*
X172443745Y-85573177D01*
X172615802Y-85688141D01*
X172806980Y-85767330D01*
X173009930Y-85807699D01*
X173009934Y-85807700D01*
X173009935Y-85807700D01*
X173216866Y-85807700D01*
X173216867Y-85807699D01*
X173419820Y-85767330D01*
X173610998Y-85688141D01*
X173783055Y-85573177D01*
X173929377Y-85426855D01*
X174044341Y-85254798D01*
X174123530Y-85063620D01*
X174163900Y-84860665D01*
X174163900Y-84653735D01*
X174123530Y-84450780D01*
X174044341Y-84259602D01*
X173929377Y-84087545D01*
X173929375Y-84087542D01*
X173783057Y-83941224D01*
X173656453Y-83856631D01*
X173610998Y-83826259D01*
X173610993Y-83826257D01*
X173543132Y-83798148D01*
X173446290Y-83758034D01*
X173391888Y-83714194D01*
X173369823Y-83647900D01*
X173387102Y-83580201D01*
X173438239Y-83532590D01*
X173455426Y-83525543D01*
X173631617Y-83468295D01*
X173820954Y-83371822D01*
X173875116Y-83332470D01*
X173875117Y-83332470D01*
X173242808Y-82700162D01*
X173306393Y-82683125D01*
X173420407Y-82617299D01*
X173513499Y-82524207D01*
X173579325Y-82410193D01*
X173596362Y-82346608D01*
X174228670Y-82978917D01*
X174228670Y-82978916D01*
X174268022Y-82924754D01*
X174364495Y-82735417D01*
X174430157Y-82533330D01*
X174430157Y-82533327D01*
X174463400Y-82323446D01*
X174463400Y-82110953D01*
X174430157Y-81901072D01*
X174430157Y-81901069D01*
X174364495Y-81698982D01*
X174268024Y-81509649D01*
X174228670Y-81455482D01*
X174228669Y-81455482D01*
X173596362Y-82087790D01*
X173579325Y-82024207D01*
X173513499Y-81910193D01*
X173420407Y-81817101D01*
X173306393Y-81751275D01*
X173242809Y-81734237D01*
X173875116Y-81101928D01*
X173820950Y-81062575D01*
X173631617Y-80966104D01*
X173603692Y-80957031D01*
X173546017Y-80917594D01*
X173518818Y-80853235D01*
X173530733Y-80784389D01*
X173577977Y-80732913D01*
X173642010Y-80715100D01*
X178352300Y-80715100D01*
X178419339Y-80734785D01*
X178465094Y-80787589D01*
X178476300Y-80839100D01*
X178476300Y-123651100D01*
X178456615Y-123718139D01*
X178403811Y-123763894D01*
X178352300Y-123775100D01*
X115042500Y-123775100D01*
X114975461Y-123755415D01*
X114929706Y-123702611D01*
X114918500Y-123651100D01*
X114918500Y-122980799D01*
X144017100Y-122980799D01*
X144017100Y-123106001D01*
X144049505Y-123226936D01*
X144112105Y-123335364D01*
X144200636Y-123423895D01*
X144309064Y-123486495D01*
X144429999Y-123518900D01*
X144430001Y-123518900D01*
X144555199Y-123518900D01*
X144555201Y-123518900D01*
X144676136Y-123486495D01*
X144784564Y-123423895D01*
X144873095Y-123335364D01*
X144935695Y-123226936D01*
X144968100Y-123106001D01*
X144968100Y-122980799D01*
X144935695Y-122859864D01*
X144873095Y-122751436D01*
X144784564Y-122662905D01*
X144676136Y-122600305D01*
X144676137Y-122600305D01*
X144635824Y-122589503D01*
X144555201Y-122567900D01*
X144429999Y-122567900D01*
X144349375Y-122589503D01*
X144309063Y-122600305D01*
X144200637Y-122662904D01*
X144200634Y-122662906D01*
X144112106Y-122751434D01*
X144112104Y-122751437D01*
X144049505Y-122859863D01*
X144049505Y-122859864D01*
X144017100Y-122980799D01*
X114918500Y-122980799D01*
X114918500Y-121676999D01*
X138017700Y-121676999D01*
X138017700Y-121802201D01*
X138050105Y-121923136D01*
X138112705Y-122031564D01*
X138201236Y-122120095D01*
X138309664Y-122182695D01*
X138430599Y-122215100D01*
X138430601Y-122215100D01*
X138555799Y-122215100D01*
X138555801Y-122215100D01*
X138676736Y-122182695D01*
X138785164Y-122120095D01*
X138873695Y-122031564D01*
X138936295Y-121923136D01*
X138968700Y-121802201D01*
X138968700Y-121676999D01*
X138936295Y-121556064D01*
X138873695Y-121447636D01*
X138785164Y-121359105D01*
X138676736Y-121296505D01*
X138676737Y-121296505D01*
X138636424Y-121285703D01*
X138555801Y-121264100D01*
X138430599Y-121264100D01*
X138349975Y-121285703D01*
X138309663Y-121296505D01*
X138201237Y-121359104D01*
X138201234Y-121359106D01*
X138112706Y-121447634D01*
X138112704Y-121447637D01*
X138050105Y-121556063D01*
X138050105Y-121556064D01*
X138017700Y-121676999D01*
X114918500Y-121676999D01*
X114918500Y-119695799D01*
X121177500Y-119695799D01*
X121177500Y-119821001D01*
X121209905Y-119941936D01*
X121272505Y-120050364D01*
X121361036Y-120138895D01*
X121469464Y-120201495D01*
X121590399Y-120233900D01*
X121590401Y-120233900D01*
X121715599Y-120233900D01*
X121715601Y-120233900D01*
X121836536Y-120201495D01*
X121944964Y-120138895D01*
X122033495Y-120050364D01*
X122096095Y-119941936D01*
X122128500Y-119821001D01*
X122128500Y-119695799D01*
X122096095Y-119574864D01*
X122033495Y-119466436D01*
X121944964Y-119377905D01*
X121836536Y-119315305D01*
X121836537Y-119315305D01*
X121796224Y-119304503D01*
X121715601Y-119282900D01*
X121590399Y-119282900D01*
X121509775Y-119304503D01*
X121469463Y-119315305D01*
X121361037Y-119377904D01*
X121361034Y-119377906D01*
X121272506Y-119466434D01*
X121272504Y-119466437D01*
X121209905Y-119574863D01*
X121209905Y-119574864D01*
X121177500Y-119695799D01*
X114918500Y-119695799D01*
X114918500Y-117717530D01*
X123131700Y-117717530D01*
X123131700Y-119276069D01*
X123134553Y-119306499D01*
X123134553Y-119306501D01*
X123179406Y-119434680D01*
X123179407Y-119434682D01*
X123260050Y-119543950D01*
X123369318Y-119624593D01*
X123390289Y-119631931D01*
X123497499Y-119669446D01*
X123527930Y-119672300D01*
X123527934Y-119672300D01*
X124836470Y-119672300D01*
X124866899Y-119669446D01*
X124866901Y-119669446D01*
X124930990Y-119647019D01*
X124995082Y-119624593D01*
X125104350Y-119543950D01*
X125184993Y-119434682D01*
X125226765Y-119315305D01*
X125229846Y-119306501D01*
X125229846Y-119306499D01*
X125232700Y-119276069D01*
X125232700Y-119267123D01*
X125252385Y-119200084D01*
X125305189Y-119154329D01*
X125374347Y-119144385D01*
X125437903Y-119173410D01*
X125467185Y-119210828D01*
X125527579Y-119329357D01*
X125652472Y-119501259D01*
X125652476Y-119501264D01*
X125802735Y-119651523D01*
X125802740Y-119651527D01*
X125974642Y-119776420D01*
X126163982Y-119872895D01*
X126366071Y-119938557D01*
X126432200Y-119949031D01*
X126432200Y-118900945D01*
X126498857Y-118939430D01*
X126619665Y-118971800D01*
X126744735Y-118971800D01*
X126865543Y-118939430D01*
X126932200Y-118900945D01*
X126932200Y-119949030D01*
X126998326Y-119938557D01*
X126998329Y-119938557D01*
X127200417Y-119872895D01*
X127389757Y-119776420D01*
X127561659Y-119651527D01*
X127561664Y-119651523D01*
X127711923Y-119501264D01*
X127711927Y-119501259D01*
X127836820Y-119329357D01*
X127933295Y-119140017D01*
X127972959Y-119017944D01*
X128012396Y-118960269D01*
X128076755Y-118933070D01*
X128145601Y-118944984D01*
X128197077Y-118992228D01*
X128205451Y-119008809D01*
X128251257Y-119119396D01*
X128366224Y-119291457D01*
X128512542Y-119437775D01*
X128512545Y-119437777D01*
X128684602Y-119552741D01*
X128875780Y-119631930D01*
X129064387Y-119669446D01*
X129078730Y-119672299D01*
X129078734Y-119672300D01*
X129078735Y-119672300D01*
X129285666Y-119672300D01*
X129285667Y-119672299D01*
X129488620Y-119631930D01*
X129679798Y-119552741D01*
X129851855Y-119437777D01*
X129998177Y-119291455D01*
X130113141Y-119119398D01*
X130192330Y-118928220D01*
X130232700Y-118725265D01*
X130232700Y-118268335D01*
X130192330Y-118065380D01*
X130113141Y-117874202D01*
X129998177Y-117702145D01*
X129998175Y-117702142D01*
X129851857Y-117555824D01*
X129756838Y-117492335D01*
X129679798Y-117440859D01*
X129488620Y-117361670D01*
X129488612Y-117361668D01*
X129285669Y-117321300D01*
X129285665Y-117321300D01*
X129078735Y-117321300D01*
X129078730Y-117321300D01*
X128875787Y-117361668D01*
X128875779Y-117361670D01*
X128684603Y-117440858D01*
X128512542Y-117555824D01*
X128366224Y-117702142D01*
X128251257Y-117874204D01*
X128205451Y-117984790D01*
X128161609Y-118039194D01*
X128095315Y-118061258D01*
X128027616Y-118043978D01*
X127980006Y-117992841D01*
X127972959Y-117975655D01*
X127933295Y-117853582D01*
X127836820Y-117664242D01*
X127711927Y-117492340D01*
X127711923Y-117492335D01*
X127561664Y-117342076D01*
X127561659Y-117342072D01*
X127389757Y-117217179D01*
X127200415Y-117120703D01*
X126998324Y-117055041D01*
X126932200Y-117044568D01*
X126932200Y-118092654D01*
X126865543Y-118054170D01*
X126744735Y-118021800D01*
X126619665Y-118021800D01*
X126498857Y-118054170D01*
X126432200Y-118092654D01*
X126432200Y-117044568D01*
X126432199Y-117044568D01*
X126366075Y-117055041D01*
X126163984Y-117120703D01*
X125974642Y-117217179D01*
X125802740Y-117342072D01*
X125802735Y-117342076D01*
X125652476Y-117492335D01*
X125652472Y-117492340D01*
X125527579Y-117664242D01*
X125467185Y-117782771D01*
X125419210Y-117833567D01*
X125351389Y-117850362D01*
X125285254Y-117827824D01*
X125241803Y-117773109D01*
X125232700Y-117726476D01*
X125232700Y-117717530D01*
X125229846Y-117687100D01*
X125229846Y-117687098D01*
X125184993Y-117558919D01*
X125184992Y-117558917D01*
X125104350Y-117449650D01*
X124995082Y-117369007D01*
X124995080Y-117369006D01*
X124866900Y-117324153D01*
X124836470Y-117321300D01*
X124836466Y-117321300D01*
X123527934Y-117321300D01*
X123527930Y-117321300D01*
X123497500Y-117324153D01*
X123497498Y-117324153D01*
X123369319Y-117369006D01*
X123369317Y-117369007D01*
X123260050Y-117449650D01*
X123179407Y-117558917D01*
X123179406Y-117558919D01*
X123134553Y-117687098D01*
X123134553Y-117687100D01*
X123131700Y-117717530D01*
X114918500Y-117717530D01*
X114918500Y-115784199D01*
X132226500Y-115784199D01*
X132226500Y-115909401D01*
X132258905Y-116030336D01*
X132321505Y-116138764D01*
X132410036Y-116227295D01*
X132518464Y-116289895D01*
X132639399Y-116322300D01*
X132639401Y-116322300D01*
X132764599Y-116322300D01*
X132764601Y-116322300D01*
X132885536Y-116289895D01*
X132993964Y-116227295D01*
X133082495Y-116138764D01*
X133145095Y-116030336D01*
X133177500Y-115909401D01*
X133177500Y-115784199D01*
X133148132Y-115674598D01*
X136722300Y-115674598D01*
X136722300Y-115799800D01*
X136754705Y-115920735D01*
X136817305Y-116029163D01*
X136905836Y-116117694D01*
X137014264Y-116180294D01*
X137135199Y-116212699D01*
X137135201Y-116212699D01*
X137260399Y-116212699D01*
X137260401Y-116212699D01*
X137381336Y-116180294D01*
X137489764Y-116117694D01*
X137578295Y-116029163D01*
X137640895Y-115920735D01*
X137673300Y-115799800D01*
X137673300Y-115674598D01*
X137640895Y-115553663D01*
X137578295Y-115445235D01*
X137489764Y-115356704D01*
X137381336Y-115294104D01*
X137381337Y-115294104D01*
X137341024Y-115283302D01*
X137260401Y-115261699D01*
X137135199Y-115261699D01*
X137054575Y-115283302D01*
X137014263Y-115294104D01*
X136905837Y-115356703D01*
X136905834Y-115356705D01*
X136817306Y-115445233D01*
X136817304Y-115445236D01*
X136754705Y-115553662D01*
X136754390Y-115554837D01*
X136722300Y-115674598D01*
X133148132Y-115674598D01*
X133145095Y-115663264D01*
X133082495Y-115554836D01*
X132993964Y-115466305D01*
X132885536Y-115403705D01*
X132885537Y-115403705D01*
X132845224Y-115392903D01*
X132764601Y-115371300D01*
X132639399Y-115371300D01*
X132558775Y-115392903D01*
X132518463Y-115403705D01*
X132410037Y-115466304D01*
X132410034Y-115466306D01*
X132321506Y-115554834D01*
X132321504Y-115554837D01*
X132258905Y-115663263D01*
X132258905Y-115663264D01*
X132226500Y-115784199D01*
X114918500Y-115784199D01*
X114918500Y-113828399D01*
X128416500Y-113828399D01*
X128416500Y-113953601D01*
X128448905Y-114074536D01*
X128511505Y-114182964D01*
X128600036Y-114271495D01*
X128708464Y-114334095D01*
X128829399Y-114366500D01*
X128829401Y-114366500D01*
X128954599Y-114366500D01*
X128954601Y-114366500D01*
X129075536Y-114334095D01*
X129183964Y-114271495D01*
X129272495Y-114182964D01*
X129335095Y-114074536D01*
X129367500Y-113953601D01*
X129367500Y-113828399D01*
X129335095Y-113707464D01*
X129272495Y-113599036D01*
X129183964Y-113510505D01*
X129075536Y-113447905D01*
X129075537Y-113447905D01*
X129043789Y-113439398D01*
X133242500Y-113439398D01*
X133242500Y-113564600D01*
X133274905Y-113685535D01*
X133337505Y-113793963D01*
X133426036Y-113882494D01*
X133534464Y-113945094D01*
X133655399Y-113977499D01*
X133655401Y-113977499D01*
X133780599Y-113977499D01*
X133780601Y-113977499D01*
X133850389Y-113958799D01*
X134334700Y-113958799D01*
X134334700Y-114084001D01*
X134367105Y-114204936D01*
X134429705Y-114313364D01*
X134518236Y-114401895D01*
X134626664Y-114464495D01*
X134747599Y-114496900D01*
X134747601Y-114496900D01*
X134872799Y-114496900D01*
X134872801Y-114496900D01*
X134993736Y-114464495D01*
X135102164Y-114401895D01*
X135190695Y-114313364D01*
X135253295Y-114204936D01*
X135285700Y-114084001D01*
X135285700Y-113958799D01*
X135253295Y-113837864D01*
X135190695Y-113729436D01*
X135102164Y-113640905D01*
X135102163Y-113640904D01*
X135029645Y-113599037D01*
X134993736Y-113578305D01*
X134872801Y-113545900D01*
X134747599Y-113545900D01*
X134677811Y-113564600D01*
X134626663Y-113578305D01*
X134518237Y-113640904D01*
X134518234Y-113640906D01*
X134429706Y-113729434D01*
X134429704Y-113729437D01*
X134367105Y-113837863D01*
X134367105Y-113837864D01*
X134334700Y-113958799D01*
X133850389Y-113958799D01*
X133901536Y-113945094D01*
X134009964Y-113882494D01*
X134098495Y-113793963D01*
X134161095Y-113685535D01*
X134193500Y-113564600D01*
X134193500Y-113481199D01*
X144753700Y-113481199D01*
X144753700Y-113606401D01*
X144786105Y-113727336D01*
X144848705Y-113835764D01*
X144937236Y-113924295D01*
X145045664Y-113986895D01*
X145166599Y-114019300D01*
X145166601Y-114019300D01*
X145291799Y-114019300D01*
X145291801Y-114019300D01*
X145412736Y-113986895D01*
X145521164Y-113924295D01*
X145609695Y-113835764D01*
X145672295Y-113727336D01*
X145704700Y-113606401D01*
X145704700Y-113481199D01*
X145672295Y-113360264D01*
X145609695Y-113251836D01*
X145521164Y-113163305D01*
X145412736Y-113100705D01*
X145412737Y-113100705D01*
X145372424Y-113089903D01*
X145291801Y-113068300D01*
X145166599Y-113068300D01*
X145085975Y-113089903D01*
X145045663Y-113100705D01*
X144937237Y-113163304D01*
X144937234Y-113163306D01*
X144848706Y-113251834D01*
X144848704Y-113251837D01*
X144786105Y-113360263D01*
X144786105Y-113360264D01*
X144753700Y-113481199D01*
X134193500Y-113481199D01*
X134193500Y-113439398D01*
X134161095Y-113318463D01*
X134098495Y-113210035D01*
X134009964Y-113121504D01*
X133901536Y-113058904D01*
X133901537Y-113058904D01*
X133861224Y-113048102D01*
X133780601Y-113026499D01*
X133655399Y-113026499D01*
X133574775Y-113048102D01*
X133534463Y-113058904D01*
X133426037Y-113121503D01*
X133426034Y-113121505D01*
X133337506Y-113210033D01*
X133337504Y-113210036D01*
X133274905Y-113318462D01*
X133263704Y-113360264D01*
X133242500Y-113439398D01*
X129043789Y-113439398D01*
X129035224Y-113437103D01*
X128954601Y-113415500D01*
X128829399Y-113415500D01*
X128748775Y-113437103D01*
X128708463Y-113447905D01*
X128600037Y-113510504D01*
X128600034Y-113510506D01*
X128511506Y-113599034D01*
X128511504Y-113599037D01*
X128448905Y-113707463D01*
X128443017Y-113729437D01*
X128416500Y-113828399D01*
X114918500Y-113828399D01*
X114918500Y-111906399D01*
X118439300Y-111906399D01*
X118439300Y-112031601D01*
X118471705Y-112152536D01*
X118534305Y-112260964D01*
X118622836Y-112349495D01*
X118731264Y-112412095D01*
X118852199Y-112444500D01*
X118852201Y-112444500D01*
X118977399Y-112444500D01*
X118977401Y-112444500D01*
X119098336Y-112412095D01*
X119206764Y-112349495D01*
X119295295Y-112260964D01*
X119357895Y-112152536D01*
X119390300Y-112031601D01*
X119390300Y-111906399D01*
X119357895Y-111785464D01*
X119295295Y-111677036D01*
X119206764Y-111588505D01*
X119098336Y-111525905D01*
X119098337Y-111525905D01*
X119058024Y-111515103D01*
X118977401Y-111493500D01*
X118852199Y-111493500D01*
X118771575Y-111515103D01*
X118731263Y-111525905D01*
X118622837Y-111588504D01*
X118622834Y-111588506D01*
X118534306Y-111677034D01*
X118534304Y-111677037D01*
X118471705Y-111785463D01*
X118471705Y-111785464D01*
X118439300Y-111906399D01*
X114918500Y-111906399D01*
X114918500Y-111458198D01*
X126968700Y-111458198D01*
X126968700Y-111583400D01*
X127001105Y-111704335D01*
X127063705Y-111812763D01*
X127152236Y-111901294D01*
X127260664Y-111963894D01*
X127381599Y-111996299D01*
X127381601Y-111996299D01*
X127506799Y-111996299D01*
X127506801Y-111996299D01*
X127627736Y-111963894D01*
X127736164Y-111901294D01*
X127824695Y-111812763D01*
X127887295Y-111704335D01*
X127919700Y-111583400D01*
X127919700Y-111458198D01*
X127919325Y-111456798D01*
X132201100Y-111456798D01*
X132201100Y-111582000D01*
X132233505Y-111702935D01*
X132296105Y-111811363D01*
X132384636Y-111899894D01*
X132493064Y-111962494D01*
X132613999Y-111994899D01*
X132614001Y-111994899D01*
X132739199Y-111994899D01*
X132739201Y-111994899D01*
X132860136Y-111962494D01*
X132968564Y-111899894D01*
X133013659Y-111854799D01*
X142589700Y-111854799D01*
X142589700Y-111980001D01*
X142622105Y-112100936D01*
X142684705Y-112209364D01*
X142773236Y-112297895D01*
X142881664Y-112360495D01*
X143002599Y-112392900D01*
X143002601Y-112392900D01*
X143127799Y-112392900D01*
X143127801Y-112392900D01*
X143248736Y-112360495D01*
X143357164Y-112297895D01*
X143445695Y-112209364D01*
X143508295Y-112100936D01*
X143540700Y-111980001D01*
X143540700Y-111854799D01*
X143508295Y-111733864D01*
X143445695Y-111625436D01*
X143357164Y-111536905D01*
X143248736Y-111474305D01*
X143248737Y-111474305D01*
X143188632Y-111458200D01*
X143127801Y-111441900D01*
X143002599Y-111441900D01*
X142941768Y-111458200D01*
X142881663Y-111474305D01*
X142773237Y-111536904D01*
X142773234Y-111536906D01*
X142684706Y-111625434D01*
X142684704Y-111625437D01*
X142622105Y-111733863D01*
X142622105Y-111733864D01*
X142589700Y-111854799D01*
X133013659Y-111854799D01*
X133057095Y-111811363D01*
X133072048Y-111785464D01*
X133072506Y-111784671D01*
X133101839Y-111733863D01*
X133119695Y-111702935D01*
X133152100Y-111582000D01*
X133152100Y-111456798D01*
X133119695Y-111335863D01*
X133057095Y-111227435D01*
X132968564Y-111138904D01*
X132860136Y-111076304D01*
X132860137Y-111076304D01*
X132819824Y-111065502D01*
X132739201Y-111043899D01*
X132613999Y-111043899D01*
X132533375Y-111065502D01*
X132493063Y-111076304D01*
X132384637Y-111138903D01*
X132384634Y-111138905D01*
X132296106Y-111227433D01*
X132296104Y-111227436D01*
X132233505Y-111335862D01*
X132233505Y-111335863D01*
X132201100Y-111456798D01*
X127919325Y-111456798D01*
X127887295Y-111337263D01*
X127824695Y-111228835D01*
X127736164Y-111140304D01*
X127627736Y-111077704D01*
X127627737Y-111077704D01*
X127587424Y-111066902D01*
X127506801Y-111045299D01*
X127381599Y-111045299D01*
X127300975Y-111066902D01*
X127260663Y-111077704D01*
X127152237Y-111140303D01*
X127152234Y-111140305D01*
X127063706Y-111228833D01*
X127063704Y-111228836D01*
X127001105Y-111337262D01*
X127001105Y-111337263D01*
X126968700Y-111458198D01*
X114918500Y-111458198D01*
X114918500Y-109240930D01*
X115446300Y-109240930D01*
X115446300Y-109447869D01*
X115486668Y-109650812D01*
X115486670Y-109650820D01*
X115565858Y-109841996D01*
X115680824Y-110014057D01*
X115827142Y-110160375D01*
X115827145Y-110160377D01*
X115999202Y-110275341D01*
X116190380Y-110354530D01*
X116393330Y-110394899D01*
X116393334Y-110394900D01*
X116393335Y-110394900D01*
X116600266Y-110394900D01*
X116600267Y-110394899D01*
X116803220Y-110354530D01*
X116994398Y-110275341D01*
X117166455Y-110160377D01*
X117312777Y-110014055D01*
X117427741Y-109841998D01*
X117431635Y-109832598D01*
X133242500Y-109832598D01*
X133242500Y-109957800D01*
X133274905Y-110078735D01*
X133337505Y-110187163D01*
X133426036Y-110275694D01*
X133534464Y-110338294D01*
X133655399Y-110370699D01*
X133655401Y-110370699D01*
X133780599Y-110370699D01*
X133780601Y-110370699D01*
X133901536Y-110338294D01*
X134009964Y-110275694D01*
X134098495Y-110187163D01*
X134161095Y-110078735D01*
X134193500Y-109957800D01*
X134193500Y-109832598D01*
X134161095Y-109711663D01*
X134098495Y-109603235D01*
X134009964Y-109514704D01*
X133901536Y-109452104D01*
X133901537Y-109452104D01*
X133861224Y-109441302D01*
X133780601Y-109419699D01*
X133655399Y-109419699D01*
X133574775Y-109441302D01*
X133534463Y-109452104D01*
X133426037Y-109514703D01*
X133426034Y-109514705D01*
X133337506Y-109603233D01*
X133337504Y-109603236D01*
X133274905Y-109711662D01*
X133259622Y-109768699D01*
X133242500Y-109832598D01*
X117431635Y-109832598D01*
X117506930Y-109650820D01*
X117547300Y-109447865D01*
X117547300Y-109240935D01*
X117545244Y-109230598D01*
X122701901Y-109230598D01*
X122701901Y-109355800D01*
X122734306Y-109476735D01*
X122796906Y-109585163D01*
X122885437Y-109673694D01*
X122993865Y-109736294D01*
X123114800Y-109768699D01*
X123114802Y-109768699D01*
X123240000Y-109768699D01*
X123240002Y-109768699D01*
X123360937Y-109736294D01*
X123469365Y-109673694D01*
X123557896Y-109585163D01*
X123620496Y-109476735D01*
X123647650Y-109375398D01*
X139186100Y-109375398D01*
X139186100Y-109500600D01*
X139218505Y-109621535D01*
X139281105Y-109729963D01*
X139369636Y-109818494D01*
X139478064Y-109881094D01*
X139598999Y-109913499D01*
X139599001Y-109913499D01*
X139724199Y-109913499D01*
X139724201Y-109913499D01*
X139845136Y-109881094D01*
X139953564Y-109818494D01*
X140014421Y-109757636D01*
X140075740Y-109724154D01*
X140145432Y-109729138D01*
X140189780Y-109757639D01*
X140207836Y-109775695D01*
X140316264Y-109838295D01*
X140437199Y-109870700D01*
X140437201Y-109870700D01*
X140562399Y-109870700D01*
X140562401Y-109870700D01*
X140683336Y-109838295D01*
X140791764Y-109775695D01*
X140880295Y-109687164D01*
X140942895Y-109578736D01*
X140975300Y-109457801D01*
X140975300Y-109332599D01*
X140942895Y-109211664D01*
X140880295Y-109103236D01*
X140791764Y-109014705D01*
X140683336Y-108952105D01*
X140683337Y-108952105D01*
X140643024Y-108941303D01*
X140562401Y-108919700D01*
X140437199Y-108919700D01*
X140356575Y-108941303D01*
X140316263Y-108952105D01*
X140207837Y-109014704D01*
X140146981Y-109075560D01*
X140085657Y-109109044D01*
X140015966Y-109104059D01*
X139971619Y-109075559D01*
X139953565Y-109057505D01*
X139953564Y-109057504D01*
X139845136Y-108994904D01*
X139845137Y-108994904D01*
X139804824Y-108984102D01*
X139724201Y-108962499D01*
X139598999Y-108962499D01*
X139518375Y-108984102D01*
X139478063Y-108994904D01*
X139369637Y-109057503D01*
X139369634Y-109057505D01*
X139281106Y-109146033D01*
X139281104Y-109146036D01*
X139218505Y-109254462D01*
X139218505Y-109254463D01*
X139186100Y-109375398D01*
X123647650Y-109375398D01*
X123652901Y-109355800D01*
X123652901Y-109230598D01*
X123620496Y-109109663D01*
X123557896Y-109001235D01*
X123469365Y-108912704D01*
X123360937Y-108850104D01*
X123360938Y-108850104D01*
X123320625Y-108839302D01*
X123240002Y-108817699D01*
X123114800Y-108817699D01*
X123034176Y-108839302D01*
X122993864Y-108850104D01*
X122885438Y-108912703D01*
X122885435Y-108912705D01*
X122796907Y-109001233D01*
X122796905Y-109001236D01*
X122734306Y-109109662D01*
X122724560Y-109146035D01*
X122701901Y-109230598D01*
X117545244Y-109230598D01*
X117541477Y-109211663D01*
X117533719Y-109172662D01*
X117506930Y-109037980D01*
X117427741Y-108846802D01*
X117312777Y-108674745D01*
X117312775Y-108674742D01*
X117166457Y-108528424D01*
X117080426Y-108470941D01*
X116994398Y-108413459D01*
X116803220Y-108334270D01*
X116803212Y-108334268D01*
X116600269Y-108293900D01*
X116600265Y-108293900D01*
X116393335Y-108293900D01*
X116393330Y-108293900D01*
X116190387Y-108334268D01*
X116190379Y-108334270D01*
X115999203Y-108413458D01*
X115827142Y-108528424D01*
X115680824Y-108674742D01*
X115565858Y-108846803D01*
X115486670Y-109037979D01*
X115486668Y-109037987D01*
X115446300Y-109240930D01*
X114918500Y-109240930D01*
X114918500Y-104504783D01*
X114938185Y-104437744D01*
X114990989Y-104391989D01*
X115060147Y-104382045D01*
X115123703Y-104411070D01*
X115161477Y-104469848D01*
X115164973Y-104485385D01*
X115180042Y-104580527D01*
X115180042Y-104580530D01*
X115245704Y-104782617D01*
X115342175Y-104971950D01*
X115381528Y-105026116D01*
X116013837Y-104393808D01*
X116030875Y-104457393D01*
X116096701Y-104571407D01*
X116189793Y-104664499D01*
X116303807Y-104730325D01*
X116367390Y-104747362D01*
X115735082Y-105379669D01*
X115735082Y-105379670D01*
X115789249Y-105419024D01*
X115978582Y-105515495D01*
X116154773Y-105572743D01*
X116212448Y-105612180D01*
X116239647Y-105676539D01*
X116227732Y-105745385D01*
X116180488Y-105796861D01*
X116163908Y-105805235D01*
X115999203Y-105873457D01*
X115827142Y-105988424D01*
X115680824Y-106134742D01*
X115565858Y-106306803D01*
X115486670Y-106497979D01*
X115486668Y-106497987D01*
X115446300Y-106700930D01*
X115446300Y-106907869D01*
X115486668Y-107110812D01*
X115486670Y-107110820D01*
X115543282Y-107247494D01*
X115565859Y-107301998D01*
X115575859Y-107316964D01*
X115680824Y-107474057D01*
X115827142Y-107620375D01*
X115827145Y-107620377D01*
X115999202Y-107735341D01*
X116190380Y-107814530D01*
X116393330Y-107854899D01*
X116393334Y-107854900D01*
X116393335Y-107854900D01*
X116600266Y-107854900D01*
X116600267Y-107854899D01*
X116803220Y-107814530D01*
X116994398Y-107735341D01*
X117166455Y-107620377D01*
X117312777Y-107474055D01*
X117427741Y-107301998D01*
X117506930Y-107110820D01*
X117547300Y-106907865D01*
X117547300Y-106741799D01*
X122650700Y-106741799D01*
X122650700Y-106867001D01*
X122683105Y-106987936D01*
X122745705Y-107096364D01*
X122834236Y-107184895D01*
X122942664Y-107247495D01*
X123063599Y-107279900D01*
X123063601Y-107279900D01*
X123188799Y-107279900D01*
X123188801Y-107279900D01*
X123309736Y-107247495D01*
X123418164Y-107184895D01*
X123506695Y-107096364D01*
X123569295Y-106987936D01*
X123576138Y-106962398D01*
X135960300Y-106962398D01*
X135960300Y-107087600D01*
X135992705Y-107208535D01*
X136055305Y-107316963D01*
X136143836Y-107405494D01*
X136252264Y-107468094D01*
X136373199Y-107500499D01*
X136373201Y-107500499D01*
X136498399Y-107500499D01*
X136498401Y-107500499D01*
X136619336Y-107468094D01*
X136727764Y-107405494D01*
X136816295Y-107316963D01*
X136878895Y-107208535D01*
X136911300Y-107087600D01*
X136911300Y-106962398D01*
X136878895Y-106841463D01*
X136816295Y-106733035D01*
X136727764Y-106644504D01*
X136619336Y-106581904D01*
X136619337Y-106581904D01*
X136579024Y-106571102D01*
X136498401Y-106549499D01*
X136373199Y-106549499D01*
X136292575Y-106571102D01*
X136252263Y-106581904D01*
X136143837Y-106644503D01*
X136143834Y-106644505D01*
X136055306Y-106733033D01*
X136055304Y-106733036D01*
X135992705Y-106841462D01*
X135985862Y-106867001D01*
X135960300Y-106962398D01*
X123576138Y-106962398D01*
X123601700Y-106867001D01*
X123601700Y-106741799D01*
X123569295Y-106620864D01*
X123506695Y-106512436D01*
X123418164Y-106423905D01*
X123418163Y-106423904D01*
X123390171Y-106407743D01*
X123363349Y-106392258D01*
X123363347Y-106392256D01*
X123309742Y-106361308D01*
X123309737Y-106361305D01*
X123269424Y-106350503D01*
X123188801Y-106328900D01*
X123063599Y-106328900D01*
X122982975Y-106350503D01*
X122942663Y-106361305D01*
X122834237Y-106423904D01*
X122834234Y-106423906D01*
X122745706Y-106512434D01*
X122745704Y-106512437D01*
X122683105Y-106620863D01*
X122675950Y-106647565D01*
X122650700Y-106741799D01*
X117547300Y-106741799D01*
X117547300Y-106700935D01*
X117506930Y-106497980D01*
X117427741Y-106306802D01*
X117418518Y-106292999D01*
X174243100Y-106292999D01*
X174243100Y-106418201D01*
X174275505Y-106539136D01*
X174338105Y-106647564D01*
X174426636Y-106736095D01*
X174535064Y-106798695D01*
X174655999Y-106831100D01*
X174656001Y-106831100D01*
X174781199Y-106831100D01*
X174781201Y-106831100D01*
X174902136Y-106798695D01*
X175010564Y-106736095D01*
X175099095Y-106647564D01*
X175161695Y-106539136D01*
X175194100Y-106418201D01*
X175194100Y-106292999D01*
X175161695Y-106172064D01*
X175099095Y-106063636D01*
X175010564Y-105975105D01*
X174902136Y-105912505D01*
X174902137Y-105912505D01*
X174861824Y-105901703D01*
X174781201Y-105880100D01*
X174655999Y-105880100D01*
X174575375Y-105901703D01*
X174535063Y-105912505D01*
X174426637Y-105975104D01*
X174426634Y-105975106D01*
X174338106Y-106063634D01*
X174338104Y-106063637D01*
X174275505Y-106172063D01*
X174275505Y-106172064D01*
X174243100Y-106292999D01*
X117418518Y-106292999D01*
X117312777Y-106134745D01*
X117312775Y-106134742D01*
X117166457Y-105988424D01*
X117004337Y-105880100D01*
X116994398Y-105873459D01*
X116994393Y-105873457D01*
X116932691Y-105847899D01*
X116829690Y-105805234D01*
X116775288Y-105761394D01*
X116753223Y-105695100D01*
X116770502Y-105627401D01*
X116821639Y-105579790D01*
X116838826Y-105572743D01*
X117015017Y-105515495D01*
X117204354Y-105419022D01*
X117258516Y-105379670D01*
X117258517Y-105379670D01*
X116626208Y-104747362D01*
X116689793Y-104730325D01*
X116803807Y-104664499D01*
X116896899Y-104571407D01*
X116962725Y-104457393D01*
X116979762Y-104393809D01*
X117612070Y-105026117D01*
X117612070Y-105026116D01*
X117651422Y-104971954D01*
X117747895Y-104782617D01*
X117813557Y-104580530D01*
X117813557Y-104580527D01*
X117846800Y-104370646D01*
X117846800Y-104183553D01*
X118956800Y-104183553D01*
X118956800Y-104396046D01*
X118990042Y-104605927D01*
X118990042Y-104605930D01*
X119055704Y-104808017D01*
X119152175Y-104997350D01*
X119191528Y-105051516D01*
X119823837Y-104419208D01*
X119840875Y-104482793D01*
X119906701Y-104596807D01*
X119999793Y-104689899D01*
X120113807Y-104755725D01*
X120177390Y-104772762D01*
X119545082Y-105405069D01*
X119545082Y-105405070D01*
X119599249Y-105444424D01*
X119788582Y-105540895D01*
X119990670Y-105606557D01*
X120200554Y-105639800D01*
X120413046Y-105639800D01*
X120622927Y-105606557D01*
X120622930Y-105606557D01*
X120825017Y-105540895D01*
X121014354Y-105444422D01*
X121040125Y-105425698D01*
X135998400Y-105425698D01*
X135998400Y-105550900D01*
X136030805Y-105671835D01*
X136093405Y-105780263D01*
X136181936Y-105868794D01*
X136290364Y-105931394D01*
X136411299Y-105963799D01*
X136411301Y-105963799D01*
X136536499Y-105963799D01*
X136536501Y-105963799D01*
X136657436Y-105931394D01*
X136765864Y-105868794D01*
X136854395Y-105780263D01*
X136916995Y-105671835D01*
X136949400Y-105550900D01*
X136949400Y-105425698D01*
X136916995Y-105304763D01*
X136854395Y-105196335D01*
X136765864Y-105107804D01*
X136657436Y-105045204D01*
X136657437Y-105045204D01*
X136617124Y-105034402D01*
X136536501Y-105012799D01*
X136411299Y-105012799D01*
X136330675Y-105034402D01*
X136290363Y-105045204D01*
X136181937Y-105107803D01*
X136181934Y-105107805D01*
X136093406Y-105196333D01*
X136093404Y-105196336D01*
X136030805Y-105304762D01*
X136030805Y-105304763D01*
X135998400Y-105425698D01*
X121040125Y-105425698D01*
X121068517Y-105405070D01*
X120436208Y-104772762D01*
X120499793Y-104755725D01*
X120613807Y-104689899D01*
X120706899Y-104596807D01*
X120772725Y-104482793D01*
X120789762Y-104419209D01*
X121422070Y-105051517D01*
X121422070Y-105051516D01*
X121461422Y-104997354D01*
X121557895Y-104808017D01*
X121623557Y-104605930D01*
X121623557Y-104605927D01*
X121656800Y-104396046D01*
X121656800Y-104183553D01*
X121623557Y-103973672D01*
X121623556Y-103973665D01*
X121615152Y-103947799D01*
X145663100Y-103947799D01*
X145663100Y-104073001D01*
X145695505Y-104193936D01*
X145758105Y-104302364D01*
X145846636Y-104390895D01*
X145955064Y-104453495D01*
X146075999Y-104485900D01*
X146076001Y-104485900D01*
X146201199Y-104485900D01*
X146201201Y-104485900D01*
X146322136Y-104453495D01*
X146430564Y-104390895D01*
X146519095Y-104302364D01*
X146581695Y-104193936D01*
X146600756Y-104122799D01*
X174203500Y-104122799D01*
X174203500Y-104248001D01*
X174235905Y-104368936D01*
X174298505Y-104477364D01*
X174387036Y-104565895D01*
X174495464Y-104628495D01*
X174616399Y-104660900D01*
X174616401Y-104660900D01*
X174741599Y-104660900D01*
X174741601Y-104660900D01*
X174862536Y-104628495D01*
X174970964Y-104565895D01*
X175059495Y-104477364D01*
X175122095Y-104368936D01*
X175154500Y-104248001D01*
X175154500Y-104122799D01*
X175122095Y-104001864D01*
X175059495Y-103893436D01*
X175020040Y-103853981D01*
X174986555Y-103792658D01*
X174991539Y-103722966D01*
X175020040Y-103678619D01*
X175099095Y-103599564D01*
X175161695Y-103491136D01*
X175194100Y-103370201D01*
X175194100Y-103244999D01*
X175161695Y-103124064D01*
X175099095Y-103015636D01*
X175010564Y-102927105D01*
X174902136Y-102864505D01*
X174902137Y-102864505D01*
X174838259Y-102847389D01*
X174781201Y-102832100D01*
X174655999Y-102832100D01*
X174598941Y-102847389D01*
X174535063Y-102864505D01*
X174426637Y-102927104D01*
X174426634Y-102927106D01*
X174338106Y-103015634D01*
X174338104Y-103015637D01*
X174275505Y-103124063D01*
X174275505Y-103124064D01*
X174243100Y-103244999D01*
X174243100Y-103370201D01*
X174275505Y-103491136D01*
X174296835Y-103528082D01*
X174338104Y-103599562D01*
X174338106Y-103599565D01*
X174377560Y-103639019D01*
X174411045Y-103700342D01*
X174406061Y-103770034D01*
X174377560Y-103814381D01*
X174298506Y-103893434D01*
X174298504Y-103893437D01*
X174235905Y-104001863D01*
X174219702Y-104062331D01*
X174203500Y-104122799D01*
X146600756Y-104122799D01*
X146614100Y-104073001D01*
X146614100Y-103947799D01*
X146581695Y-103826864D01*
X146519095Y-103718436D01*
X146430564Y-103629905D01*
X146322136Y-103567305D01*
X146322137Y-103567305D01*
X146281824Y-103556503D01*
X146201201Y-103534900D01*
X146075999Y-103534900D01*
X145995375Y-103556503D01*
X145955063Y-103567305D01*
X145846637Y-103629904D01*
X145846634Y-103629906D01*
X145758106Y-103718434D01*
X145758104Y-103718437D01*
X145695505Y-103826863D01*
X145695505Y-103826864D01*
X145663100Y-103947799D01*
X121615152Y-103947799D01*
X121557895Y-103771582D01*
X121461424Y-103582249D01*
X121422070Y-103528082D01*
X121422069Y-103528082D01*
X120789762Y-104160390D01*
X120772725Y-104096807D01*
X120706899Y-103982793D01*
X120613807Y-103889701D01*
X120499793Y-103823875D01*
X120436209Y-103806837D01*
X121057946Y-103185098D01*
X135875400Y-103185098D01*
X135875400Y-103310300D01*
X135907805Y-103431235D01*
X135970405Y-103539663D01*
X136058936Y-103628194D01*
X136167364Y-103690794D01*
X136288299Y-103723199D01*
X136288301Y-103723199D01*
X136413499Y-103723199D01*
X136413501Y-103723199D01*
X136534436Y-103690794D01*
X136642864Y-103628194D01*
X136731395Y-103539663D01*
X136793995Y-103431235D01*
X136826400Y-103310300D01*
X136826400Y-103185098D01*
X136793995Y-103064163D01*
X136746905Y-102982599D01*
X152419500Y-102982599D01*
X152419500Y-103107801D01*
X152451905Y-103228736D01*
X152514505Y-103337164D01*
X152603036Y-103425695D01*
X152711464Y-103488295D01*
X152832399Y-103520700D01*
X152832401Y-103520700D01*
X152957599Y-103520700D01*
X152957601Y-103520700D01*
X153078536Y-103488295D01*
X153186964Y-103425695D01*
X153275495Y-103337164D01*
X153338095Y-103228736D01*
X153370500Y-103107801D01*
X153370500Y-102982599D01*
X153338095Y-102861664D01*
X153275495Y-102753236D01*
X153186964Y-102664705D01*
X153078536Y-102602105D01*
X153078537Y-102602105D01*
X153038224Y-102591303D01*
X152957601Y-102569700D01*
X152832399Y-102569700D01*
X152751775Y-102591303D01*
X152711463Y-102602105D01*
X152603037Y-102664704D01*
X152603034Y-102664706D01*
X152514506Y-102753234D01*
X152514504Y-102753237D01*
X152451905Y-102861663D01*
X152450420Y-102867205D01*
X152419500Y-102982599D01*
X136746905Y-102982599D01*
X136731395Y-102955735D01*
X136642864Y-102867204D01*
X136534436Y-102804604D01*
X136534437Y-102804604D01*
X136474959Y-102788667D01*
X136413501Y-102772199D01*
X136288299Y-102772199D01*
X136226841Y-102788667D01*
X136167363Y-102804604D01*
X136058937Y-102867203D01*
X136058934Y-102867205D01*
X135970406Y-102955733D01*
X135970404Y-102955736D01*
X135907805Y-103064162D01*
X135896112Y-103107801D01*
X135875400Y-103185098D01*
X121057946Y-103185098D01*
X121068516Y-103174528D01*
X121014350Y-103135175D01*
X120820679Y-103036494D01*
X120821196Y-103035478D01*
X120770992Y-102995021D01*
X120748927Y-102928727D01*
X120766206Y-102861028D01*
X120817342Y-102813417D01*
X120872848Y-102800300D01*
X121176550Y-102800300D01*
X121176551Y-102800299D01*
X121191368Y-102797352D01*
X121235029Y-102788668D01*
X121235029Y-102788667D01*
X121235031Y-102788667D01*
X121301352Y-102744352D01*
X121345667Y-102678031D01*
X121345667Y-102678029D01*
X121345668Y-102678029D01*
X121357299Y-102619552D01*
X121357300Y-102619550D01*
X121357300Y-101720999D01*
X174217700Y-101720999D01*
X174217700Y-101846201D01*
X174250105Y-101967136D01*
X174312705Y-102075564D01*
X174401236Y-102164095D01*
X174509664Y-102226695D01*
X174630599Y-102259100D01*
X174630601Y-102259100D01*
X174755799Y-102259100D01*
X174755801Y-102259100D01*
X174876736Y-102226695D01*
X174985164Y-102164095D01*
X175073695Y-102075564D01*
X175136295Y-101967136D01*
X175168700Y-101846201D01*
X175168700Y-101720999D01*
X175136295Y-101600064D01*
X175073695Y-101491636D01*
X174985164Y-101403105D01*
X174876736Y-101340505D01*
X174876737Y-101340505D01*
X174836424Y-101329703D01*
X174755801Y-101308100D01*
X174630599Y-101308100D01*
X174549975Y-101329703D01*
X174509663Y-101340505D01*
X174401237Y-101403104D01*
X174401234Y-101403106D01*
X174312706Y-101491634D01*
X174312704Y-101491637D01*
X174250105Y-101600063D01*
X174250105Y-101600064D01*
X174217700Y-101720999D01*
X121357300Y-101720999D01*
X121357300Y-100899799D01*
X145663100Y-100899799D01*
X145663100Y-101025001D01*
X145695505Y-101145936D01*
X145758105Y-101254364D01*
X145846636Y-101342895D01*
X145955064Y-101405495D01*
X146075999Y-101437900D01*
X146076001Y-101437900D01*
X146201199Y-101437900D01*
X146201201Y-101437900D01*
X146322136Y-101405495D01*
X146430564Y-101342895D01*
X146519095Y-101254364D01*
X146581695Y-101145936D01*
X146614100Y-101025001D01*
X146614100Y-100899799D01*
X146581695Y-100778864D01*
X146519095Y-100670436D01*
X146430564Y-100581905D01*
X146322136Y-100519305D01*
X146322137Y-100519305D01*
X146281824Y-100508503D01*
X146201201Y-100486900D01*
X146075999Y-100486900D01*
X145995375Y-100508503D01*
X145955063Y-100519305D01*
X145846637Y-100581904D01*
X145846634Y-100581906D01*
X145758106Y-100670434D01*
X145758104Y-100670437D01*
X145695505Y-100778863D01*
X145695505Y-100778864D01*
X145663100Y-100899799D01*
X121357300Y-100899799D01*
X121357300Y-100880049D01*
X121357299Y-100880047D01*
X121345668Y-100821570D01*
X121345667Y-100821569D01*
X121301352Y-100755247D01*
X121235030Y-100710932D01*
X121235029Y-100710931D01*
X121176552Y-100699300D01*
X121176548Y-100699300D01*
X119437052Y-100699300D01*
X119437047Y-100699300D01*
X119378570Y-100710931D01*
X119378569Y-100710932D01*
X119312247Y-100755247D01*
X119267932Y-100821569D01*
X119267931Y-100821570D01*
X119256300Y-100880047D01*
X119256300Y-102619552D01*
X119267931Y-102678029D01*
X119267932Y-102678030D01*
X119312247Y-102744352D01*
X119378569Y-102788667D01*
X119378570Y-102788668D01*
X119437047Y-102800299D01*
X119437050Y-102800300D01*
X119740752Y-102800300D01*
X119807791Y-102819985D01*
X119853546Y-102872789D01*
X119863490Y-102941947D01*
X119834465Y-103005503D01*
X119792535Y-103035738D01*
X119792921Y-103036494D01*
X119599239Y-103135180D01*
X119545082Y-103174527D01*
X119545082Y-103174528D01*
X120177391Y-103806837D01*
X120113807Y-103823875D01*
X119999793Y-103889701D01*
X119906701Y-103982793D01*
X119840875Y-104096807D01*
X119823837Y-104160391D01*
X119191528Y-103528082D01*
X119191527Y-103528082D01*
X119152180Y-103582239D01*
X119055704Y-103771582D01*
X118990042Y-103973669D01*
X118990042Y-103973672D01*
X118956800Y-104183553D01*
X117846800Y-104183553D01*
X117846800Y-104158153D01*
X117813557Y-103948272D01*
X117813557Y-103948269D01*
X117747895Y-103746182D01*
X117651424Y-103556849D01*
X117612070Y-103502682D01*
X117612069Y-103502682D01*
X116979762Y-104134990D01*
X116962725Y-104071407D01*
X116896899Y-103957393D01*
X116803807Y-103864301D01*
X116689793Y-103798475D01*
X116626209Y-103781437D01*
X117258516Y-103149128D01*
X117204350Y-103109775D01*
X117010679Y-103011094D01*
X117011196Y-103010078D01*
X116960992Y-102969621D01*
X116938927Y-102903327D01*
X116956206Y-102835628D01*
X117007342Y-102788017D01*
X117062848Y-102774900D01*
X117366550Y-102774900D01*
X117366551Y-102774899D01*
X117381368Y-102771952D01*
X117425029Y-102763268D01*
X117425029Y-102763267D01*
X117425031Y-102763267D01*
X117491352Y-102718952D01*
X117535667Y-102652631D01*
X117535667Y-102652629D01*
X117535668Y-102652629D01*
X117547299Y-102594152D01*
X117547300Y-102594150D01*
X117547300Y-100854649D01*
X117547299Y-100854647D01*
X117535668Y-100796170D01*
X117535667Y-100796169D01*
X117491352Y-100729847D01*
X117425030Y-100685532D01*
X117425029Y-100685531D01*
X117366552Y-100673900D01*
X117366548Y-100673900D01*
X115627052Y-100673900D01*
X115627047Y-100673900D01*
X115568570Y-100685531D01*
X115568569Y-100685532D01*
X115502247Y-100729847D01*
X115457932Y-100796169D01*
X115457931Y-100796170D01*
X115446300Y-100854647D01*
X115446300Y-102594152D01*
X115457931Y-102652629D01*
X115457932Y-102652630D01*
X115502247Y-102718952D01*
X115568569Y-102763267D01*
X115568570Y-102763268D01*
X115627047Y-102774899D01*
X115627050Y-102774900D01*
X115930752Y-102774900D01*
X115997791Y-102794585D01*
X116043546Y-102847389D01*
X116053490Y-102916547D01*
X116024465Y-102980103D01*
X115982535Y-103010338D01*
X115982921Y-103011094D01*
X115789239Y-103109780D01*
X115735082Y-103149127D01*
X115735082Y-103149128D01*
X116367391Y-103781437D01*
X116303807Y-103798475D01*
X116189793Y-103864301D01*
X116096701Y-103957393D01*
X116030875Y-104071407D01*
X116013837Y-104134991D01*
X115381528Y-103502682D01*
X115381527Y-103502682D01*
X115342180Y-103556839D01*
X115245704Y-103746182D01*
X115180042Y-103948269D01*
X115180042Y-103948272D01*
X115164973Y-104043414D01*
X115135044Y-104106549D01*
X115075732Y-104143480D01*
X115005870Y-104142482D01*
X114947637Y-104103872D01*
X114919523Y-104039908D01*
X114918500Y-104024016D01*
X114918500Y-100196999D01*
X174217700Y-100196999D01*
X174217700Y-100322201D01*
X174250105Y-100443136D01*
X174312705Y-100551564D01*
X174401236Y-100640095D01*
X174509664Y-100702695D01*
X174630599Y-100735100D01*
X174630601Y-100735100D01*
X174755799Y-100735100D01*
X174755801Y-100735100D01*
X174876736Y-100702695D01*
X174985164Y-100640095D01*
X175073695Y-100551564D01*
X175136295Y-100443136D01*
X175168700Y-100322201D01*
X175168700Y-100196999D01*
X175136295Y-100076064D01*
X175073695Y-99967636D01*
X174985164Y-99879105D01*
X174876736Y-99816505D01*
X174876737Y-99816505D01*
X174836424Y-99805703D01*
X174755801Y-99784100D01*
X174630599Y-99784100D01*
X174549975Y-99805703D01*
X174509663Y-99816505D01*
X174401237Y-99879104D01*
X174401234Y-99879106D01*
X174312706Y-99967634D01*
X174312704Y-99967637D01*
X174250105Y-100076063D01*
X174250105Y-100076064D01*
X174217700Y-100196999D01*
X114918500Y-100196999D01*
X114918500Y-98064930D01*
X115420900Y-98064930D01*
X115420900Y-98271869D01*
X115461268Y-98474812D01*
X115461270Y-98474820D01*
X115540458Y-98665996D01*
X115655424Y-98838057D01*
X115801742Y-98984375D01*
X115801745Y-98984377D01*
X115973802Y-99099341D01*
X116164980Y-99178530D01*
X116367930Y-99218899D01*
X116367934Y-99218900D01*
X116367935Y-99218900D01*
X116574866Y-99218900D01*
X116574867Y-99218899D01*
X116777820Y-99178530D01*
X116968998Y-99099341D01*
X117141055Y-98984377D01*
X117287377Y-98838055D01*
X117402341Y-98665998D01*
X117481530Y-98474820D01*
X117521900Y-98271865D01*
X117521900Y-98064935D01*
X117521899Y-98064930D01*
X117960900Y-98064930D01*
X117960900Y-98271869D01*
X118001268Y-98474812D01*
X118001270Y-98474820D01*
X118080458Y-98665996D01*
X118195424Y-98838057D01*
X118341742Y-98984375D01*
X118341745Y-98984377D01*
X118513802Y-99099341D01*
X118704980Y-99178530D01*
X118907930Y-99218899D01*
X118907934Y-99218900D01*
X118907935Y-99218900D01*
X119114866Y-99218900D01*
X119114867Y-99218899D01*
X119317820Y-99178530D01*
X119508998Y-99099341D01*
X119589429Y-99045599D01*
X153943500Y-99045599D01*
X153943500Y-99170801D01*
X153975905Y-99291736D01*
X154038505Y-99400164D01*
X154127036Y-99488695D01*
X154235464Y-99551295D01*
X154356399Y-99583700D01*
X154356401Y-99583700D01*
X154481599Y-99583700D01*
X154481601Y-99583700D01*
X154602536Y-99551295D01*
X154710964Y-99488695D01*
X154799495Y-99400164D01*
X154862095Y-99291736D01*
X154894500Y-99170801D01*
X154894500Y-99045599D01*
X154862095Y-98924664D01*
X154799495Y-98816236D01*
X154710964Y-98727705D01*
X154602536Y-98665105D01*
X154602537Y-98665105D01*
X154562224Y-98654303D01*
X154481601Y-98632700D01*
X154356399Y-98632700D01*
X154275775Y-98654303D01*
X154235463Y-98665105D01*
X154127037Y-98727704D01*
X154127034Y-98727706D01*
X154038506Y-98816234D01*
X154038504Y-98816237D01*
X153975905Y-98924663D01*
X153975905Y-98924664D01*
X153943500Y-99045599D01*
X119589429Y-99045599D01*
X119681055Y-98984377D01*
X119681058Y-98984374D01*
X119715643Y-98949790D01*
X119827374Y-98838058D01*
X119827375Y-98838057D01*
X119827377Y-98838055D01*
X119942341Y-98665998D01*
X120021530Y-98474820D01*
X120061900Y-98271865D01*
X120061900Y-98064935D01*
X120021530Y-97861980D01*
X119942341Y-97670802D01*
X119910534Y-97623199D01*
X141218100Y-97623199D01*
X141218100Y-97748401D01*
X141250505Y-97869336D01*
X141313105Y-97977764D01*
X141401636Y-98066295D01*
X141510064Y-98128895D01*
X141630999Y-98161300D01*
X141631001Y-98161300D01*
X141756199Y-98161300D01*
X141756201Y-98161300D01*
X141877136Y-98128895D01*
X141985564Y-98066295D01*
X142074095Y-97977764D01*
X142106912Y-97920921D01*
X142157479Y-97872706D01*
X142226086Y-97859482D01*
X142290951Y-97885450D01*
X142321687Y-97920921D01*
X142354505Y-97977764D01*
X142443036Y-98066295D01*
X142551464Y-98128895D01*
X142672399Y-98161300D01*
X142672401Y-98161300D01*
X142797599Y-98161300D01*
X142797601Y-98161300D01*
X142918536Y-98128895D01*
X143026964Y-98066295D01*
X143115495Y-97977764D01*
X143178095Y-97869336D01*
X143196406Y-97800999D01*
X151428900Y-97800999D01*
X151428900Y-97926201D01*
X151461305Y-98047136D01*
X151523905Y-98155564D01*
X151612436Y-98244095D01*
X151720864Y-98306695D01*
X151841799Y-98339100D01*
X151841801Y-98339100D01*
X151966999Y-98339100D01*
X151967001Y-98339100D01*
X152087936Y-98306695D01*
X152196364Y-98244095D01*
X152235819Y-98204640D01*
X152297142Y-98171155D01*
X152366834Y-98176139D01*
X152411181Y-98204640D01*
X152412905Y-98206364D01*
X152501436Y-98294895D01*
X152609864Y-98357495D01*
X152730799Y-98389900D01*
X152730801Y-98389900D01*
X152855999Y-98389900D01*
X152856001Y-98389900D01*
X152976936Y-98357495D01*
X153085364Y-98294895D01*
X153173895Y-98206364D01*
X153236495Y-98097936D01*
X153268900Y-97977001D01*
X153268900Y-97851799D01*
X153236495Y-97730864D01*
X153173895Y-97622436D01*
X153085364Y-97533905D01*
X152976936Y-97471305D01*
X152976937Y-97471305D01*
X152936624Y-97460503D01*
X152856001Y-97438900D01*
X152730799Y-97438900D01*
X152650175Y-97460503D01*
X152609863Y-97471305D01*
X152501437Y-97533904D01*
X152501434Y-97533906D01*
X152461981Y-97573360D01*
X152400658Y-97606845D01*
X152330966Y-97601861D01*
X152286619Y-97573360D01*
X152196365Y-97483106D01*
X152196364Y-97483105D01*
X152087936Y-97420505D01*
X152087937Y-97420505D01*
X152047624Y-97409703D01*
X151967001Y-97388100D01*
X151841799Y-97388100D01*
X151761175Y-97409703D01*
X151720863Y-97420505D01*
X151612437Y-97483104D01*
X151612434Y-97483106D01*
X151523906Y-97571634D01*
X151523904Y-97571637D01*
X151461305Y-97680063D01*
X151461305Y-97680064D01*
X151428900Y-97800999D01*
X143196406Y-97800999D01*
X143210500Y-97748401D01*
X143210500Y-97623199D01*
X143178095Y-97502264D01*
X143115495Y-97393836D01*
X143026964Y-97305305D01*
X142918536Y-97242705D01*
X142918537Y-97242705D01*
X142878224Y-97231903D01*
X142797601Y-97210300D01*
X142672399Y-97210300D01*
X142591775Y-97231903D01*
X142551463Y-97242705D01*
X142443037Y-97305304D01*
X142443034Y-97305306D01*
X142354506Y-97393834D01*
X142354502Y-97393839D01*
X142321687Y-97450678D01*
X142271120Y-97498894D01*
X142202513Y-97512117D01*
X142137648Y-97486149D01*
X142106913Y-97450678D01*
X142074097Y-97393839D01*
X142074096Y-97393837D01*
X142074095Y-97393836D01*
X141985564Y-97305305D01*
X141877136Y-97242705D01*
X141877137Y-97242705D01*
X141836824Y-97231903D01*
X141756201Y-97210300D01*
X141630999Y-97210300D01*
X141550375Y-97231903D01*
X141510063Y-97242705D01*
X141401637Y-97305304D01*
X141401634Y-97305306D01*
X141313106Y-97393834D01*
X141313104Y-97393837D01*
X141250505Y-97502263D01*
X141250505Y-97502264D01*
X141218100Y-97623199D01*
X119910534Y-97623199D01*
X119827377Y-97498745D01*
X119827375Y-97498742D01*
X119681057Y-97352424D01*
X119516849Y-97242705D01*
X119508998Y-97237459D01*
X119317820Y-97158270D01*
X119317812Y-97158268D01*
X119114869Y-97117900D01*
X119114865Y-97117900D01*
X118907935Y-97117900D01*
X118907930Y-97117900D01*
X118704987Y-97158268D01*
X118704979Y-97158270D01*
X118513803Y-97237458D01*
X118341742Y-97352424D01*
X118195424Y-97498742D01*
X118080458Y-97670803D01*
X118001270Y-97861979D01*
X118001268Y-97861987D01*
X117960900Y-98064930D01*
X117521899Y-98064930D01*
X117481530Y-97861980D01*
X117402341Y-97670802D01*
X117287377Y-97498745D01*
X117287375Y-97498742D01*
X117141057Y-97352424D01*
X116976849Y-97242705D01*
X116968998Y-97237459D01*
X116777820Y-97158270D01*
X116777812Y-97158268D01*
X116574869Y-97117900D01*
X116574865Y-97117900D01*
X116367935Y-97117900D01*
X116367930Y-97117900D01*
X116164987Y-97158268D01*
X116164979Y-97158270D01*
X115973803Y-97237458D01*
X115801742Y-97352424D01*
X115655424Y-97498742D01*
X115540458Y-97670803D01*
X115461270Y-97861979D01*
X115461268Y-97861987D01*
X115420900Y-98064930D01*
X114918500Y-98064930D01*
X114918500Y-95524930D01*
X115420900Y-95524930D01*
X115420900Y-95731869D01*
X115461268Y-95934812D01*
X115461270Y-95934820D01*
X115540458Y-96125996D01*
X115655424Y-96298057D01*
X115801742Y-96444375D01*
X115801745Y-96444377D01*
X115973802Y-96559341D01*
X116164980Y-96638530D01*
X116367930Y-96678899D01*
X116367934Y-96678900D01*
X116367935Y-96678900D01*
X116574866Y-96678900D01*
X116574867Y-96678899D01*
X116777820Y-96638530D01*
X116968998Y-96559341D01*
X117141055Y-96444377D01*
X117287377Y-96298055D01*
X117402341Y-96125998D01*
X117481530Y-95934820D01*
X117521900Y-95731865D01*
X117521900Y-95524935D01*
X117521899Y-95524930D01*
X117960900Y-95524930D01*
X117960900Y-95731869D01*
X118001268Y-95934812D01*
X118001270Y-95934820D01*
X118080458Y-96125996D01*
X118195424Y-96298057D01*
X118341742Y-96444375D01*
X118341745Y-96444377D01*
X118513802Y-96559341D01*
X118704980Y-96638530D01*
X118907930Y-96678899D01*
X118907934Y-96678900D01*
X118907935Y-96678900D01*
X119114866Y-96678900D01*
X119114867Y-96678899D01*
X119317820Y-96638530D01*
X119508998Y-96559341D01*
X119681055Y-96444377D01*
X119827377Y-96298055D01*
X119942341Y-96125998D01*
X120021530Y-95934820D01*
X120061900Y-95731865D01*
X120061900Y-95524935D01*
X120021530Y-95321980D01*
X119942341Y-95130802D01*
X119827377Y-94958745D01*
X119827375Y-94958742D01*
X119681058Y-94812425D01*
X119681050Y-94812419D01*
X119643531Y-94787349D01*
X119643457Y-94787301D01*
X119508998Y-94697459D01*
X119496608Y-94692327D01*
X119496603Y-94692325D01*
X133497700Y-94692325D01*
X133497700Y-94837275D01*
X133530248Y-94958745D01*
X133535217Y-94977288D01*
X133607688Y-95102811D01*
X133607690Y-95102813D01*
X133607691Y-95102815D01*
X133710185Y-95205309D01*
X133710186Y-95205310D01*
X133710188Y-95205311D01*
X133835711Y-95277782D01*
X133835712Y-95277782D01*
X133835715Y-95277784D01*
X133975725Y-95315300D01*
X133975728Y-95315300D01*
X134120672Y-95315300D01*
X134120675Y-95315300D01*
X134260685Y-95277784D01*
X134386215Y-95205309D01*
X134488709Y-95102815D01*
X134561184Y-94977285D01*
X134598700Y-94837275D01*
X134598700Y-94692325D01*
X135783700Y-94692325D01*
X135783700Y-94837275D01*
X135816248Y-94958745D01*
X135821217Y-94977288D01*
X135893688Y-95102811D01*
X135893690Y-95102813D01*
X135893691Y-95102815D01*
X135996185Y-95205309D01*
X135996186Y-95205310D01*
X135996188Y-95205311D01*
X136121711Y-95277782D01*
X136121712Y-95277782D01*
X136121715Y-95277784D01*
X136261725Y-95315300D01*
X136261728Y-95315300D01*
X136406672Y-95315300D01*
X136406675Y-95315300D01*
X136546685Y-95277784D01*
X136672215Y-95205309D01*
X136774709Y-95102815D01*
X136847184Y-94977285D01*
X136884700Y-94837275D01*
X136884700Y-94702199D01*
X150641500Y-94702199D01*
X150641500Y-94827401D01*
X150673905Y-94948336D01*
X150736505Y-95056764D01*
X150825036Y-95145295D01*
X150933464Y-95207895D01*
X151054399Y-95240300D01*
X151054401Y-95240300D01*
X151179599Y-95240300D01*
X151179601Y-95240300D01*
X151300536Y-95207895D01*
X151408964Y-95145295D01*
X151497495Y-95056764D01*
X151560095Y-94948336D01*
X151592500Y-94827401D01*
X151592500Y-94702199D01*
X151560095Y-94581264D01*
X151497495Y-94472836D01*
X151408964Y-94384305D01*
X151300536Y-94321705D01*
X151300537Y-94321705D01*
X151276250Y-94315197D01*
X151179601Y-94289300D01*
X151054399Y-94289300D01*
X150992650Y-94305846D01*
X150933463Y-94321705D01*
X150825037Y-94384304D01*
X150825034Y-94384306D01*
X150736506Y-94472834D01*
X150736504Y-94472837D01*
X150673905Y-94581263D01*
X150673905Y-94581264D01*
X150641500Y-94702199D01*
X136884700Y-94702199D01*
X136884700Y-94692325D01*
X136847184Y-94552315D01*
X136845134Y-94548765D01*
X136774711Y-94426788D01*
X136774706Y-94426782D01*
X136672217Y-94324293D01*
X136672211Y-94324288D01*
X136546688Y-94251817D01*
X136546689Y-94251817D01*
X136535206Y-94248740D01*
X136406675Y-94214300D01*
X136261725Y-94214300D01*
X136133193Y-94248740D01*
X136121711Y-94251817D01*
X135996188Y-94324288D01*
X135996182Y-94324293D01*
X135893693Y-94426782D01*
X135893688Y-94426788D01*
X135821217Y-94552311D01*
X135821216Y-94552315D01*
X135783700Y-94692325D01*
X134598700Y-94692325D01*
X134561184Y-94552315D01*
X134559134Y-94548765D01*
X134488711Y-94426788D01*
X134488706Y-94426782D01*
X134386217Y-94324293D01*
X134386211Y-94324288D01*
X134260688Y-94251817D01*
X134260689Y-94251817D01*
X134249206Y-94248740D01*
X134120675Y-94214300D01*
X133975725Y-94214300D01*
X133847193Y-94248740D01*
X133835711Y-94251817D01*
X133710188Y-94324288D01*
X133710182Y-94324293D01*
X133607693Y-94426782D01*
X133607688Y-94426788D01*
X133535217Y-94552311D01*
X133535216Y-94552315D01*
X133497700Y-94692325D01*
X119496603Y-94692325D01*
X119317820Y-94618270D01*
X119317812Y-94618268D01*
X119114869Y-94577900D01*
X119114865Y-94577900D01*
X118907935Y-94577900D01*
X118907930Y-94577900D01*
X118704987Y-94618268D01*
X118704979Y-94618270D01*
X118513803Y-94697458D01*
X118341742Y-94812424D01*
X118195424Y-94958742D01*
X118080458Y-95130803D01*
X118001270Y-95321979D01*
X118001268Y-95321987D01*
X117960900Y-95524930D01*
X117521899Y-95524930D01*
X117481530Y-95321980D01*
X117402341Y-95130802D01*
X117287377Y-94958745D01*
X117287375Y-94958742D01*
X117141057Y-94812424D01*
X117055026Y-94754941D01*
X116968998Y-94697459D01*
X116956608Y-94692327D01*
X116777820Y-94618270D01*
X116777812Y-94618268D01*
X116574869Y-94577900D01*
X116574865Y-94577900D01*
X116367935Y-94577900D01*
X116367930Y-94577900D01*
X116164987Y-94618268D01*
X116164979Y-94618270D01*
X115973803Y-94697458D01*
X115801742Y-94812424D01*
X115655424Y-94958742D01*
X115540458Y-95130803D01*
X115461270Y-95321979D01*
X115461268Y-95321987D01*
X115420900Y-95524930D01*
X114918500Y-95524930D01*
X114918500Y-94194199D01*
X161817500Y-94194199D01*
X161817500Y-94319401D01*
X161849905Y-94440336D01*
X161912505Y-94548764D01*
X162001036Y-94637295D01*
X162109464Y-94699895D01*
X162230399Y-94732300D01*
X162230401Y-94732300D01*
X162355599Y-94732300D01*
X162355601Y-94732300D01*
X162476536Y-94699895D01*
X162584964Y-94637295D01*
X162649819Y-94572440D01*
X162711142Y-94538955D01*
X162780834Y-94543939D01*
X162825181Y-94572440D01*
X162890036Y-94637295D01*
X162998464Y-94699895D01*
X163119399Y-94732300D01*
X163119401Y-94732300D01*
X163244599Y-94732300D01*
X163244601Y-94732300D01*
X163365536Y-94699895D01*
X163473964Y-94637295D01*
X163562495Y-94548764D01*
X163625095Y-94440336D01*
X163657500Y-94319401D01*
X163657500Y-94194199D01*
X163625095Y-94073264D01*
X163562495Y-93964836D01*
X163473964Y-93876305D01*
X163365536Y-93813705D01*
X163365537Y-93813705D01*
X163325224Y-93802903D01*
X163244601Y-93781300D01*
X163119399Y-93781300D01*
X163038775Y-93802903D01*
X162998463Y-93813705D01*
X162890037Y-93876304D01*
X162890034Y-93876306D01*
X162825181Y-93941160D01*
X162763858Y-93974645D01*
X162694166Y-93969661D01*
X162649819Y-93941160D01*
X162584965Y-93876306D01*
X162584964Y-93876305D01*
X162476536Y-93813705D01*
X162476537Y-93813705D01*
X162436224Y-93802903D01*
X162355601Y-93781300D01*
X162230399Y-93781300D01*
X162149775Y-93802903D01*
X162109463Y-93813705D01*
X162001037Y-93876304D01*
X162001034Y-93876306D01*
X161912506Y-93964834D01*
X161912504Y-93964837D01*
X161849905Y-94073263D01*
X161833702Y-94133731D01*
X161817500Y-94194199D01*
X114918500Y-94194199D01*
X114918500Y-92984930D01*
X115420900Y-92984930D01*
X115420900Y-93191869D01*
X115461268Y-93394812D01*
X115461270Y-93394820D01*
X115486844Y-93456562D01*
X115540459Y-93585998D01*
X115576609Y-93640100D01*
X115655424Y-93758057D01*
X115801742Y-93904375D01*
X115801745Y-93904377D01*
X115973802Y-94019341D01*
X116164980Y-94098530D01*
X116367930Y-94138899D01*
X116367934Y-94138900D01*
X116367935Y-94138900D01*
X116574866Y-94138900D01*
X116574867Y-94138899D01*
X116777820Y-94098530D01*
X116968998Y-94019341D01*
X117141055Y-93904377D01*
X117287377Y-93758055D01*
X117402341Y-93585998D01*
X117481530Y-93394820D01*
X117521900Y-93191865D01*
X117521900Y-92984935D01*
X117521899Y-92984930D01*
X117960900Y-92984930D01*
X117960900Y-93191869D01*
X118001268Y-93394812D01*
X118001270Y-93394820D01*
X118026844Y-93456562D01*
X118080459Y-93585998D01*
X118116609Y-93640100D01*
X118195424Y-93758057D01*
X118341742Y-93904375D01*
X118341745Y-93904377D01*
X118513802Y-94019341D01*
X118704980Y-94098530D01*
X118907930Y-94138899D01*
X118907934Y-94138900D01*
X118907935Y-94138900D01*
X119114866Y-94138900D01*
X119114867Y-94138899D01*
X119317820Y-94098530D01*
X119508998Y-94019341D01*
X119681055Y-93904377D01*
X119827377Y-93758055D01*
X119942341Y-93585998D01*
X120021530Y-93394820D01*
X120061900Y-93191865D01*
X120061900Y-92984935D01*
X120021530Y-92781980D01*
X119943665Y-92593999D01*
X139948100Y-92593999D01*
X139948100Y-92719201D01*
X139980505Y-92840136D01*
X140043105Y-92948564D01*
X140131636Y-93037095D01*
X140240064Y-93099695D01*
X140360999Y-93132100D01*
X140361001Y-93132100D01*
X140486199Y-93132100D01*
X140486201Y-93132100D01*
X140607136Y-93099695D01*
X140715564Y-93037095D01*
X140804095Y-92948564D01*
X140866695Y-92840136D01*
X140899100Y-92719201D01*
X140899100Y-92593999D01*
X141243500Y-92593999D01*
X141243500Y-92719201D01*
X141275905Y-92840136D01*
X141338505Y-92948564D01*
X141427036Y-93037095D01*
X141535464Y-93099695D01*
X141656399Y-93132100D01*
X141656401Y-93132100D01*
X141781599Y-93132100D01*
X141781601Y-93132100D01*
X141902536Y-93099695D01*
X142010964Y-93037095D01*
X142099495Y-92948564D01*
X142162095Y-92840136D01*
X142194500Y-92719201D01*
X142194500Y-92593999D01*
X142488100Y-92593999D01*
X142488100Y-92719201D01*
X142520505Y-92840136D01*
X142583105Y-92948564D01*
X142671636Y-93037095D01*
X142780064Y-93099695D01*
X142900999Y-93132100D01*
X142901001Y-93132100D01*
X143026199Y-93132100D01*
X143026201Y-93132100D01*
X143147136Y-93099695D01*
X143255564Y-93037095D01*
X143344095Y-92948564D01*
X143406695Y-92840136D01*
X143439100Y-92719201D01*
X143439100Y-92593999D01*
X143758100Y-92593999D01*
X143758100Y-92719201D01*
X143790505Y-92840136D01*
X143853105Y-92948564D01*
X143941636Y-93037095D01*
X144050064Y-93099695D01*
X144170999Y-93132100D01*
X144171001Y-93132100D01*
X144296199Y-93132100D01*
X144296201Y-93132100D01*
X144417136Y-93099695D01*
X144525564Y-93037095D01*
X144614095Y-92948564D01*
X144676695Y-92840136D01*
X144709100Y-92719201D01*
X144709100Y-92593999D01*
X145028100Y-92593999D01*
X145028100Y-92719201D01*
X145060505Y-92840136D01*
X145123105Y-92948564D01*
X145211636Y-93037095D01*
X145320064Y-93099695D01*
X145440999Y-93132100D01*
X145441001Y-93132100D01*
X145566199Y-93132100D01*
X145566201Y-93132100D01*
X145678538Y-93101999D01*
X154603900Y-93101999D01*
X154603900Y-93227201D01*
X154636305Y-93348136D01*
X154698905Y-93456564D01*
X154787436Y-93545095D01*
X154895864Y-93607695D01*
X155016799Y-93640100D01*
X155016801Y-93640100D01*
X155141999Y-93640100D01*
X155142001Y-93640100D01*
X155262936Y-93607695D01*
X155371364Y-93545095D01*
X155459895Y-93456564D01*
X155522495Y-93348136D01*
X155554900Y-93227201D01*
X155554900Y-93101999D01*
X155522495Y-92981064D01*
X155459895Y-92872636D01*
X155371364Y-92784105D01*
X155262936Y-92721505D01*
X155262937Y-92721505D01*
X155222624Y-92710703D01*
X155142001Y-92689100D01*
X155016799Y-92689100D01*
X154936175Y-92710703D01*
X154895863Y-92721505D01*
X154787437Y-92784104D01*
X154787434Y-92784106D01*
X154698906Y-92872634D01*
X154698904Y-92872637D01*
X154636305Y-92981063D01*
X154629572Y-93006190D01*
X154603900Y-93101999D01*
X145678538Y-93101999D01*
X145687136Y-93099695D01*
X145795564Y-93037095D01*
X145884095Y-92948564D01*
X145946695Y-92840136D01*
X145979100Y-92719201D01*
X145979100Y-92593999D01*
X145946695Y-92473064D01*
X145884095Y-92364636D01*
X145795564Y-92276105D01*
X145687136Y-92213505D01*
X145687137Y-92213505D01*
X145646824Y-92202703D01*
X145566201Y-92181100D01*
X145440999Y-92181100D01*
X145360375Y-92202703D01*
X145320063Y-92213505D01*
X145211637Y-92276104D01*
X145211634Y-92276106D01*
X145123106Y-92364634D01*
X145123104Y-92364637D01*
X145060505Y-92473063D01*
X145060505Y-92473064D01*
X145028100Y-92593999D01*
X144709100Y-92593999D01*
X144676695Y-92473064D01*
X144614095Y-92364636D01*
X144525564Y-92276105D01*
X144417136Y-92213505D01*
X144417137Y-92213505D01*
X144376824Y-92202703D01*
X144296201Y-92181100D01*
X144170999Y-92181100D01*
X144090375Y-92202703D01*
X144050063Y-92213505D01*
X143941637Y-92276104D01*
X143941634Y-92276106D01*
X143853106Y-92364634D01*
X143853104Y-92364637D01*
X143790505Y-92473063D01*
X143790505Y-92473064D01*
X143758100Y-92593999D01*
X143439100Y-92593999D01*
X143406695Y-92473064D01*
X143344095Y-92364636D01*
X143255564Y-92276105D01*
X143147136Y-92213505D01*
X143147137Y-92213505D01*
X143106824Y-92202703D01*
X143026201Y-92181100D01*
X142900999Y-92181100D01*
X142820375Y-92202703D01*
X142780063Y-92213505D01*
X142671637Y-92276104D01*
X142671634Y-92276106D01*
X142583106Y-92364634D01*
X142583104Y-92364637D01*
X142520505Y-92473063D01*
X142520505Y-92473064D01*
X142488100Y-92593999D01*
X142194500Y-92593999D01*
X142162095Y-92473064D01*
X142099495Y-92364636D01*
X142010964Y-92276105D01*
X141902536Y-92213505D01*
X141902537Y-92213505D01*
X141862224Y-92202703D01*
X141781601Y-92181100D01*
X141656399Y-92181100D01*
X141575775Y-92202703D01*
X141535463Y-92213505D01*
X141427037Y-92276104D01*
X141427034Y-92276106D01*
X141338506Y-92364634D01*
X141338504Y-92364637D01*
X141275905Y-92473063D01*
X141275905Y-92473064D01*
X141243500Y-92593999D01*
X140899100Y-92593999D01*
X140866695Y-92473064D01*
X140804095Y-92364636D01*
X140715564Y-92276105D01*
X140607136Y-92213505D01*
X140607137Y-92213505D01*
X140566824Y-92202703D01*
X140486201Y-92181100D01*
X140360999Y-92181100D01*
X140280375Y-92202703D01*
X140240063Y-92213505D01*
X140131637Y-92276104D01*
X140131634Y-92276106D01*
X140043106Y-92364634D01*
X140043104Y-92364637D01*
X139980505Y-92473063D01*
X139980505Y-92473064D01*
X139948100Y-92593999D01*
X119943665Y-92593999D01*
X119942341Y-92590802D01*
X119827377Y-92418745D01*
X119827375Y-92418742D01*
X119681057Y-92272424D01*
X119592877Y-92213505D01*
X119508998Y-92157459D01*
X119317820Y-92078270D01*
X119317812Y-92078268D01*
X119114869Y-92037900D01*
X119114865Y-92037900D01*
X118907935Y-92037900D01*
X118907930Y-92037900D01*
X118704987Y-92078268D01*
X118704979Y-92078270D01*
X118513803Y-92157458D01*
X118341742Y-92272424D01*
X118195424Y-92418742D01*
X118080458Y-92590803D01*
X118001270Y-92781979D01*
X118001268Y-92781987D01*
X117960900Y-92984930D01*
X117521899Y-92984930D01*
X117481530Y-92781980D01*
X117402341Y-92590802D01*
X117287377Y-92418745D01*
X117287375Y-92418742D01*
X117141057Y-92272424D01*
X117052877Y-92213505D01*
X116968998Y-92157459D01*
X116777820Y-92078270D01*
X116777812Y-92078268D01*
X116574869Y-92037900D01*
X116574865Y-92037900D01*
X116367935Y-92037900D01*
X116367930Y-92037900D01*
X116164987Y-92078268D01*
X116164979Y-92078270D01*
X115973803Y-92157458D01*
X115801742Y-92272424D01*
X115655424Y-92418742D01*
X115540458Y-92590803D01*
X115461270Y-92781979D01*
X115461268Y-92781987D01*
X115420900Y-92984930D01*
X114918500Y-92984930D01*
X114918500Y-90444930D01*
X115420900Y-90444930D01*
X115420900Y-90651869D01*
X115461268Y-90854812D01*
X115461270Y-90854820D01*
X115540458Y-91045996D01*
X115655424Y-91218057D01*
X115801742Y-91364375D01*
X115801745Y-91364377D01*
X115973802Y-91479341D01*
X116164980Y-91558530D01*
X116367930Y-91598899D01*
X116367934Y-91598900D01*
X116367935Y-91598900D01*
X116574866Y-91598900D01*
X116574867Y-91598899D01*
X116777820Y-91558530D01*
X116968998Y-91479341D01*
X117141055Y-91364377D01*
X117287377Y-91218055D01*
X117402341Y-91045998D01*
X117481530Y-90854820D01*
X117521900Y-90651865D01*
X117521900Y-90444935D01*
X117521899Y-90444930D01*
X117960900Y-90444930D01*
X117960900Y-90651869D01*
X118001268Y-90854812D01*
X118001270Y-90854820D01*
X118080458Y-91045996D01*
X118195424Y-91218057D01*
X118341742Y-91364375D01*
X118341745Y-91364377D01*
X118513802Y-91479341D01*
X118704980Y-91558530D01*
X118907930Y-91598899D01*
X118907934Y-91598900D01*
X118907935Y-91598900D01*
X119114866Y-91598900D01*
X119114867Y-91598899D01*
X119317820Y-91558530D01*
X119508998Y-91479341D01*
X119681055Y-91364377D01*
X119721433Y-91323999D01*
X145790100Y-91323999D01*
X145790100Y-91449201D01*
X145822505Y-91570136D01*
X145885105Y-91678564D01*
X145973636Y-91767095D01*
X146082064Y-91829695D01*
X146202999Y-91862100D01*
X146203001Y-91862100D01*
X146328199Y-91862100D01*
X146328201Y-91862100D01*
X146449136Y-91829695D01*
X146557564Y-91767095D01*
X146646095Y-91678564D01*
X146708695Y-91570136D01*
X146741100Y-91449201D01*
X146741100Y-91323999D01*
X146708695Y-91203064D01*
X146646095Y-91094636D01*
X146557564Y-91006105D01*
X146449136Y-90943505D01*
X146449137Y-90943505D01*
X146408824Y-90932703D01*
X146328201Y-90911100D01*
X146202999Y-90911100D01*
X146122375Y-90932703D01*
X146082063Y-90943505D01*
X145973637Y-91006104D01*
X145973634Y-91006106D01*
X145885106Y-91094634D01*
X145885104Y-91094637D01*
X145822505Y-91203063D01*
X145818487Y-91218058D01*
X145790100Y-91323999D01*
X119721433Y-91323999D01*
X119817243Y-91228190D01*
X119827374Y-91218058D01*
X119827375Y-91218057D01*
X119827377Y-91218055D01*
X119942341Y-91045998D01*
X120021530Y-90854820D01*
X120061900Y-90651865D01*
X120061900Y-90444935D01*
X120021530Y-90241980D01*
X119943665Y-90053999D01*
X145790100Y-90053999D01*
X145790100Y-90179201D01*
X145822505Y-90300136D01*
X145885105Y-90408564D01*
X145973636Y-90497095D01*
X146082064Y-90559695D01*
X146202999Y-90592100D01*
X146203001Y-90592100D01*
X146328199Y-90592100D01*
X146328201Y-90592100D01*
X146449136Y-90559695D01*
X146557564Y-90497095D01*
X146646095Y-90408564D01*
X146708695Y-90300136D01*
X146741100Y-90179201D01*
X146741100Y-90053999D01*
X146708695Y-89933064D01*
X146689490Y-89899799D01*
X146648309Y-89828470D01*
X146648308Y-89828468D01*
X146648307Y-89828467D01*
X146646097Y-89824639D01*
X146646096Y-89824637D01*
X146646095Y-89824636D01*
X146596058Y-89774599D01*
X157372500Y-89774599D01*
X157372500Y-89899801D01*
X157404905Y-90020736D01*
X157467505Y-90129164D01*
X157556036Y-90217695D01*
X157664464Y-90280295D01*
X157785399Y-90312700D01*
X157785401Y-90312700D01*
X157910599Y-90312700D01*
X157910601Y-90312700D01*
X158031536Y-90280295D01*
X158139964Y-90217695D01*
X158228495Y-90129164D01*
X158291095Y-90020736D01*
X158323500Y-89899801D01*
X158323500Y-89777599D01*
X161997900Y-89777599D01*
X161997900Y-89902801D01*
X162030305Y-90023736D01*
X162092905Y-90132164D01*
X162181436Y-90220695D01*
X162289864Y-90283295D01*
X162410799Y-90315700D01*
X162410801Y-90315700D01*
X162535999Y-90315700D01*
X162536001Y-90315700D01*
X162656936Y-90283295D01*
X162765364Y-90220695D01*
X162853895Y-90132164D01*
X162916495Y-90023736D01*
X162948900Y-89902801D01*
X162948900Y-89777599D01*
X162916495Y-89656664D01*
X162853895Y-89548236D01*
X162765364Y-89459705D01*
X162656936Y-89397105D01*
X162656937Y-89397105D01*
X162616624Y-89386303D01*
X162536001Y-89364700D01*
X162410799Y-89364700D01*
X162330175Y-89386303D01*
X162289863Y-89397105D01*
X162181437Y-89459704D01*
X162181434Y-89459706D01*
X162092906Y-89548234D01*
X162092904Y-89548237D01*
X162030305Y-89656663D01*
X162030305Y-89656664D01*
X161997900Y-89777599D01*
X158323500Y-89777599D01*
X158323500Y-89774599D01*
X158291095Y-89653664D01*
X158228495Y-89545236D01*
X158139964Y-89456705D01*
X158031536Y-89394105D01*
X158031537Y-89394105D01*
X157991224Y-89383303D01*
X157910601Y-89361700D01*
X157785399Y-89361700D01*
X157704775Y-89383303D01*
X157664463Y-89394105D01*
X157556037Y-89456704D01*
X157556034Y-89456706D01*
X157467506Y-89545234D01*
X157467504Y-89545237D01*
X157404905Y-89653663D01*
X157388702Y-89714131D01*
X157372500Y-89774599D01*
X146596058Y-89774599D01*
X146557564Y-89736105D01*
X146449136Y-89673505D01*
X146449137Y-89673505D01*
X146408824Y-89662703D01*
X146328201Y-89641100D01*
X146202999Y-89641100D01*
X146122375Y-89662703D01*
X146082063Y-89673505D01*
X145973637Y-89736104D01*
X145973634Y-89736106D01*
X145885106Y-89824634D01*
X145885104Y-89824637D01*
X145822505Y-89933063D01*
X145822505Y-89933064D01*
X145790100Y-90053999D01*
X119943665Y-90053999D01*
X119942341Y-90050802D01*
X119827377Y-89878745D01*
X119827375Y-89878742D01*
X119681057Y-89732424D01*
X119563181Y-89653663D01*
X119508998Y-89617459D01*
X119334632Y-89545234D01*
X119317820Y-89538270D01*
X119317812Y-89538268D01*
X119114869Y-89497900D01*
X119114865Y-89497900D01*
X118907935Y-89497900D01*
X118907930Y-89497900D01*
X118704987Y-89538268D01*
X118704979Y-89538270D01*
X118513803Y-89617458D01*
X118341742Y-89732424D01*
X118195424Y-89878742D01*
X118080458Y-90050803D01*
X118001270Y-90241979D01*
X118001268Y-90241987D01*
X117960900Y-90444930D01*
X117521899Y-90444930D01*
X117481530Y-90241980D01*
X117402341Y-90050802D01*
X117287377Y-89878745D01*
X117287375Y-89878742D01*
X117141057Y-89732424D01*
X117023181Y-89653663D01*
X116968998Y-89617459D01*
X116794632Y-89545234D01*
X116777820Y-89538270D01*
X116777812Y-89538268D01*
X116574869Y-89497900D01*
X116574865Y-89497900D01*
X116367935Y-89497900D01*
X116367930Y-89497900D01*
X116164987Y-89538268D01*
X116164979Y-89538270D01*
X115973803Y-89617458D01*
X115801742Y-89732424D01*
X115655424Y-89878742D01*
X115540458Y-90050803D01*
X115461270Y-90241979D01*
X115461268Y-90241987D01*
X115420900Y-90444930D01*
X114918500Y-90444930D01*
X114918500Y-87904930D01*
X115420900Y-87904930D01*
X115420900Y-88111869D01*
X115461268Y-88314812D01*
X115461270Y-88314820D01*
X115540458Y-88505996D01*
X115655424Y-88678057D01*
X115801742Y-88824375D01*
X115801745Y-88824377D01*
X115973802Y-88939341D01*
X116164980Y-89018530D01*
X116367930Y-89058899D01*
X116367934Y-89058900D01*
X116367935Y-89058900D01*
X116574866Y-89058900D01*
X116574867Y-89058899D01*
X116777820Y-89018530D01*
X116968998Y-88939341D01*
X117141055Y-88824377D01*
X117287377Y-88678055D01*
X117402341Y-88505998D01*
X117481530Y-88314820D01*
X117521900Y-88111865D01*
X117521900Y-87904935D01*
X117521899Y-87904930D01*
X117960900Y-87904930D01*
X117960900Y-88111869D01*
X118001268Y-88314812D01*
X118001270Y-88314820D01*
X118080458Y-88505996D01*
X118195424Y-88678057D01*
X118341742Y-88824375D01*
X118341745Y-88824377D01*
X118513802Y-88939341D01*
X118704980Y-89018530D01*
X118907930Y-89058899D01*
X118907934Y-89058900D01*
X118907935Y-89058900D01*
X119114866Y-89058900D01*
X119114867Y-89058899D01*
X119317820Y-89018530D01*
X119508998Y-88939341D01*
X119681055Y-88824377D01*
X119721433Y-88783999D01*
X145790100Y-88783999D01*
X145790100Y-88909201D01*
X145822505Y-89030136D01*
X145885105Y-89138564D01*
X145973636Y-89227095D01*
X146082064Y-89289695D01*
X146202999Y-89322100D01*
X146203001Y-89322100D01*
X146328199Y-89322100D01*
X146328201Y-89322100D01*
X146449136Y-89289695D01*
X146557564Y-89227095D01*
X146646095Y-89138564D01*
X146708695Y-89030136D01*
X146741100Y-88909201D01*
X146741100Y-88783999D01*
X146708695Y-88663064D01*
X146646095Y-88554636D01*
X146557564Y-88466105D01*
X146449136Y-88403505D01*
X146449137Y-88403505D01*
X146408824Y-88392703D01*
X146328201Y-88371100D01*
X146202999Y-88371100D01*
X146122375Y-88392703D01*
X146082063Y-88403505D01*
X145973637Y-88466104D01*
X145973634Y-88466106D01*
X145885106Y-88554634D01*
X145885104Y-88554637D01*
X145822505Y-88663063D01*
X145818487Y-88678058D01*
X145790100Y-88783999D01*
X119721433Y-88783999D01*
X119744132Y-88761300D01*
X119817243Y-88688190D01*
X119827374Y-88678058D01*
X119827375Y-88678057D01*
X119827377Y-88678055D01*
X119942341Y-88505998D01*
X120021530Y-88314820D01*
X120061900Y-88111865D01*
X120061900Y-87904935D01*
X120021530Y-87701980D01*
X119943665Y-87513999D01*
X145790100Y-87513999D01*
X145790100Y-87639201D01*
X145822505Y-87760136D01*
X145885105Y-87868564D01*
X145973636Y-87957095D01*
X146082064Y-88019695D01*
X146202999Y-88052100D01*
X146203001Y-88052100D01*
X146328199Y-88052100D01*
X146328201Y-88052100D01*
X146449136Y-88019695D01*
X146557564Y-87957095D01*
X146646095Y-87868564D01*
X146708695Y-87760136D01*
X146741100Y-87639201D01*
X146741100Y-87513999D01*
X146708695Y-87393064D01*
X146646095Y-87284636D01*
X146557564Y-87196105D01*
X146449136Y-87133505D01*
X146449137Y-87133505D01*
X146408824Y-87122703D01*
X146328201Y-87101100D01*
X146202999Y-87101100D01*
X146122375Y-87122703D01*
X146082063Y-87133505D01*
X145973637Y-87196104D01*
X145973634Y-87196106D01*
X145885106Y-87284634D01*
X145885104Y-87284637D01*
X145822505Y-87393063D01*
X145817260Y-87412638D01*
X145790100Y-87513999D01*
X119943665Y-87513999D01*
X119942341Y-87510802D01*
X119827377Y-87338745D01*
X119827375Y-87338742D01*
X119681057Y-87192424D01*
X119546220Y-87102330D01*
X119508998Y-87077459D01*
X119425010Y-87042670D01*
X119317820Y-86998270D01*
X119317812Y-86998268D01*
X119114869Y-86957900D01*
X119114865Y-86957900D01*
X118907935Y-86957900D01*
X118907930Y-86957900D01*
X118704987Y-86998268D01*
X118704979Y-86998270D01*
X118513803Y-87077458D01*
X118341742Y-87192424D01*
X118195424Y-87338742D01*
X118080458Y-87510803D01*
X118001270Y-87701979D01*
X118001268Y-87701987D01*
X117960900Y-87904930D01*
X117521899Y-87904930D01*
X117481530Y-87701980D01*
X117402341Y-87510802D01*
X117287377Y-87338745D01*
X117287375Y-87338742D01*
X117141057Y-87192424D01*
X117006220Y-87102330D01*
X116968998Y-87077459D01*
X116885010Y-87042670D01*
X116777820Y-86998270D01*
X116777812Y-86998268D01*
X116574869Y-86957900D01*
X116574865Y-86957900D01*
X116367935Y-86957900D01*
X116367930Y-86957900D01*
X116164987Y-86998268D01*
X116164979Y-86998270D01*
X115973803Y-87077458D01*
X115801742Y-87192424D01*
X115655424Y-87338742D01*
X115540458Y-87510803D01*
X115461270Y-87701979D01*
X115461268Y-87701987D01*
X115420900Y-87904930D01*
X114918500Y-87904930D01*
X114918500Y-86868325D01*
X150719700Y-86868325D01*
X150719700Y-87013275D01*
X150749520Y-87124563D01*
X150757217Y-87153288D01*
X150829688Y-87278811D01*
X150829690Y-87278813D01*
X150829691Y-87278815D01*
X150932185Y-87381309D01*
X150932186Y-87381310D01*
X150932188Y-87381311D01*
X151057711Y-87453782D01*
X151057712Y-87453782D01*
X151057715Y-87453784D01*
X151061586Y-87454821D01*
X151066081Y-87456026D01*
X151125741Y-87492391D01*
X151156269Y-87555239D01*
X151147974Y-87624614D01*
X151103488Y-87678491D01*
X151066081Y-87695574D01*
X151057716Y-87697815D01*
X151057711Y-87697817D01*
X150932188Y-87770288D01*
X150932182Y-87770293D01*
X150829693Y-87872782D01*
X150829688Y-87872788D01*
X150757217Y-87998311D01*
X150757216Y-87998315D01*
X150719700Y-88138325D01*
X150719700Y-88283275D01*
X150736963Y-88347699D01*
X150757217Y-88423288D01*
X150829688Y-88548811D01*
X150829690Y-88548813D01*
X150829691Y-88548815D01*
X150932185Y-88651309D01*
X150932186Y-88651310D01*
X150932188Y-88651311D01*
X151057711Y-88723782D01*
X151057712Y-88723782D01*
X151057715Y-88723784D01*
X151197725Y-88761300D01*
X151197728Y-88761300D01*
X151342672Y-88761300D01*
X151342675Y-88761300D01*
X151482685Y-88723784D01*
X151608215Y-88651309D01*
X151710709Y-88548815D01*
X151783184Y-88423285D01*
X151808503Y-88328795D01*
X155392899Y-88328795D01*
X155419818Y-88464122D01*
X155419821Y-88464132D01*
X155472621Y-88591604D01*
X155472628Y-88591617D01*
X155549285Y-88706341D01*
X155549288Y-88706345D01*
X155646854Y-88803911D01*
X155646858Y-88803914D01*
X155761582Y-88880571D01*
X155761595Y-88880578D01*
X155889067Y-88933378D01*
X155889072Y-88933380D01*
X155889076Y-88933380D01*
X155889077Y-88933381D01*
X156024404Y-88960300D01*
X156024407Y-88960300D01*
X156162395Y-88960300D01*
X156267760Y-88939341D01*
X156297728Y-88933380D01*
X156425211Y-88880575D01*
X156539942Y-88803914D01*
X156637514Y-88706342D01*
X156714175Y-88591611D01*
X156766980Y-88464128D01*
X156790139Y-88347700D01*
X156793900Y-88328795D01*
X156793900Y-87457068D01*
X156813585Y-87390029D01*
X156866389Y-87344274D01*
X156935547Y-87334330D01*
X156999103Y-87363355D01*
X157029587Y-87405631D01*
X157029648Y-87405597D01*
X157029991Y-87406191D01*
X157032462Y-87409618D01*
X157033712Y-87412636D01*
X157102892Y-87532461D01*
X157102894Y-87532464D01*
X157102895Y-87532465D01*
X157200735Y-87630305D01*
X157320564Y-87699488D01*
X157454217Y-87735300D01*
X157454219Y-87735300D01*
X157592581Y-87735300D01*
X157592583Y-87735300D01*
X157726236Y-87699488D01*
X157846065Y-87630305D01*
X157943905Y-87532465D01*
X158013088Y-87412636D01*
X158048900Y-87278983D01*
X158048900Y-87140617D01*
X162777900Y-87140617D01*
X162777900Y-87278983D01*
X162812904Y-87409618D01*
X162813712Y-87412635D01*
X162813713Y-87412638D01*
X162882892Y-87532461D01*
X162882894Y-87532464D01*
X162882895Y-87532465D01*
X162980735Y-87630305D01*
X163100564Y-87699488D01*
X163234217Y-87735300D01*
X163234219Y-87735300D01*
X163372581Y-87735300D01*
X163372583Y-87735300D01*
X163506236Y-87699488D01*
X163626065Y-87630305D01*
X163723905Y-87532465D01*
X163793088Y-87412636D01*
X163793089Y-87412629D01*
X163794338Y-87409618D01*
X163796075Y-87407462D01*
X163797152Y-87405597D01*
X163797442Y-87405764D01*
X163838178Y-87355213D01*
X163904472Y-87333147D01*
X163972171Y-87350425D01*
X164019783Y-87401561D01*
X164032900Y-87457068D01*
X164032900Y-88328793D01*
X164032900Y-88328795D01*
X164032899Y-88328795D01*
X164059818Y-88464122D01*
X164059821Y-88464132D01*
X164112621Y-88591604D01*
X164112628Y-88591617D01*
X164189285Y-88706341D01*
X164189288Y-88706345D01*
X164286854Y-88803911D01*
X164286858Y-88803914D01*
X164401582Y-88880571D01*
X164401595Y-88880578D01*
X164529067Y-88933378D01*
X164529072Y-88933380D01*
X164529076Y-88933380D01*
X164529077Y-88933381D01*
X164664404Y-88960300D01*
X164664407Y-88960300D01*
X164802395Y-88960300D01*
X164907760Y-88939341D01*
X164937728Y-88933380D01*
X165065211Y-88880575D01*
X165179942Y-88803914D01*
X165277514Y-88706342D01*
X165354175Y-88591611D01*
X165406980Y-88464128D01*
X165430139Y-88347700D01*
X165433900Y-88328795D01*
X165433900Y-87193730D01*
X169522900Y-87193730D01*
X169522900Y-87400669D01*
X169563268Y-87603612D01*
X169563270Y-87603620D01*
X169642458Y-87794796D01*
X169757424Y-87966857D01*
X169903742Y-88113175D01*
X169903745Y-88113177D01*
X170075802Y-88228141D01*
X170266980Y-88307330D01*
X170374893Y-88328795D01*
X170469930Y-88347699D01*
X170469934Y-88347700D01*
X170469935Y-88347700D01*
X170676866Y-88347700D01*
X170676867Y-88347699D01*
X170879820Y-88307330D01*
X171070998Y-88228141D01*
X171243055Y-88113177D01*
X171389377Y-87966855D01*
X171504341Y-87794798D01*
X171583530Y-87603620D01*
X171623900Y-87400665D01*
X171623900Y-87193735D01*
X171583530Y-86990780D01*
X171504341Y-86799602D01*
X171389377Y-86627545D01*
X171389375Y-86627542D01*
X171243057Y-86481224D01*
X171162573Y-86427447D01*
X172062900Y-86427447D01*
X172062900Y-88166952D01*
X172074531Y-88225429D01*
X172074532Y-88225430D01*
X172118847Y-88291752D01*
X172185169Y-88336067D01*
X172185170Y-88336068D01*
X172243647Y-88347699D01*
X172243650Y-88347700D01*
X172243652Y-88347700D01*
X173983150Y-88347700D01*
X173983151Y-88347699D01*
X173997968Y-88344752D01*
X174041629Y-88336068D01*
X174041629Y-88336067D01*
X174041631Y-88336067D01*
X174107952Y-88291752D01*
X174152267Y-88225431D01*
X174152267Y-88225429D01*
X174152268Y-88225429D01*
X174163899Y-88166952D01*
X174163900Y-88166950D01*
X174163900Y-86427449D01*
X174163899Y-86427447D01*
X174152268Y-86368970D01*
X174152267Y-86368969D01*
X174107952Y-86302647D01*
X174041630Y-86258332D01*
X174041629Y-86258331D01*
X173983152Y-86246700D01*
X173983148Y-86246700D01*
X172243652Y-86246700D01*
X172243647Y-86246700D01*
X172185170Y-86258331D01*
X172185169Y-86258332D01*
X172118847Y-86302647D01*
X172074532Y-86368969D01*
X172074531Y-86368970D01*
X172062900Y-86427447D01*
X171162573Y-86427447D01*
X171075055Y-86368970D01*
X171070998Y-86366259D01*
X170879820Y-86287070D01*
X170879812Y-86287068D01*
X170676869Y-86246700D01*
X170676865Y-86246700D01*
X170469935Y-86246700D01*
X170469930Y-86246700D01*
X170266987Y-86287068D01*
X170266979Y-86287070D01*
X170075803Y-86366258D01*
X169903742Y-86481224D01*
X169757424Y-86627542D01*
X169642458Y-86799603D01*
X169563270Y-86990779D01*
X169563268Y-86990787D01*
X169522900Y-87193730D01*
X165433900Y-87193730D01*
X165433900Y-87090804D01*
X165406981Y-86955477D01*
X165406980Y-86955476D01*
X165406980Y-86955472D01*
X165406978Y-86955467D01*
X165354178Y-86827995D01*
X165354171Y-86827982D01*
X165277514Y-86713258D01*
X165277511Y-86713254D01*
X165179945Y-86615688D01*
X165179941Y-86615685D01*
X165065217Y-86539028D01*
X165065204Y-86539021D01*
X164937732Y-86486221D01*
X164937722Y-86486218D01*
X164802395Y-86459300D01*
X164802393Y-86459300D01*
X164664407Y-86459300D01*
X164664405Y-86459300D01*
X164529077Y-86486218D01*
X164529067Y-86486221D01*
X164401595Y-86539021D01*
X164401582Y-86539028D01*
X164286858Y-86615685D01*
X164286854Y-86615688D01*
X164189288Y-86713254D01*
X164189285Y-86713258D01*
X164112628Y-86827982D01*
X164112621Y-86827995D01*
X164059821Y-86955467D01*
X164059818Y-86955478D01*
X164044046Y-87034767D01*
X164011660Y-87096678D01*
X163950944Y-87131252D01*
X163881175Y-87127511D01*
X163824503Y-87086644D01*
X163802655Y-87042669D01*
X163793088Y-87006964D01*
X163723905Y-86887135D01*
X163626065Y-86789295D01*
X163626064Y-86789294D01*
X163626061Y-86789292D01*
X163506238Y-86720113D01*
X163506237Y-86720112D01*
X163506236Y-86720112D01*
X163372583Y-86684300D01*
X163234217Y-86684300D01*
X163100564Y-86720112D01*
X163100561Y-86720113D01*
X162980738Y-86789292D01*
X162980733Y-86789296D01*
X162882896Y-86887133D01*
X162882892Y-86887138D01*
X162813713Y-87006961D01*
X162813712Y-87006964D01*
X162777900Y-87140617D01*
X158048900Y-87140617D01*
X158013088Y-87006964D01*
X157943905Y-86887135D01*
X157846065Y-86789295D01*
X157846064Y-86789294D01*
X157846061Y-86789292D01*
X157726238Y-86720113D01*
X157726237Y-86720112D01*
X157726236Y-86720112D01*
X157592583Y-86684300D01*
X157454217Y-86684300D01*
X157320564Y-86720112D01*
X157320561Y-86720113D01*
X157200738Y-86789292D01*
X157200733Y-86789296D01*
X157102896Y-86887133D01*
X157102892Y-86887138D01*
X157033713Y-87006961D01*
X157033710Y-87006968D01*
X157024144Y-87042670D01*
X156987779Y-87102330D01*
X156924932Y-87132858D01*
X156855556Y-87124563D01*
X156801679Y-87080077D01*
X156782753Y-87034766D01*
X156766981Y-86955479D01*
X156766981Y-86955477D01*
X156766980Y-86955472D01*
X156766978Y-86955467D01*
X156714178Y-86827995D01*
X156714171Y-86827982D01*
X156637514Y-86713258D01*
X156637511Y-86713254D01*
X156539945Y-86615688D01*
X156539941Y-86615685D01*
X156425217Y-86539028D01*
X156425204Y-86539021D01*
X156297732Y-86486221D01*
X156297722Y-86486218D01*
X156162395Y-86459300D01*
X156162393Y-86459300D01*
X156024407Y-86459300D01*
X156024405Y-86459300D01*
X155889077Y-86486218D01*
X155889067Y-86486221D01*
X155761595Y-86539021D01*
X155761582Y-86539028D01*
X155646858Y-86615685D01*
X155646854Y-86615688D01*
X155549288Y-86713254D01*
X155549285Y-86713258D01*
X155472628Y-86827982D01*
X155472621Y-86827995D01*
X155419821Y-86955467D01*
X155419818Y-86955477D01*
X155392900Y-87090804D01*
X155392900Y-87090807D01*
X155392900Y-88328793D01*
X155392900Y-88328795D01*
X155392899Y-88328795D01*
X151808503Y-88328795D01*
X151820700Y-88283275D01*
X151820700Y-88138325D01*
X151783184Y-87998315D01*
X151759384Y-87957093D01*
X151710711Y-87872788D01*
X151710706Y-87872782D01*
X151608217Y-87770293D01*
X151608211Y-87770288D01*
X151482687Y-87697817D01*
X151482686Y-87697816D01*
X151482685Y-87697816D01*
X151474318Y-87695574D01*
X151414659Y-87659210D01*
X151384130Y-87596363D01*
X151392425Y-87526988D01*
X151436910Y-87473110D01*
X151474317Y-87456026D01*
X151482685Y-87453784D01*
X151608215Y-87381309D01*
X151710709Y-87278815D01*
X151783184Y-87153285D01*
X151820700Y-87013275D01*
X151820700Y-86868325D01*
X151783184Y-86728315D01*
X151759384Y-86687093D01*
X151710711Y-86602788D01*
X151710706Y-86602782D01*
X151608217Y-86500293D01*
X151608211Y-86500288D01*
X151482688Y-86427817D01*
X151482689Y-86427817D01*
X151471206Y-86424740D01*
X151342675Y-86390300D01*
X151197725Y-86390300D01*
X151069193Y-86424740D01*
X151057711Y-86427817D01*
X150932188Y-86500288D01*
X150932182Y-86500293D01*
X150829693Y-86602782D01*
X150829688Y-86602788D01*
X150757217Y-86728311D01*
X150757216Y-86728315D01*
X150719700Y-86868325D01*
X114918500Y-86868325D01*
X114918500Y-85364930D01*
X115420900Y-85364930D01*
X115420900Y-85571869D01*
X115461268Y-85774812D01*
X115461270Y-85774820D01*
X115540458Y-85965996D01*
X115655424Y-86138057D01*
X115801742Y-86284375D01*
X115801745Y-86284377D01*
X115973802Y-86399341D01*
X116164980Y-86478530D01*
X116367930Y-86518899D01*
X116367934Y-86518900D01*
X116367935Y-86518900D01*
X116574866Y-86518900D01*
X116574867Y-86518899D01*
X116777820Y-86478530D01*
X116968998Y-86399341D01*
X117141055Y-86284377D01*
X117287377Y-86138055D01*
X117402341Y-85965998D01*
X117481530Y-85774820D01*
X117521900Y-85571865D01*
X117521900Y-85364935D01*
X117481530Y-85161980D01*
X117402341Y-84970802D01*
X117287377Y-84798745D01*
X117287375Y-84798742D01*
X117141057Y-84652424D01*
X117052877Y-84593505D01*
X116968998Y-84537459D01*
X116968993Y-84537457D01*
X116777820Y-84458270D01*
X116777812Y-84458268D01*
X116574869Y-84417900D01*
X116574865Y-84417900D01*
X116367935Y-84417900D01*
X116367930Y-84417900D01*
X116164987Y-84458268D01*
X116164979Y-84458270D01*
X115973803Y-84537458D01*
X115801742Y-84652424D01*
X115655424Y-84798742D01*
X115540458Y-84970803D01*
X115461270Y-85161979D01*
X115461268Y-85161987D01*
X115420900Y-85364930D01*
X114918500Y-85364930D01*
X114918500Y-82058647D01*
X115420900Y-82058647D01*
X115420900Y-83798152D01*
X115432531Y-83856629D01*
X115432532Y-83856630D01*
X115476847Y-83922952D01*
X115543169Y-83967267D01*
X115543170Y-83967268D01*
X115601647Y-83978899D01*
X115601650Y-83978900D01*
X115601652Y-83978900D01*
X117341150Y-83978900D01*
X117341151Y-83978899D01*
X117355968Y-83975952D01*
X117399629Y-83967268D01*
X117399629Y-83967267D01*
X117399631Y-83967267D01*
X117465952Y-83922952D01*
X117510267Y-83856631D01*
X117510267Y-83856629D01*
X117510268Y-83856629D01*
X117521899Y-83798152D01*
X117521900Y-83798150D01*
X117521900Y-83494448D01*
X117541585Y-83427409D01*
X117594389Y-83381654D01*
X117663547Y-83371710D01*
X117727103Y-83400735D01*
X117757338Y-83442664D01*
X117758094Y-83442279D01*
X117856775Y-83635950D01*
X117896128Y-83690116D01*
X118528437Y-83057808D01*
X118545475Y-83121393D01*
X118611301Y-83235407D01*
X118704393Y-83328499D01*
X118818407Y-83394325D01*
X118881990Y-83411362D01*
X118249682Y-84043669D01*
X118249682Y-84043670D01*
X118303849Y-84083024D01*
X118493182Y-84179495D01*
X118669373Y-84236743D01*
X118727048Y-84276180D01*
X118754247Y-84340539D01*
X118742332Y-84409385D01*
X118695088Y-84460861D01*
X118678508Y-84469235D01*
X118513803Y-84537457D01*
X118341742Y-84652424D01*
X118195424Y-84798742D01*
X118080458Y-84970803D01*
X118001270Y-85161979D01*
X118001268Y-85161987D01*
X117960900Y-85364930D01*
X117960900Y-85571869D01*
X118001268Y-85774812D01*
X118001270Y-85774820D01*
X118080458Y-85965996D01*
X118195424Y-86138057D01*
X118341742Y-86284375D01*
X118341745Y-86284377D01*
X118513802Y-86399341D01*
X118704980Y-86478530D01*
X118907930Y-86518899D01*
X118907934Y-86518900D01*
X118907935Y-86518900D01*
X119114866Y-86518900D01*
X119114867Y-86518899D01*
X119317820Y-86478530D01*
X119508998Y-86399341D01*
X119681055Y-86284377D01*
X119721433Y-86243999D01*
X145790100Y-86243999D01*
X145790100Y-86369201D01*
X145822505Y-86490136D01*
X145885105Y-86598564D01*
X145973636Y-86687095D01*
X146082064Y-86749695D01*
X146202999Y-86782100D01*
X146203001Y-86782100D01*
X146328199Y-86782100D01*
X146328201Y-86782100D01*
X146449136Y-86749695D01*
X146557564Y-86687095D01*
X146646095Y-86598564D01*
X146708695Y-86490136D01*
X146741100Y-86369201D01*
X146741100Y-86243999D01*
X146708695Y-86123064D01*
X146646095Y-86014636D01*
X146557564Y-85926105D01*
X146449136Y-85863505D01*
X146449137Y-85863505D01*
X146408824Y-85852703D01*
X146328201Y-85831100D01*
X146202999Y-85831100D01*
X146122375Y-85852703D01*
X146082063Y-85863505D01*
X145973637Y-85926104D01*
X145973634Y-85926106D01*
X145885106Y-86014634D01*
X145885104Y-86014637D01*
X145822505Y-86123063D01*
X145818487Y-86138058D01*
X145790100Y-86243999D01*
X119721433Y-86243999D01*
X119817243Y-86148190D01*
X119827374Y-86138058D01*
X119827375Y-86138057D01*
X119827377Y-86138055D01*
X119942341Y-85965998D01*
X120021530Y-85774820D01*
X120061900Y-85571865D01*
X120061900Y-85364935D01*
X120021530Y-85161980D01*
X119943665Y-84973999D01*
X145790100Y-84973999D01*
X145790100Y-85099201D01*
X145822505Y-85220136D01*
X145885105Y-85328564D01*
X145973636Y-85417095D01*
X146082064Y-85479695D01*
X146202999Y-85512100D01*
X146203001Y-85512100D01*
X146328199Y-85512100D01*
X146328201Y-85512100D01*
X146449136Y-85479695D01*
X146557564Y-85417095D01*
X146646095Y-85328564D01*
X146708695Y-85220136D01*
X146741100Y-85099201D01*
X146741100Y-84973999D01*
X146708695Y-84853064D01*
X146646095Y-84744636D01*
X146557564Y-84656105D01*
X146553450Y-84653730D01*
X169522900Y-84653730D01*
X169522900Y-84860669D01*
X169563268Y-85063612D01*
X169563270Y-85063620D01*
X169642458Y-85254796D01*
X169757424Y-85426857D01*
X169903742Y-85573175D01*
X169903745Y-85573177D01*
X170075802Y-85688141D01*
X170266980Y-85767330D01*
X170469930Y-85807699D01*
X170469934Y-85807700D01*
X170469935Y-85807700D01*
X170676866Y-85807700D01*
X170676867Y-85807699D01*
X170879820Y-85767330D01*
X171070998Y-85688141D01*
X171243055Y-85573177D01*
X171389377Y-85426855D01*
X171504341Y-85254798D01*
X171583530Y-85063620D01*
X171623900Y-84860665D01*
X171623900Y-84653735D01*
X171583530Y-84450780D01*
X171504341Y-84259602D01*
X171389377Y-84087545D01*
X171389375Y-84087542D01*
X171243057Y-83941224D01*
X171116453Y-83856631D01*
X171070998Y-83826259D01*
X171070993Y-83826257D01*
X170879820Y-83747070D01*
X170879812Y-83747068D01*
X170676869Y-83706700D01*
X170676865Y-83706700D01*
X170469935Y-83706700D01*
X170469930Y-83706700D01*
X170266987Y-83747068D01*
X170266979Y-83747070D01*
X170075803Y-83826258D01*
X169903742Y-83941224D01*
X169757424Y-84087542D01*
X169642458Y-84259603D01*
X169563270Y-84450779D01*
X169563268Y-84450787D01*
X169522900Y-84653730D01*
X146553450Y-84653730D01*
X146449136Y-84593505D01*
X146449137Y-84593505D01*
X146408824Y-84582703D01*
X146328201Y-84561100D01*
X146202999Y-84561100D01*
X146122375Y-84582703D01*
X146082063Y-84593505D01*
X145973637Y-84656104D01*
X145973634Y-84656106D01*
X145885106Y-84744634D01*
X145885104Y-84744637D01*
X145822505Y-84853063D01*
X145822505Y-84853064D01*
X145790100Y-84973999D01*
X119943665Y-84973999D01*
X119942341Y-84970802D01*
X119827377Y-84798745D01*
X119827375Y-84798742D01*
X119681057Y-84652424D01*
X119592877Y-84593505D01*
X119508998Y-84537459D01*
X119508993Y-84537457D01*
X119447291Y-84511899D01*
X119344290Y-84469234D01*
X119289888Y-84425394D01*
X119267823Y-84359100D01*
X119285102Y-84291401D01*
X119336239Y-84243790D01*
X119353426Y-84236743D01*
X119529617Y-84179495D01*
X119718954Y-84083022D01*
X119773116Y-84043670D01*
X119773117Y-84043670D01*
X119433445Y-83703999D01*
X145790100Y-83703999D01*
X145790100Y-83829201D01*
X145822505Y-83950136D01*
X145885105Y-84058564D01*
X145973636Y-84147095D01*
X146082064Y-84209695D01*
X146202999Y-84242100D01*
X146203001Y-84242100D01*
X146328199Y-84242100D01*
X146328201Y-84242100D01*
X146449136Y-84209695D01*
X146557564Y-84147095D01*
X146646095Y-84058564D01*
X146680602Y-83998795D01*
X155392899Y-83998795D01*
X155419818Y-84134122D01*
X155419821Y-84134132D01*
X155472621Y-84261604D01*
X155472628Y-84261617D01*
X155549285Y-84376341D01*
X155549288Y-84376345D01*
X155646854Y-84473911D01*
X155646858Y-84473914D01*
X155761582Y-84550571D01*
X155761595Y-84550578D01*
X155889067Y-84603378D01*
X155889072Y-84603380D01*
X155889076Y-84603380D01*
X155889077Y-84603381D01*
X156024404Y-84630300D01*
X156024407Y-84630300D01*
X156162395Y-84630300D01*
X156253441Y-84612189D01*
X156297728Y-84603380D01*
X156425211Y-84550575D01*
X156539942Y-84473914D01*
X156637514Y-84376342D01*
X156714175Y-84261611D01*
X156766980Y-84134128D01*
X156782011Y-84058562D01*
X156793900Y-83998795D01*
X164032899Y-83998795D01*
X164059818Y-84134122D01*
X164059821Y-84134132D01*
X164112621Y-84261604D01*
X164112628Y-84261617D01*
X164189285Y-84376341D01*
X164189288Y-84376345D01*
X164286854Y-84473911D01*
X164286858Y-84473914D01*
X164401582Y-84550571D01*
X164401595Y-84550578D01*
X164529067Y-84603378D01*
X164529072Y-84603380D01*
X164529076Y-84603380D01*
X164529077Y-84603381D01*
X164664404Y-84630300D01*
X164664407Y-84630300D01*
X164802395Y-84630300D01*
X164893441Y-84612189D01*
X164937728Y-84603380D01*
X165065211Y-84550575D01*
X165068155Y-84548607D01*
X165074241Y-84544542D01*
X165074242Y-84544541D01*
X165109662Y-84520873D01*
X165179942Y-84473914D01*
X165277514Y-84376342D01*
X165354175Y-84261611D01*
X165406980Y-84134128D01*
X165422011Y-84058562D01*
X165433900Y-83998795D01*
X165433900Y-83060804D01*
X165406981Y-82925477D01*
X165406980Y-82925476D01*
X165406980Y-82925472D01*
X165406681Y-82924750D01*
X165354178Y-82797995D01*
X165354171Y-82797982D01*
X165277514Y-82683258D01*
X165277511Y-82683254D01*
X165179945Y-82585688D01*
X165179941Y-82585685D01*
X165065217Y-82509028D01*
X165065204Y-82509021D01*
X164937732Y-82456221D01*
X164937722Y-82456218D01*
X164802395Y-82429300D01*
X164802393Y-82429300D01*
X164664407Y-82429300D01*
X164664405Y-82429300D01*
X164529077Y-82456218D01*
X164529067Y-82456221D01*
X164401595Y-82509021D01*
X164401582Y-82509028D01*
X164286858Y-82585685D01*
X164286854Y-82585688D01*
X164189288Y-82683254D01*
X164189285Y-82683258D01*
X164112628Y-82797982D01*
X164112621Y-82797995D01*
X164059821Y-82925467D01*
X164059818Y-82925477D01*
X164032900Y-83060804D01*
X164032900Y-83060807D01*
X164032900Y-83998793D01*
X164032900Y-83998795D01*
X164032899Y-83998795D01*
X156793900Y-83998795D01*
X156793900Y-83060804D01*
X156766981Y-82925477D01*
X156766980Y-82925476D01*
X156766980Y-82925472D01*
X156766681Y-82924750D01*
X156714178Y-82797995D01*
X156714171Y-82797982D01*
X156637514Y-82683258D01*
X156637511Y-82683254D01*
X156539945Y-82585688D01*
X156539941Y-82585685D01*
X156425217Y-82509028D01*
X156425204Y-82509021D01*
X156297732Y-82456221D01*
X156297722Y-82456218D01*
X156162395Y-82429300D01*
X156162393Y-82429300D01*
X156024407Y-82429300D01*
X156024405Y-82429300D01*
X155889077Y-82456218D01*
X155889067Y-82456221D01*
X155761595Y-82509021D01*
X155761582Y-82509028D01*
X155646858Y-82585685D01*
X155646854Y-82585688D01*
X155549288Y-82683254D01*
X155549285Y-82683258D01*
X155472628Y-82797982D01*
X155472621Y-82797995D01*
X155419821Y-82925467D01*
X155419818Y-82925477D01*
X155392900Y-83060804D01*
X155392900Y-83060807D01*
X155392900Y-83998793D01*
X155392900Y-83998795D01*
X155392899Y-83998795D01*
X146680602Y-83998795D01*
X146708695Y-83950136D01*
X146741100Y-83829201D01*
X146741100Y-83703999D01*
X146708695Y-83583064D01*
X146646095Y-83474636D01*
X146557564Y-83386105D01*
X146449136Y-83323505D01*
X146449137Y-83323505D01*
X146408824Y-83312703D01*
X146328201Y-83291100D01*
X146202999Y-83291100D01*
X146122375Y-83312703D01*
X146082063Y-83323505D01*
X145973637Y-83386104D01*
X145973634Y-83386106D01*
X145885106Y-83474634D01*
X145885104Y-83474637D01*
X145822505Y-83583063D01*
X145822505Y-83583064D01*
X145790100Y-83703999D01*
X119433445Y-83703999D01*
X119140808Y-83411362D01*
X119204393Y-83394325D01*
X119318407Y-83328499D01*
X119411499Y-83235407D01*
X119477325Y-83121393D01*
X119494362Y-83057808D01*
X120126670Y-83690117D01*
X120126670Y-83690116D01*
X120166021Y-83635955D01*
X120262495Y-83446617D01*
X120328157Y-83244530D01*
X120328157Y-83244527D01*
X120361400Y-83034646D01*
X120361400Y-82822153D01*
X120328157Y-82612272D01*
X120328157Y-82612269D01*
X120280043Y-82464189D01*
X120270234Y-82433999D01*
X145790100Y-82433999D01*
X145790100Y-82559201D01*
X145822505Y-82680136D01*
X145885105Y-82788564D01*
X145973636Y-82877095D01*
X146082064Y-82939695D01*
X146202999Y-82972100D01*
X146203001Y-82972100D01*
X146328199Y-82972100D01*
X146328201Y-82972100D01*
X146449136Y-82939695D01*
X146557564Y-82877095D01*
X146646095Y-82788564D01*
X146708695Y-82680136D01*
X146741100Y-82559201D01*
X146741100Y-82433999D01*
X146708695Y-82313064D01*
X146646095Y-82204636D01*
X146557564Y-82116105D01*
X146449136Y-82053505D01*
X146449137Y-82053505D01*
X146408824Y-82042703D01*
X146328201Y-82021100D01*
X146202999Y-82021100D01*
X146122375Y-82042703D01*
X146082063Y-82053505D01*
X145973637Y-82116104D01*
X145973634Y-82116106D01*
X145885106Y-82204634D01*
X145885104Y-82204637D01*
X145822505Y-82313063D01*
X145822505Y-82313064D01*
X145790100Y-82433999D01*
X120270234Y-82433999D01*
X120262495Y-82410182D01*
X120166024Y-82220849D01*
X120126670Y-82166682D01*
X120126669Y-82166682D01*
X119494362Y-82798990D01*
X119477325Y-82735407D01*
X119411499Y-82621393D01*
X119318407Y-82528301D01*
X119204393Y-82462475D01*
X119140809Y-82445437D01*
X119773116Y-81813128D01*
X119718950Y-81773775D01*
X119529617Y-81677304D01*
X119327529Y-81611642D01*
X119117646Y-81578400D01*
X118905154Y-81578400D01*
X118695272Y-81611642D01*
X118695269Y-81611642D01*
X118493182Y-81677304D01*
X118303839Y-81773780D01*
X118249682Y-81813127D01*
X118249682Y-81813128D01*
X118881991Y-82445437D01*
X118818407Y-82462475D01*
X118704393Y-82528301D01*
X118611301Y-82621393D01*
X118545475Y-82735407D01*
X118528437Y-82798991D01*
X117896128Y-82166682D01*
X117896127Y-82166682D01*
X117856780Y-82220839D01*
X117758094Y-82414521D01*
X117757078Y-82414003D01*
X117716612Y-82464213D01*
X117650316Y-82486272D01*
X117582618Y-82468988D01*
X117535012Y-82417847D01*
X117521900Y-82362351D01*
X117521900Y-82058649D01*
X117521899Y-82058647D01*
X117510268Y-82000170D01*
X117510267Y-82000169D01*
X117465952Y-81933847D01*
X117399630Y-81889532D01*
X117399629Y-81889531D01*
X117341152Y-81877900D01*
X117341148Y-81877900D01*
X115601652Y-81877900D01*
X115601647Y-81877900D01*
X115543170Y-81889531D01*
X115543169Y-81889532D01*
X115476847Y-81933847D01*
X115432532Y-82000169D01*
X115432531Y-82000170D01*
X115420900Y-82058647D01*
X114918500Y-82058647D01*
X114918500Y-80839100D01*
X114938185Y-80772061D01*
X114990989Y-80726306D01*
X115042500Y-80715100D01*
X124657789Y-80715100D01*
X124724828Y-80734785D01*
G37*
%TD.AperFunction*%
%TD*%
M02*
