%TF.GenerationSoftware,KiCad,Pcbnew,10.0.4-10.0.4~ubuntu25.10.1*%
%TF.CreationDate,Date%
%TF.ProjectId,CanSat_Devboard,43616e53-6174-45f4-9465-76626f617264,+ (Unreleased)*%
%TF.SameCoordinates,Original*%
%TF.FileFunction,Legend,Bot*%
%TF.FilePolarity,Positive*%
%FSLAX46Y46*%
G04 Gerber Fmt 4.6, Leading zero omitted, Abs format (unit mm)*
G04 Created by KiCad*
%MOMM*%
%LPD*%
G01*
G04 APERTURE LIST*
G04 Aperture macros list*
%AMRoundRect*
0 Rectangle with rounded corners*
0 $1 Rounding radius*
0 $2 $3 $4 $5 $6 $7 $8 $9 X,Y pos of 4 corners*
0 Add a 4 corners polygon primitive as box body*
4,1,4,$2,$3,$4,$5,$6,$7,$8,$9,$2,$3,0*
0 Add four circle primitives for the rounded corners*
1,1,$1+$1,$2,$3*
1,1,$1+$1,$4,$5*
1,1,$1+$1,$6,$7*
1,1,$1+$1,$8,$9*
0 Add four rect primitives between the rounded corners*
20,1,$1+$1,$2,$3,$4,$5,0*
20,1,$1+$1,$4,$5,$6,$7,0*
20,1,$1+$1,$6,$7,$8,$9,0*
20,1,$1+$1,$8,$9,$2,$3,0*%
G04 Aperture macros list end*
%ADD10C,0.150000*%
%ADD11C,0.120000*%
%ADD12RoundRect,0.050000X-0.850000X-0.850000X0.850000X-0.850000X0.850000X0.850000X-0.850000X0.850000X0*%
%ADD13C,1.800000*%
%ADD14C,0.001000*%
%ADD15O,1.100000X2.200000*%
%ADD16O,1.100000X1.900000*%
%ADD17RoundRect,0.300000X-0.600000X-0.725000X0.600000X-0.725000X0.600000X0.725000X-0.600000X0.725000X0*%
%ADD18O,1.800000X2.050000*%
%ADD19RoundRect,0.050000X0.850000X0.850000X-0.850000X0.850000X-0.850000X-0.850000X0.850000X-0.850000X0*%
%ADD20RoundRect,0.275000X0.225000X0.250000X-0.225000X0.250000X-0.225000X-0.250000X0.225000X-0.250000X0*%
%ADD21RoundRect,0.250000X0.200000X0.275000X-0.200000X0.275000X-0.200000X-0.275000X0.200000X-0.275000X0*%
G04 APERTURE END LIST*
D10*
X177045266Y-102041580D02*
X177092885Y-102089200D01*
X177092885Y-102089200D02*
X177235742Y-102136819D01*
X177235742Y-102136819D02*
X177330980Y-102136819D01*
X177330980Y-102136819D02*
X177473837Y-102089200D01*
X177473837Y-102089200D02*
X177569075Y-101993961D01*
X177569075Y-101993961D02*
X177616694Y-101898723D01*
X177616694Y-101898723D02*
X177664313Y-101708247D01*
X177664313Y-101708247D02*
X177664313Y-101565390D01*
X177664313Y-101565390D02*
X177616694Y-101374914D01*
X177616694Y-101374914D02*
X177569075Y-101279676D01*
X177569075Y-101279676D02*
X177473837Y-101184438D01*
X177473837Y-101184438D02*
X177330980Y-101136819D01*
X177330980Y-101136819D02*
X177235742Y-101136819D01*
X177235742Y-101136819D02*
X177092885Y-101184438D01*
X177092885Y-101184438D02*
X177045266Y-101232057D01*
X176711932Y-101136819D02*
X176092885Y-101136819D01*
X176092885Y-101136819D02*
X176426218Y-101517771D01*
X176426218Y-101517771D02*
X176283361Y-101517771D01*
X176283361Y-101517771D02*
X176188123Y-101565390D01*
X176188123Y-101565390D02*
X176140504Y-101613009D01*
X176140504Y-101613009D02*
X176092885Y-101708247D01*
X176092885Y-101708247D02*
X176092885Y-101946342D01*
X176092885Y-101946342D02*
X176140504Y-102041580D01*
X176140504Y-102041580D02*
X176188123Y-102089200D01*
X176188123Y-102089200D02*
X176283361Y-102136819D01*
X176283361Y-102136819D02*
X176569075Y-102136819D01*
X176569075Y-102136819D02*
X176664313Y-102089200D01*
X176664313Y-102089200D02*
X176711932Y-102041580D01*
X176969066Y-97615619D02*
X177302399Y-97139428D01*
X177540494Y-97615619D02*
X177540494Y-96615619D01*
X177540494Y-96615619D02*
X177159542Y-96615619D01*
X177159542Y-96615619D02*
X177064304Y-96663238D01*
X177064304Y-96663238D02*
X177016685Y-96710857D01*
X177016685Y-96710857D02*
X176969066Y-96806095D01*
X176969066Y-96806095D02*
X176969066Y-96948952D01*
X176969066Y-96948952D02*
X177016685Y-97044190D01*
X177016685Y-97044190D02*
X177064304Y-97091809D01*
X177064304Y-97091809D02*
X177159542Y-97139428D01*
X177159542Y-97139428D02*
X177540494Y-97139428D01*
X176635732Y-96615619D02*
X176016685Y-96615619D01*
X176016685Y-96615619D02*
X176350018Y-96996571D01*
X176350018Y-96996571D02*
X176207161Y-96996571D01*
X176207161Y-96996571D02*
X176111923Y-97044190D01*
X176111923Y-97044190D02*
X176064304Y-97091809D01*
X176064304Y-97091809D02*
X176016685Y-97187047D01*
X176016685Y-97187047D02*
X176016685Y-97425142D01*
X176016685Y-97425142D02*
X176064304Y-97520380D01*
X176064304Y-97520380D02*
X176111923Y-97568000D01*
X176111923Y-97568000D02*
X176207161Y-97615619D01*
X176207161Y-97615619D02*
X176492875Y-97615619D01*
X176492875Y-97615619D02*
X176588113Y-97568000D01*
X176588113Y-97568000D02*
X176635732Y-97520380D01*
X176968066Y-99190419D02*
X177301399Y-98714228D01*
X177539494Y-99190419D02*
X177539494Y-98190419D01*
X177539494Y-98190419D02*
X177158542Y-98190419D01*
X177158542Y-98190419D02*
X177063304Y-98238038D01*
X177063304Y-98238038D02*
X177015685Y-98285657D01*
X177015685Y-98285657D02*
X176968066Y-98380895D01*
X176968066Y-98380895D02*
X176968066Y-98523752D01*
X176968066Y-98523752D02*
X177015685Y-98618990D01*
X177015685Y-98618990D02*
X177063304Y-98666609D01*
X177063304Y-98666609D02*
X177158542Y-98714228D01*
X177158542Y-98714228D02*
X177539494Y-98714228D01*
X176587113Y-98285657D02*
X176539494Y-98238038D01*
X176539494Y-98238038D02*
X176444256Y-98190419D01*
X176444256Y-98190419D02*
X176206161Y-98190419D01*
X176206161Y-98190419D02*
X176110923Y-98238038D01*
X176110923Y-98238038D02*
X176063304Y-98285657D01*
X176063304Y-98285657D02*
X176015685Y-98380895D01*
X176015685Y-98380895D02*
X176015685Y-98476133D01*
X176015685Y-98476133D02*
X176063304Y-98618990D01*
X176063304Y-98618990D02*
X176634732Y-99190419D01*
X176634732Y-99190419D02*
X176015685Y-99190419D01*
X176931466Y-103635419D02*
X177264799Y-103159228D01*
X177502894Y-103635419D02*
X177502894Y-102635419D01*
X177502894Y-102635419D02*
X177121942Y-102635419D01*
X177121942Y-102635419D02*
X177026704Y-102683038D01*
X177026704Y-102683038D02*
X176979085Y-102730657D01*
X176979085Y-102730657D02*
X176931466Y-102825895D01*
X176931466Y-102825895D02*
X176931466Y-102968752D01*
X176931466Y-102968752D02*
X176979085Y-103063990D01*
X176979085Y-103063990D02*
X177026704Y-103111609D01*
X177026704Y-103111609D02*
X177121942Y-103159228D01*
X177121942Y-103159228D02*
X177502894Y-103159228D01*
X175979085Y-103635419D02*
X176550513Y-103635419D01*
X176264799Y-103635419D02*
X176264799Y-102635419D01*
X176264799Y-102635419D02*
X176360037Y-102778276D01*
X176360037Y-102778276D02*
X176455275Y-102873514D01*
X176455275Y-102873514D02*
X176550513Y-102921133D01*
X176994466Y-100542980D02*
X177042085Y-100590600D01*
X177042085Y-100590600D02*
X177184942Y-100638219D01*
X177184942Y-100638219D02*
X177280180Y-100638219D01*
X177280180Y-100638219D02*
X177423037Y-100590600D01*
X177423037Y-100590600D02*
X177518275Y-100495361D01*
X177518275Y-100495361D02*
X177565894Y-100400123D01*
X177565894Y-100400123D02*
X177613513Y-100209647D01*
X177613513Y-100209647D02*
X177613513Y-100066790D01*
X177613513Y-100066790D02*
X177565894Y-99876314D01*
X177565894Y-99876314D02*
X177518275Y-99781076D01*
X177518275Y-99781076D02*
X177423037Y-99685838D01*
X177423037Y-99685838D02*
X177280180Y-99638219D01*
X177280180Y-99638219D02*
X177184942Y-99638219D01*
X177184942Y-99638219D02*
X177042085Y-99685838D01*
X177042085Y-99685838D02*
X176994466Y-99733457D01*
X176137323Y-99971552D02*
X176137323Y-100638219D01*
X176375418Y-99590600D02*
X176613513Y-100304885D01*
X176613513Y-100304885D02*
X175994466Y-100304885D01*
%TO.C,C3*%
D11*
X179330580Y-101235000D02*
X179049420Y-101235000D01*
X179330580Y-102255000D02*
X179049420Y-102255000D01*
%TO.C,R3*%
X179427258Y-96650500D02*
X178952742Y-96650500D01*
X179427258Y-97695500D02*
X178952742Y-97695500D01*
%TO.C,R2*%
X179414058Y-98174500D02*
X178939542Y-98174500D01*
X179414058Y-99219500D02*
X178939542Y-99219500D01*
%TO.C,R1*%
X179427258Y-102746500D02*
X178952742Y-102746500D01*
X179427258Y-103791500D02*
X178952742Y-103791500D01*
%TO.C,C4*%
X179330580Y-99711000D02*
X179049420Y-99711000D01*
X179330580Y-100731000D02*
X179049420Y-100731000D01*
%TD*%
%LPC*%
D12*
%TO.C,J8*%
X118782800Y-79855000D03*
D13*
X121322800Y-79855000D03*
X118782800Y-82395000D03*
X121322800Y-82395000D03*
X118782800Y-84935000D03*
X121322800Y-84935000D03*
X118782800Y-87475000D03*
X121322800Y-87475000D03*
X118782800Y-90015000D03*
X121322800Y-90015000D03*
X118782800Y-92555000D03*
X121322800Y-92555000D03*
X118782800Y-95095000D03*
X121322800Y-95095000D03*
%TD*%
D14*
%TO.C,J4*%
X165614800Y-84136400D03*
X159834800Y-84136400D03*
D15*
X167044800Y-84636400D03*
D16*
X167044800Y-80456400D03*
D15*
X158404800Y-84636400D03*
D16*
X158404800Y-80456400D03*
%TD*%
D17*
%TO.C,J3*%
X126493600Y-115423400D03*
D18*
X128993600Y-115423400D03*
X131493600Y-115423400D03*
%TD*%
D12*
%TO.C,J1*%
X118808200Y-98651000D03*
D13*
X118808200Y-101191000D03*
X118808200Y-103731000D03*
X118808200Y-106271000D03*
%TD*%
D12*
%TO.C,J7*%
X122618200Y-98676400D03*
D13*
X122618200Y-101216400D03*
%TD*%
D19*
%TO.C,J6*%
X175424800Y-84223800D03*
D13*
X172884800Y-84223800D03*
X175424800Y-81683800D03*
X172884800Y-81683800D03*
X175424800Y-79143800D03*
X172884800Y-79143800D03*
%TD*%
D20*
%TO.C,C3*%
X179965000Y-101745000D03*
X178415000Y-101745000D03*
%TD*%
D21*
%TO.C,R3*%
X180015000Y-97173000D03*
X178365000Y-97173000D03*
%TD*%
%TO.C,R2*%
X180001800Y-98697000D03*
X178351800Y-98697000D03*
%TD*%
%TO.C,R1*%
X180015000Y-103269000D03*
X178365000Y-103269000D03*
%TD*%
D20*
%TO.C,C4*%
X179965000Y-100221000D03*
X178415000Y-100221000D03*
%TD*%
%LPD*%
M02*
