%TF.GenerationSoftware,KiCad,Pcbnew,10.0.4-10.0.4~ubuntu25.10.1*%
%TF.CreationDate,Date%
%TF.ProjectId,CanSat_Devboard,43616e53-6174-45f4-9465-76626f617264,+ (Unreleased)*%
%TF.SameCoordinates,Original*%
%TF.FileFunction,Soldermask,Bot*%
%TF.FilePolarity,Negative*%
%FSLAX46Y46*%
G04 Gerber Fmt 4.6, Leading zero omitted, Abs format (unit mm)*
G04 Created by KiCad*
%MOMM*%
%LPD*%
G01*
G04 APERTURE LIST*
G04 Aperture macros list*
%AMRoundRect*
0 Rectangle with rounded corners*
0 $1 Rounding radius*
0 $2 $3 $4 $5 $6 $7 $8 $9 X,Y pos of 4 corners*
0 Add a 4 corners polygon primitive as box body*
4,1,4,$2,$3,$4,$5,$6,$7,$8,$9,$2,$3,0*
0 Add four circle primitives for the rounded corners*
1,1,$1+$1,$2,$3*
1,1,$1+$1,$4,$5*
1,1,$1+$1,$6,$7*
1,1,$1+$1,$8,$9*
0 Add four rect primitives between the rounded corners*
20,1,$1+$1,$2,$3,$4,$5,0*
20,1,$1+$1,$4,$5,$6,$7,0*
20,1,$1+$1,$6,$7,$8,$9,0*
20,1,$1+$1,$8,$9,$2,$3,0*%
G04 Aperture macros list end*
%ADD10RoundRect,0.050000X-0.850000X-0.850000X0.850000X-0.850000X0.850000X0.850000X-0.850000X0.850000X0*%
%ADD11C,1.800000*%
%ADD12C,0.001000*%
%ADD13O,1.100000X2.200000*%
%ADD14O,1.100000X1.900000*%
%ADD15RoundRect,0.300000X-0.600000X-0.725000X0.600000X-0.725000X0.600000X0.725000X-0.600000X0.725000X0*%
%ADD16O,1.800000X2.050000*%
%ADD17RoundRect,0.050000X0.850000X0.850000X-0.850000X0.850000X-0.850000X-0.850000X0.850000X-0.850000X0*%
%ADD18RoundRect,0.275000X0.225000X0.250000X-0.225000X0.250000X-0.225000X-0.250000X0.225000X-0.250000X0*%
%ADD19RoundRect,0.250000X0.200000X0.275000X-0.200000X0.275000X-0.200000X-0.275000X0.200000X-0.275000X0*%
G04 APERTURE END LIST*
D10*
%TO.C,J8*%
X116471400Y-82928400D03*
D11*
X119011400Y-82928400D03*
X116471400Y-85468400D03*
X119011400Y-85468400D03*
X116471400Y-88008400D03*
X119011400Y-88008400D03*
X116471400Y-90548400D03*
X119011400Y-90548400D03*
X116471400Y-93088400D03*
X119011400Y-93088400D03*
X116471400Y-95628400D03*
X119011400Y-95628400D03*
X116471400Y-98168400D03*
X119011400Y-98168400D03*
%TD*%
D12*
%TO.C,J4*%
X163303400Y-87209800D03*
X157523400Y-87209800D03*
D13*
X164733400Y-87709800D03*
D14*
X164733400Y-83529800D03*
D13*
X156093400Y-87709800D03*
D14*
X156093400Y-83529800D03*
%TD*%
D15*
%TO.C,J3*%
X124182200Y-118496800D03*
D16*
X126682200Y-118496800D03*
X129182200Y-118496800D03*
%TD*%
D10*
%TO.C,J1*%
X116496800Y-101724400D03*
D11*
X116496800Y-104264400D03*
X116496800Y-106804400D03*
X116496800Y-109344400D03*
%TD*%
D10*
%TO.C,J7*%
X120306800Y-101749800D03*
D11*
X120306800Y-104289800D03*
%TD*%
D17*
%TO.C,J6*%
X173113400Y-87297200D03*
D11*
X170573400Y-87297200D03*
X173113400Y-84757200D03*
X170573400Y-84757200D03*
X173113400Y-82217200D03*
X170573400Y-82217200D03*
%TD*%
D18*
%TO.C,C3*%
X177653600Y-104818400D03*
X176103600Y-104818400D03*
%TD*%
D19*
%TO.C,R3*%
X177703600Y-100246400D03*
X176053600Y-100246400D03*
%TD*%
%TO.C,R2*%
X177690400Y-101770400D03*
X176040400Y-101770400D03*
%TD*%
%TO.C,R1*%
X177703600Y-106342400D03*
X176053600Y-106342400D03*
%TD*%
D18*
%TO.C,C4*%
X177653600Y-103294400D03*
X176103600Y-103294400D03*
%TD*%
M02*
